<svg width="247" height="60" viewBox="0 0 247 60" fill="none" xmlns="http://www.w3.org/2000/svg">
<path d="M142.902 22.6593C145.11 16.8333 139.727 12.0126 126.54 12.0126H97.96L87.252 40.5053L93.468 47.514H113.799C127.121 47.514 137.442 43.4306 140.095 36.3326C141.431 32.6953 139.882 30.1513 136.396 28.8793V28.79C139.689 27.3957 142.026 25.1934 142.902 22.6593ZM125.475 36.104C124.933 37.592 123.403 39.1186 117.072 39.1186H104.098L106.364 33.0133H119.279C125.533 33 125.998 34.5646 125.398 36.104H125.475ZM128.07 22.85C127.605 23.9946 126.269 25.394 120.809 25.394H109.191L111.127 20.4333H122.745C128.264 20.408 128.535 21.578 128.07 22.85ZM160.891 33.7633H186.915L189.878 25.3686H164.028L166.041 20.408H191.64L194.602 12.0126H152.584L139.262 47.5013H186.857L189.975 39.106H158.974L160.891 33.7633ZM198.243 12.0126L195.261 20.408H210.81L200.606 47.5013H216.929L227.153 20.408H243.805L247 12.012H198.243V12.0126Z" fill="#14A0FF"/>
<path d="M17.079 47.5013H0.619L7.745 28.548L9.391 25.6866L5.034 28.5486L0.194 31.7666L0 22.3026L17.079 12.0133H30.38L17.08 47.5013H17.079Z" fill="#002F5E"/>
<path d="M76.504 32.7966L71.257 26.9586L96.72 12.012H73L63.318 18.1186L30.478 37.8973L14.716 47.5013H37.158L54.024 37.618L59.697 43.978C61.633 45.5806 64.364 47.5266 75.943 47.5266H89.497L76.524 32.784L76.504 32.7973V32.7966ZM61.498 16.1593V16.0826C60.0385 14.7473 58.1005 13.6769 55.861 12.9693C53.6098 12.2577 51.1293 11.929 48.641 12.0126H31.117L44.187 26.6153L61.498 16.1593Z" fill="#002F5E"/>
</svg>
