<svg width="17" height="20" viewBox="0 0 17 20" fill="none" xmlns="http://www.w3.org/2000/svg">
<path fill-rule="evenodd" clip-rule="evenodd" d="M15.807 17.8395C15.807 18.4181 15.3016 18.8889 14.6803 18.8889H2.3197C1.69847 18.8889 1.193 18.4181 1.193 17.8396V2.16055C1.193 1.58195 1.69847 1.11113 2.3197 1.11113H14.6803C15.3015 1.11115 15.807 1.58193 15.807 2.16051V13.8889C15.807 14.1957 16.0741 14.4445 16.4035 14.4445C16.7328 14.4445 17 14.1957 17 13.8889V2.16051C17 0.96918 15.9594 0 14.6803 0H2.3197C1.04059 0 4.19407e-05 0.96918 0 2.16051V17.8395C4.51201e-05 19.0308 1.04062 20 2.3197 20H14.6803C15.9594 20 17 19.0308 17 17.8395V16.6667C17 16.3598 16.7329 16.1111 16.4035 16.1111C16.0742 16.1111 15.807 16.3598 15.807 16.6667V17.8395Z" fill="#BCBCBC"/>
<path fill-rule="evenodd" clip-rule="evenodd" d="M12.5607 6.52795V4.58353H4.43932V6.52795H12.5607ZM3.78775 7.77795H13.2123C13.5747 7.77795 13.8684 7.50435 13.8684 7.16685V3.94463C13.8684 3.60713 13.5747 3.33353 13.2123 3.33353H3.78775C3.42538 3.33353 3.13163 3.60713 3.13163 3.94463V7.16685C3.13163 7.50435 3.42538 7.77795 3.78775 7.77795Z" fill="#BCBCBC"/>
<path fill-rule="evenodd" clip-rule="evenodd" d="M12.2702 12.4119C12.3835 12.5072 12.5265 12.5547 12.6695 12.5547C12.8222 12.5547 12.9749 12.5005 13.0914 12.392C13.3243 12.1751 13.3243 11.8233 13.0914 11.6063L11.0952 9.74716C11.0878 9.74031 11.0803 9.73368 11.0727 9.72726C10.8384 9.5304 10.4771 9.53706 10.2515 9.74716C10.0186 9.96412 10.0186 10.3159 10.2515 10.5328L12.2477 12.392C12.2551 12.3989 12.2626 12.4055 12.2702 12.4119ZM12.6909 11.9992L12.6695 12.0202L12.6909 11.9992ZM12.6909 11.9992L12.6695 12.0202L12.6909 11.9992Z" fill="#BCBCBC"/>
<path fill-rule="evenodd" clip-rule="evenodd" d="M12.2478 9.7472C12.2551 9.74036 12.2626 9.73373 12.2703 9.72732C12.5046 9.53048 12.8658 9.53717 13.0914 9.7472C13.3243 9.96416 13.3243 10.3159 13.0914 10.5329L11.0952 12.392C11.0878 12.3989 11.0803 12.4055 11.0727 12.4119C10.9594 12.5071 10.8163 12.5548 10.6734 12.5548C10.5207 12.5548 10.3681 12.5006 10.2516 12.392C10.0186 12.1751 10.0186 11.8233 10.2516 11.6064L12.2478 9.7472Z" fill="#BCBCBC"/>
<path fill-rule="evenodd" clip-rule="evenodd" d="M3.91703 15.326C3.58767 15.326 3.32055 15.5747 3.32055 15.8815C3.32055 16.1884 3.58763 16.4371 3.91703 16.4371H6.74006C7.06951 16.4371 7.33654 16.1884 7.33654 15.8815C7.33654 15.5747 7.06946 15.326 6.74006 15.326H3.91703Z" fill="#BCBCBC"/>
<path fill-rule="evenodd" clip-rule="evenodd" d="M4.73212 14.5672C4.73212 14.2604 4.99924 14.0117 5.3286 14.0117C5.65797 14.0117 5.92509 14.2604 5.92509 14.5672V17.1965C5.92509 17.5033 5.65797 17.7521 5.3286 17.7521C4.9992 17.7521 4.73212 17.5034 4.73212 17.1965V14.5672Z" fill="#BCBCBC"/>
<path fill-rule="evenodd" clip-rule="evenodd" d="M3.91703 10.5141C3.58767 10.5141 3.32055 10.7628 3.32055 11.0696C3.32055 11.3765 3.58763 11.6252 3.91703 11.6252H6.74006C7.06951 11.6252 7.33654 11.3765 7.33654 11.0696C7.33654 10.7628 7.06946 10.5141 6.74006 10.5141H3.91703Z" fill="#BCBCBC"/>
<path fill-rule="evenodd" clip-rule="evenodd" d="M10.2599 14.4927C9.93059 14.4927 9.66347 14.7415 9.66347 15.0483C9.66347 15.3551 9.93054 15.6038 10.2599 15.6038H13.083C13.4124 15.6038 13.6795 15.3551 13.6795 15.0483C13.6795 14.7415 13.4124 14.4927 13.083 14.4927H10.2599Z" fill="#BCBCBC"/>
<path fill-rule="evenodd" clip-rule="evenodd" d="M10.2599 16.1595C9.93059 16.1595 9.66347 16.4082 9.66347 16.7151C9.66347 17.0219 9.93054 17.2706 10.2599 17.2706H13.083C13.4124 17.2706 13.6795 17.0219 13.6795 16.7151C13.6795 16.4082 13.4124 16.1595 13.083 16.1595H10.2599Z" fill="#BCBCBC"/>
</svg>
