<svg width="254" height="60" viewBox="0 0 254 60" fill="none" xmlns="http://www.w3.org/2000/svg">
<g clip-path="url(#clip0_15_116)">
<path d="M5.76889 0.926597C5.82914 0.663373 5.97687 0.428391 6.18792 0.260076C6.39897 0.0917601 6.66086 7.05451e-05 6.93075 3.0541e-09H16.9964C23.3941 3.0541e-09 27.6114 3.27455 26.5569 10.0795C25.6481 15.6836 21.6129 19.177 16.0515 19.177H11.5156L9.86341 26.5066C9.80387 26.7707 9.65629 27.0067 9.44493 27.1758C9.23356 27.3449 8.97099 27.4371 8.70036 27.4371H1.19329C1.0141 27.437 0.837214 27.3966 0.675786 27.3188C0.514359 27.241 0.372538 27.1278 0.26087 26.9876C0.149201 26.8473 0.0705554 26.6837 0.0307807 26.5089C-0.00899395 26.3341 -0.00887496 26.1526 0.0311288 25.9778L5.76889 0.926597ZM13.0959 12.2468H14.0778C15.8229 12.2468 17.7165 11.9494 18.113 9.73628C18.4793 7.69251 16.7612 7.47153 15.1258 7.47153H14.1806L13.0959 12.2468ZM56.4501 0.933158C56.5105 0.669939 56.6583 0.434988 56.8694 0.266725C57.0805 0.0984629 57.3424 0.00684682 57.6123 0.00685927H67.3689C73.571 -0.159254 78.8042 2.74072 77.7144 9.65337C77.0599 13.8002 74.3245 15.3913 70.4348 16.6283C71.568 17.1792 73.346 23.0805 74.1451 25.9232C74.3588 26.684 73.7865 27.4371 72.9967 27.4371H65.7587C65.4881 27.4373 65.2254 27.3454 65.014 27.1763C64.8026 27.0072 64.655 26.7711 64.5957 26.5069C64.0902 24.2561 62.8141 18.6992 62.531 18.6852C62.3498 18.6763 62.3498 18.6852 62.3498 18.6852L60.5494 26.5117C60.489 26.7747 60.3411 27.0094 60.1301 27.1774C59.9191 27.3455 59.6573 27.437 59.3876 27.4371H51.8745C51.6953 27.4371 51.5184 27.3966 51.357 27.3188C51.1955 27.241 51.0537 27.1277 50.942 26.9875C50.8303 26.8472 50.7517 26.6836 50.7119 26.5087C50.6722 26.3339 50.6723 26.1523 50.7124 25.9775L56.4501 0.933158ZM63.8091 12.1075H64.5C66.4437 12.1979 68.447 11.7356 68.8228 9.70675C69.2121 7.60573 67.8345 7.31973 65.7546 7.31973H64.9143L63.8091 12.1075ZM29.3226 27.4371H22.1228C21.2304 27.4371 20.6543 26.492 21.0629 25.6981L33.9537 0.646858C34.0539 0.452014 34.2058 0.288566 34.3928 0.174455C34.5798 0.0603448 34.7946 -1.56768e-05 35.0136 3.0541e-09H43.4023C43.6899 3.23545e-05 43.9678 0.104063 44.1847 0.292921C44.4017 0.481778 44.5431 0.742734 44.583 1.0277L48.0843 26.0789C48.108 26.2479 48.0951 26.4199 48.0466 26.5835C47.9981 26.747 47.9151 26.8983 47.8032 27.027C47.6913 27.1557 47.5531 27.259 47.3979 27.3297C47.2427 27.4004 47.0742 27.437 46.9037 27.4371H39.6497C39.3444 27.437 39.0508 27.3199 38.8293 27.1097C38.6079 26.8995 38.4754 26.6123 38.4592 26.3074L38.3373 24.0146L31.5563 24.0104L30.4216 26.707C30.3305 26.9234 30.1777 27.108 29.9822 27.2379C29.7867 27.3678 29.5573 27.437 29.3226 27.4371ZM37.991 17.4983C37.991 17.4983 37.813 13.1713 37.5957 10.0593L37.4228 10.0673L34.261 17.4983H37.991ZM83.5058 3.0541e-09H91.0195C91.1987 2.01478e-06 91.3755 0.0404158 91.537 0.118237C91.6984 0.196058 91.8402 0.309285 91.9519 0.449499C92.0636 0.589713 92.1422 0.753308 92.182 0.928122C92.2218 1.10294 92.2216 1.28447 92.1816 1.45923L86.4445 26.5105C86.3842 26.7737 86.2364 27.0087 86.0253 27.1771C85.8142 27.3454 85.5523 27.437 85.2823 27.4371H77.7681C77.5889 27.437 77.412 27.3966 77.2506 27.3188C77.0892 27.241 76.9473 27.1278 76.8357 26.9876C76.724 26.8473 76.6454 26.6837 76.6056 26.5089C76.5658 26.3341 76.5659 26.1526 76.6059 25.9778L82.3437 0.926597C82.4039 0.663323 82.5517 0.428304 82.7628 0.259983C82.974 0.0916617 83.2359 3.03368e-06 83.5058 3.0541e-09Z" fill="black"/>
<path d="M96.7517 0.928685L91.0625 25.9799C91.0229 26.1546 91.0231 26.3359 91.063 26.5105C91.103 26.6851 91.1818 26.8485 91.2935 26.9884C91.4052 27.1284 91.5469 27.2414 91.7082 27.3191C91.8696 27.3967 92.0463 27.4371 92.2253 27.4371H137.716C137.986 27.4371 138.249 27.3452 138.46 27.1764C138.671 27.0077 138.819 26.7721 138.879 26.5084L144.568 1.45715C144.608 1.28248 144.607 1.10112 144.567 0.926527C144.528 0.751934 144.449 0.58859 144.337 0.448615C144.225 0.30864 144.084 0.195628 143.922 0.117966C143.761 0.0403031 143.584 -1.60493e-05 143.405 4.7952e-09H97.9145C97.6441 -2.42376e-05 97.3818 0.0918709 97.1706 0.260613C96.9593 0.429355 96.8116 0.664925 96.7517 0.928685Z" fill="url(#paint0_linear_15_116)"/>
<path d="M65.4695 32.8392L59.7803 57.8904C59.7406 58.0651 59.7408 58.2465 59.7808 58.4211C59.8208 58.5956 59.8995 58.759 60.0112 58.899C60.1229 59.0389 60.2647 59.152 60.426 59.2296C60.5873 59.3073 60.764 59.3476 60.943 59.3476H106.434C106.704 59.3476 106.966 59.2557 107.178 59.087C107.389 58.9182 107.537 58.6827 107.597 58.4189L113.286 33.3677C113.325 33.193 113.325 33.0116 113.285 32.837C113.245 32.6625 113.166 32.4991 113.055 32.3591C112.943 32.2192 112.801 32.1062 112.64 32.0285C112.479 31.9508 112.302 31.9105 112.123 31.9105H66.6322C66.3619 31.9105 66.0996 32.0024 65.8883 32.1711C65.677 32.3399 65.5293 32.5754 65.4695 32.8392Z" fill="url(#paint1_linear_15_116)"/>
<path d="M155.14 59.3476H147.94C147.048 59.3476 146.471 58.4025 146.88 57.6086L159.771 32.5574C159.871 32.3626 160.023 32.1991 160.21 32.085C160.397 31.9709 160.612 31.9105 160.831 31.9105H169.219C169.507 31.9106 169.785 32.0146 170.002 32.2034C170.219 32.3923 170.36 32.6533 170.4 32.9382L173.901 57.9894C173.925 58.1584 173.912 58.3305 173.864 58.494C173.815 58.6576 173.732 58.8088 173.62 58.9375C173.508 59.0663 173.37 59.1695 173.215 59.2402C173.06 59.3109 172.891 59.3476 172.721 59.3476H165.467C165.162 59.3476 164.868 59.2304 164.646 59.0202C164.425 58.81 164.293 58.5229 164.276 58.2179L164.154 55.9251L157.373 55.9209L156.239 58.6175C156.148 58.8339 155.995 59.0185 155.799 59.1484C155.604 59.2782 155.374 59.3475 155.14 59.3476ZM163.808 49.4088C163.808 49.4088 163.63 45.0818 163.413 41.9698L163.24 41.9778L160.078 49.4088H163.808ZM119.017 31.9105H127.647C127.953 31.9106 128.246 32.0279 128.468 32.2383C128.69 32.4487 128.822 32.7362 128.838 33.0414L129.529 46.3096H129.731C130.256 45.1134 135.22 35.2224 136.555 32.5654C136.654 32.3682 136.806 32.2025 136.994 32.0868C137.182 31.9711 137.399 31.9101 137.619 31.9105H147.823C148.002 31.9105 148.179 31.9507 148.34 32.0281C148.501 32.1054 148.642 32.2181 148.754 32.3576C148.866 32.4971 148.945 32.66 148.985 32.8341C149.025 33.0083 149.026 33.1893 148.987 33.3638L143.39 58.415C143.331 58.6796 143.184 58.9162 142.972 59.0857C142.761 59.2553 142.498 59.3476 142.227 59.3476H136.07C135.891 59.3476 135.715 59.3074 135.553 59.2301C135.392 59.1527 135.251 59.0401 135.139 58.9006C135.027 58.7611 134.948 58.5983 134.908 58.4242C134.868 58.25 134.867 58.0691 134.906 57.8946L137.943 44.2966L137.712 44.3133C137.436 45.1021 131.982 55.9072 130.573 58.6951C130.473 58.8916 130.321 59.0567 130.134 59.1719C129.946 59.2871 129.73 59.3479 129.51 59.3476H125.415C125.11 59.348 124.817 59.2317 124.596 59.0225C124.374 58.8134 124.242 58.5274 124.224 58.2233C124.037 54.8932 123.508 45.2524 123.596 44.296L120.442 58.415C120.383 58.6796 120.235 58.9162 120.024 59.0857C119.812 59.2553 119.549 59.3476 119.278 59.3476H113.366C113.187 59.3476 113.011 59.3073 112.85 59.2298C112.688 59.1522 112.547 59.0393 112.435 58.8995C112.323 58.7597 112.244 58.5966 112.204 58.4222C112.164 58.2477 112.164 58.0665 112.203 57.8919L117.854 32.8407C117.914 32.5766 118.061 32.3407 118.273 32.1717C118.484 32.0027 118.747 31.9106 119.017 31.9105ZM177.265 31.9105H197.753C197.932 31.9105 198.109 31.9508 198.27 32.0285C198.431 32.1061 198.573 32.2191 198.685 32.359C198.796 32.4989 198.875 32.6621 198.915 32.8366C198.955 33.0112 198.955 33.1925 198.916 33.3671L197.48 39.7038C197.42 39.9681 197.272 40.204 197.061 40.3729C196.849 40.5418 196.586 40.6336 196.315 40.6331L190.969 40.6242L186.868 58.4228C186.808 58.6857 186.66 58.9202 186.449 59.0882C186.238 59.2562 185.976 59.3476 185.706 59.3476H178.195C178.016 59.3476 177.839 59.3071 177.677 59.2291C177.516 59.1511 177.374 59.0376 177.262 58.8971C177.15 58.7566 177.072 58.5927 177.032 58.4177C176.993 58.2426 176.993 58.0608 177.034 57.886L181.022 40.6242L175.834 40.6325C175.655 40.6328 175.478 40.5928 175.317 40.5153C175.155 40.4378 175.014 40.3249 174.902 40.185C174.79 40.0451 174.711 39.8818 174.671 39.7071C174.63 39.5325 174.63 39.3511 174.67 39.1763L176.102 32.8404C176.162 32.5764 176.309 32.3405 176.521 32.1715C176.732 32.0026 176.994 31.9105 177.265 31.9105ZM229.171 31.9105H236.633C236.811 31.9105 236.987 31.9505 237.148 32.0275C237.308 32.1045 237.45 32.2165 237.561 32.3554C237.673 32.4943 237.752 32.6566 237.793 32.8301C237.834 33.0037 237.836 33.1842 237.797 33.3584L236.092 41.1556H242.201L244.119 32.8353C244.179 32.5724 244.327 32.3379 244.538 32.1699C244.749 32.0019 245.011 31.9105 245.281 31.9105H252.807C252.986 31.9105 253.163 31.9509 253.325 32.0288C253.486 32.1066 253.628 32.2199 253.74 32.3601C253.851 32.5004 253.93 32.664 253.97 32.8389C254.009 33.0137 254.009 33.1953 253.969 33.3701L248.229 58.4213C248.169 58.6845 248.021 58.9195 247.81 59.0877C247.598 59.256 247.337 59.3476 247.067 59.3476H239.564C239.385 59.3476 239.208 59.3072 239.047 59.2295C238.885 59.1517 238.744 59.0386 238.632 58.8985C238.52 58.7584 238.442 58.5949 238.402 58.4202C238.362 58.2454 238.362 58.064 238.402 57.8892L240.244 49.8147L234.084 49.809L232.144 58.4174C232.085 58.6815 231.937 58.9176 231.726 59.0867C231.514 59.2558 231.252 59.3479 230.981 59.3479H223.454C223.275 59.3479 223.098 59.3075 222.937 59.2298C222.775 59.152 222.633 59.0389 222.522 58.8988C222.41 58.7587 222.331 58.5952 222.292 58.4204C222.252 58.2457 222.252 58.0643 222.291 57.8895L228.008 32.8383C228.068 32.5747 228.216 32.3394 228.427 32.1708C228.638 32.0022 228.9 31.9105 229.171 31.9105ZM215.182 41.4759C214.768 41.4759 214.401 41.2496 214.168 40.9072C213.864 40.4599 213.297 40.1118 212.243 40.1112C209.58 40.1073 207.564 44.8769 207.358 46.519C207.122 48.396 207.227 50.7246 209.354 51.1209C210.302 51.2972 211.601 50.7282 212.319 49.6223C212.427 49.4575 212.574 49.3223 212.747 49.229C212.921 49.1357 213.115 49.0873 213.312 49.0882L221.044 49.0981C221.807 49.0989 222.369 49.8055 222.206 50.5516C221.574 53.4585 219.112 59.7341 209.622 59.9387C200.132 60.1427 196.089 54.3403 196.928 46.5619C197.905 37.4961 203.959 30.9255 213.924 31.332C223.362 31.717 224.319 37.7072 224.289 40.2976C224.285 40.6116 224.158 40.9115 223.934 41.1321C223.711 41.3527 223.41 41.4763 223.096 41.4759H215.182Z" fill="black"/>
</g>
<defs>
<linearGradient id="paint0_linear_15_116" x1="91.0327" y1="13.7185" x2="144.598" y2="13.7185" gradientUnits="userSpaceOnUse">
<stop stop-color="#FDD900"/>
<stop offset="1" stop-color="#FBAF17"/>
</linearGradient>
<linearGradient id="paint1_linear_15_116" x1="59.7502" y1="45.6291" x2="113.316" y2="45.6291" gradientUnits="userSpaceOnUse">
<stop stop-color="#FDD900"/>
<stop offset="1" stop-color="#FBAF17"/>
</linearGradient>
<clipPath id="clip0_15_116">
<rect width="254" height="59.944" fill="white"/>
</clipPath>
</defs>
</svg>
