<svg width="120" height="120" viewBox="0 0 120 120" fill="none" xmlns="http://www.w3.org/2000/svg">
<g clip-path="url(#clip0_1_618)">
<path d="M5.98939 22.8131C15.252 7.14262 29.1893 4.46162 35.8396 3.01723C58.468 -1.90034 95.3569 -2.86568 111.514 23.8419C125.694 47.2811 118.085 78.0419 116.942 81.4747C115.024 87.2307 110.219 101.037 96.5981 110.39C75.3942 124.949 43.0731 121.684 32.0122 106.654C26.818 99.5953 31.0207 96.34 24.9707 83.8599C16.8655 67.1433 6.80914 67.5445 2.12298 54.1611C-3.16644 39.0535 5.13356 24.2618 5.98939 22.8131Z" fill="#FAFAFA"/>
<path d="M99.1778 96.4393H44.111C42.3417 96.4393 40.9281 94.965 41.0028 93.1976L42.3521 61.3775C42.4228 59.7129 43.793 58.3992 45.4603 58.3992H100.527C102.296 58.3992 103.71 59.8735 103.635 61.6409L102.286 93.461C102.215 95.1256 100.844 96.4393 99.1778 96.4393Z" fill="#FBED10"/>
<path d="M56.987 76.648H47.3911C47.11 76.648 46.8819 76.4199 46.8819 76.1389V69.3881C46.8819 69.1071 47.11 68.879 47.3911 68.879H56.9862C57.2673 68.879 57.4954 69.1071 57.4954 69.3881V76.1389C57.4962 76.4199 57.2681 76.648 56.987 76.648Z" fill="white"/>
<path d="M56.8023 84.3307H46.5959C46.3967 84.3307 46.2345 84.1693 46.2345 83.9693V81.8442C46.2345 81.645 46.3959 81.4828 46.5959 81.4828H56.8015C57.0007 81.4828 57.1629 81.6442 57.1629 81.8442V83.9693C57.1637 84.1693 57.0015 84.3307 56.8023 84.3307Z" fill="white"/>
<path d="M64.0884 92.786H45.2009C45.0089 92.786 44.8531 92.6302 44.8531 92.4383V91.4528C44.8531 91.2609 45.0089 91.105 45.2009 91.105H64.0892C64.2812 91.105 64.437 91.2609 64.437 91.4528V92.4383C64.4362 92.6302 64.2812 92.786 64.0884 92.786Z" fill="black"/>
<path d="M97.8791 92.786H91.7005C91.5086 92.786 91.3528 92.6302 91.3528 92.4383V91.4528C91.3528 91.2609 91.5086 91.105 91.7005 91.105H97.8791C98.0711 91.105 98.2269 91.2609 98.2269 91.4528V92.4383C98.2269 92.6302 98.0711 92.786 97.8791 92.786Z" fill="black"/>
<path d="M70.6822 84.3307H60.4767C60.2775 84.3307 60.1153 84.1693 60.1153 83.9693V81.8442C60.1153 81.645 60.2767 81.4828 60.4767 81.4828H70.6822C70.8814 81.4828 71.0437 81.6442 71.0437 81.8442V83.9693C71.0437 84.1693 70.8822 84.3307 70.6822 84.3307Z" fill="white"/>
<path d="M84.5622 84.3307H74.3567C74.1575 84.3307 73.9952 84.1693 73.9952 83.9693V81.8442C73.9952 81.645 74.1567 81.4828 74.3567 81.4828H84.5622C84.7614 81.4828 84.9237 81.6442 84.9237 81.8442V83.9693C84.9237 84.1693 84.7622 84.3307 84.5622 84.3307Z" fill="white"/>
<path d="M98.443 84.3307H88.2366C88.0374 84.3307 87.8752 84.1693 87.8752 83.9693V81.8442C87.8752 81.645 88.0366 81.4828 88.2366 81.4828H98.4422C98.6413 81.4828 98.8036 81.6442 98.8036 81.8442V83.9693C98.8036 84.1693 98.6421 84.3307 98.443 84.3307Z" fill="white"/>
<path d="M98.0936 65.6181H86.3315C85.9388 65.6181 85.6208 65.3001 85.6208 64.9075V62.8936C85.6208 62.5009 85.9388 62.1829 86.3315 62.1829H98.0936C98.4863 62.1829 98.8044 62.5009 98.8044 62.8936V64.9075C98.8036 65.3001 98.4855 65.6181 98.0936 65.6181Z" fill="black"/>
<path d="M62.0573 94.8126C61.9914 94.8126 61.9376 94.7596 61.9368 94.6929C61.936 94.6262 61.9898 94.5716 62.0565 94.5716L98.3602 94.2432H98.361C98.4269 94.2432 98.4807 94.2962 98.4815 94.3628C98.4823 94.4295 98.4285 94.4841 98.3618 94.4841L62.0581 94.8126H62.0573Z" fill="#99B9FF"/>
<path d="M98.3611 60.4866C98.3603 60.4866 98.3594 60.4866 98.3594 60.4866L65.1767 59.9934C65.11 59.9926 65.057 59.938 65.0578 59.8714C65.0586 59.8055 65.1125 59.7525 65.1783 59.7525C65.1791 59.7525 65.1799 59.7525 65.1799 59.7525L98.3627 60.2456C98.4293 60.2464 98.4823 60.3011 98.4815 60.3677C98.4807 60.4344 98.4269 60.4866 98.3611 60.4866Z" fill="#99B9FF"/>
<path d="M23.2677 36.6561C28.5414 31.3834 28.5413 22.8347 23.2677 17.562C17.994 12.2894 9.4436 12.2894 4.16991 17.562C-1.10379 22.8347 -1.10379 31.3834 4.16991 36.6561C9.4436 41.9288 17.994 41.9288 23.2677 36.6561Z" fill="#99B9FF"/>
<path d="M13.7424 40.8268C8.72432 40.8268 3.88229 38.0679 1.47066 33.2903C-1.93824 26.5373 0.783686 18.2707 7.53799 14.8624C10.8098 13.2117 14.529 12.9332 18.01 14.0789C21.4911 15.2246 24.3184 17.6574 25.9694 20.9286C29.3783 27.6816 26.6564 35.9482 19.9021 39.3565C17.9249 40.3535 15.8178 40.8268 13.7424 40.8268ZM13.7063 13.8163C11.6555 13.8163 9.61768 14.2968 7.73282 15.2477C1.19212 18.5491 -1.44466 26.5546 1.85745 33.0941C3.45654 36.2628 6.19434 38.6177 9.56572 39.7273C12.9371 40.8369 16.5394 40.5671 19.7073 38.9683C26.248 35.6683 28.8848 27.6614 25.5827 21.1219C23.9836 17.9532 21.2458 15.5983 17.8744 14.4887C16.5091 14.0399 15.1034 13.8163 13.7063 13.8163Z" fill="black"/>
<path d="M22.3482 35.7367C27.1141 30.9718 27.1141 23.2462 22.3482 18.4813C17.5823 13.7163 9.85527 13.7163 5.08939 18.4813C0.323504 23.2462 0.323504 30.9718 5.08939 35.7367C9.85527 40.5017 17.5823 40.5017 22.3482 35.7367Z" fill="#99B9FF"/>
<path d="M14.0015 38.2396C20.1499 38.084 25.008 32.9746 24.8524 26.8274C24.6969 20.6802 19.5865 15.8231 13.4381 15.9787C7.28978 16.1343 2.43166 21.2437 2.58723 27.3909C2.7428 33.5381 7.85315 38.3952 14.0015 38.2396Z" fill="white"/>
<path d="M13.7308 38.4647C12.5373 38.4647 11.3365 38.2743 10.1704 37.8904C7.28971 36.9424 4.95168 34.9295 3.58495 32.2225C2.21821 29.5156 1.98874 26.4392 2.93694 23.5591C3.88514 20.6789 5.89844 18.3414 8.60594 16.9749C14.1941 14.1554 21.035 16.4064 23.8565 21.9935C26.6766 27.5806 24.4251 34.4201 18.837 37.2397C17.2249 38.0549 15.4829 38.4647 13.7308 38.4647ZM13.702 16.1928C12.0495 16.1928 10.3739 16.568 8.79933 17.363C6.19575 18.6776 4.25894 20.9257 3.34682 23.6961C2.4347 26.4666 2.65695 29.4261 3.97029 32.0292C5.28507 34.6323 7.53362 36.5687 10.3046 37.4806C13.0756 38.3926 16.0342 38.1704 18.6392 36.8573C24.0138 34.1445 26.1801 27.5661 23.4683 22.1911C21.5488 18.389 17.6954 16.1928 13.702 16.1928Z" fill="black"/>
<path d="M15.8322 33.1142L15.1698 31.8026C14.223 32.2282 13.1998 32.4331 12.5214 32.3942L12.1202 30.5688C12.8606 30.5934 13.8218 30.4722 14.7209 30.0191C15.5089 29.6223 15.8943 29.0465 15.6143 28.4939C15.3487 27.9686 14.7397 27.8604 13.5433 28.0307C11.8143 28.2789 10.4576 28.0971 9.78076 26.758C9.16739 25.5431 9.54263 24.1578 10.8747 23.1218L10.2123 21.8101L11.566 21.1276L12.1794 22.3426C13.1262 21.9169 13.8449 21.7972 14.4121 21.7871L14.7989 23.5503C14.363 23.5792 13.5678 23.5821 12.572 24.0842C11.6743 24.5373 11.579 25.0698 11.7739 25.4565C12.0033 25.9124 12.634 25.9586 14.0311 25.8071C15.9679 25.5575 17.0142 25.9831 17.642 27.2255C18.2626 28.4549 17.922 29.944 16.473 31.0219L17.1845 32.4302L15.8322 33.1142Z" fill="#FBED10"/>
<path d="M27.3492 119.784C26.9523 119.784 26.6247 119.478 26.5973 119.082C26.5352 118.188 26.5612 116.599 27.3102 115.286C27.518 114.921 27.9221 114.735 28.3176 114.807L31.5547 115.396C31.8896 115.449 32.2273 115.322 32.4553 115.056L32.7555 114.658C32.9677 114.377 33.3458 114.279 33.6662 114.424C35.0228 115.039 38.4822 116.752 39.5632 118.658C39.8475 119.16 39.4838 119.782 38.9066 119.782H27.3492V119.784Z" fill="#99B9FF"/>
<path d="M38.908 120H27.3477C26.8397 120 26.4154 119.603 26.3808 119.098C26.3201 118.227 26.336 116.557 27.1226 115.18C27.3737 114.742 27.8687 114.507 28.3565 114.595L31.5937 115.183C31.8491 115.224 32.1118 115.124 32.2908 114.916L32.5823 114.528C32.858 114.163 33.34 114.039 33.7556 114.228C35.1902 114.879 38.6453 116.602 39.7508 118.553C39.9226 118.856 39.9197 119.216 39.745 119.518C39.5719 119.82 39.2572 120 38.908 120ZM28.1473 115.007C27.8832 115.007 27.6378 115.15 27.4993 115.394C26.7704 116.672 26.756 118.244 26.8137 119.068C26.8325 119.348 27.0677 119.567 27.3492 119.567H38.9094C39.1028 119.567 39.276 119.467 39.3741 119.3C39.4708 119.133 39.4723 118.934 39.377 118.766C38.3336 116.926 34.9752 115.256 33.5796 114.622C33.3501 114.518 33.0831 114.586 32.9316 114.788L32.6314 115.186C32.3442 115.521 31.9343 115.675 31.523 115.609L28.2815 115.019C28.2353 115.012 28.1906 115.007 28.1473 115.007Z" fill="black"/>
<path d="M37.9035 119.056H27.3665C27.2467 119.056 27.15 118.959 27.15 118.839C27.15 118.719 27.2467 118.623 27.3665 118.623H37.9035C38.0233 118.623 38.1199 118.719 38.1199 118.839C38.1199 118.958 38.0233 119.056 37.9035 119.056Z" fill="black"/>
<path d="M33.2852 117.539C33.2404 117.539 33.1942 117.525 33.1553 117.496C33.06 117.424 33.0398 117.288 33.112 117.193L34.1771 115.768C34.2492 115.673 34.3849 115.653 34.4802 115.725C34.5754 115.797 34.5956 115.933 34.5235 116.028L33.4584 117.452C33.4165 117.51 33.3501 117.539 33.2852 117.539Z" fill="black"/>
<path d="M35.4745 117.929C35.4399 117.929 35.4052 117.92 35.3721 117.903C35.2667 117.846 35.2277 117.715 35.284 117.61L35.7762 116.696C35.8324 116.591 35.9638 116.552 36.0691 116.608C36.1745 116.664 36.2134 116.796 36.1572 116.901L35.665 117.815C35.6275 117.888 35.5525 117.929 35.4745 117.929Z" fill="black"/>
<path d="M1.73478 107.791C1.83291 109.537 2.22403 114.377 3.65282 117.524C3.95157 118.18 4.83338 118.302 5.30821 117.758C5.58242 117.443 5.91148 117.007 6.29537 116.403C7.58706 114.37 8.30723 108.285 8.44001 107.068C8.45444 106.934 8.40537 106.803 8.30579 106.71L7.64046 106.097C7.35182 105.832 6.8972 105.874 6.66051 106.187L6.5465 106.34C6.45557 106.461 6.26651 106.439 6.20589 106.301L5.65314 105.051C5.49583 104.696 5.0744 104.543 4.72803 104.719C4.11899 105.028 3.15635 105.618 2.1663 106.631C1.86611 106.94 1.71168 107.363 1.73478 107.791Z" fill="#99B9FF"/>
<path d="M4.55626 118.317C4.49709 118.317 4.43648 118.313 4.37586 118.305C3.96887 118.244 3.62538 117.987 3.45652 117.613C2.02773 114.466 1.62651 109.705 1.51971 107.804C1.49229 107.312 1.67125 106.83 2.01185 106.482C3.01345 105.459 3.98763 104.855 4.62987 104.53C4.85068 104.418 5.09892 104.402 5.33272 104.485C5.56364 104.568 5.7527 104.744 5.85228 104.967L6.39205 106.188L6.48874 106.06C6.6374 105.86 6.86543 105.735 7.11222 105.712C7.35901 105.689 7.6058 105.772 7.78765 105.941L8.45298 106.555C8.60163 106.692 8.67812 106.894 8.65647 107.094C8.52369 108.305 7.79631 114.447 6.47864 116.521C6.12361 117.079 5.78445 117.544 5.47127 117.903C5.23747 118.167 4.90408 118.317 4.55626 118.317ZM1.95124 107.78C2.05659 109.657 2.45204 114.354 3.85053 117.434C3.96021 117.675 4.17525 117.837 4.43936 117.876C4.70492 117.915 4.96903 117.818 5.14654 117.616C5.44529 117.274 5.77146 116.827 6.11495 116.287C7.38066 114.295 8.0965 108.24 8.22783 107.047C8.23505 106.98 8.21052 106.917 8.16145 106.872L7.49612 106.26C7.40231 106.174 7.27963 106.132 7.15263 106.143C7.02563 106.155 6.91305 106.218 6.83656 106.319L6.72255 106.472C6.63307 106.592 6.49019 106.653 6.34298 106.635C6.19433 106.618 6.07021 106.527 6.00959 106.391L5.45684 105.142C5.40488 105.024 5.30963 104.936 5.1884 104.892C5.06861 104.85 4.94016 104.858 4.82759 104.915C4.21566 105.227 3.28334 105.804 2.32359 106.785C2.06525 107.045 1.93103 107.409 1.95124 107.78Z" fill="black"/>
<path d="M4.76554 117.484C4.6775 117.484 4.59379 117.429 4.56204 117.342C2.95284 112.946 2.61801 107.074 2.61513 107.017C2.60936 106.897 2.70028 106.796 2.82007 106.789C2.93841 106.784 3.04088 106.874 3.0481 106.994C3.05098 107.051 3.38293 112.859 4.96903 117.194C5.00944 117.306 4.95171 117.43 4.84059 117.471C4.81461 117.48 4.79007 117.484 4.76554 117.484Z" fill="black"/>
<path d="M7.19594 112.977C7.18728 112.977 7.17862 112.977 7.17141 112.976L5.36882 112.769C5.25047 112.756 5.16532 112.648 5.17831 112.53C5.1913 112.411 5.29954 112.326 5.41789 112.339L7.22047 112.546C7.33882 112.559 7.42397 112.667 7.41098 112.785C7.39799 112.895 7.30563 112.977 7.19594 112.977Z" fill="black"/>
<path d="M7.40088 110.885C7.39222 110.885 7.38356 110.885 7.37634 110.884L5.11192 110.624C4.99358 110.611 4.90842 110.503 4.92141 110.384C4.93585 110.266 5.04264 110.179 5.16099 110.194L7.42541 110.453C7.54376 110.466 7.62891 110.575 7.61592 110.693C7.60293 110.803 7.51057 110.885 7.40088 110.885Z" fill="black"/>
<path d="M36.6464 72.5834C36.6464 72.5834 37.2367 77.0248 35.8902 89.6073C35.6477 91.8756 35.1671 94.0632 34.5003 96.1367C33.6416 98.8076 32.9792 103.455 32.933 113.328C32.9272 114.51 32.4019 115.527 31.5994 115.917C30.4001 116.5 28.4114 116.65 28.3724 113.941C28.3089 109.568 26.8325 99.6632 27.1442 95.61C27.4559 91.5567 25.4946 75.1692 28.7866 73.442C32.0757 71.7133 36.6464 72.5834 36.6464 72.5834Z" fill="black"/>
<path d="M22.3743 71.6915C22.3743 71.6915 18.0721 84.9262 17.069 90.9231C17.069 90.9231 17.1441 92.558 14.9634 94.1409C12.7827 95.7238 11.7334 93.4367 5.50735 103.975C5.50735 103.975 4.35276 107 6.42379 108.012C6.81635 108.204 7.28251 108.078 7.60435 107.695C9.10242 105.908 12.3886 102.371 16.3705 100.325C21.136 97.8767 21.6195 96.5506 24.2116 91.4685C26.8036 86.385 32.194 78.6335 32.461 76.5138C32.7266 74.3941 22.3743 71.6915 22.3743 71.6915Z" fill="black"/>
<path d="M26.7141 87.6187C26.678 87.6187 26.642 87.6101 26.6088 87.5913C26.5049 87.5322 26.4673 87.4008 26.5265 87.297C28.1256 84.4485 28.9439 83.1874 30.6253 82.1586C30.7277 82.0965 30.8605 82.1283 30.9226 82.2307C30.9846 82.3332 30.9529 82.4659 30.8504 82.528C29.2571 83.502 28.4633 84.7299 26.9032 87.5091C26.8628 87.5798 26.7892 87.6187 26.7141 87.6187Z" fill="#CADDFF"/>
<path d="M21.494 77.9046C21.3843 77.9046 21.2905 77.8209 21.2789 77.7097C21.2674 77.5914 21.354 77.4846 21.4723 77.473C24.5969 77.1599 25.3041 75.389 25.3113 75.3717C25.3531 75.2606 25.4787 75.2043 25.5898 75.2461C25.701 75.288 25.7572 75.4136 25.7154 75.5247C25.6836 75.6084 24.9043 77.564 21.5156 77.9031C21.5084 77.9046 21.5012 77.9046 21.494 77.9046Z" fill="#CADDFF"/>
<path d="M35.9941 80.2845C35.9522 80.2845 35.9118 80.2729 35.8743 80.2484C34.3762 79.2497 34.4181 77.1426 34.421 77.0545C34.4238 76.9347 34.522 76.8409 34.6432 76.8438C34.763 76.8467 34.8568 76.9463 34.8539 77.0661C34.8539 77.0848 34.8178 79.0231 36.1139 79.8876C36.2135 79.954 36.2409 80.0882 36.1745 80.1878C36.1326 80.2499 36.0634 80.2845 35.9941 80.2845Z" fill="#CADDFF"/>
<path d="M15.2318 41.4993L15.9491 39.9597C16.1901 39.4431 16.219 38.853 16.0328 38.3147L15.4093 36.5255C15.4093 36.5255 14.8984 36.3105 14.7007 37.3552C14.503 38.3999 14.8912 39.4027 14.1133 40.0088C13.3354 40.6148 11.5949 40.5715 11.5949 40.5715L12.1058 41.254C12.3959 41.6407 12.5214 42.5989 12.5214 42.5989L12.6124 44.4184C12.6124 44.4184 14.1393 43.9956 15.0428 43.6739L15.0211 42.9293C15.0197 42.9279 15.0298 41.9308 15.2318 41.4993Z" fill="white"/>
<path d="M12.4089 44.6969L12.3049 42.6161C12.2703 42.3578 12.139 41.6566 11.9326 41.381L11.1547 40.342L11.6007 40.3536C11.618 40.355 13.2734 40.3882 13.9805 39.837C14.4149 39.4993 14.4164 39.003 14.4164 38.3753C14.4164 38.0348 14.4178 37.6841 14.4871 37.3147C14.5809 36.8212 14.7584 36.5009 15.0168 36.3624C15.2578 36.2339 15.4699 36.3162 15.493 36.3263L15.5825 36.3638L16.2377 38.244C16.4441 38.8385 16.4124 39.4806 16.1468 40.052L15.4295 41.5916C15.2809 41.912 15.2405 42.6681 15.2376 42.9321L15.2636 43.8253L15.1149 43.8787C14.2158 44.199 12.686 44.6233 12.6701 44.6276L12.4089 44.6969ZM12.0221 40.7778L12.279 41.1212C12.5936 41.5411 12.722 42.4646 12.735 42.5685L12.7365 42.5858L12.813 44.1341C13.2531 44.0086 14.1609 43.7459 14.819 43.5194L14.8017 42.9336C14.8032 42.8181 14.819 41.8687 15.0341 41.4069L15.7514 39.8673C15.9693 39.3998 15.9967 38.8731 15.8264 38.3854L15.2506 36.7303C15.239 36.7347 15.226 36.7404 15.213 36.7476C15.138 36.7924 14.9995 36.9352 14.9129 37.3941C14.8508 37.7231 14.8494 38.055 14.8494 38.3753C14.8479 39.0318 14.8479 39.71 14.2461 40.179C13.6601 40.6349 12.6124 40.7504 12.0221 40.7778Z" fill="black"/>
<path d="M31.0467 46.8281L30.6353 48.3922L28.8558 47.9478C28.7058 47.9103 28.5585 47.8641 28.4099 47.8194C26.4327 47.2206 24.6344 47.8944 23.0194 48.994L16.7948 53.8307L16.0212 44.9566L15.8423 43.6998C15.7759 42.8787 14.1003 43.2409 13.2344 43.5194C12.6787 43.6983 11.8056 44.1298 11.7103 44.7055L11.6381 46.0345C11.6381 46.0345 11.2441 58.3428 12.8923 59.7151C14.7844 61.2908 18.8312 59.9589 20.7362 59.1956C21.3843 58.9359 22.1145 59.2995 22.3007 59.9719C22.7322 61.5245 23.0613 64.7943 21.6541 71.0697C21.6541 71.0697 21.2342 71.8503 22.0149 72.9311C22.0149 72.9311 27.7806 75.6929 32.2243 76.0536C36.668 76.4144 37.4488 74.7333 37.4488 74.1922C37.4488 73.6525 36.8585 68.1693 37.28 65.8274C37.5123 64.5302 38.0016 63.5317 38.3927 62.8997C38.6828 62.4293 40.8188 66.5734 43.9621 68.999C49.3035 73.1187 53.3647 73.009 54.3966 72.8964C54.5539 72.8791 54.6896 72.781 54.7574 72.6382L56.166 69.6556C56.2916 69.3901 56.1372 69.0784 55.85 69.0163C54.3028 68.6859 49.9399 67.3786 46.9279 62.8016C44.6823 59.389 43.278 56.076 41.7179 53.7759C41.0049 52.724 39.5271 51.6172 38.6914 51.0386C38.3494 50.802 38.2426 50.3446 38.4461 49.9809L38.6077 49.6938C38.7809 49.385 38.7333 49.0012 38.4894 48.7443C37.6768 47.8872 35.6765 46.0619 32.9936 45.5727C32.1421 45.4183 31.266 45.9955 31.0467 46.8281Z" fill="#CADDFF"/>
<path d="M33.3934 76.3191C33.0297 76.3191 32.6357 76.3032 32.207 76.2686C27.7749 75.9093 21.9803 73.1532 21.9226 73.1258L21.8735 73.1027L21.8418 73.058C21.0696 71.9902 21.3742 71.1692 21.4507 70.9989C22.8116 64.9198 22.5518 61.6789 22.0943 60.0296C22.0222 59.767 21.8403 59.5477 21.5964 59.4279C21.354 59.3081 21.0696 59.2966 20.82 59.3976C18.6407 60.272 14.6949 61.4971 12.7567 59.8824C11.0767 58.4828 11.3841 47.2999 11.4246 46.0287L11.4996 44.6708C11.6353 43.8484 12.9154 43.3967 13.1709 43.3145C13.6154 43.1716 15.1163 42.7358 15.7586 43.1644C15.939 43.2856 16.0443 43.4645 16.0616 43.6839L16.2392 44.9277L16.9795 53.418L22.8896 48.8251C24.8798 47.4716 26.704 47.0777 28.4763 47.6145L28.5239 47.6289C28.6567 47.6693 28.7822 47.7068 28.9107 47.74L30.4824 48.1325L30.8388 46.7747L31.0481 46.8295L30.8388 46.7747C31.09 45.8194 32.0728 45.1845 33.0311 45.3606C35.8093 45.867 37.8818 47.7919 38.6453 48.5957C38.9556 48.9232 39.0162 49.408 38.7954 49.8005L38.6337 50.0877C38.4836 50.3546 38.5616 50.6865 38.8141 50.8611C39.6497 51.4383 41.1608 52.5696 41.8969 53.6547C42.6358 54.7441 43.3502 56.0788 44.1064 57.4915C44.9579 59.0801 45.922 60.8824 47.1083 62.6832C50.041 67.1405 54.2292 68.4492 55.8947 68.8056C56.0968 68.8489 56.2642 68.9788 56.3565 69.1635C56.4475 69.3482 56.4504 69.5617 56.3623 69.7479L54.9537 72.7305C54.8527 72.944 54.6535 73.0854 54.4212 73.1114C53.294 73.2341 49.1981 73.3091 43.8322 69.1693C41.9445 67.7133 40.4349 65.6715 39.4361 64.3209C39.071 63.8275 38.6958 63.3195 38.5038 63.1363C38.1473 63.7394 37.71 64.673 37.495 65.8649C37.1674 67.6888 37.4633 71.4506 37.6047 73.2586C37.6437 73.7463 37.6682 74.0695 37.6682 74.1907C37.6682 74.3249 37.6263 74.8025 37.088 75.2989C36.5555 75.7866 35.4961 76.3191 33.3934 76.3191ZM22.1593 72.7593C22.7351 73.0292 28.1068 75.5024 32.2417 75.8371C34.9939 76.0608 36.2351 75.4952 36.7907 74.9815C37.1169 74.6813 37.2323 74.3682 37.2323 74.1922C37.2323 74.0868 37.2049 73.7376 37.1703 73.2932C37.0274 71.4679 36.7287 67.6671 37.0664 65.7899C37.3074 64.445 37.8197 63.4148 38.208 62.7856C38.2599 62.7005 38.3451 62.65 38.4418 62.6457C38.4461 62.6457 38.4504 62.6457 38.4562 62.6457C38.7232 62.6457 38.9772 62.9732 39.784 64.0641C40.7682 65.3959 42.2562 67.4089 44.0963 68.8273C49.3352 72.8675 53.2882 72.7997 54.375 72.6814C54.4573 72.6727 54.5265 72.6222 54.5626 72.5458L55.9712 69.5632C56.003 69.4968 56.0015 69.4203 55.9698 69.3554C55.938 69.2905 55.8774 69.2443 55.8067 69.2284C54.0892 68.8605 49.7697 67.5113 46.749 62.9213C45.5525 61.1032 44.5827 59.2923 43.7269 57.6964C42.9764 56.2938 42.2663 54.9692 41.5404 53.8985C40.8447 52.8726 39.3813 51.7788 38.5702 51.2189C38.1329 50.9159 37.9987 50.3402 38.2599 49.877L38.4216 49.5899C38.5486 49.3633 38.5139 49.0848 38.335 48.8958C37.6018 48.1224 35.6102 46.2725 32.9575 45.7877C32.2287 45.6549 31.4522 46.1571 31.2617 46.8858L30.797 48.6577L28.8097 48.1613C28.6711 48.1267 28.534 48.0849 28.4012 48.0445L28.3536 48.03C26.6925 47.5264 25.0371 47.8901 23.1479 49.1757L16.6202 54.2477L15.812 44.9767L15.633 43.7315C15.6243 43.6305 15.5897 43.5713 15.519 43.5237C15.1611 43.2856 14.1494 43.4544 13.3051 43.7257C12.696 43.9219 12.0091 44.3202 11.9297 44.73L11.859 46.046C11.7507 49.4355 11.7507 58.4784 13.0352 59.5491C14.8667 61.0743 18.977 59.6703 20.6598 58.995C21.0249 58.8493 21.4362 58.8651 21.7898 59.0397C22.1434 59.2143 22.4075 59.5332 22.5129 59.9142C22.9848 61.6125 23.2561 64.9356 21.8692 71.1172L21.862 71.1461L21.8475 71.1721C21.8331 71.1966 21.517 71.8373 22.1593 72.7593Z" fill="black"/>
<path d="M33.5464 52.6554C33.4872 52.6554 33.4294 52.6324 33.3862 52.5847C31.0077 49.9889 31.5071 47.2978 31.5302 47.1838C31.5533 47.0669 31.6673 46.9904 31.7842 47.0135C31.9011 47.0366 31.9776 47.1506 31.9545 47.2675C31.9501 47.2934 31.4811 49.8648 33.7051 52.2918C33.7859 52.3798 33.7802 52.5169 33.6921 52.5977C33.6503 52.6367 33.5983 52.6554 33.5464 52.6554Z" fill="black"/>
<path d="M32.6689 56.0999C32.5823 56.0999 32.5015 56.0479 32.4683 55.9642C32.4235 55.8531 32.4784 55.7275 32.5881 55.6828C32.5938 55.6799 33.2115 55.4288 34.1294 54.7938C35.8396 53.7214 37.3796 51.571 37.3954 51.5508C37.4647 51.4527 37.6004 51.431 37.6971 51.5003C37.7938 51.5696 37.8169 51.7053 37.7476 51.802C37.6826 51.8929 36.1413 54.0447 34.3675 55.156C33.415 55.817 32.7757 56.0753 32.7497 56.0869C32.7223 56.0941 32.6963 56.0999 32.6689 56.0999Z" fill="black"/>
<path d="M30.4434 70.0206C30.3929 70.0206 30.3438 70.0033 30.302 69.9686C30.2111 69.8907 30.201 69.7536 30.2789 69.6627C32.0021 67.6541 32.5823 66.9774 33.4497 64.8274C33.4944 64.7163 33.6214 64.6629 33.7311 64.7076C33.8422 64.7524 33.8956 64.8779 33.8509 64.989C32.9575 67.2054 32.3643 67.8951 30.6065 69.9441C30.5646 69.9946 30.504 70.0206 30.4434 70.0206Z" fill="black"/>
<path d="M26.463 71.1028C26.4009 71.1028 26.3389 71.0754 26.2956 71.0249C26.2191 70.9325 26.2321 70.7969 26.3244 70.7204C30.4376 67.3237 34.2016 59.3153 34.2391 59.2345C34.2896 59.1263 34.418 59.0787 34.5263 59.1292C34.6345 59.1797 34.6822 59.3081 34.6316 59.4163C34.5941 59.4971 30.7898 67.5935 26.6001 71.0523C26.5611 71.0869 26.512 71.1028 26.463 71.1028Z" fill="black"/>
<path d="M56.0203 70.0063C56.0203 70.0063 58.1 69.5734 58.8129 69.2169C59.5259 68.8604 59.7669 69.2256 59.8015 69.4305C59.8304 69.608 59.129 70.2127 58.4218 70.4379C58.3569 70.4581 58.3655 70.5533 58.4334 70.562C59.0871 70.65 59.8896 70.9906 61.1755 70.5591C62.0573 70.2632 62.854 70.9704 62.7616 71.6661C62.6461 72.532 60.0281 75.2424 54.9956 72.2607L56.0203 70.0063Z" fill="white"/>
<path d="M59.2603 73.8382C58.1361 73.8382 56.6755 73.5106 54.8845 72.4498L54.7171 72.3502L55.8688 69.8173L55.977 69.7942C55.9972 69.7899 58.0379 69.3627 58.7177 69.0235C59.1016 68.8316 59.4234 68.7984 59.6745 68.9268C59.8564 69.0192 59.9834 69.1953 60.0166 69.3959C60.0657 69.6975 59.5115 70.1536 58.9645 70.4408C59.5302 70.5548 60.1753 70.6674 61.1077 70.3556C61.5969 70.1911 62.1208 70.2849 62.509 70.6053C62.8554 70.8911 63.03 71.2981 62.9766 71.6978C62.9146 72.1669 62.3301 72.9188 61.3718 73.3835C60.9099 73.6058 60.2042 73.8382 59.2603 73.8382ZM55.2727 72.1741C58.2977 73.9089 60.2677 73.4355 61.1813 72.9924C62.0458 72.5724 62.5076 71.9374 62.5466 71.6387C62.5798 71.3933 62.4585 71.1249 62.2319 70.9373C61.9592 70.7136 61.5897 70.6486 61.2433 70.7641C60.1652 71.1263 59.4148 70.9733 58.8115 70.8507C58.6672 70.8218 58.5301 70.7929 58.4031 70.7771C58.2717 70.7597 58.1721 70.6544 58.1606 70.5231C58.1491 70.3917 58.2284 70.2719 58.3554 70.2315C58.9573 70.0396 59.484 69.5864 59.5793 69.432C59.5663 69.3973 59.5374 69.3425 59.4768 69.3122C59.3585 69.2516 59.1579 69.2862 58.9111 69.4103C58.2688 69.7322 56.6164 70.1002 56.1733 70.1954L55.2727 72.1741Z" fill="black"/>
<path d="M36.8095 46.6008C37.8804 46.8114 38.9195 46.1159 39.1302 45.0453L39.7104 42.1089C39.9095 41.0974 39.2587 40.1147 38.2484 39.904L37.889 39.829C37.293 39.7049 36.6738 39.8752 36.225 40.2864L35.3865 41.0541C35.2609 41.1681 35.0747 41.1883 34.9319 41.0974C34.7385 40.9761 34.4541 40.8506 34.2117 40.9516C33.8004 41.1219 33.2 42.6442 34.5956 43.1925L33.1957 46.8244C33.1957 46.8244 32.1176 48.8763 34.3863 49.5704C36.6551 50.2659 36.8095 46.6008 36.8095 46.6008Z" fill="white"/>
<path d="M34.9304 49.8762C34.7385 49.8762 34.535 49.8445 34.3228 49.7795C33.581 49.553 33.0889 49.1605 32.8623 48.6165C32.5087 47.7681 32.9373 46.859 32.9979 46.7378L34.3214 43.3079C33.6272 42.95 33.5117 42.3642 33.5088 42.0294C33.5031 41.4797 33.7888 40.8953 34.1294 40.7539C34.3878 40.6471 34.7053 40.7034 35.0473 40.9169C35.1079 40.9545 35.1873 40.9458 35.2422 40.8967L36.0807 40.1291C36.58 39.6731 37.2728 39.4826 37.9352 39.6197L38.2946 39.6948C39.4145 39.9285 40.1463 41.0309 39.924 42.1535L39.3438 45.0899C39.2298 45.6642 38.9008 46.1606 38.4144 46.4867C37.9958 46.7667 37.5051 46.8922 37.0101 46.8503C36.9524 47.4419 36.7186 48.9643 35.8267 49.5963C35.5582 49.781 35.2595 49.8762 34.9304 49.8762ZM34.4051 41.1319C34.3661 41.1319 34.33 41.1377 34.2954 41.1521C34.1857 41.1983 33.9375 41.5749 33.9418 42.0237C33.9447 42.3354 34.0746 42.7553 34.6764 42.9919L34.877 43.0698L33.3891 46.9254C33.3847 46.9326 32.9691 47.7479 33.2635 48.4506C33.4396 48.869 33.8379 49.1764 34.4513 49.364C34.8958 49.4996 35.2638 49.4592 35.5755 49.2399C36.4992 48.5877 36.5945 46.6108 36.5959 46.5906L36.6075 46.3381L36.8543 46.3872C37.3161 46.4781 37.7837 46.3843 38.1748 46.1231C38.5645 45.8619 38.83 45.4637 38.921 45.0034L39.5011 42.067C39.6772 41.1767 39.097 40.3008 38.208 40.1161L37.8486 40.0411C37.3219 39.9314 36.772 40.0829 36.3751 40.4451L35.5366 41.2127C35.3403 41.3931 35.0444 41.4205 34.8207 41.2806C34.7183 41.2214 34.5523 41.1319 34.4051 41.1319Z" fill="black"/>
<path d="M36.8066 46.8168C36.7922 46.8168 36.7763 46.8153 36.7619 46.8125C36.6219 46.7836 35.3937 46.4935 35.1613 45.4775C35.1353 45.3606 35.2075 45.2451 35.3244 45.2177C35.4413 45.1917 35.5568 45.2639 35.5842 45.3808C35.7588 46.1471 36.808 46.378 36.8528 46.3881C36.9697 46.4127 37.0447 46.5281 37.0187 46.645C36.9957 46.7461 36.9062 46.8168 36.8066 46.8168Z" fill="black"/>
<path d="M33.9216 40.9682L33.7599 38.5946C33.8408 37.5628 34.6244 36.7259 35.6477 36.573L38.6106 36.1314C38.9108 36.0867 39.1721 36.3392 39.136 36.6408C39.0999 36.9424 39.3611 37.1963 39.6613 37.1502L41.0122 36.9467C41.4105 36.8861 41.6876 37.3305 41.461 37.6624L41.3802 37.7807C41.2099 38.0289 41.3196 38.3709 41.6025 38.4733L42.6084 38.8572C42.9519 38.9827 43.0197 39.4387 42.7282 39.658L39.8403 41.6522C39.8403 41.6522 39.5978 39.6667 37.6466 39.772C36.6594 39.8254 35.9003 40.505 35.5539 41.0129C35.4197 41.2092 35.1628 41.5569 34.838 41.1962C34.8352 41.1962 35.144 40.4242 33.9216 40.9682Z" fill="black"/>
<path d="M81.1252 57.0037C79.8219 57.5679 78.4812 58.0383 77.1173 58.4077C76.3034 58.6284 75.4648 58.1479 75.244 57.3341C75.0232 56.5203 75.5038 55.6819 76.3178 55.4612C78.3426 54.9114 80.3112 54.1163 82.1686 53.0962C88.3846 49.6822 92.9005 44.0532 94.882 37.2454C96.8636 30.4375 96.0741 23.2646 92.6609 17.0499C89.2462 10.8351 83.6162 6.32008 76.807 4.33891C69.9964 2.35774 62.8222 3.14703 56.6062 6.55961C48.9556 10.76 43.8582 18.4582 42.9691 27.1519C42.884 27.9903 42.1335 28.6007 41.295 28.5155C40.4565 28.4304 39.846 27.6801 39.9311 26.8417C40.9226 17.1509 46.6061 8.56819 55.1355 3.88582C62.0674 0.0793213 70.0657 -0.799435 77.6585 1.40828C85.2514 3.61743 91.5294 8.65044 95.3352 15.5795C99.1424 22.51 100.021 30.5068 97.8118 38.0982C95.6022 45.6895 90.5682 51.9663 83.6378 55.7714C82.8181 56.2216 81.9796 56.6328 81.1252 57.0037Z" fill="white"/>
<path d="M76.7147 58.6775C76.4145 58.6775 76.1186 58.5996 75.8502 58.4466C75.4461 58.2157 75.156 57.8406 75.0348 57.3904C74.9135 56.9416 74.9727 56.4712 75.2051 56.0672C75.436 55.6632 75.8112 55.3746 76.2615 55.2519C78.2691 54.7079 80.2217 53.9186 82.0647 52.9071C88.2302 49.522 92.7085 43.9378 94.6742 37.1848C96.6399 30.4318 95.8577 23.318 92.4719 17.1537C89.086 10.9895 83.5008 6.51199 76.7464 4.54669C69.9921 2.58139 62.877 3.36347 56.7116 6.74863C49.1245 10.9144 44.0675 18.5505 43.1856 27.1721C43.138 27.6353 42.9129 28.0523 42.5521 28.3467C42.1913 28.6411 41.7366 28.7767 41.2748 28.7291C40.3194 28.631 39.6209 27.7738 39.719 26.8186C40.7177 17.0571 46.443 8.41235 55.0345 3.69391C62.0169 -0.140008 70.0744 -1.02454 77.7221 1.19905C85.3697 3.42408 91.694 8.4946 95.5286 15.4741C99.3633 22.4551 100.249 30.5097 98.024 38.1573C95.7985 45.8035 90.727 52.1265 83.7461 55.9604C82.9249 56.4121 82.0734 56.8291 81.2147 57.1999C79.9042 57.767 78.5462 58.2432 77.178 58.614C77.0221 58.6573 76.8677 58.6775 76.7147 58.6775ZM69.3485 3.05324C71.8611 3.05324 74.3868 3.40965 76.8662 4.13112C83.7317 6.12816 89.4079 10.6792 92.85 16.9445C96.2921 23.2098 97.0873 30.4419 95.0899 37.306C93.0924 44.1701 88.5405 49.8452 82.274 53.2866C80.4021 54.3155 78.4177 55.1163 76.3755 55.6704C76.0378 55.7613 75.7564 55.9792 75.5818 56.2836C75.4071 56.5867 75.3624 56.9402 75.4533 57.2778C75.6424 57.9748 76.3626 58.3875 77.0611 58.1984C78.409 57.8334 79.7484 57.363 81.0401 56.8045C81.8858 56.438 82.7243 56.0268 83.5354 55.5824C90.4153 51.8047 95.4132 45.5741 97.6069 38.0375C99.8006 30.5025 98.9274 22.5634 95.149 15.6834C91.3707 8.80484 85.1388 3.8079 77.6008 1.61462C70.0643 -0.578665 62.1237 0.29432 55.2424 4.0734C46.7749 8.72259 41.1319 17.2418 40.1491 26.8619C40.0755 27.5805 40.6008 28.224 41.3195 28.2976C41.6674 28.3337 42.0094 28.2313 42.2793 28.0105C42.5506 27.7897 42.7195 27.4766 42.7556 27.1288C43.6518 18.3644 48.7926 10.6042 56.5037 6.36914C60.5058 4.17152 64.9048 3.05324 69.3485 3.05324Z" fill="black"/>
<path d="M46.8976 21.1494L36.5569 20.6992L41.3109 30.4823L46.8976 21.1494Z" fill="white"/>
<path d="M41.3109 30.6987C41.308 30.6987 41.3051 30.6987 41.3008 30.6987C41.2214 30.6958 41.1507 30.6482 41.1161 30.5775L36.3621 20.7928C36.3289 20.7236 36.3347 20.6428 36.3765 20.5793C36.4184 20.5158 36.4891 20.4768 36.567 20.4812L46.9077 20.9314C46.9842 20.9342 47.052 20.9775 47.0896 21.0454C47.1256 21.1117 47.1242 21.194 47.0852 21.2589L41.4985 30.5934C41.4581 30.6597 41.3874 30.6987 41.3109 30.6987ZM36.9105 20.9314L41.3311 30.0292L46.5253 21.3498L36.9105 20.9314Z" fill="black"/>
<path d="M83.0539 42.4445C90.5528 34.9471 90.5528 22.7914 83.0539 15.294C75.5551 7.79666 63.3971 7.79666 55.8983 15.294C48.3995 22.7914 48.3995 34.9471 55.8983 42.4445C63.3971 49.9419 75.5551 49.9419 83.0539 42.4445Z" fill="black"/>
<path d="M83.472 41.4714C90.7482 34.1966 90.7482 22.4018 83.472 15.127C76.1958 7.85219 64.3988 7.85219 57.1226 15.127C49.8463 22.4018 49.8463 34.1966 57.1226 41.4714C64.3988 48.7462 76.1958 48.7462 83.472 41.4714Z" fill="#99B9FF"/>
<path d="M70.2981 47.1441C59.9055 47.1441 51.4496 38.6898 51.4496 28.2991C51.4496 17.9085 59.9055 9.45422 70.2981 9.45422C80.6908 9.45422 89.1467 17.9085 89.1467 28.2991C89.1467 38.6898 80.6908 47.1441 70.2981 47.1441ZM70.2981 9.88711C60.1436 9.88711 51.8826 18.1466 51.8826 28.2991C51.8826 38.4517 60.1436 46.7112 70.2981 46.7112C80.4527 46.7112 88.7137 38.4517 88.7137 28.2991C88.7137 18.1466 80.4527 9.88711 70.2981 9.88711Z" fill="black"/>
<path d="M81.3534 39.3532C87.4596 33.2482 87.4596 23.3501 81.3534 17.2451C75.2473 11.1401 65.3473 11.1401 59.2411 17.2451C53.135 23.3501 53.135 33.2482 59.2411 39.3532C65.3473 45.4581 75.2473 45.4581 81.3534 39.3532Z" fill="white"/>
<path d="M83.443 36.9851C83.4026 36.9851 83.3622 36.9736 83.3261 36.9505C83.2251 36.8855 83.1962 36.7513 83.2612 36.6517C84.0607 35.412 84.677 34.0698 85.0926 32.6583C85.1258 32.5443 85.2471 32.4793 85.3611 32.5111C85.4751 32.5443 85.5415 32.6655 85.5083 32.7795C85.0811 34.23 84.4475 35.6112 83.6249 36.8841C83.5845 36.9505 83.5137 36.9851 83.443 36.9851Z" fill="black"/>
<path d="M84.3725 21.6962C84.2917 21.6962 84.2152 21.6514 84.1776 21.575C81.5741 16.213 76.2558 12.8826 70.2981 12.8826C65.4041 12.8826 60.7526 15.2419 57.8546 19.1927C57.7839 19.2893 57.6482 19.3095 57.5516 19.2388C57.4549 19.1681 57.4347 19.0325 57.5054 18.9358C60.4842 14.8739 65.267 12.4483 70.2981 12.4483C73.3318 12.4483 76.2789 13.3069 78.8233 14.9331C81.2998 16.516 83.2857 18.7468 84.5673 21.3845C84.6193 21.4927 84.5745 21.6211 84.4677 21.6731C84.436 21.6904 84.4042 21.6962 84.3725 21.6962Z" fill="black"/>
<path d="M70.2981 44.1486C61.5565 44.1486 54.4457 37.0377 54.4457 28.2992C54.4457 25.585 55.1442 22.9054 56.4648 20.552C56.5225 20.4481 56.6553 20.4106 56.7592 20.4697C56.8631 20.5289 56.9006 20.6602 56.8415 20.7641C55.557 23.0526 54.8772 25.6586 54.8772 28.2992C54.8772 36.7996 61.7946 43.7157 70.2967 43.7157C70.4165 43.7157 70.5132 43.8123 70.5132 43.9321C70.5146 44.0519 70.4179 44.1486 70.2981 44.1486Z" fill="black"/>
<path d="M68.8635 39.3363V36.7664C67.0508 36.6856 65.2916 36.1978 64.264 35.6033L65.0751 32.4375C66.2109 33.0594 67.8085 33.6279 69.5664 33.6279C71.1092 33.6279 72.1642 33.0335 72.1642 31.9512C72.1642 30.9239 71.2983 30.2745 69.2965 29.5978C66.4014 28.6238 64.4256 27.2718 64.4256 24.647C64.4256 22.2662 66.1026 20.399 68.9992 19.8319V17.262H71.6504V19.6429C73.4631 19.7237 74.6812 20.1032 75.5746 20.5361L74.7894 23.5937C74.0866 23.2964 72.8411 22.6745 70.8927 22.6745C69.1334 22.6745 68.5662 23.4321 68.5662 24.1896C68.5662 25.0828 69.513 25.6499 71.8135 26.5157C75.0333 27.6513 76.3322 29.1404 76.3322 31.5746C76.3322 33.9829 74.6278 36.0391 71.5162 36.5788V39.3377H68.8635V39.3363Z" fill="#FBED10"/>
<path d="M29.5876 27.7901C29.5818 27.7901 29.5746 27.7901 29.5688 27.7886C29.449 27.7785 29.361 27.6732 29.3725 27.5534C29.9527 20.9433 32.1623 15.0546 35.9392 10.049C39.0754 5.8933 42.6243 3.24116 45.0489 1.74771C45.1514 1.68422 45.2841 1.71741 45.3462 1.81841C45.4083 1.92086 45.3765 2.05361 45.2755 2.11566C41.0685 4.70575 31.1405 12.3721 29.8026 27.5909C29.794 27.7049 29.6987 27.7901 29.5876 27.7901Z" fill="black"/>
<path d="M33.3703 26.468C33.3558 26.468 33.34 26.4666 33.3255 26.4637C33.2086 26.4392 33.1336 26.3238 33.1581 26.2069C34.1063 21.7482 35.6996 17.6588 37.8919 14.0529C37.954 13.9505 38.0867 13.9187 38.1892 13.9808C38.2917 14.0428 38.3234 14.1756 38.2614 14.278C36.0951 17.8421 34.5205 21.8852 33.581 26.2978C33.5608 26.3973 33.4699 26.468 33.3703 26.468Z" fill="black"/>
<path d="M39.7768 11.6388C39.7349 11.6388 39.6945 11.6272 39.657 11.6027C39.5574 11.5363 39.53 11.4021 39.5963 11.3026C41.9907 7.70386 44.1368 6.02427 44.2262 5.955C44.3215 5.88141 44.4571 5.89873 44.5293 5.99396C44.6029 6.08776 44.5856 6.22484 44.4903 6.29698C44.4687 6.3143 42.3082 8.00832 39.9557 11.5421C39.9153 11.6056 39.8475 11.6388 39.7768 11.6388Z" fill="black"/>
<path d="M100.902 41.2741C100.87 41.2741 100.837 41.2669 100.807 41.251C100.7 41.1976 100.655 41.0678 100.708 40.961C103.173 35.9756 102.676 30.478 102.67 30.4217C102.658 30.3034 102.745 30.1966 102.865 30.185C102.981 30.1721 103.09 30.2601 103.101 30.3798C103.107 30.4361 103.619 36.0535 101.098 41.1529C101.058 41.2308 100.981 41.2741 100.902 41.2741Z" fill="black"/>
<path d="M103.211 27.2201C102.573 27.2201 102.053 26.7006 102.053 26.0627C102.053 25.4248 102.573 24.9052 103.211 24.9052C103.849 24.9052 104.368 25.4248 104.368 26.0627C104.368 26.7006 103.849 27.2201 103.211 27.2201ZM103.211 25.3382C102.811 25.3382 102.486 25.6629 102.486 26.0627C102.486 26.4625 102.811 26.7872 103.211 26.7872C103.611 26.7872 103.935 26.4625 103.935 26.0627C103.935 25.6629 103.611 25.3382 103.211 25.3382Z" fill="black"/>
<path d="M62.307 117.948C60.3788 117.948 58.2414 117.852 55.9106 117.609C55.7923 117.596 55.7057 117.491 55.7172 117.371C55.7302 117.253 55.8356 117.168 55.9554 117.178C67.0898 118.34 73.795 116.136 73.8614 116.113C73.9754 116.074 74.0981 116.136 74.1356 116.248C74.1746 116.362 74.1125 116.485 74 116.523C73.9466 116.543 69.6674 117.948 62.307 117.948Z" fill="black"/>
<path d="M77.6803 116.703C77.1535 116.703 76.7249 116.275 76.7249 115.748C76.7249 115.221 77.1535 114.792 77.6803 114.792C78.207 114.792 78.6357 115.221 78.6357 115.748C78.6357 116.275 78.207 116.703 77.6803 116.703ZM77.6803 115.227C77.3931 115.227 77.1578 115.461 77.1578 115.749C77.1578 116.036 77.3916 116.272 77.6803 116.272C77.9675 116.272 78.2027 116.038 78.2027 115.749C78.2027 115.461 77.9689 115.227 77.6803 115.227Z" fill="black"/>
<path d="M88.3832 82.2553H88.2389C88.1191 82.2538 88.0239 82.1571 88.0239 82.0374C88.0253 81.9191 88.122 81.8224 88.2403 81.8224H88.2418H88.3818C88.9014 81.8224 89.4296 81.7993 89.9491 81.7517C90.0689 81.7416 90.1728 81.8296 90.1844 81.9479C90.1945 82.0677 90.1064 82.1716 89.9881 82.1831C89.4556 82.2322 88.9158 82.2553 88.3832 82.2553ZM86.5128 82.1572C86.5056 82.1572 86.4969 82.1572 86.4897 82.1557C85.9153 82.0951 85.3322 82.0056 84.7578 81.8902C84.6409 81.8671 84.5644 81.7517 84.589 81.6348C84.6121 81.5179 84.7275 81.4429 84.8444 81.466C85.4058 81.5785 85.9745 81.6665 86.5359 81.7257C86.6542 81.7387 86.7408 81.8455 86.7293 81.9638C86.7163 82.0749 86.6225 82.1572 86.5128 82.1572ZM91.6824 81.9479C91.58 81.9479 91.4891 81.8758 91.4703 81.7719C91.4486 81.655 91.5251 81.541 91.6435 81.5194C92.1977 81.4155 92.7577 81.2827 93.309 81.1269C93.423 81.0937 93.5442 81.1601 93.576 81.2755C93.6092 81.3909 93.5428 81.5107 93.4273 81.5425C92.8644 81.7026 92.29 81.8383 91.7243 81.945C91.7084 81.9465 91.6954 81.9479 91.6824 81.9479ZM83.1212 81.4775C83.101 81.4775 83.0794 81.4746 83.0592 81.4689C82.5122 81.3073 81.9594 81.1182 81.4153 80.9061C81.4139 80.9061 81.4023 80.9003 81.4009 80.9003C81.2898 80.8556 81.2364 80.7286 81.2826 80.6175C81.3273 80.5064 81.4543 80.453 81.5654 80.4992L81.4832 80.6998L81.5669 80.5006C82.1052 80.7099 82.6464 80.896 83.1818 81.0533C83.2958 81.0879 83.3622 81.2077 83.3276 81.3231C83.3016 81.4169 83.215 81.4775 83.1212 81.4775ZM95.0076 81.0028C94.921 81.0028 94.8388 80.9494 94.8056 80.8643C94.7623 80.7532 94.8186 80.6276 94.9297 80.5843C95.4536 80.3838 95.9833 80.1558 96.5014 79.9062C96.6096 79.8542 96.7381 79.9004 96.79 80.0072C96.842 80.1154 96.7958 80.2438 96.689 80.2957C96.1593 80.5497 95.6196 80.7835 95.0841 80.9869C95.0596 80.997 95.0336 81.0028 95.0076 81.0028ZM79.9476 80.1183C79.9072 80.1183 79.8682 80.1067 79.8321 80.0851C79.3472 79.7777 78.8695 79.4271 78.4134 79.0433C78.3225 78.9668 78.3095 78.8297 78.3874 78.7388C78.4639 78.6479 78.601 78.6364 78.692 78.7128C79.1336 79.0837 79.5954 79.4228 80.0645 79.7215C80.1655 79.7849 80.1958 79.9191 80.1309 80.0201C80.089 80.0822 80.0197 80.1183 79.9476 80.1183ZM98.125 79.5093C98.05 79.5093 97.9778 79.4704 97.9374 79.4011C97.8782 79.2972 97.9129 79.1659 98.0168 79.1053C98.5046 78.8239 98.9938 78.5166 99.4715 78.1948C99.5711 78.1284 99.7053 78.153 99.7717 78.2525C99.8381 78.3521 99.8121 78.4863 99.714 78.5527C99.2276 78.8817 98.7297 79.1933 98.2347 79.4805C98.1986 79.4992 98.1611 79.5093 98.125 79.5093ZM60.7541 79.3434C60.6054 79.3434 60.4553 79.342 60.3067 79.3405C60.1869 79.3391 60.0917 79.241 60.0931 79.1212C60.0945 79.0029 60.1912 78.9076 60.3096 78.9076C60.311 78.9076 60.311 78.9076 60.3125 78.9076C60.8695 78.9148 61.418 78.9091 62.0357 78.8918C62.1555 78.8817 62.255 78.9827 62.2579 79.1024C62.2608 79.2222 62.167 79.3218 62.0472 79.3246C61.5883 79.3376 61.1654 79.3434 60.7541 79.3434ZM58.5777 79.2713C58.5719 79.2713 58.5676 79.2713 58.5618 79.2713C57.9557 79.228 57.3712 79.163 56.8227 79.0793C56.7044 79.0606 56.6236 78.9509 56.6409 78.8326C56.6597 78.7143 56.7693 78.6335 56.8877 78.6508C57.4231 78.733 57.9975 78.7951 58.5921 78.8384C58.7119 78.847 58.8014 78.9509 58.7927 79.0692C58.7855 79.1847 58.6903 79.2713 58.5777 79.2713ZM63.7704 79.2597C63.655 79.2597 63.5597 79.1688 63.554 79.0534C63.5482 78.9336 63.6405 78.8326 63.7603 78.8283C64.3737 78.8008 64.9395 78.772 65.4864 78.7374C65.6077 78.7273 65.7087 78.8211 65.7159 78.9408C65.7231 79.0606 65.6322 79.163 65.5124 79.1702C64.9625 79.2034 64.3954 79.2337 63.7791 79.2612C63.7777 79.2597 63.7748 79.2597 63.7704 79.2597ZM67.2284 79.0447C67.1173 79.0447 67.022 78.9596 67.0134 78.8456C67.0033 78.7258 67.0913 78.6219 67.2111 78.6118C67.7985 78.5628 68.3758 78.5079 68.93 78.4473C69.0483 78.4343 69.1551 78.5195 69.1695 78.6392C69.1825 78.7576 69.0974 78.8643 68.9776 78.8788C68.4205 78.9394 67.8389 78.9956 67.2472 79.0447C67.24 79.0447 67.2342 79.0447 67.2284 79.0447ZM55.1601 78.7359C55.1414 78.7359 55.1241 78.733 55.1053 78.7287C54.5179 78.5743 53.9565 78.3882 53.4355 78.1732C53.3244 78.127 53.2724 78.0015 53.3186 77.8904C53.3648 77.7792 53.4903 77.7273 53.6015 77.7735C54.1037 77.9813 54.6464 78.1616 55.215 78.3103C55.3304 78.3406 55.3997 78.4589 55.3694 78.5743C55.3449 78.671 55.2568 78.7359 55.1601 78.7359ZM70.6705 78.6623C70.5651 78.6623 70.4713 78.5844 70.4569 78.4762C70.4396 78.3579 70.5219 78.2482 70.6402 78.2309C71.2204 78.1472 71.7933 78.0548 72.3418 77.9553C72.4587 77.9336 72.5727 78.0116 72.5929 78.1299C72.6145 78.2468 72.5366 78.3608 72.4183 78.381C71.8641 78.482 71.2868 78.5758 70.7008 78.6594C70.6907 78.6623 70.6806 78.6623 70.6705 78.6623ZM74.0765 78.039C73.9784 78.039 73.8889 77.9712 73.8658 77.8701C73.8398 77.7533 73.912 77.6378 74.0289 77.6104C74.599 77.4806 75.1604 77.3377 75.6973 77.1876C75.8127 77.1559 75.9325 77.2223 75.9643 77.3377C75.996 77.4531 75.9296 77.5729 75.8142 77.6046C75.2701 77.7576 74.7014 77.9019 74.1256 78.0332C74.1083 78.0361 74.0924 78.039 74.0765 78.039ZM77.305 77.8918C77.2458 77.8918 77.1867 77.8673 77.1434 77.8196C76.7263 77.3565 76.3655 76.8817 76.0754 76.4099C76.0119 76.3074 76.0436 76.1747 76.1461 76.1126C76.2471 76.0506 76.3813 76.0809 76.4434 76.1833C76.7205 76.6335 77.0654 77.0866 77.4652 77.5296C77.5446 77.6191 77.5374 77.7547 77.4493 77.8355C77.4075 77.873 77.3555 77.8918 77.305 77.8918ZM100.994 77.5729C100.929 77.5729 100.866 77.544 100.822 77.4892C100.749 77.394 100.766 77.2583 100.861 77.1847C101.306 76.8399 101.752 76.4719 102.185 76.091C102.274 76.0131 102.411 76.0217 102.491 76.1112C102.57 76.2007 102.56 76.3377 102.471 76.4171C102.03 76.8024 101.579 77.1761 101.127 77.5267C101.087 77.5585 101.04 77.5729 100.994 77.5729ZM51.9793 77.4012C51.9403 77.4012 51.8999 77.3911 51.8653 77.368C51.3587 77.0506 50.8853 76.6884 50.461 76.2901C50.3744 76.2079 50.3686 76.0722 50.4509 75.9842C50.5332 75.8976 50.6688 75.8919 50.7569 75.9741C51.1624 76.3522 51.6127 76.6985 52.0962 77.0001C52.1972 77.0635 52.2275 77.1977 52.164 77.2987C52.1222 77.3651 52.0514 77.4012 51.9793 77.4012ZM77.4089 77.0982C77.3194 77.0982 77.2343 77.0419 77.204 76.9524C77.165 76.8399 77.2256 76.7158 77.3382 76.6783C77.4161 76.6509 77.4941 76.6249 77.572 76.5975C77.953 76.4633 78.4495 76.2786 78.9084 76.0362C79.0138 75.9813 79.1451 76.0203 79.2014 76.1271C79.2577 76.2324 79.2173 76.3637 79.1105 76.42C78.627 76.6754 78.1118 76.8673 77.7163 77.0073C77.637 77.0347 77.5576 77.0621 77.4782 77.0895C77.4551 77.0938 77.432 77.0982 77.4089 77.0982ZM80.3603 75.3782C80.3127 75.3782 80.2651 75.3623 80.2247 75.3306C80.1309 75.2555 80.1164 75.1199 80.1915 75.0261C80.5422 74.5874 80.724 74.0954 80.7312 73.5644C80.7327 73.4461 80.8294 73.3508 80.9477 73.3508C80.9492 73.3508 80.9492 73.3508 80.9506 73.3508C81.0704 73.3523 81.1657 73.4504 81.1642 73.5702C81.157 74.1921 80.9362 74.7895 80.5292 75.2974C80.4873 75.3508 80.4238 75.3782 80.3603 75.3782ZM103.595 75.2945C103.539 75.2945 103.482 75.2728 103.44 75.2296C103.357 75.1444 103.358 75.0073 103.443 74.9236C103.847 74.5268 104.249 74.1113 104.638 73.687C104.719 73.599 104.856 73.5933 104.944 73.6741C105.032 73.7549 105.038 73.8919 104.957 73.98C104.563 74.41 104.156 74.8313 103.746 75.2324C103.705 75.2728 103.65 75.2945 103.595 75.2945ZM75.5472 74.941C75.4519 74.941 75.3653 74.8789 75.3393 74.7837C75.2268 74.3811 75.169 73.9843 75.169 73.6034C75.169 73.3912 75.1864 73.1806 75.2224 72.9757C75.2426 72.8573 75.3552 72.7794 75.4721 72.7982C75.5905 72.8184 75.6698 72.9309 75.6496 73.0478C75.6193 73.2282 75.6034 73.4143 75.6034 73.6019C75.6034 73.9439 75.6554 74.3017 75.7579 74.6654C75.7896 74.7808 75.7232 74.9006 75.6078 74.9323C75.5861 74.9381 75.5659 74.941 75.5472 74.941ZM105.936 72.7434C105.887 72.7434 105.838 72.7275 105.797 72.6929C105.705 72.6164 105.692 72.4807 105.768 72.3884C106.131 71.9512 106.49 71.4981 106.836 71.0378C106.908 70.9426 107.044 70.9224 107.139 70.9945C107.235 71.0667 107.253 71.2023 107.183 71.2975C106.832 71.7636 106.47 72.2225 106.103 72.6654C106.06 72.7174 105.998 72.7434 105.936 72.7434ZM80.457 72.1489C80.3849 72.1489 80.3156 72.1128 80.2737 72.0479C79.9808 71.5861 79.5651 71.1965 79.1047 70.9498C78.9994 70.8935 78.9604 70.7622 79.0167 70.6569C79.073 70.5515 79.2043 70.5111 79.3097 70.5688C79.835 70.8502 80.3069 71.2932 80.6389 71.8155C80.7024 71.9165 80.6735 72.0507 80.5725 72.1142C80.5378 72.1373 80.4974 72.1489 80.457 72.1489ZM76.1346 71.664C76.0869 71.664 76.0379 71.6482 75.9989 71.6164C75.9065 71.5414 75.8921 71.4043 75.9671 71.3119L75.9758 71.3004C76.3987 70.7535 76.9067 70.4115 77.4869 70.2802C77.6038 70.2543 77.7192 70.3279 77.7452 70.4447C77.7712 70.5616 77.6976 70.6771 77.5807 70.703C77.1015 70.8098 76.6758 71.0998 76.3164 71.5645L76.3005 71.5847C76.2601 71.6366 76.1981 71.664 76.1346 71.664ZM108.02 69.9772C107.978 69.9772 107.935 69.9657 107.897 69.9397C107.799 69.8719 107.773 69.7377 107.841 69.6396C108.164 69.1677 108.48 68.6815 108.782 68.1952C108.845 68.0927 108.978 68.0624 109.079 68.1259C109.18 68.1894 109.212 68.3222 109.148 68.4232C108.844 68.9152 108.523 69.4058 108.197 69.8834C108.157 69.944 108.089 69.9772 108.02 69.9772ZM109.847 67.0322C109.811 67.0322 109.775 67.0235 109.742 67.0047C109.638 66.9456 109.6 66.8143 109.659 66.7104C109.939 66.2111 110.212 65.7003 110.469 65.1895C110.522 65.0827 110.654 65.0395 110.759 65.0943C110.866 65.1477 110.909 65.279 110.854 65.3843C110.594 65.8995 110.319 66.4175 110.035 66.9211C109.996 66.9932 109.922 67.0322 109.847 67.0322ZM111.407 63.9399C111.377 63.9399 111.348 63.9342 111.318 63.9212C111.209 63.8721 111.16 63.7437 111.209 63.6355C111.446 63.1117 111.671 62.5778 111.88 62.0497C111.925 61.9386 112.051 61.8837 112.162 61.9285C112.273 61.9717 112.328 62.0987 112.283 62.2098C112.071 62.7437 111.843 63.2834 111.603 63.8144C111.569 63.8937 111.491 63.9399 111.407 63.9399ZM112.683 60.7207C112.66 60.7207 112.637 60.7164 112.614 60.7092C112.501 60.6702 112.44 60.5476 112.478 60.435C112.663 59.8939 112.836 59.3413 112.992 58.7929C113.025 58.6775 113.145 58.6111 113.259 58.6443C113.374 58.6775 113.441 58.7973 113.407 58.9112C113.249 59.4668 113.074 60.0266 112.886 60.575C112.856 60.663 112.772 60.7207 112.683 60.7207ZM113.632 57.3918C113.617 57.3918 113.599 57.3904 113.583 57.3861C113.467 57.3586 113.394 57.2432 113.422 57.1263C113.55 56.5722 113.666 56.0051 113.768 55.441C113.79 55.3226 113.901 55.2462 114.019 55.2664C114.138 55.288 114.216 55.4006 114.194 55.5174C114.091 56.0888 113.973 56.6631 113.843 57.2244C113.82 57.324 113.731 57.3918 113.632 57.3918ZM114.244 53.9836C114.236 53.9836 114.226 53.9836 114.217 53.9821C114.099 53.9663 114.015 53.858 114.029 53.7397C114.102 53.1741 114.162 52.5983 114.207 52.0284C114.216 51.9086 114.322 51.8206 114.439 51.8293C114.559 51.8394 114.647 51.9432 114.638 52.0616C114.592 52.6387 114.533 53.2217 114.458 53.7946C114.444 53.9042 114.351 53.9836 114.244 53.9836ZM114.517 50.532C114.514 50.532 114.513 50.532 114.51 50.532C114.39 50.5277 114.296 50.4282 114.301 50.3098C114.312 49.9448 114.318 49.5696 114.318 49.1973C114.318 48.9939 114.317 48.7919 114.312 48.5884C114.311 48.4686 114.406 48.3705 114.526 48.3691C114.527 48.3691 114.529 48.3691 114.529 48.3691C114.647 48.3691 114.744 48.4643 114.745 48.5826C114.748 48.7875 114.751 48.9939 114.751 49.1988C114.751 49.5754 114.745 49.9534 114.734 50.3243C114.729 50.4397 114.633 50.532 114.517 50.532ZM114.459 47.0719C114.345 47.0719 114.25 46.9838 114.243 46.8684C114.207 46.2999 114.156 45.7227 114.094 45.1542C114.081 45.0359 114.166 44.9291 114.286 44.9161C114.405 44.9031 114.511 44.9882 114.524 45.108C114.588 45.6837 114.638 46.2667 114.674 46.8424C114.682 46.9622 114.591 47.0646 114.472 47.0719C114.468 47.0719 114.464 47.0719 114.459 47.0719ZM114.083 43.6304C113.977 43.6304 113.885 43.5539 113.869 43.4472C113.781 42.883 113.68 42.313 113.568 41.7517C113.544 41.6348 113.619 41.5208 113.738 41.4963C113.855 41.4732 113.969 41.5482 113.993 41.6666C114.107 42.2336 114.21 42.8094 114.298 43.3808C114.317 43.4991 114.236 43.6102 114.117 43.6275C114.104 43.6304 114.094 43.6304 114.083 43.6304ZM113.402 40.2366C113.305 40.2366 113.215 40.1702 113.191 40.0721C113.055 39.5209 112.905 38.9625 112.743 38.4098C112.71 38.2958 112.775 38.1746 112.891 38.1414C113.005 38.1083 113.126 38.1732 113.159 38.2886C113.322 38.847 113.475 39.4127 113.612 39.9697C113.641 40.0851 113.57 40.2034 113.454 40.2323C113.436 40.2352 113.419 40.2366 113.402 40.2366ZM112.43 36.9149C112.339 36.9149 112.256 36.8587 112.225 36.7678C112.043 36.2295 111.846 35.6855 111.639 35.1488C111.596 35.0377 111.652 34.9121 111.764 34.8688C111.875 34.8256 112 34.8818 112.043 34.9929C112.253 35.5355 112.452 36.0852 112.637 36.6292C112.676 36.7432 112.614 36.8659 112.501 36.9034C112.476 36.9106 112.453 36.9149 112.43 36.9149ZM111.185 33.6842C111.101 33.6842 111.022 33.6351 110.986 33.5543C110.759 33.0305 110.517 32.5038 110.268 31.9887C110.216 31.8805 110.261 31.7521 110.369 31.7001C110.478 31.6482 110.606 31.6929 110.658 31.8011C110.909 32.322 111.153 32.8545 111.382 33.3826C111.43 33.4923 111.38 33.6192 111.27 33.6669C111.243 33.6784 111.214 33.6842 111.185 33.6842ZM109.679 30.5674C109.602 30.5674 109.528 30.5256 109.489 30.4534C109.219 29.9484 108.936 29.4419 108.648 28.9499C108.587 28.8474 108.622 28.7147 108.726 28.6541C108.828 28.5935 108.961 28.6281 109.021 28.732C109.313 29.2284 109.599 29.7392 109.871 30.25C109.928 30.3553 109.887 30.4866 109.782 30.5429C109.749 30.5588 109.714 30.5674 109.679 30.5674ZM107.929 27.5819C107.858 27.5819 107.787 27.5473 107.747 27.4824C107.44 27.0019 107.116 26.5214 106.789 26.051C106.721 25.9529 106.744 25.8187 106.842 25.7494C106.94 25.6816 107.076 25.7047 107.144 25.8028C107.476 26.2775 107.8 26.7638 108.112 27.2486C108.177 27.3496 108.147 27.4838 108.047 27.5473C108.01 27.5704 107.969 27.5819 107.929 27.5819ZM105.946 24.7437C105.881 24.7437 105.816 24.7148 105.773 24.6585C105.426 24.2026 105.067 23.748 104.703 23.3079C104.627 23.2156 104.641 23.0799 104.732 23.0035C104.824 22.927 104.96 22.9414 105.037 23.0323C105.403 23.4782 105.767 23.9371 106.116 24.3974C106.188 24.4926 106.17 24.6282 106.074 24.7004C106.038 24.7292 105.992 24.7437 105.946 24.7437ZM103.745 22.0713C103.686 22.0713 103.627 22.0468 103.583 21.9992C103.204 21.5735 102.808 21.1493 102.41 20.7366C102.326 20.65 102.329 20.5144 102.416 20.4307C102.501 20.347 102.639 20.3499 102.722 20.4365C103.124 20.852 103.523 21.2806 103.907 21.7106C103.986 21.8001 103.979 21.9371 103.889 22.0165C103.847 22.054 103.795 22.0713 103.745 22.0713Z" fill="white"/>
</g>
<defs>
<clipPath id="clip0_1_618">
<rect width="120" height="120" fill="white"/>
</clipPath>
</defs>
</svg>
