<svg width="120" height="120" viewBox="0 0 120 120" fill="none" xmlns="http://www.w3.org/2000/svg">
<g clip-path="url(#clip0_1_862)">
<path d="M47.4782 3.55783C44.862 4.37138 33.2569 8.15593 21.6677 18.1975C18.8604 20.6295 7.95858 30.132 3.11106 43.3512C-5.1413 65.8518 4.28749 100.413 32.7301 114.168C65.8597 130.191 107.708 110.469 117.252 84.0751C121.485 72.3689 121.676 52.9563 111.013 40.1562C102.43 29.8546 87.7531 24.9588 88.3218 15.2149C88.5953 10.5214 92.1419 9.22381 91.158 6.26871C88.8239 -0.741149 65.9639 -2.1963 47.4782 3.55783Z" fill="#F4F4F4"/>
<path d="M113.303 1.22097L84.3772 12.6078C82.8796 13.1974 82.5308 15.1569 83.7319 16.2262L87.2496 19.3562C88.1395 20.148 88.2191 21.5093 87.4276 22.3994L72.1427 39.5924C71.3511 40.484 69.9852 40.5649 69.0923 39.773L48.6054 21.6075C47.7126 20.8156 46.3481 20.898 45.5551 21.7881L4.61886 67.6868C3.82734 68.5784 3.90838 69.941 4.79974 70.7329L12.2881 77.3728C13.1809 78.1633 14.5454 78.0824 15.3384 77.1922L46.7634 42.0056C47.5549 41.114 48.9209 41.0331 49.8137 41.825L70.2934 59.9833C71.1862 60.7737 72.5507 60.6928 73.3437 59.8027L98.1283 31.9294C98.9212 31.0378 100.289 30.9569 101.181 31.7517L104.976 35.1273C106.185 36.2038 108.108 35.6157 108.506 34.0464L116.19 3.76134C116.623 2.05331 114.941 0.576486 113.303 1.22097Z" fill="#FBED10"/>
<path d="M89.8528 103.785V111.908C89.8528 115.968 93.1491 119.259 97.2137 119.259H102.513C106.579 119.259 109.874 115.967 109.874 111.908V103.785H89.8528Z" fill="#FBED10"/>
<path d="M71.9748 76.4625C73.8631 78.1575 77.5632 80.7167 84.3483 83.0576C95.7971 87.0083 98.9733 98.9747 98.9733 98.9747C79.2475 102.672 72.6013 84.2093 70.8041 77.172C70.6305 76.4899 71.451 75.9914 71.9748 76.4625Z" fill="#99B9FF"/>
<path d="M99.9761 99.6755C99.9486 99.6755 99.9197 99.6697 99.8922 99.6582C90.1913 95.576 83.496 90.4533 79.5876 86.8754C75.3463 82.994 73.3726 80.0317 73.3524 80.0028C73.2858 79.9031 73.3133 79.7687 73.4146 79.7022C73.5144 79.6358 73.649 79.6632 73.7156 79.7644C73.7344 79.7933 75.6878 82.7209 79.8943 86.5691C83.7767 90.1195 90.4258 95.2046 100.061 99.2594C100.171 99.3056 100.224 99.4328 100.177 99.5426C100.141 99.6264 100.06 99.6755 99.9761 99.6755Z" fill="#5479F7"/>
<path d="M99.8632 103.398C99.746 103.398 99.6491 103.304 99.6462 103.185L98.4451 41.8496C98.4422 41.7296 98.5377 41.6314 98.6578 41.6285C98.7736 41.6213 98.8763 41.721 98.8792 41.8409L100.08 103.177C100.083 103.297 99.9877 103.395 99.8676 103.398C99.8661 103.398 99.8647 103.398 99.8632 103.398Z" fill="#5479F7"/>
<path d="M99.0384 69.0336C98.9791 69.0336 98.9212 69.0105 98.8778 68.9628C98.7968 68.8746 98.8026 68.7373 98.8908 68.6564L108.006 60.3041C108.094 60.2232 108.231 60.229 108.312 60.3171C108.393 60.4053 108.388 60.5425 108.299 60.6235L99.1846 68.9758C99.1426 69.0148 99.0905 69.0336 99.0384 69.0336Z" fill="#5479F7"/>
<path d="M98.6622 64.1075C98.6318 64.1075 98.6 64.1002 98.571 64.0872L89.0468 59.6408C88.9382 59.5903 88.8919 59.4617 88.9426 59.3533C88.9932 59.2449 89.122 59.1987 89.2305 59.2492L98.7548 63.6956C98.8633 63.7462 98.9096 63.8748 98.859 63.9832C98.8228 64.0612 98.7447 64.1075 98.6622 64.1075Z" fill="#5479F7"/>
<path d="M99.678 93.4893C105.788 93.4893 110.742 88.5426 110.742 82.4406C110.742 76.3385 105.788 71.3918 99.678 71.3918C93.5676 71.3918 88.6141 76.3385 88.6141 82.4406C88.6141 88.5426 93.5676 93.4893 99.678 93.4893Z" fill="black"/>
<path d="M110.599 84.5846C111.962 78.8224 108.389 73.0482 102.619 71.6876C96.8484 70.327 91.0663 73.8952 89.7038 79.6574C88.3413 85.4196 91.9144 91.1938 97.6845 92.5544C103.455 93.915 109.237 90.3468 110.599 84.5846Z" fill="#99B9FF"/>
<path d="M100.151 93.05C94.1113 93.05 89.1987 88.1426 89.1987 82.1125C89.1987 76.0824 94.1128 71.175 100.151 71.175C106.191 71.175 111.104 76.0824 111.104 82.1125C111.104 88.1426 106.191 93.05 100.151 93.05ZM100.151 71.6086C94.3515 71.6086 89.6328 76.3208 89.6328 82.1125C89.6328 87.9042 94.3515 92.6165 100.151 92.6165C105.951 92.6165 110.67 87.9042 110.67 82.1125C110.67 76.3208 105.951 71.6086 100.151 71.6086Z" fill="black"/>
<path d="M108.919 84.1885C110.063 79.3528 107.064 74.5072 102.222 73.3653C97.3796 72.2235 92.5273 75.2179 91.3839 80.0535C90.2405 84.8892 93.239 89.7348 98.0813 90.8767C102.924 92.0185 107.776 89.0241 108.919 84.1885Z" fill="white"/>
<path d="M107.725 87.2034C107.684 87.2034 107.644 87.1918 107.608 87.1687C107.506 87.1037 107.477 86.9693 107.543 86.8696C107.998 86.1644 108.35 85.3986 108.586 84.5966C108.619 84.481 108.741 84.4159 108.855 84.4492C108.969 84.4824 109.036 84.6038 109.003 84.7179C108.754 85.5604 108.386 86.3638 107.907 87.1037C107.867 87.1687 107.797 87.2034 107.725 87.2034Z" fill="black"/>
<path d="M108.26 78.4046C108.179 78.4046 108.103 78.3598 108.065 78.2818C106.58 75.2284 103.547 73.3311 100.15 73.3311C97.3584 73.3311 94.7061 74.675 93.0536 76.9249C92.9827 77.0217 92.8466 77.042 92.7497 76.9712C92.6527 76.9003 92.6325 76.7645 92.7034 76.6677C94.4369 74.3065 97.221 72.8961 100.15 72.8961C103.715 72.8961 106.897 74.8874 108.454 78.0911C108.506 78.1994 108.461 78.3281 108.354 78.3801C108.325 78.3974 108.292 78.4046 108.26 78.4046Z" fill="black"/>
<path d="M100.151 91.3262C95.0635 91.3262 90.925 87.1934 90.925 82.1126C90.925 80.5346 91.3316 78.9769 92.1 77.6084C92.1593 77.5044 92.291 77.4668 92.3952 77.5261C92.4994 77.5853 92.537 77.7168 92.4776 77.8208C91.7455 79.1243 91.3576 80.6083 91.3576 82.1126C91.3576 86.9549 95.3022 90.8927 100.15 90.8927C100.27 90.8927 100.367 90.9895 100.367 91.1094C100.367 91.2293 100.271 91.3262 100.151 91.3262Z" fill="black"/>
<path d="M99.3249 88.4649V86.9852C98.2802 86.939 97.2673 86.6586 96.674 86.3162L97.1414 84.494C97.7969 84.8523 98.7158 85.1789 99.7301 85.1789C100.619 85.1789 101.226 84.8364 101.226 84.2136C101.226 83.6226 100.727 83.2483 99.5738 82.8596C97.9054 82.2989 96.7681 81.5201 96.7681 80.01C96.7681 78.6401 97.7347 77.565 99.4031 77.2384V75.7587H100.931V77.1286C101.976 77.1749 102.678 77.3931 103.191 77.6431L102.738 79.4031C102.333 79.2311 101.616 78.8742 100.493 78.8742C99.4798 78.8742 99.1513 79.3106 99.1513 79.7456C99.1513 80.26 99.6968 80.5866 101.022 81.0851C102.877 81.7397 103.625 82.5952 103.625 83.9969C103.625 85.3827 102.643 86.5661 100.85 86.8768V88.4649H99.3249Z" fill="#FBED10"/>
<path d="M117.198 65.2474C120.496 61.9546 120.496 56.6159 117.198 53.3232C113.901 50.0304 108.555 50.0304 105.258 53.3232C101.96 56.616 101.96 61.9546 105.258 65.2474C108.555 68.5402 113.901 68.5402 117.198 65.2474Z" fill="black"/>
<path d="M119.737 59.8427C120.182 55.3462 116.893 51.3402 112.391 50.8951C107.888 50.4501 103.877 53.7344 103.431 58.2309C102.985 62.7275 106.274 66.7334 110.777 67.1785C115.279 67.6236 119.291 64.3393 119.737 59.8427Z" fill="#99B9FF"/>
<path d="M111.59 67.434C106.952 67.434 103.18 63.6668 103.18 59.0354C103.18 54.4041 106.952 50.6369 111.59 50.6369C116.228 50.6369 120 54.4041 120 59.0354C120 63.6668 116.228 67.434 111.59 67.434ZM111.59 51.0704C107.192 51.0704 103.614 54.644 103.614 59.0354C103.614 63.4269 107.192 67.0005 111.59 67.0005C115.987 67.0005 119.566 63.4269 119.566 59.0354C119.566 54.644 115.987 51.0704 111.59 51.0704Z" fill="black"/>
<path d="M117.946 61.6619C119.399 58.1581 117.733 54.1411 114.225 52.6897C110.716 51.2384 106.693 52.9022 105.24 56.4061C103.787 59.9099 105.453 63.9269 108.961 65.3782C112.47 66.8296 116.493 65.1658 117.946 61.6619Z" fill="white"/>
<path d="M117.371 62.9717C117.33 62.9717 117.29 62.9601 117.254 62.937C117.152 62.872 117.123 62.7376 117.188 62.6379C117.534 62.1032 117.8 61.5237 117.978 60.9168C118.012 60.8012 118.133 60.7362 118.248 60.7694C118.362 60.8027 118.428 60.924 118.395 61.0382C118.204 61.6856 117.921 62.3026 117.553 62.872C117.511 62.937 117.442 62.9717 117.371 62.9717Z" fill="black"/>
<path d="M117.779 56.2565C117.698 56.2565 117.621 56.2117 117.583 56.1337C116.459 53.8216 114.163 52.3838 111.59 52.3838C109.477 52.3838 107.467 53.4011 106.217 55.1063C106.146 55.2031 106.01 55.2233 105.913 55.1525C105.816 55.0817 105.796 54.9459 105.867 54.8491C107.2 53.0341 109.34 51.9503 111.59 51.9503C114.289 51.9503 116.795 53.5182 117.974 55.9429C118.026 56.0513 117.981 56.1799 117.874 56.232C117.842 56.2507 117.811 56.2565 117.779 56.2565Z" fill="black"/>
<path d="M111.59 66.1189C107.679 66.1189 104.497 62.9413 104.497 59.0354C104.497 57.8216 104.809 56.6251 105.401 55.5731C105.459 55.469 105.592 55.4315 105.696 55.4907C105.8 55.55 105.838 55.6815 105.779 55.7855C105.224 56.7725 104.931 57.8967 104.931 59.0354C104.931 62.7014 107.917 65.6854 111.59 65.6854C111.71 65.6854 111.807 65.7822 111.807 65.9022C111.807 66.0207 111.71 66.1189 111.59 66.1189Z" fill="black"/>
<path d="M110.959 63.8835V62.7549C110.162 62.7188 109.389 62.5049 108.936 62.2433L109.293 60.8532C109.793 61.1263 110.496 61.3763 111.269 61.3763C111.947 61.3763 112.41 61.1148 112.41 60.6394C112.41 60.1885 112.03 59.9024 111.149 59.6062C109.875 59.1784 109.007 58.5845 109.007 57.4314C109.007 56.3852 109.745 55.5658 111.018 55.3158V54.1873H112.185V55.2335C112.982 55.2696 113.517 55.4358 113.909 55.6251L113.565 56.9675C113.255 56.8375 112.708 56.5629 111.852 56.5629C111.079 56.5629 110.829 56.8953 110.829 57.2276C110.829 57.6192 111.245 57.8692 112.257 58.2493C113.672 58.7478 114.244 59.4024 114.244 60.4717C114.244 61.5295 113.494 62.4326 112.125 62.6696V63.882H110.959V63.8835Z" fill="#FBED10"/>
<path d="M92.7721 67.724C96.0694 64.4312 96.0694 59.0925 92.7721 55.7997C89.4748 52.507 84.1288 52.507 80.8315 55.7997C77.5342 59.0925 77.5342 64.4312 80.8315 67.724C84.1288 71.0167 89.4748 71.0167 92.7721 67.724Z" fill="black"/>
<path d="M87.1627 69.6925C91.6876 69.6925 95.3557 66.0294 95.3557 61.5107C95.3557 56.992 91.6876 53.3289 87.1627 53.3289C82.6378 53.3289 78.9696 56.992 78.9696 61.5107C78.9696 66.0294 82.6378 69.6925 87.1627 69.6925Z" fill="#99B9FF"/>
<path d="M87.1627 69.9093C82.525 69.9093 78.7526 66.1421 78.7526 61.5107C78.7526 56.8794 82.525 53.1122 87.1627 53.1122C91.8004 53.1122 95.5727 56.8794 95.5727 61.5107C95.5727 66.1421 91.8004 69.9093 87.1627 69.9093ZM87.1627 53.5457C82.7652 53.5457 79.1867 57.1193 79.1867 61.5107C79.1867 65.9022 82.7652 69.4758 87.1627 69.4758C91.5602 69.4758 95.1386 65.9022 95.1386 61.5107C95.1386 57.1193 91.5616 53.5457 87.1627 53.5457Z" fill="black"/>
<path d="M93.5182 64.1384C94.9715 60.6346 93.3054 56.6176 89.7967 55.1662C86.2881 53.7149 82.2656 55.3787 80.8122 58.8826C79.3588 62.3864 81.025 66.4034 84.5337 67.8547C88.0423 69.3061 92.0648 67.6423 93.5182 64.1384Z" fill="white"/>
<path d="M92.9435 65.447C92.903 65.447 92.8625 65.4355 92.8263 65.4123C92.725 65.3473 92.6961 65.2129 92.7612 65.1132C93.107 64.5785 93.3733 63.9991 93.5513 63.3922C93.5845 63.2766 93.7061 63.2115 93.8204 63.2448C93.9347 63.278 94.0013 63.3994 93.968 63.5135C93.777 64.1609 93.4934 64.778 93.1258 65.3473C93.0839 65.4123 93.0144 65.447 92.9435 65.447Z" fill="black"/>
<path d="M93.3516 58.7334C93.2706 58.7334 93.1939 58.6886 93.1562 58.6106C92.0319 56.2985 89.7355 54.8607 87.1627 54.8607C85.0486 54.8607 83.0401 55.878 81.7899 57.5831C81.719 57.68 81.583 57.7002 81.486 57.6294C81.3891 57.5586 81.3688 57.4227 81.4397 57.3259C82.7724 55.511 84.9126 54.4272 87.1627 54.4272C89.8614 54.4272 92.3676 55.995 93.5469 58.4198C93.599 58.5282 93.5542 58.6568 93.4471 58.7088C93.4167 58.7262 93.3834 58.7334 93.3516 58.7334Z" fill="black"/>
<path d="M87.1627 68.5942C83.2514 68.5942 80.0694 65.4166 80.0694 61.5107C80.0694 60.2968 80.3819 59.1003 80.9738 58.0484C81.0331 57.9443 81.1648 57.9068 81.269 57.966C81.3731 58.0252 81.4108 58.1567 81.3514 58.2608C80.7972 59.2477 80.5035 60.372 80.5035 61.5107C80.5035 65.1767 83.4901 68.1607 87.1627 68.1607C87.2828 68.1607 87.3798 68.2575 87.3798 68.3775C87.3798 68.4974 87.2828 68.5942 87.1627 68.5942Z" fill="black"/>
<path d="M86.5318 66.3589V65.2303C85.7345 65.1942 84.9618 64.9803 84.5089 64.7187L84.8663 63.3286C85.3655 63.6017 86.0688 63.8517 86.8415 63.8517C87.5202 63.8517 87.9832 63.5902 87.9832 63.1148C87.9832 62.6639 87.6026 62.3778 86.7214 62.0816C85.448 61.6538 84.5798 61.0599 84.5798 59.9068C84.5798 58.8606 85.3178 58.0412 86.5912 57.7912V56.6627H87.7575V57.7089C88.5548 57.745 89.0902 57.9112 89.4823 58.1005L89.1379 59.4429C88.8283 59.3129 88.2813 59.0383 87.4247 59.0383C86.6519 59.0383 86.4016 59.3707 86.4016 59.703C86.4016 60.0946 86.8183 60.3446 87.8298 60.7247C89.245 61.2232 89.8166 61.8778 89.8166 62.9471C89.8166 64.0049 89.067 64.908 87.6981 65.145V66.3574H86.5318V66.3589Z" fill="#FBED10"/>
<path d="M101 54.0521C105.309 52.27 107.354 47.3375 105.57 43.0352C103.785 38.7328 98.8461 36.6897 94.5378 38.4719C90.2295 40.254 88.1837 45.1865 89.9683 49.4889C91.7529 53.7912 96.6921 55.8343 101 54.0521Z" fill="black"/>
<path d="M98.1268 54.1945C102.652 54.1945 106.32 50.5314 106.32 46.0127C106.32 41.494 102.652 37.8309 98.1268 37.8309C93.6019 37.8309 89.9338 41.494 89.9338 46.0127C89.9338 50.5314 93.6019 54.1945 98.1268 54.1945Z" fill="#99B9FF"/>
<path d="M98.1268 54.4113C93.4891 54.4113 89.7167 50.6441 89.7167 46.0127C89.7167 41.3814 93.4891 37.6142 98.1268 37.6142C102.765 37.6142 106.537 41.3814 106.537 46.0127C106.537 50.6441 102.765 54.4113 98.1268 54.4113ZM98.1268 38.0477C93.7293 38.0477 90.1508 41.6213 90.1508 46.0127C90.1508 50.4042 93.7293 53.9778 98.1268 53.9778C102.524 53.9778 106.103 50.4042 106.103 46.0127C106.103 41.6213 102.526 38.0477 98.1268 38.0477Z" fill="black"/>
<path d="M104.482 48.6398C105.936 45.136 104.27 41.119 100.761 39.6677C97.2525 38.2163 93.23 39.8801 91.7766 43.384C90.3233 46.8878 91.9894 50.9048 95.498 52.3561C99.0067 53.8075 103.029 52.1436 104.482 48.6398Z" fill="white"/>
<path d="M103.908 49.949C103.867 49.949 103.827 49.9375 103.79 49.9143C103.689 49.8493 103.66 49.7149 103.725 49.6152C104.071 49.0805 104.336 48.5025 104.515 47.8942C104.549 47.78 104.67 47.7136 104.785 47.7468C104.899 47.78 104.965 47.9014 104.932 48.0156C104.741 48.6644 104.458 49.2814 104.09 49.8493C104.048 49.9143 103.979 49.949 103.908 49.949Z" fill="black"/>
<path d="M104.316 43.2353C104.235 43.2353 104.158 43.1905 104.12 43.1125C102.996 40.8005 100.7 39.3626 98.1268 39.3626C96.0142 39.3626 94.0043 40.38 92.754 42.0851C92.6831 42.1819 92.5471 42.2021 92.4502 42.1313C92.3532 42.0605 92.333 41.9247 92.4039 41.8279C93.7366 40.0129 95.8767 38.9291 98.1268 38.9291C100.867 38.9291 103.313 40.4594 104.511 42.9218C104.563 43.0301 104.518 43.1588 104.411 43.2108C104.381 43.2281 104.348 43.2353 104.316 43.2353Z" fill="black"/>
<path d="M98.1268 53.0963C94.2155 53.0963 91.0335 49.9187 91.0335 46.0127C91.0335 44.8004 91.3461 43.6024 91.9364 42.5504C91.9943 42.4464 92.1275 42.4088 92.2316 42.4681C92.3358 42.5273 92.3735 42.6588 92.3141 42.7629C91.7599 43.7498 91.4662 44.8741 91.4662 46.0127C91.4662 49.6788 94.4528 52.6628 98.1254 52.6628C98.2455 52.6628 98.3424 52.7596 98.3424 52.8795C98.3439 52.9995 98.2469 53.0963 98.1268 53.0963Z" fill="black"/>
<path d="M97.4974 50.8609V49.7323C96.7001 49.6962 95.9273 49.4823 95.4744 49.2207L95.8318 47.8306C96.3311 48.1037 97.0343 48.3537 97.807 48.3537C98.4857 48.3537 98.9487 48.0922 98.9487 47.6168C98.9487 47.1659 98.5682 46.8798 97.6869 46.5836C96.4135 46.1558 95.5453 45.5619 95.5453 44.4088C95.5453 43.3626 96.2833 42.5432 97.5567 42.2932V41.1647H98.723V42.2109C99.5203 42.247 100.056 42.4132 100.448 42.6025L100.103 43.9449C99.7938 43.8149 99.2468 43.5403 98.3902 43.5403C97.6175 43.5403 97.3671 43.8727 97.3671 44.205C97.3671 44.5966 97.7839 44.8466 98.7953 45.2267C100.211 45.7252 100.782 46.3798 100.782 47.4491C100.782 48.5069 100.033 49.41 98.6637 49.647V50.8594H97.4974V50.8609Z" fill="#FBED10"/>
<path d="M8.55623 117.66H49.1842C51.6225 117.66 53.4486 115.425 52.9566 113.039L46.7923 83.1168C46.2743 80.601 44.056 78.7947 41.4832 78.7947H6.63458L8.55623 117.66Z" fill="#99B9FF"/>
<path d="M49.1842 117.877H8.55622C8.44046 117.877 8.34496 117.786 8.33917 117.671L6.41752 78.8063C6.41463 78.7471 6.43633 78.6893 6.47685 78.6459C6.51737 78.6026 6.57525 78.578 6.63458 78.578H41.4832C44.1457 78.578 46.4682 80.4681 47.005 83.0735L53.1693 112.996C53.4168 114.197 53.1143 115.431 52.3373 116.382C51.5617 117.332 50.4128 117.877 49.1842 117.877ZM8.76315 117.444H49.1842C50.2811 117.444 51.3085 116.957 52.0016 116.107C52.6947 115.257 52.9653 114.156 52.7439 113.083L46.5796 83.1616C46.0847 80.7571 43.9417 79.013 41.4832 79.013H6.86321L8.76315 117.444Z" fill="black"/>
<path d="M3.35419 117.66H11.239C13.6772 117.66 15.5019 115.425 15.0114 113.039L8.22197 80.0823C8.06714 79.3323 7.4073 78.7947 6.64037 78.7947H4.6131C3.77238 78.7947 3.07202 79.4392 3.00401 80.2759L0.227177 114.273C0.0781336 116.098 1.52081 117.66 3.35419 117.66Z" fill="#5479F7"/>
<path d="M11.239 117.877H3.35418C2.4194 117.877 1.5208 117.484 0.888455 116.798C0.25466 116.111 -0.0636851 115.185 0.01156 114.254L2.78839 80.2571C2.86509 79.315 3.66674 78.5765 4.61309 78.5765H6.64037C7.50568 78.5765 8.25958 79.1907 8.43467 80.036L15.2241 112.993C15.4715 114.194 15.1691 115.428 14.3921 116.379C13.6165 117.332 12.4661 117.877 11.239 117.877ZM4.61309 79.0129C3.89102 79.0129 3.27893 79.5765 3.22105 80.2947L0.444219 114.291C0.377656 115.111 0.648249 115.899 1.20825 116.504C1.76824 117.11 2.53082 117.444 3.35563 117.444H11.2404C12.3373 117.444 13.3647 116.957 14.0578 116.107C14.7509 115.257 15.0215 114.156 14.8001 113.083L8.00925 80.1256C7.87612 79.4797 7.30021 79.0115 6.64037 79.0115H4.61309V79.0129Z" fill="black"/>
<path d="M11.239 116.708H5.86619C5.74609 116.708 5.64914 116.611 5.64914 116.491C5.64914 116.371 5.74609 116.275 5.86619 116.275H11.2375C11.9813 116.275 12.6773 115.945 13.1462 115.369C13.6164 114.793 13.7988 114.046 13.6497 113.32L11.4213 102.501C11.3967 102.383 11.4734 102.269 11.5906 102.245C11.7078 102.22 11.8221 102.297 11.8467 102.414L14.0751 113.233C14.2517 114.088 14.0361 114.967 13.4833 115.643C12.932 116.319 12.113 116.708 11.239 116.708Z" fill="black"/>
<path d="M3.35417 116.708C2.73774 116.708 2.16761 116.458 1.74942 116.006C1.33123 115.552 1.12865 114.965 1.1793 114.351L1.81164 106.604C1.82177 106.484 1.92451 106.395 2.04606 106.406C2.16616 106.417 2.25443 106.521 2.2443 106.641L1.61196 114.387C1.57144 114.879 1.73351 115.35 2.06921 115.712C2.40492 116.075 2.86073 116.275 3.35562 116.275C3.47572 116.275 3.57267 116.371 3.57267 116.491C3.57122 116.611 3.47427 116.708 3.35417 116.708Z" fill="black"/>
<path d="M3.78973 85.2771C3.78394 85.2771 3.77816 85.2771 3.77237 85.2771C3.65226 85.267 3.564 85.163 3.57413 85.043L3.7058 83.4289C3.71593 83.309 3.81867 83.2208 3.94022 83.231C4.06032 83.2411 4.14859 83.3451 4.13846 83.465L4.00678 85.0791C3.99666 85.1904 3.90115 85.2771 3.78973 85.2771Z" fill="black"/>
<path d="M8.93534 89.5732C8.83405 89.5732 8.74433 89.5024 8.72263 89.3998L6.86031 80.3626C6.83861 80.2586 6.746 80.182 6.63892 80.182H4.61309C4.49588 80.182 4.39748 80.273 4.3888 80.3886L4.30198 81.4464C4.29185 81.5663 4.18767 81.6545 4.06756 81.6443C3.94746 81.6342 3.85919 81.5302 3.86932 81.4102L3.95614 80.3525C3.98364 80.0129 4.27304 79.747 4.61309 79.747H6.64036C6.95147 79.747 7.22351 79.9681 7.28718 80.273L9.1495 89.3102C9.1741 89.4273 9.0974 89.5415 8.9802 89.566C8.96572 89.5718 8.94981 89.5732 8.93534 89.5732Z" fill="black"/>
<path d="M45.9024 94.719H14.0911C13.0434 94.719 12.142 94.0081 11.9003 92.9893L9.09742 81.1675C9.06992 81.0504 9.14228 80.9348 9.25804 80.9059C9.3738 80.8785 9.49101 80.9507 9.51995 81.0663L12.3243 92.8882C12.5196 93.7104 13.246 94.2841 14.0925 94.2841H45.9039C46.024 94.2841 46.1209 94.3809 46.1209 94.5008C46.1209 94.6208 46.0225 94.719 45.9024 94.719Z" fill="black"/>
<path d="M26.369 94.5023L27.2604 98.0917C27.4051 98.6986 27.9478 99.1278 28.5729 99.1278H34.8732C35.5591 99.1278 36.0554 98.4747 35.8717 97.8143L34.9485 94.5023H26.369Z" fill="white"/>
<path d="M34.8732 99.3446H28.5729C27.8436 99.3446 27.217 98.8504 27.0491 98.1423L26.1592 94.5557C26.1433 94.4907 26.1578 94.4228 26.1983 94.3693C26.2388 94.3173 26.3025 94.2855 26.369 94.2855H34.9484C35.0454 94.2855 35.1308 94.3506 35.1583 94.4445L36.0815 97.7565C36.1871 98.1365 36.1104 98.5354 35.8716 98.8504C35.6314 99.164 35.2682 99.3446 34.8732 99.3446ZM26.6469 94.719L27.4717 98.0397C27.5932 98.5542 28.0461 98.9111 28.5729 98.9111H34.8732C35.1322 98.9111 35.3695 98.7926 35.5258 98.5874C35.6821 98.3822 35.7327 98.1206 35.6633 97.8721L34.7849 94.7176H26.6469V94.719Z" fill="black"/>
<path d="M46.8111 114.871H16.9953C16.8751 114.871 16.7782 114.775 16.7782 114.655C16.7782 114.535 16.8751 114.438 16.9953 114.438H46.8111C46.9312 114.438 47.0282 114.535 47.0282 114.655C47.0282 114.775 46.9312 114.871 46.8111 114.871Z" fill="black"/>
<path d="M33.4566 77.4379H36.0945C36.8079 77.4379 37.3852 78.0144 37.3852 78.7268H32.1658C32.1658 78.0144 32.7432 77.4379 33.4566 77.4379Z" fill="#5479F7"/>
<path d="M37.3852 78.9421H32.1658C32.0457 78.9421 31.9488 78.8453 31.9488 78.7254C31.9488 77.8959 32.6245 77.2197 33.4566 77.2197H36.0945C36.9251 77.2197 37.6023 77.8945 37.6023 78.7254C37.6023 78.8453 37.5039 78.9421 37.3852 78.9421ZM32.4046 78.5086H37.145C37.0437 78.0217 36.6111 77.6532 36.093 77.6532H33.4551C32.9385 77.6546 32.5059 78.0217 32.4046 78.5086Z" fill="black"/>
<path d="M12.3141 77.4379H14.9521C15.6654 77.4379 16.2428 78.0144 16.2428 78.7268H11.0248C11.0248 78.0144 11.6022 77.4379 12.3141 77.4379Z" fill="#5479F7"/>
<path d="M16.2428 78.9421H11.0249C10.9048 78.9421 10.8078 78.8453 10.8078 78.7254C10.8078 77.8959 11.4836 77.2197 12.3156 77.2197H14.9535C15.7841 77.2197 16.4613 77.8945 16.4613 78.7254C16.4599 78.8453 16.3629 78.9421 16.2428 78.9421ZM11.2636 78.5086H16.0041C15.9028 78.0217 15.4701 77.6532 14.9521 77.6532H12.3142C11.7976 77.6546 11.3635 78.0217 11.2636 78.5086Z" fill="black"/>
<path d="M13.0029 77.3685L12.5775 74.8469C12.2765 73.0594 13.4834 71.6086 15.2733 71.6086H31.0922C32.8821 71.6086 34.5795 73.058 34.8805 74.8469L35.3059 77.3685H34.0947L33.7634 75.4061C33.5289 74.0146 32.2093 72.886 30.8158 72.886H15.9824C14.5889 72.886 13.6498 74.0146 13.8842 75.4061L14.2155 77.3685H13.0029Z" fill="white"/>
<path d="M35.3059 77.5853H34.0947C33.9891 77.5853 33.8979 77.5087 33.8806 77.4046L33.5492 75.4423C33.3321 74.1519 32.1051 73.1028 30.8143 73.1028H15.9823C15.3804 73.1028 14.8537 73.3325 14.4991 73.7516C14.1374 74.1793 13.9941 74.7545 14.0983 75.37L14.4297 77.3324C14.4398 77.396 14.4225 77.4595 14.3819 77.5087C14.34 77.5578 14.2806 77.5853 14.2155 77.5853H13.0044C12.8987 77.5853 12.8076 77.5087 12.7902 77.4046L12.3648 74.8831C12.2071 73.9452 12.4285 73.0638 12.9899 72.4019C13.5412 71.7517 14.353 71.3933 15.2747 71.3933H31.0936C32.982 71.3933 34.7777 72.9265 35.0961 74.8122L35.5215 77.3338C35.5316 77.3974 35.5142 77.461 35.4737 77.5101C35.4303 77.5564 35.3695 77.5853 35.3059 77.5853ZM34.2785 77.1517H35.0483L34.6663 74.8831C34.3827 73.1967 32.7794 71.8254 31.0921 71.8254H15.2747C14.4818 71.8254 13.7887 72.1288 13.3213 72.6808C12.8438 73.2444 12.6556 74.0016 12.7931 74.8108L13.1881 77.1517H13.958L13.67 75.4423C13.5441 74.6981 13.7206 73.9987 14.1678 73.4713C14.6062 72.9539 15.2501 72.6693 15.9823 72.6693H30.8172C32.3105 72.6693 33.7286 73.8802 33.979 75.37L34.2785 77.1517Z" fill="black"/>
<path d="M16.0605 70.5652H29.9562C30.5162 70.5652 31.0473 71.019 31.1413 71.5782L31.3454 72.7906C31.4394 73.3498 31.0618 73.8035 30.5018 73.8035H16.606C16.046 73.8035 15.515 73.3498 15.4209 72.7906L15.2169 71.5782C15.1228 71.0175 15.5005 70.5652 16.0605 70.5652Z" fill="#99B9FF"/>
<path d="M30.5018 74.0189H16.6075C15.9476 74.0189 15.3196 73.4842 15.2082 72.8253L15.0042 71.6129C14.9477 71.2762 15.0288 70.9569 15.2328 70.7155C15.4339 70.4785 15.7277 70.347 16.0619 70.347H29.9562C30.6161 70.347 31.2441 70.8817 31.3555 71.5406L31.5595 72.753C31.616 73.0897 31.5349 73.4091 31.3309 73.6504C31.1283 73.8874 30.8346 74.0189 30.5018 74.0189ZM16.0605 70.782C15.8579 70.782 15.6814 70.8586 15.5627 70.9973C15.4426 71.1389 15.3949 71.3326 15.431 71.5421L15.6351 72.7545C15.7118 73.2126 16.1473 73.5868 16.606 73.5868H30.5003C30.7029 73.5868 30.8794 73.5102 30.9966 73.3715C31.1167 73.2299 31.1645 73.0363 31.1283 72.8267L30.9243 71.6143C30.8476 71.1563 30.412 70.782 29.9533 70.782H16.0605Z" fill="black"/>
<path d="M11.3128 114.871C11.2766 114.871 11.239 114.863 11.2057 114.843L5.75914 111.744C5.69113 111.705 5.64917 111.635 5.64917 111.557V81.1184C5.64917 80.9984 5.74612 80.9016 5.86622 80.9016C5.98633 80.9016 6.08328 80.9984 6.08328 81.1184V111.431L11.4199 114.467C11.5241 114.526 11.5603 114.659 11.5009 114.763C11.4619 114.832 11.3881 114.871 11.3128 114.871Z" fill="#99B9FF"/>
<path d="M49.2464 44.809C48.52 44.9897 47.811 44.3856 46.7098 43.4464C45.3713 42.3062 44.4394 41.5115 44.3902 40.2312C44.3468 39.1084 45.0009 38.0636 45.7548 37.5058C46.1874 37.185 46.8444 37.0377 48.1554 36.7429C49.6574 36.4047 49.8498 36.5391 50.7209 36.1981C51.7339 35.8022 51.893 35.4568 52.3575 35.5435C53.1114 35.6851 53.7915 36.7963 53.7771 37.8324C53.7568 39.2038 52.5355 39.4089 51.1579 41.6473C50.0047 43.5186 50.1074 44.5937 49.2464 44.809Z" fill="black"/>
<path d="M45.3337 49.4231C47.7849 48.624 51.5182 48.0517 55.9808 49.4708C57.6087 49.9881 58.7751 51.4187 58.9762 53.1122L62.6126 74.0175C62.7934 75.5377 60.7589 77.0145 59.3249 77.5579C57.8273 78.1243 55.5656 78.6604 52.3604 78.6604C48.9252 78.6604 46.4291 78.8598 45.0356 78.25C43.8794 77.7443 42.1386 76.5203 42.0807 75.2617L42.3325 53.7741C42.2443 51.8146 43.4684 50.0314 45.3337 49.4231Z" fill="#CADDFF"/>
<path d="M62.5026 58.4054C62.5026 58.4054 59.5998 50.3783 56.3455 49.6052L58.0009 60.9805L62.5026 58.4054Z" fill="#CADDFF"/>
<path d="M37.2969 61.6452C37.2969 61.6452 38.4574 57.3332 39.3488 54.9084C41.1504 50.0083 45.0023 49.5459 45.0023 49.5459V61.6076L37.2969 61.6452Z" fill="#CADDFF"/>
<path d="M52.0855 51.6932C48.8948 51.6932 46.0977 50.3898 45.9631 50.3262C45.8546 50.2756 45.8083 50.1456 45.8604 50.0372C45.911 49.9288 46.0413 49.8826 46.1498 49.9346C46.1874 49.9519 49.8904 51.6759 53.5166 51.1629C53.6352 51.147 53.7452 51.2279 53.7626 51.3464C53.7799 51.4649 53.6975 51.5747 53.5788 51.592C53.0752 51.6614 52.576 51.6932 52.0855 51.6932Z" fill="black"/>
<path d="M50.87 65.697L65.1231 65.6753C65.4849 65.6753 65.7989 65.4282 65.8857 65.0785L68.745 53.4894C68.8666 52.9937 68.4918 52.5154 67.981 52.5168L53.7278 52.5385C53.3661 52.5385 53.0521 52.7856 52.9667 53.1353L50.1074 64.7245C49.9829 65.2201 50.3592 65.6984 50.87 65.697Z" fill="#F4F4F4"/>
<path d="M58.3976 59.2512C58.2484 59.8386 58.5424 60.4202 59.0551 60.5501C59.5677 60.68 60.105 60.3091 60.2542 59.7202C60.4034 59.1329 60.1094 58.5513 59.5967 58.4214C59.084 58.2915 58.5467 58.6624 58.3976 59.2512Z" fill="white"/>
<path d="M50.8685 65.9138C50.5588 65.9138 50.2709 65.7736 50.0799 65.5308C49.8874 65.2866 49.8209 64.9745 49.8947 64.6725L52.754 53.0833C52.864 52.6354 53.2648 52.3218 53.7264 52.3218L67.9796 52.3001H67.981C68.2907 52.3001 68.5786 52.4403 68.7696 52.683C68.9621 52.9273 69.0286 53.2394 68.9548 53.5414L66.0955 65.1306C65.9856 65.5785 65.5847 65.8921 65.1231 65.8921L50.87 65.9138C50.8685 65.9138 50.8685 65.9138 50.8685 65.9138ZM50.8685 65.4803V65.697V65.4803L65.1217 65.4586C65.3836 65.4586 65.6108 65.2809 65.673 65.0265L68.5323 53.4374C68.5743 53.2668 68.5367 53.0891 68.4267 52.9504C68.3182 52.8117 68.1546 52.7336 67.9796 52.7336C67.9796 52.7336 67.9796 52.7336 67.9781 52.7336L53.7249 52.7553C53.463 52.7553 53.2358 52.933 53.1736 53.1874L50.3143 64.7765C50.2723 64.947 50.31 65.1248 50.4185 65.2635C50.5299 65.4008 50.692 65.4803 50.8685 65.4803Z" fill="black"/>
<path d="M67.693 58.2753L67.2763 59.4357L63.8468 57.8115C63.8468 57.8115 61.9643 59.4443 66.5354 61.5252C68.4411 62.3922 67.693 58.2753 67.693 58.2753Z" fill="white"/>
<path d="M67.0129 61.8619C66.8407 61.8619 66.6512 61.8157 66.4457 61.7218C64.4734 60.8229 63.4012 59.8779 63.2608 58.9112C63.1494 58.1395 63.6819 57.667 63.7036 57.6482C63.7687 57.5918 63.8613 57.5788 63.9395 57.6164L67.1533 59.138L67.489 58.2031C67.5223 58.1106 67.6149 58.0514 67.7118 58.06C67.8102 58.0687 67.8898 58.141 67.9072 58.2378C67.9593 58.521 68.3847 61.0209 67.5208 61.6914C67.3732 61.8056 67.2039 61.8619 67.0129 61.8619ZM63.8975 58.0759C63.7904 58.2132 63.6342 58.4863 63.6906 58.8562C63.7745 59.4126 64.3519 60.2926 66.6251 61.3273C67.039 61.5151 67.201 61.3894 67.2531 61.3489C67.6178 61.0657 67.6626 60.0831 67.5917 59.1973L67.4789 59.5094C67.4586 59.5672 67.4138 59.6135 67.3573 59.6366C67.3009 59.6597 67.2372 59.6582 67.1822 59.6322L63.8975 58.0759Z" fill="black"/>
<path d="M46.7966 55.0456C46.7966 55.0456 40.395 58.6467 39.0753 59.7767C37.7556 60.9067 36.3231 61.765 38.1897 64.2274C40.0564 66.6897 47.9846 56.8013 47.9846 56.8013C47.9846 56.8013 49.5112 57.0513 50.0394 54.9748C50.0394 54.9748 52.6151 55.063 52.7077 54.2552L49.0728 53.6122C48.6025 53.5283 48.1221 53.683 47.7893 54.0254L46.7966 55.0456Z" fill="white"/>
<path d="M39.0146 64.8386C39.0073 64.8386 39.0015 64.8386 38.9943 64.8386C38.5848 64.8329 38.2563 64.671 38.019 64.3589C36.1726 61.9211 37.4228 60.8778 38.6311 59.8692C38.7324 59.7854 38.8337 59.7001 38.9364 59.6134C40.2272 58.5094 46.1498 55.1641 46.665 54.8737L47.6374 53.8766C48.0208 53.4836 48.5736 53.3058 49.1148 53.4012L52.7497 54.0443C52.8625 54.0645 52.9407 54.1685 52.9277 54.2827C52.8278 55.1526 50.9076 55.2075 50.2073 55.1988C49.6979 56.9126 48.4868 57.0369 48.0859 57.0282C47.3465 57.9357 41.6626 64.8386 39.0146 64.8386ZM48.8225 53.8073C48.4954 53.8073 48.1785 53.9388 47.947 54.1772L46.9529 55.1974C46.9384 55.2118 46.9225 55.2248 46.9037 55.235C46.84 55.2711 40.5064 58.8389 39.2171 59.9414C39.1144 60.0296 39.0117 60.1163 38.9089 60.2015C37.7122 61.2 36.7673 61.989 38.3648 64.0973C38.5197 64.3011 38.7266 64.4022 39.0001 64.4051C39.0059 64.4051 39.0117 64.4051 39.0175 64.4051C41.583 64.4066 47.7546 56.7436 47.8168 56.667C47.866 56.6063 47.9441 56.5759 48.0208 56.5889C48.0744 56.5962 49.3593 56.7696 49.831 54.9228C49.8556 54.8246 49.9468 54.7567 50.0481 54.7595C50.8743 54.787 51.9813 54.6786 52.3604 54.4156L49.0366 53.8275C48.9657 53.8145 48.8948 53.8073 48.8225 53.8073Z" fill="black"/>
<path d="M54.4022 107.182L52.2794 113.506C52.2794 113.506 54.5918 113.309 54.8117 113.353C55.0331 113.396 57.7361 107.586 57.7361 107.586L54.4022 107.182Z" fill="white"/>
<path d="M52.2809 113.723C52.2143 113.723 52.1521 113.692 52.1101 113.64C52.0652 113.583 52.0522 113.507 52.0754 113.438L54.1982 107.115C54.2314 107.016 54.327 106.956 54.4297 106.969L57.7651 107.372C57.8346 107.38 57.8953 107.421 57.9286 107.482C57.9619 107.542 57.9648 107.616 57.9358 107.678C57.9286 107.693 57.2514 109.149 56.5539 110.581C55.0736 113.626 54.9854 113.609 54.7712 113.567C54.6221 113.546 53.3965 113.63 52.2982 113.724C52.2924 113.723 52.2866 113.723 52.2809 113.723ZM54.5527 107.418L52.592 113.262C53.2388 113.208 54.3429 113.126 54.7365 113.13C55.0751 112.675 56.4874 109.749 57.4164 107.763L54.5527 107.418ZM54.8435 113.137C54.8479 113.137 54.8522 113.139 54.8551 113.139C54.8508 113.139 54.8464 113.137 54.8435 113.137Z" fill="black"/>
<path d="M52.7671 112.116C52.7671 112.116 55.9592 110.81 56.5496 112.45C57.3006 114.535 58.4741 117.718 58.4741 117.718C58.6738 118.272 58.2903 118.863 57.7028 118.91C56.5365 119.004 54.7958 119.079 53.9854 118.796C52.7063 118.348 50.5821 114.304 50.5821 114.304L51.2361 110.863C51.2376 110.862 52.3952 110.698 52.7671 112.116Z" fill="#99B9FF"/>
<path d="M55.8246 119.211C55.0693 119.211 54.3631 119.157 53.9145 119C52.592 118.536 50.6124 114.825 50.391 114.403C50.3679 114.36 50.3607 114.311 50.3693 114.262L51.0234 110.821C51.0408 110.73 51.1146 110.659 51.2057 110.646C51.2187 110.645 52.4256 110.492 52.9045 111.831C53.4804 111.626 55.0302 111.149 56.0069 111.583C56.3687 111.743 56.619 112.01 56.7507 112.376C57.493 114.437 58.6622 117.611 58.6753 117.643C58.7939 117.973 58.7534 118.328 58.5638 118.621C58.3743 118.915 58.0661 119.098 57.7188 119.126C57.1342 119.173 56.4613 119.211 55.8246 119.211ZM50.8107 114.269C51.4213 115.419 53.0941 118.253 54.0578 118.591C54.6482 118.798 55.936 118.835 57.6855 118.694C57.8982 118.676 58.0863 118.565 58.2006 118.386C58.3164 118.208 58.341 117.991 58.2687 117.79C58.2571 117.76 57.0864 114.585 56.3441 112.522C56.2529 112.269 56.0851 112.091 55.8319 111.979C54.8074 111.523 52.8669 112.308 52.8481 112.315C52.7902 112.338 52.7251 112.337 52.6687 112.308C52.6122 112.281 52.5717 112.23 52.5558 112.169C52.3098 111.233 51.702 111.086 51.417 111.071L50.8107 114.269Z" fill="black"/>
<path d="M57.6551 117.749H54.3761C54.256 117.749 54.1591 117.652 54.1591 117.532C54.1591 117.412 54.256 117.315 54.3761 117.315H57.6551C57.7752 117.315 57.8721 117.412 57.8721 117.532C57.8721 117.652 57.7752 117.749 57.6551 117.749Z" fill="black"/>
<path d="M48.384 108.736L49.1061 115.097L52.0073 114.302L51.7831 108.571L48.384 108.736Z" fill="white"/>
<path d="M49.1061 115.314C49.0627 115.314 49.0207 115.301 48.9846 115.276C48.9325 115.24 48.8977 115.184 48.8905 115.122L48.1699 108.76C48.1627 108.701 48.1815 108.641 48.2205 108.596C48.2596 108.55 48.316 108.522 48.3754 108.519L51.7744 108.354C51.8323 108.35 51.8887 108.372 51.9321 108.411C51.9755 108.45 52.0001 108.505 52.003 108.563L52.2259 114.294C52.2302 114.395 52.1636 114.484 52.0667 114.51L49.1654 115.305C49.1437 115.311 49.1249 115.314 49.1061 115.314ZM48.6271 108.941L49.2942 114.821L51.7845 114.139L51.5761 108.798L48.6271 108.941Z" fill="black"/>
<path d="M48.8326 119.783H53.4225C54.0433 119.783 54.5208 119.233 54.4297 118.62C54.2763 117.585 53.7771 115.867 52.2808 113.506C52.1173 113.249 51.8323 113.091 51.527 113.091H50.1306C49.8904 113.091 49.6878 113.273 49.6632 113.512L49.5576 114.517L48.9498 113.716C48.9498 113.716 47.8646 115.997 47.8139 118.749C47.8038 119.318 48.2625 119.783 48.8326 119.783Z" fill="#99B9FF"/>
<path d="M53.4226 120H48.8326C48.4983 120 48.1843 119.868 47.9514 119.63C47.7169 119.392 47.5911 119.078 47.5983 118.744C47.6489 115.978 48.7096 113.717 48.7545 113.623C48.7863 113.555 48.8529 113.509 48.9281 113.5C49.0033 113.491 49.0771 113.525 49.1235 113.585L49.3998 113.95L49.4476 113.49C49.4838 113.139 49.7775 112.876 50.1306 112.876H51.527C51.909 112.876 52.2606 113.068 52.4646 113.392C53.9855 115.793 54.4905 117.545 54.6453 118.591C54.6974 118.945 54.5932 119.303 54.3588 119.575C54.1229 119.845 53.7829 120 53.4226 120ZM49.0019 114.145C48.7096 114.87 48.0686 116.686 48.0309 118.753C48.0266 118.968 48.1091 119.173 48.2596 119.327C48.4115 119.481 48.6155 119.566 48.8312 119.566H53.4211C53.6541 119.566 53.8755 119.465 54.0289 119.289C54.1808 119.113 54.2488 118.881 54.2141 118.652C54.065 117.647 53.5774 115.958 52.0956 113.622C51.9726 113.428 51.7541 113.308 51.5255 113.308H50.1291C49.9989 113.308 49.8904 113.405 49.8774 113.535L49.7717 114.541C49.763 114.629 49.6994 114.702 49.614 114.727C49.5286 114.75 49.436 114.72 49.3825 114.649L49.0019 114.145Z" fill="black"/>
<path d="M53.9854 118.905H48.4911C48.371 118.905 48.274 118.808 48.274 118.688C48.274 118.568 48.371 118.471 48.4911 118.471H53.9854C54.1055 118.471 54.2025 118.568 54.2025 118.688C54.2025 118.808 54.1055 118.905 53.9854 118.905Z" fill="black"/>
<path d="M59.2801 70.5321C59.16 70.2387 58.9169 70.0147 58.613 69.9194C56.9345 69.3934 51.0827 68.0076 45.0588 71.8658C44.7751 72.0479 44.5928 72.3528 44.5682 72.6895C44.3497 75.7458 43.5379 91.7278 48.6011 110.649L52.0117 110.406L52.7063 78.0535C52.7063 78.0535 57.7578 89.9143 53.6497 108.791L57.1964 109.445C57.1964 109.445 62.3869 102.629 63.3158 92.2148C64.1406 82.9998 60.2004 72.769 59.2801 70.5321Z" fill="black"/>
<path d="M49.4707 95.6945C49.4678 95.6945 49.465 95.6945 49.4606 95.6945C46.2366 95.5557 45.8734 91.1917 45.8691 91.1484C45.8604 91.0285 45.9501 90.9259 46.0688 90.9157C46.1903 90.9071 46.2931 90.9967 46.3017 91.1152C46.3046 91.1556 46.6403 95.1381 49.4794 95.2609C49.5995 95.2667 49.6921 95.3679 49.6863 95.4864C49.682 95.6034 49.5865 95.6945 49.4707 95.6945Z" fill="white"/>
<path d="M53.0029 81.2369C52.8857 81.2369 52.7902 81.1444 52.7859 81.0259L52.6658 76.9784C52.6643 76.9062 52.6976 76.8368 52.7584 76.7949L54.8841 75.3022C54.9825 75.2328 55.117 75.2574 55.1865 75.3542C55.256 75.4524 55.2314 75.5868 55.1344 75.6562L53.1042 77.0824L53.2214 81.0129C53.2243 81.1329 53.1303 81.2326 53.0102 81.2355C53.0087 81.2369 53.0058 81.2369 53.0029 81.2369Z" fill="white"/>
<path d="M47.8284 48.4101C48.4549 47.9954 48.821 47.2859 48.8036 46.5359L48.7327 43.4218C48.711 43.4016 48.6908 43.3828 48.6691 43.3626C48.6691 43.3626 47.4203 43.4464 47.238 42.8106C47.0556 42.1748 47.9398 42.0534 47.9398 42.0534C47.9398 42.0534 47.1048 40.3006 49.2638 40.3208C49.8441 40.3266 50.051 39.3671 51.0017 39.1518C51.0017 39.1518 51.472 39.1113 51.9495 40.3439L52.9942 41.8872L52.4733 42.1733C52.6021 42.76 52.6571 43.4074 52.5775 44.0938C52.5543 44.2918 52.4183 44.4579 52.2288 44.5186C52.0725 44.5692 51.8612 44.6227 51.6109 44.6516L51.7787 46.7368C51.8525 47.6486 52.3315 48.4795 53.0825 49.0055C53.8075 49.5141 54.476 49.8725 54.476 49.8725C54.476 49.8725 50.6283 50.3985 46.2033 49.3898C46.2033 49.3884 47.0571 48.9217 47.8284 48.4101Z" fill="white"/>
<path d="M51.9075 50.2222C50.3823 50.2222 48.3305 50.0965 46.1541 49.5994C46.0659 49.5791 45.9993 49.5069 45.9877 49.4173C45.9747 49.3277 46.0196 49.241 46.0992 49.1976C46.1078 49.1933 46.9543 48.7295 47.7097 48.2295C48.2755 47.8552 48.6039 47.2237 48.588 46.5402L48.52 43.5837C48.1293 43.588 47.2148 43.5172 47.0296 42.8698C46.9674 42.6545 46.9934 42.4508 47.1048 42.2817C47.2394 42.0751 47.4709 41.9609 47.6533 41.9017C47.565 41.6083 47.4782 41.1098 47.7401 40.6994C47.9976 40.2962 48.5142 40.0968 49.2667 40.104C49.4331 40.1055 49.572 39.961 49.7876 39.724C50.0524 39.4321 50.3823 39.0694 50.9539 38.9408C50.964 38.9379 50.9742 38.9365 50.9828 38.9365C51.0885 38.9278 51.634 38.9495 52.1419 40.2428L53.1722 41.7658C53.2069 41.8164 53.2171 41.8785 53.204 41.9378C53.1896 41.997 53.1505 42.0476 53.0969 42.0765L52.7164 42.2846C52.835 42.9031 52.8611 43.5187 52.7916 44.1169C52.7598 44.3987 52.5644 44.6357 52.2939 44.7224C52.1477 44.7701 51.9972 44.8076 51.8424 44.8351L51.9943 46.718C52.0623 47.5662 52.5037 48.335 53.2055 48.8277C53.9102 49.3219 54.57 49.6774 54.5773 49.6803C54.6597 49.7251 54.7046 49.8176 54.6887 49.9101C54.6713 50.0025 54.5975 50.0733 54.5049 50.0863C54.4846 50.0878 53.4732 50.2222 51.9075 50.2222ZM46.8053 49.2959C49.8556 49.9115 52.5746 49.8132 53.7828 49.7207C53.5455 49.5762 53.2561 49.3927 52.9566 49.1818C52.1492 48.6153 51.6412 47.7309 51.5617 46.7526L51.3938 44.6675C51.3837 44.5504 51.469 44.4478 51.5848 44.4348C51.7831 44.4117 51.9755 44.3698 52.1607 44.3105C52.2693 44.2759 52.3474 44.1805 52.3604 44.0678C52.4299 43.4652 52.3951 42.8438 52.2591 42.2181C52.2389 42.1242 52.2823 42.0274 52.3662 41.9811L52.6788 41.8092L51.7686 40.4639C51.7599 40.4508 51.7512 40.4364 51.7454 40.4205C51.3981 39.5246 51.0827 39.3887 51.0147 39.37C50.5965 39.4755 50.3476 39.7486 50.1074 40.0144C49.8744 40.2717 49.6328 40.5361 49.2681 40.5361C49.2537 40.5361 49.2392 40.5361 49.2247 40.5361C48.6488 40.5361 48.2726 40.669 48.1047 40.932C47.8486 41.3323 48.1322 41.9537 48.1351 41.9595C48.1655 42.0216 48.1626 42.0953 48.1293 42.156C48.096 42.2167 48.0367 42.2586 47.9687 42.2673C47.8718 42.2817 47.5708 42.3569 47.4666 42.5173C47.4405 42.5577 47.4102 42.6242 47.4463 42.7499C47.5476 43.1025 48.3044 43.169 48.6546 43.1458C48.7139 43.1415 48.7747 43.1632 48.8181 43.2051L48.8789 43.2629C48.9223 43.3033 48.9469 43.3583 48.9483 43.4175L49.0192 46.5316C49.0381 47.3653 48.6372 48.1355 47.947 48.5922C47.5476 48.8566 47.1222 49.1109 46.8053 49.2959Z" fill="black"/>
<path d="M51.6109 44.6501C51.6109 44.6501 50.242 44.6978 49.6979 43.9536L51.6109 44.6501Z" fill="white"/>
<path d="M51.5545 44.8684C51.2622 44.8684 50.0626 44.8221 49.5214 44.0823C49.4505 43.9854 49.4722 43.8496 49.5691 43.7788C49.6661 43.708 49.8021 43.7297 49.873 43.8265C50.2637 44.3612 51.2535 44.4464 51.6037 44.4334C51.7281 44.4305 51.8236 44.523 51.8279 44.6429C51.8323 44.7629 51.7382 44.8626 51.6181 44.8669C51.6109 44.8669 51.5892 44.8684 51.5545 44.8684Z" fill="black"/>
<path d="M64.3505 116.091C64.242 116.091 64.1494 116.01 64.1349 115.9C64.1204 115.782 64.2043 115.674 64.3245 115.659C68.897 115.1 73.3698 113.857 77.6182 111.967C79.7439 111.021 81.8088 109.912 83.7565 108.672C83.8578 108.609 83.9923 108.638 84.056 108.739C84.1211 108.84 84.0907 108.974 83.9894 109.038C82.0244 110.289 79.9407 111.409 77.7947 112.363C73.5072 114.27 68.9925 115.525 64.378 116.09C64.3679 116.09 64.3592 116.091 64.3505 116.091Z" fill="black"/>
<path d="M62.1785 118.52C62.0628 118.52 61.9673 118.429 61.9615 118.314C61.9557 118.194 62.0483 118.093 62.1684 118.087C68.2415 117.793 74.1526 116.386 79.7338 113.902C82.282 112.768 84.7404 111.414 87.0427 109.878C87.1425 109.811 87.2771 109.837 87.3436 109.937C87.4102 110.036 87.3841 110.171 87.2843 110.237C84.9618 111.788 82.4802 113.153 79.9103 114.296C74.2785 116.802 68.3168 118.223 62.1886 118.519C62.1858 118.52 62.1814 118.52 62.1785 118.52Z" fill="black"/>
<path d="M114.244 38.6185C114.124 38.6185 114.027 38.5217 114.027 38.4018V37.2804C114.027 37.1605 114.124 37.0637 114.244 37.0637C114.364 37.0637 114.461 37.1605 114.461 37.2804V38.4018C114.461 38.5217 114.362 38.6185 114.244 38.6185Z" fill="black"/>
<path d="M114.244 41.2297C114.124 41.2297 114.027 41.1328 114.027 41.0129V39.8916C114.027 39.7716 114.124 39.6748 114.244 39.6748C114.364 39.6748 114.461 39.7716 114.461 39.8916V41.0129C114.461 41.1314 114.362 41.2297 114.244 41.2297Z" fill="black"/>
<path d="M113.497 39.3627H112.376C112.256 39.3627 112.159 39.2659 112.159 39.146C112.159 39.026 112.256 38.9292 112.376 38.9292H113.497C113.617 38.9292 113.714 39.026 113.714 39.146C113.714 39.2659 113.617 39.3627 113.497 39.3627Z" fill="black"/>
<path d="M116.112 39.3627H114.99C114.87 39.3627 114.773 39.2659 114.773 39.146C114.773 39.026 114.87 38.9292 114.99 38.9292H116.112C116.232 38.9292 116.329 39.026 116.329 39.146C116.329 39.2659 116.231 39.3627 116.112 39.3627Z" fill="black"/>
<path d="M13.301 36.3541C13.2648 36.3541 13.2272 36.3454 13.1939 36.3252C13.0898 36.2659 13.0536 36.133 13.1129 36.0289C17.0343 29.1506 23.6877 23.1537 28.5787 19.3345C33.8733 15.1988 38.3027 12.6526 38.3475 12.6266C38.4517 12.5674 38.5848 12.6035 38.6442 12.7076C38.7035 12.8116 38.6673 12.9445 38.5631 13.0038C38.388 13.1035 20.9312 23.1942 13.4906 36.2443C13.4501 36.3136 13.3763 36.3541 13.301 36.3541Z" fill="black"/>
<path d="M10.3419 36.5188C10.3115 36.5188 10.2797 36.5116 10.2493 36.4986C10.1407 36.448 10.0944 36.318 10.1451 36.2096C15.159 25.5568 29.7754 15.1381 29.923 15.0341C30.0214 14.9647 30.1559 14.9878 30.2254 15.0861C30.2948 15.1843 30.2717 15.3187 30.1733 15.3881C30.0271 15.4921 15.5034 25.8458 10.5372 36.3946C10.501 36.474 10.4229 36.5188 10.3419 36.5188Z" fill="black"/>
<path d="M9.16254 38.9119C9.03375 38.9119 8.90497 38.8859 8.78197 38.8338C8.54466 38.7327 8.36089 38.5448 8.26538 38.305C8.16988 38.0651 8.17277 37.8035 8.27406 37.5666C8.37536 37.3296 8.56347 37.1461 8.80367 37.0507C9.29856 36.8527 9.86289 37.094 10.0611 37.5868C10.1566 37.8267 10.1537 38.0882 10.0525 38.3252C9.95116 38.5622 9.76305 38.7457 9.52284 38.8411C9.40708 38.8888 9.28409 38.9119 9.16254 38.9119ZM9.16254 37.4148C9.09742 37.4148 9.02941 37.4264 8.96574 37.4524C8.83406 37.5059 8.72988 37.6056 8.67489 37.7371C8.61846 37.8671 8.61701 38.0116 8.67055 38.1446C8.72409 38.2761 8.82538 38.3801 8.95561 38.435C9.08584 38.4914 9.23055 38.4928 9.36367 38.4394C9.49535 38.3859 9.59954 38.2862 9.65452 38.1547C9.71096 38.0246 9.7124 37.8801 9.65886 37.7472C9.57494 37.542 9.3738 37.4148 9.16254 37.4148Z" fill="black"/>
<path d="M41.5497 13.1425C41.4875 13.1425 41.4282 13.1165 41.3862 13.0688L39.1694 10.5429C39.1187 10.4837 39.1014 10.4028 39.1274 10.3291C39.1535 10.2554 39.2157 10.2019 39.2924 10.1874L43.2167 9.46059C43.2977 9.4447 43.3817 9.47793 43.4309 9.5444C43.4801 9.61088 43.4873 9.70047 43.4482 9.77416L41.7407 13.0284C41.7075 13.092 41.6452 13.1353 41.5743 13.1425C41.5671 13.1425 41.5584 13.1425 41.5497 13.1425ZM39.7468 10.5429L41.5034 12.5457L42.8564 9.96635L39.7468 10.5429Z" fill="black"/>
<path d="M65.7165 28.5712C65.6644 28.5712 65.6123 28.5524 65.5718 28.5148C65.482 28.4354 65.4748 28.2981 65.5558 28.2085L75.0628 17.6626C75.1438 17.573 75.2798 17.5658 75.3695 17.6467C75.4593 17.7262 75.4665 17.8635 75.3855 17.9531L65.8785 28.4989C65.8351 28.5481 65.7758 28.5712 65.7165 28.5712Z" fill="white"/>
<path d="M69.0446 20.768C68.9925 20.768 68.9404 20.7492 68.8999 20.7116C68.8102 20.6322 68.803 20.4949 68.884 20.4053L80.5774 7.43467C80.6584 7.34508 80.7944 7.33785 80.8841 7.41878C80.9739 7.49825 80.9811 7.63553 80.9001 7.72512L69.2067 20.6958C69.1633 20.7449 69.1039 20.768 69.0446 20.768Z" fill="white"/>
<path d="M70.781 36.5188C70.7289 36.5188 70.6769 36.5 70.6363 36.4625C70.5466 36.383 70.5394 36.2457 70.6204 36.1561L80.1273 25.6103C80.2084 25.5207 80.3444 25.5135 80.4341 25.5944C80.5238 25.6739 80.5311 25.8111 80.45 25.9007L70.9431 36.4466C70.8997 36.4957 70.8404 36.5188 70.781 36.5188Z" fill="black"/>
<path d="M77.9105 25.9744C77.8584 25.9744 77.8063 25.9556 77.7643 25.9181C77.6761 25.8371 77.6703 25.6999 77.7513 25.6117L82.6828 20.229C82.7638 20.1408 82.9013 20.135 82.9895 20.216C83.0778 20.2969 83.0836 20.4342 83.0026 20.5223L78.0711 25.9051C78.0277 25.9499 77.9698 25.9744 77.9105 25.9744Z" fill="black"/>
<path d="M42.0823 34.2112C41.9622 34.2112 41.8652 34.1143 41.8652 33.9944V32.8731C41.8652 32.7531 41.9622 32.6563 42.0823 32.6563C42.2024 32.6563 42.2993 32.7531 42.2993 32.8731V33.9944C42.2993 34.1143 42.2024 34.2112 42.0823 34.2112Z" fill="black"/>
<path d="M42.0823 36.8223C41.9622 36.8223 41.8652 36.7255 41.8652 36.6056V35.4857C41.8652 35.3657 41.9622 35.2689 42.0823 35.2689C42.2024 35.2689 42.2993 35.3657 42.2993 35.4857V36.6056C42.2993 36.7255 42.2024 36.8223 42.0823 36.8223Z" fill="black"/>
<path d="M41.3356 34.9568H40.2127C40.0926 34.9568 39.9957 34.86 39.9957 34.7401C39.9957 34.6201 40.0926 34.5233 40.2127 34.5233H41.3356C41.4557 34.5233 41.5527 34.6201 41.5527 34.7401C41.5527 34.86 41.4557 34.9568 41.3356 34.9568Z" fill="black"/>
<path d="M43.9504 34.9568H42.8289C42.7088 34.9568 42.6119 34.86 42.6119 34.7401C42.6119 34.6201 42.7088 34.5233 42.8289 34.5233H43.9504C44.0705 34.5233 44.1674 34.6201 44.1674 34.7401C44.1674 34.86 44.0705 34.9568 43.9504 34.9568Z" fill="black"/>
</g>
<defs>
<clipPath id="clip0_1_862">
<rect width="120" height="120" fill="white"/>
</clipPath>
</defs>
</svg>
