<svg width="120" height="120" viewBox="0 0 120 120" fill="none" xmlns="http://www.w3.org/2000/svg">
<g clip-path="url(#clip0_1_721)">
<path d="M5.28747 37.208C2.6908 42.9533 -1.15134 53.9531 0.392469 67.6344C2.37364 85.1878 12.1839 99.0264 21.7263 106.802C53.3917 132.606 111.358 115.936 119.035 91.6287C120.429 87.2183 120.036 82.9653 119.555 77.7323C118.023 61.0867 109.952 56.1395 104.523 38.465C99.5829 22.3808 104.453 20.5711 99.8335 13.4216C89.8132 -2.08968 60.8863 -2.87188 40.9833 4.5648C33.3382 7.42084 14.7864 16.1824 5.28747 37.208Z" fill="#F4F4F4"/>
<path d="M115.225 90.3991L112.539 92.2074C112.084 92.4845 13.9827 84.2122 13.9827 83.1529L12.52 7.95195L15.1861 6.48568C15.1861 6.48568 16.3071 5.82471 16.966 5.868L114.616 13.0824C115.692 13.1517 116.474 13.9801 116.474 15.0538V88.269C116.474 89.1075 115.99 89.9315 115.225 90.3991Z" fill="#99B9FF"/>
<path d="M110.995 92.4123L13.3455 85.1979C12.2694 85.1286 11.4874 84.3002 11.4874 83.2265V10.0893C11.4874 8.69807 12.7749 7.49879 14.1709 7.58826L111.82 14.8027C112.897 14.872 113.679 15.7004 113.679 16.7741V89.9113C113.68 91.3025 112.391 92.5033 110.995 92.4123Z" fill="white"/>
<path d="M11.4874 49.0536C11.3672 49.0536 11.2701 48.957 11.2701 48.8372V10.0894C11.2701 9.36777 11.5931 8.6534 12.155 8.12808C12.7198 7.60133 13.4599 7.32712 14.1854 7.3733L30.4084 8.57114C30.5287 8.5798 30.6184 8.68371 30.6083 8.80349C30.5996 8.92327 30.4939 9.01131 30.3751 9.00409L14.155 7.80626C13.5511 7.76585 12.9284 7.99964 12.4519 8.44558C11.9769 8.88864 11.7046 9.489 11.7046 10.0908V48.8372C11.7046 48.957 11.6076 49.0536 11.4874 49.0536Z" fill="black"/>
<path d="M113.68 86.2832C113.56 86.2832 113.463 86.1865 113.463 86.0667V16.7741C113.463 15.8187 112.766 15.0813 111.807 15.0192L83.3788 12.9194C83.2586 12.9107 83.1688 12.8068 83.1789 12.687C83.1876 12.5673 83.2919 12.4792 83.4121 12.4864L111.839 14.5863C113.031 14.6627 113.899 15.5835 113.899 16.7727V86.0638C113.897 86.1851 113.799 86.2832 113.68 86.2832Z" fill="black"/>
<path d="M108.217 87.9038L101.38 87.4796C100.685 87.4363 100.181 86.9023 100.181 86.211V20.9896C100.181 20.0963 101.008 19.3242 101.904 19.3805L108.742 19.8048C109.437 19.848 109.941 20.382 109.941 21.0733V86.2933C109.941 87.188 109.115 87.9587 108.217 87.9038Z" fill="#FBED10"/>
<path d="M94.9443 86.8777L88.1072 86.4477C87.4121 86.4044 86.9081 85.8632 86.9081 85.1632V29.8493C86.9081 28.9444 87.735 28.1636 88.6315 28.2199L95.4686 28.65C96.1637 28.6933 96.6677 29.2345 96.6677 29.9344V85.2484C96.6677 86.1533 95.8407 86.934 94.9443 86.8777Z" fill="#99B9FF"/>
<path d="M81.6713 85.8531L74.8342 85.3754C74.1391 85.3263 73.6351 84.726 73.6351 83.9481V39.3439C73.6351 38.338 74.462 37.4707 75.3585 37.5327L82.1956 38.0104C82.8907 38.0595 83.3947 38.6599 83.3947 39.4377V84.0405C83.3947 85.0478 82.5678 85.9152 81.6713 85.8531Z" fill="#99B9FF"/>
<path d="M68.3969 84.9858L61.5598 84.4951C60.8646 84.4446 60.3607 83.8283 60.3607 83.0288V47.7216C60.3607 46.6883 61.1876 45.7964 62.084 45.8613L68.9211 46.352C69.6163 46.4025 70.1203 47.0187 70.1203 47.8183V83.1255C70.1217 84.1588 69.2948 85.0507 68.3969 84.9858Z" fill="#99B9FF"/>
<path d="M55.1239 83.9597L48.2868 83.3117C47.5917 83.2453 47.0877 82.4314 47.0877 81.3779V55.8365C47.0877 54.4742 47.9146 53.298 48.8111 53.3831L55.6481 54.0311C56.3433 54.0975 56.8473 54.9115 56.8473 55.965V81.5049C56.8473 82.8672 56.0218 84.0449 55.1239 83.9597Z" fill="#99B9FF"/>
<path d="M41.8509 82.935L35.0138 82.5107C34.3187 82.4674 33.8147 81.9334 33.8147 81.2421V71.0042C33.8147 70.1109 34.6416 69.3388 35.5381 69.3951L42.3751 69.8194C43.0703 69.8627 43.5743 70.3967 43.5743 71.088V81.3258C43.5743 82.2192 42.7488 82.9913 41.8509 82.935Z" fill="#99B9FF"/>
<path d="M28.5779 82.0691L21.7408 81.6448C21.0457 81.6015 20.5417 81.0675 20.5417 80.3762V74.5155C20.5417 73.6222 21.3686 72.8501 22.2651 72.9063L29.1022 73.3306C29.7973 73.3739 30.3013 73.9079 30.3013 74.5992V80.4599C30.3013 81.3532 29.4743 82.1239 28.5779 82.0691Z" fill="#CADDFF"/>
<path d="M44.6532 47.8947C44.6271 47.8947 44.5996 47.8904 44.5735 47.8803C44.462 47.837 44.407 47.7114 44.4504 47.6003C47.3512 40.2344 52.1246 33.6795 58.2535 28.6442C58.3462 28.5677 58.4823 28.5807 58.559 28.6731C58.6358 28.7654 58.6228 28.9011 58.5301 28.9776C52.4577 33.9666 47.7292 40.4609 44.8559 47.7576C44.8212 47.8428 44.7401 47.8947 44.6532 47.8947Z" fill="black"/>
<path d="M40.0652 51.1866C40.042 51.1866 40.0174 51.1823 39.9942 51.175C39.8813 51.1361 39.8205 51.0134 39.8596 50.8994C41.777 45.3446 44.6011 40.1737 48.2549 35.5296C52.0348 30.7238 56.6097 26.6064 61.8509 23.2929C61.9522 23.2294 62.0869 23.2583 62.1507 23.3593C62.2144 23.4603 62.1854 23.5945 62.084 23.658C51.8885 30.1032 44.142 39.8288 40.2709 51.0408C40.239 51.1303 40.155 51.1866 40.0652 51.1866Z" fill="black"/>
<path d="M38.7053 54.9013C38.6836 54.9013 38.6633 54.8984 38.643 54.8926C38.5619 54.8681 38.504 54.8003 38.491 54.718L38.0768 51.937C38.0667 51.8663 38.0913 51.7955 38.1434 51.7479C38.1955 51.6989 38.268 51.6787 38.3375 51.6945L40.7965 52.2227C40.8719 52.2386 40.9341 52.2949 40.9573 52.3685C40.9805 52.4421 40.9631 52.5229 40.911 52.5806L38.8661 54.8334C38.8241 54.8753 38.7661 54.9013 38.7053 54.9013ZM38.5518 52.1809L38.853 54.1999L40.3375 52.5648L38.5518 52.1809Z" fill="black"/>
<path d="M17.1861 29.6111C17.1528 29.6111 17.1195 29.6039 17.0877 29.588C16.9805 29.5332 16.9385 29.4033 16.9935 29.2965C20.0276 23.3896 23.5236 19.2376 27.9957 16.2314C28.0942 16.165 28.2303 16.191 28.2969 16.2892C28.3636 16.3887 28.3375 16.5229 28.239 16.5893C23.8306 19.5522 20.3809 23.6522 17.3816 29.4928C17.3411 29.5678 17.2643 29.6111 17.1861 29.6111Z" fill="#CADDFF"/>
<path d="M18.7241 22.2249C18.6763 22.2249 18.6285 22.2091 18.5894 22.1773C18.4953 22.1023 18.4794 21.9666 18.5547 21.8728C22.1246 17.4019 26.6836 13.6525 31.7364 11.0273C31.8436 10.9725 31.974 11.0129 32.029 11.1197C32.084 11.2251 32.0435 11.3564 31.9363 11.4112C26.937 14.0075 22.4258 17.7179 18.8936 22.1427C18.8516 22.1961 18.7879 22.2249 18.7241 22.2249Z" fill="#CADDFF"/>
<path d="M105.59 7.10046C105.47 7.10046 105.373 7.00377 105.373 6.88399V5.76408C105.373 5.6443 105.47 5.54761 105.59 5.54761C105.71 5.54761 105.807 5.6443 105.807 5.76408V6.88399C105.807 7.00377 105.709 7.10046 105.59 7.10046Z" fill="black"/>
<path d="M105.59 9.70679C105.47 9.70679 105.373 9.61009 105.373 9.49031V8.37041C105.373 8.25062 105.47 8.15393 105.59 8.15393C105.71 8.15393 105.807 8.25062 105.807 8.37041V9.49031C105.807 9.61009 105.709 9.70679 105.59 9.70679Z" fill="black"/>
<path d="M104.843 7.84366H103.721C103.6 7.84366 103.503 7.74697 103.503 7.62718C103.503 7.5074 103.6 7.41071 103.721 7.41071H104.843C104.963 7.41071 105.06 7.5074 105.06 7.62718C105.06 7.74697 104.963 7.84366 104.843 7.84366Z" fill="black"/>
<path d="M107.46 7.84366H106.336C106.216 7.84366 106.119 7.74697 106.119 7.62718C106.119 7.5074 106.216 7.41071 106.336 7.41071H107.46C107.58 7.41071 107.677 7.5074 107.677 7.62718C107.677 7.74697 107.58 7.84366 107.46 7.84366Z" fill="black"/>
<path d="M15.9102 43.9952C15.79 43.9952 15.693 43.8985 15.693 43.7787V42.6588C15.693 42.539 15.79 42.4423 15.9102 42.4423C16.0304 42.4423 16.1275 42.539 16.1275 42.6588V43.7787C16.1275 43.897 16.0304 43.9952 15.9102 43.9952Z" fill="black"/>
<path d="M15.9102 46.6015C15.79 46.6015 15.693 46.5048 15.693 46.3851V45.2666C15.693 45.1468 15.79 45.0501 15.9102 45.0501C16.0304 45.0501 16.1275 45.1468 16.1275 45.2666V46.3851C16.1275 46.5048 16.0304 46.6015 15.9102 46.6015Z" fill="black"/>
<path d="M15.1644 44.7384H14.042C13.9218 44.7384 13.8248 44.6417 13.8248 44.5219C13.8248 44.4021 13.9218 44.3054 14.042 44.3054H15.1644C15.2846 44.3054 15.3816 44.4021 15.3816 44.5219C15.3816 44.6417 15.2832 44.7384 15.1644 44.7384Z" fill="black"/>
<path d="M17.7799 44.7384H16.6575C16.5373 44.7384 16.4403 44.6417 16.4403 44.5219C16.4403 44.4021 16.5373 44.3054 16.6575 44.3054H17.7799C17.9001 44.3054 17.9971 44.4021 17.9971 44.5219C17.9971 44.6417 17.9001 44.7384 17.7799 44.7384Z" fill="black"/>
<path d="M10.5214 53.2965C3.53659 54.7901 0.153537 67.6488 0.00581796 75.9731C-0.244725 90.1378 8.65173 103.714 20.9283 110.238C37.2412 118.908 61.5612 116.213 69.5714 102.126C74.3505 93.7198 73.6959 80.6042 67.0456 75.3352C60.3809 70.0532 56.5967 75.8966 43.8552 72.6566C26.2477 68.1785 19.2556 51.429 10.5214 53.2965Z" fill="#FBED10"/>
<path d="M14.0406 95.8542C14.0131 95.8542 13.9856 95.8484 13.958 95.8383C13.848 95.7921 13.7944 95.6666 13.8407 95.5555C15.5048 91.5521 20.8661 90.8031 21.0935 90.7728C21.2122 90.7569 21.3208 90.8406 21.3368 90.959C21.3527 91.0773 21.2687 91.1856 21.1499 91.2014C21.0964 91.2086 15.8089 91.949 14.2419 95.72C14.2071 95.8037 14.126 95.8542 14.0406 95.8542Z" fill="white"/>
<path d="M21.5221 98.2918C21.4121 98.2918 21.3179 98.2095 21.3063 98.0984C20.895 94.2408 23.1079 91.7686 23.2021 91.6647C23.2832 91.5766 23.4193 91.5694 23.5091 91.6502C23.5974 91.7311 23.6047 91.8667 23.5236 91.9562C23.5018 91.9807 21.3483 94.3952 21.7379 98.0522C21.7509 98.1706 21.664 98.2774 21.5453 98.2903C21.5366 98.2918 21.5294 98.2918 21.5221 98.2918Z" fill="white"/>
<path d="M52.6937 108.587L53.7292 112.372L56.1043 112.163L55.5916 108.197L52.6937 108.587Z" fill="white"/>
<path d="M53.7292 112.588C53.6321 112.588 53.5453 112.523 53.5192 112.428L52.4837 108.644C52.4678 108.583 52.4779 108.52 52.5127 108.468C52.5474 108.416 52.6025 108.381 52.6647 108.372L55.5626 107.983C55.6206 107.974 55.6785 107.99 55.7234 108.026C55.7697 108.061 55.7987 108.113 55.8059 108.17L56.3186 112.135C56.3258 112.192 56.3099 112.252 56.2723 112.298C56.2346 112.344 56.181 112.373 56.1216 112.377L53.7451 112.586C53.7408 112.586 53.735 112.588 53.7292 112.588ZM52.9689 108.768L53.8914 112.139L55.861 111.966L55.4048 108.44L52.9689 108.768Z" fill="black"/>
<path d="M53.887 116.696C55.6321 117.52 60.1694 119.514 63.7147 119.78C64.4721 119.836 64.9413 119.113 64.7661 118.377C64.0188 115.254 56.3143 109.997 56.3143 109.997L55.2006 110.37C54.8096 110.502 54.6184 110.941 54.7893 111.314L55.0195 111.819L53.2353 111.668C52.8284 111.633 52.475 111.945 52.462 112.351C52.4403 113.04 52.4938 114.163 52.8863 115.515C53.0355 116.036 53.3975 116.465 53.887 116.696Z" fill="#99B9FF"/>
<path d="M63.7973 120C63.764 120 63.7306 119.998 63.6973 119.996C60.126 119.727 55.5815 117.734 53.7929 116.89C53.2498 116.634 52.8429 116.155 52.6749 115.577C52.2766 114.204 52.2201 113.061 52.2433 112.345C52.2506 112.09 52.3621 111.855 52.5532 111.684C52.7429 111.516 52.9978 111.432 53.2513 111.453L54.6662 111.573L54.5894 111.404C54.4823 111.171 54.4808 110.901 54.5836 110.666C54.6865 110.43 54.8849 110.247 55.1296 110.166L56.3447 109.758L56.4345 109.818C56.7516 110.035 64.2158 115.16 64.9747 118.327C65.0847 118.785 64.9805 119.257 64.6981 119.587C64.4692 119.856 64.1521 120 63.7973 120ZM53.1716 111.884C53.05 111.884 52.9341 111.927 52.8429 112.009C52.7415 112.1 52.6821 112.224 52.6778 112.36C52.6561 113.045 52.7111 114.139 53.0934 115.458C53.2267 115.919 53.5496 116.298 53.9797 116.502C55.7466 117.336 60.2317 119.303 63.7306 119.566C63.9855 119.584 64.21 119.493 64.3693 119.307C64.5619 119.081 64.6314 118.753 64.5547 118.428C63.8769 115.598 57.1369 110.833 56.281 110.238L55.2716 110.577C55.1412 110.621 55.0398 110.715 54.9848 110.84C54.9298 110.966 54.9312 111.103 54.9877 111.228L55.37 112.07L53.2165 111.888C53.2006 111.884 53.1861 111.884 53.1716 111.884Z" fill="black"/>
<path d="M63.5989 118.746C63.5873 118.746 63.5772 118.744 63.5656 118.743C58.6995 118.008 54.1637 115.691 54.1188 115.666C54.0116 115.611 53.971 115.48 54.0261 115.375C54.0811 115.268 54.2129 115.227 54.3186 115.282C54.3635 115.305 58.8385 117.591 63.6307 118.316C63.7495 118.333 63.8306 118.444 63.8132 118.563C63.7973 118.669 63.7046 118.746 63.5989 118.746Z" fill="black"/>
<path d="M60.013 115.898C59.9696 115.898 59.9261 115.885 59.887 115.858C59.7886 115.789 59.7654 115.655 59.8349 115.556L60.9356 114.006C61.0051 113.908 61.1412 113.885 61.2382 113.954C61.3367 114.024 61.3599 114.158 61.2904 114.256L60.1897 115.806C60.1477 115.867 60.0811 115.898 60.013 115.898Z" fill="black"/>
<path d="M57.9059 115.054C57.8624 115.054 57.819 115.041 57.7799 115.014C57.6814 114.944 57.6582 114.81 57.7277 114.712L59.1108 112.764C59.1803 112.666 59.3164 112.643 59.4135 112.712C59.512 112.781 59.5351 112.915 59.4656 113.014L58.0826 114.962C58.0406 115.022 57.9739 115.054 57.9059 115.054Z" fill="black"/>
<path d="M41.7972 92.3077C42.4431 93.9803 44.2201 98.2305 46.4402 100.678C46.9138 101.201 47.6987 101.013 48.0536 100.404C49.5626 97.8178 47.7523 89.3405 47.7523 89.3405L46.7603 88.8801C46.4127 88.7185 46 88.8917 45.874 89.2539L45.7031 89.7417L44.5967 88.4977C44.3447 88.2148 43.9058 88.1975 43.635 88.4645C43.1759 88.9162 42.488 89.7085 41.8812 90.8717C41.6495 91.3162 41.6162 91.8401 41.7972 92.3077Z" fill="#99B9FF"/>
<path d="M47.1093 101.2C46.7922 101.2 46.5011 101.068 46.2795 100.823C44.042 98.3553 42.2578 94.0994 41.5959 92.3849C41.3932 91.861 41.4279 91.2722 41.6886 90.7714C42.3056 89.5894 43.0051 88.7812 43.483 88.3108C43.6568 88.1405 43.8885 88.051 44.1289 88.0597C44.3693 88.0683 44.5996 88.1751 44.7603 88.3555L45.6206 89.3239L45.6698 89.1839C45.7509 88.9544 45.9247 88.7683 46.1506 88.673C46.3751 88.5778 46.6314 88.5821 46.853 88.686L47.9435 89.1911L47.9667 89.2965C48.042 89.6457 49.7769 97.8862 48.2433 100.514C48.0203 100.898 47.6423 101.152 47.2324 101.194C47.1904 101.197 47.1499 101.2 47.1093 101.2ZM42 92.229C42.6546 93.9218 44.4113 98.1186 46.601 100.533C46.7994 100.752 47.0282 100.778 47.1861 100.762C47.4583 100.734 47.7118 100.559 47.8653 100.295C49.2252 97.9627 47.761 90.4698 47.5612 89.4898L46.6676 89.0756C46.5561 89.0237 46.4316 89.0208 46.3171 89.0699C46.2027 89.1175 46.1187 89.2084 46.0782 89.3239L45.7856 90.1609L44.433 88.6398C44.3505 88.5475 44.236 88.494 44.1129 88.4897C43.9899 88.4868 43.874 88.5301 43.7871 88.6167C43.3309 89.0655 42.6647 89.8377 42.0738 90.9691C41.8696 91.3631 41.8421 91.8206 42 92.229Z" fill="black"/>
<path d="M47.1687 99.9774C47.1036 99.9774 47.0398 99.9485 46.9964 99.8937C44.1854 96.2814 42.6184 91.8119 42.6025 91.7672C42.5634 91.6546 42.6242 91.5305 42.7371 91.4916C42.8501 91.4526 42.9746 91.5132 43.0137 91.6258C43.0297 91.6705 44.5749 96.0736 47.3396 99.6282C47.4135 99.722 47.3961 99.8591 47.3005 99.9312C47.2629 99.963 47.2151 99.9774 47.1687 99.9774Z" fill="black"/>
<path d="M46.5851 95.7604C46.4837 95.7604 46.3925 95.6883 46.3722 95.5858C46.349 95.4689 46.4258 95.3549 46.5431 95.3318L48.2853 94.9898C48.4026 94.9667 48.517 95.0432 48.5402 95.1601C48.5633 95.277 48.4866 95.391 48.3693 95.4141L46.6271 95.7561C46.6126 95.759 46.5981 95.7604 46.5851 95.7604Z" fill="black"/>
<path d="M45.706 93.8424C45.6046 93.8424 45.5134 93.7703 45.4931 93.6678C45.4699 93.5509 45.5467 93.4369 45.664 93.4138L47.8523 92.9852C47.9696 92.9621 48.084 93.0386 48.1072 93.1555C48.1304 93.2724 48.0536 93.3864 47.9363 93.4095L45.748 93.8381C45.735 93.841 45.7205 93.8424 45.706 93.8424Z" fill="black"/>
<path d="M33.3251 77.0121C33.5033 76.8245 46.2491 71.3376 51.4584 70.1701C56.6676 69.0025 58.8545 68.8597 60.3823 71.9581C62.2926 75.8359 51.8436 91.1148 51.8436 91.1148L29.9059 85.4172L33.3251 77.0121Z" fill="black"/>
<path d="M22.0492 82.4442C22.0492 82.4442 21.0369 85.104 24.2201 88.2415C28.2085 92.1712 46.9095 90.1104 46.9095 90.1104C46.9095 90.1104 47.034 93.3445 47.483 95.668C48.727 102.099 49.3555 102.412 52.3041 109.758L56.2071 109.149C56.2071 109.149 56.1115 87.3828 53.2426 84.0245C50.3736 80.6648 32.3085 80.4815 32.3085 80.4815L22.0492 82.4442Z" fill="black"/>
<path d="M54.6836 87.2687C54.5938 87.2687 54.5098 87.2124 54.4779 87.123C53.9609 85.6408 53.4888 84.645 53.0775 84.1616C51.5699 82.3966 41.7234 81.1107 33.0109 80.4959C32.8907 80.4873 32.8009 80.3834 32.8096 80.265C32.8183 80.1452 32.924 80.0558 33.0413 80.0644C38.5141 80.4497 51.4555 81.5942 53.4077 83.8802C53.861 84.4112 54.3447 85.4244 54.8878 86.9787C54.9269 87.0912 54.8675 87.2153 54.7545 87.2543C54.7314 87.2644 54.7067 87.2687 54.6836 87.2687Z" fill="white"/>
<path d="M49.0224 62.6871C48.9008 62.0781 48.6111 61.2122 47.9348 60.8413C47.37 60.5325 46.3142 60.0057 45.3178 61.0462C45.3178 61.0462 42.8197 64.8043 39.8117 64.8966C36.8037 64.9876 33.0268 60.6652 23.4699 60.9106C22.0927 60.6566 20.9326 60.7518 20.2983 60.9755C17.9565 61.8025 14.4258 62.8618 13.8609 69.587C13.273 76.5921 15.9449 79.9735 15.9449 79.9735L23.1716 78.0007L23.2889 82.8065L33.021 80.4137C33.005 80.1943 33.1803 74.4779 33.16 74.2643C33.0137 72.7331 32.7574 71.3693 32.4185 70.1527C34.2331 70.2061 37.984 72.1096 41.0861 71.6651C44.3287 71.2004 47.832 65.5533 48.8283 63.8345C49.0311 63.4867 49.1006 63.0797 49.0224 62.6871Z" fill="#CADDFF"/>
<path d="M47.0731 64.315C47.0659 64.315 47.0601 64.315 47.0528 64.315C46.3389 64.3049 45.6597 63.7305 45.034 62.6092C44.9761 62.5053 45.0137 62.3725 45.118 62.3148C45.2223 62.257 45.3555 62.2946 45.4135 62.3985C45.9493 63.3596 46.5185 63.872 47.0572 63.8806C47.063 63.8806 47.0673 63.8806 47.0717 63.8806C47.7668 63.8806 48.265 63.0681 48.2708 63.0609C48.3331 62.9584 48.4663 62.9252 48.5691 62.9858C48.672 63.0465 48.7053 63.1792 48.6445 63.2817C48.6184 63.3264 48.0174 64.315 47.0731 64.315Z" fill="black"/>
<path d="M54.3954 55.3032C54.3215 55.0882 54.0999 54.9612 53.8769 55.0088C53.257 55.1401 50.0623 55.817 49.467 55.9483C48.8718 56.0782 48.8472 56.7175 48.5083 57.302C48.2129 57.81 47.1977 59.6732 46.0912 60.972C45.7581 61.3631 45.7118 61.9245 45.971 62.3676C46.1202 62.623 46.3099 62.8727 46.5344 63.0199C47.1311 63.4124 47.5742 63.8815 48.8197 60.9128C48.8197 60.9128 49.3874 60.643 49.9348 60.0181C49.9348 60.0181 51.8769 62.3012 52.3736 57.6657C52.4171 57.253 52.2274 56.8517 51.8668 56.6497C51.8378 56.6338 51.8074 56.618 51.7755 56.6006L54.1028 55.8819C54.3461 55.8069 54.4779 55.5442 54.3954 55.3032Z" fill="white"/>
<path d="M47.1542 63.5242C46.8979 63.5242 46.6821 63.3799 46.4866 63.2485L46.4113 63.198C46.1883 63.0508 45.9754 62.8069 45.7799 62.4736C45.4728 61.9482 45.5308 61.2873 45.9232 60.8283C46.895 59.6882 47.8059 58.0892 48.1955 57.4051C48.2447 57.3185 48.2853 57.2464 48.3186 57.1901C48.4142 57.027 48.4837 56.8538 48.5518 56.6879C48.7198 56.2751 48.8921 55.8494 49.4193 55.7339C49.9913 55.6084 52.9413 54.9835 53.8306 54.7944C54.1593 54.7252 54.4895 54.9128 54.5996 55.2303C54.6589 55.4035 54.6459 55.5882 54.5634 55.7513C54.4808 55.9129 54.3389 56.0327 54.1651 56.0861L52.252 56.6763C52.5011 56.9375 52.6271 57.3041 52.5865 57.6851C52.3896 59.5295 51.9464 60.5325 51.2353 60.7518C50.6966 60.9178 50.1926 60.5585 49.9377 60.329C49.5337 60.7432 49.147 60.9784 48.9862 61.0665C48.3186 62.6424 47.8436 63.3481 47.3526 63.4939C47.286 63.5155 47.2194 63.5242 47.1542 63.5242ZM53.9696 55.2144C53.9537 55.2144 53.9377 55.2158 53.9218 55.2187C53.0326 55.4078 50.084 56.0327 49.5134 56.1568C49.2237 56.2203 49.1224 56.4382 48.9558 56.851C48.8863 57.0227 48.8067 57.2175 48.6966 57.408C48.6647 57.4629 48.6242 57.535 48.5749 57.6202C48.1796 58.3143 47.2542 59.9379 46.2563 61.1098C45.9841 61.4301 45.9435 61.8905 46.1578 62.2571C46.3186 62.5327 46.4851 62.729 46.6531 62.8387L46.7313 62.8906C46.9486 63.0364 47.0891 63.123 47.231 63.0811C47.5655 62.9816 48.0333 62.2239 48.6184 60.8283C48.6387 60.7793 48.6778 60.7389 48.7256 60.7172C48.7299 60.7143 49.2628 60.4546 49.7712 59.8758C49.8132 59.8282 49.874 59.8051 49.9363 59.8022C50 59.8022 50.0594 59.8311 50.0999 59.8787C50.2462 60.049 50.7111 60.4647 51.1108 60.3405C51.4033 60.2496 51.9276 59.7792 52.1564 57.6433C52.1926 57.3099 52.0362 56.9953 51.7581 56.838C51.7321 56.8235 51.7046 56.8091 51.6756 56.7947C51.5974 56.7543 51.5496 56.6706 51.5583 56.584C51.5655 56.4959 51.6263 56.4223 51.7103 56.3949L54.0376 55.6762C54.0985 55.6574 54.1477 55.6156 54.1767 55.5593C54.2056 55.5016 54.2114 55.4352 54.1897 55.3746C54.1564 55.2765 54.0666 55.2144 53.9696 55.2144Z" fill="black"/>
<path d="M49.4888 59.1875C49.4135 59.1875 49.3396 59.1485 49.2991 59.0778C49.2397 58.9739 49.2773 58.8411 49.3816 58.7834C49.4801 58.7285 49.6712 58.603 49.9073 58.4413C50.4996 58.0329 50.824 57.6331 50.966 57.4311C51.0355 57.3315 51.0702 57.2233 51.0688 57.1165C51.0659 57.0054 51.0398 56.9967 50.9529 56.9678C50.7849 56.9116 50.3867 57.0732 50.1709 57.2016C50.0681 57.2622 49.9348 57.2291 49.8725 57.1266C49.8117 57.0241 49.845 56.8913 49.9479 56.8293C50.0652 56.7586 50.6749 56.4165 51.0919 56.558C51.2006 56.5941 51.4917 56.6922 51.5032 57.1049C51.509 57.3055 51.4468 57.5033 51.3237 57.6793C51.1658 57.9045 50.8038 58.3504 50.1593 58.7949C50.0116 58.8974 49.7465 59.0763 49.5959 59.1615C49.5612 59.1788 49.525 59.1875 49.4888 59.1875Z" fill="black"/>
<path d="M49.9073 60.2597C49.8523 60.2597 49.7987 60.2395 49.7552 60.1976C49.6698 60.1139 49.6669 59.9768 49.7509 59.8917C50.1651 59.4674 50.1492 59.0287 50.1477 59.0099C50.1419 58.8916 50.2332 58.7891 50.3519 58.7819C50.4692 58.7761 50.5735 58.8641 50.5807 58.9825C50.5822 59.0085 50.6155 59.6247 50.0608 60.1919C50.0203 60.238 49.9638 60.2597 49.9073 60.2597Z" fill="black"/>
<path d="M33.2802 72.9474C33.777 72.7786 34.2361 73.112 33.8827 73.5622C33.6003 73.9216 32.2462 74.7009 32.0319 74.8351C31.9797 74.8683 32 74.9679 32.0608 74.9549C33.8045 74.5725 34.7125 74.5984 35.1847 74.7168C35.5177 74.8005 35.7176 75.1382 35.6481 75.4715C35.1398 77.8845 30.139 77.6103 29.554 77.6796C29.0746 77.7373 25.9276 80.6193 25.9276 80.6193C24.5054 82.0841 22.5793 83.2661 21.1876 83.9559C18.3374 85.3702 17.286 80.5688 16.9978 79.3739C16.9978 79.3739 25.9522 76.9436 29.0992 75.3864C29.5134 75.1815 29.8928 74.9174 30.2419 74.6143C30.643 74.2651 31.5091 73.5478 33.2802 72.9474Z" fill="white"/>
<path d="M20.1912 84.43C19.9088 84.43 19.6351 84.3694 19.3744 84.2468C17.761 83.4949 17.0746 80.6186 16.8154 79.5362L16.7878 79.4222C16.7603 79.3082 16.8284 79.1927 16.9414 79.1624C17.0311 79.1379 25.9117 76.7206 29.0036 75.1908C29.3802 75.0046 29.748 74.755 30.0999 74.449C30.4359 74.1561 31.328 73.3796 33.2107 72.7403C33.5742 72.6176 33.9522 72.7042 34.1289 72.951C34.2795 73.1631 34.252 73.4402 34.0536 73.6928C33.8798 73.9136 33.4091 74.2383 32.8776 74.5702C33.9189 74.3942 34.7111 74.3711 35.2368 74.5024C35.6814 74.615 35.9551 75.058 35.8595 75.5126C35.3831 77.7683 31.4801 77.8463 30.0116 77.8766C29.8074 77.8809 29.6466 77.8838 29.5786 77.8924C29.2831 77.9588 27.5641 79.4121 26.0739 80.7773C24.3954 82.5077 22.1637 83.7113 21.2831 84.1486C20.908 84.3362 20.5416 84.43 20.1912 84.43ZM17.2585 79.5261C17.5004 80.5349 18.1767 83.212 19.5583 83.8556C20.0246 84.0736 20.5272 84.0418 21.092 83.7618C21.9522 83.3347 24.1318 82.1585 25.7726 80.4685C26.7429 79.5781 29.0326 77.523 29.5293 77.4638C29.6191 77.4537 29.7726 77.4494 30.0043 77.4451C31.2469 77.4205 35.0311 77.3455 35.4352 75.4261C35.483 75.1995 35.3498 74.9801 35.1311 74.9253C34.7212 74.8214 33.8624 74.7795 32.1072 75.1648C31.9797 75.1923 31.8566 75.1273 31.8059 75.0046C31.7524 74.8748 31.8001 74.7232 31.916 74.6511C31.9479 74.6309 32.0043 74.5977 32.0768 74.5544C32.4272 74.3451 33.4946 73.7058 33.7118 73.4287C33.7466 73.384 33.8233 73.2728 33.7741 73.205C33.7277 73.1401 33.5655 73.0809 33.3498 73.153C31.5482 73.765 30.7024 74.501 30.3838 74.7781C30.0043 75.1086 29.6046 75.3784 29.1948 75.5805C26.2925 77.0164 18.6401 79.1466 17.2585 79.5261Z" fill="black"/>
<path d="M25.9232 76.165C26.5141 77.549 27.1803 78.8291 28.1347 79.7195L22.3461 84.0072C21.0934 84.9352 19.3222 84.6595 18.4127 83.3968L17.3961 82.1253C15.4019 79.6329 14.013 76.699 13.4453 73.5615C12.8255 70.1412 13.2991 67.1985 15.3179 64.4565C16.2346 72.381 20.9399 78.324 25.9232 76.165Z" fill="#CADDFF"/>
<path d="M39.7176 65.1131C38.6112 65.1131 37.4251 64.5719 35.9334 63.8908C33.3845 62.7261 29.8929 61.1329 24.3375 61.1156C24.2173 61.1156 24.1202 61.0174 24.1202 60.8991C24.1202 60.7793 24.2173 60.6826 24.3375 60.6826C29.987 60.6985 33.5279 62.3163 36.113 63.4968C37.5974 64.1751 38.7661 64.7119 39.8031 64.6787C42.6662 64.5922 45.1108 60.9626 45.1354 60.9251L45.16 60.8947C45.5598 60.4777 46.0131 60.2496 46.5069 60.2165C46.6286 60.2078 46.7299 60.2987 46.7386 60.4185C46.7459 60.5383 46.6561 60.6407 46.5359 60.6494C46.1535 60.6739 45.8103 60.8486 45.4873 61.1805C45.2774 61.4908 42.8313 65.0193 39.8175 65.1103C39.7842 65.1131 39.7509 65.1131 39.7176 65.1131Z" fill="black"/>
<path d="M40.1028 71.948C38.3867 71.948 36.5706 71.4155 35.0616 70.9739C34.6416 70.8512 34.2433 70.7343 33.874 70.6362C33.7582 70.6059 33.6886 70.4875 33.7205 70.3721C33.7509 70.2566 33.8711 70.1873 33.9855 70.2191C34.3606 70.3187 34.7603 70.4356 35.1832 70.5597C36.953 71.0778 39.1557 71.7243 41.0543 71.4516C44.1955 71.0013 47.6553 65.4249 48.6401 63.7263C48.8154 63.4232 48.8748 63.0696 48.8067 62.7305C48.7517 62.4534 48.6749 62.1994 48.5822 61.9743C48.5359 61.8631 48.5895 61.7376 48.6995 61.6914C48.811 61.6452 48.937 61.6986 48.9834 61.8083C49.0876 62.0594 49.1716 62.3408 49.2325 62.6453C49.3208 63.0884 49.2441 63.5488 49.0167 63.9427C48.0073 65.6832 44.4519 71.4011 41.1166 71.8802C40.7864 71.9264 40.4461 71.948 40.1028 71.948Z" fill="black"/>
<path d="M20.6879 84.7735C20.5315 84.7735 20.3751 84.7619 20.2172 84.7374C19.4135 84.6133 18.7096 84.1818 18.2361 83.5223L17.2252 82.2595C15.1731 79.695 13.7915 76.7004 13.2296 73.599C12.5677 69.9435 13.1745 66.9979 15.1398 64.3281C15.2107 64.2314 15.3469 64.2112 15.4439 64.2819C15.5409 64.3526 15.5612 64.4883 15.4902 64.585C13.6003 67.1524 13.0167 69.9925 13.6568 73.5225C14.2057 76.5532 15.5569 79.4814 17.5641 81.9896L18.5808 83.261C18.9935 83.8325 19.5945 84.202 20.2824 84.3088C20.9703 84.4156 21.6568 84.2467 22.2144 83.8325L27.8002 79.6964C26.9167 78.793 26.3056 77.5879 25.8219 76.4781C24.1477 77.4912 23.0283 78.1522 21.9363 77.8578C20.8081 77.5533 19.777 76.279 17.9913 72.99C17.9348 72.8846 17.9739 72.7533 18.0797 72.697C18.1854 72.6407 18.3172 72.6797 18.3737 72.7851C20.071 75.9139 21.0674 77.1752 22.0493 77.4407C22.9805 77.6918 23.9986 77.0756 25.6858 76.0538L26.0232 75.8489L26.1217 76.0784C26.6343 77.282 27.2933 78.6357 28.281 79.5608L28.4707 79.7383L22.4736 84.1803C21.9493 84.57 21.328 84.7735 20.6879 84.7735Z" fill="black"/>
<path d="M18.7907 61.4122L18.1622 56.4029L22.5373 57.7494L22.979 60.6834C23.0847 61.4713 22.4982 62.0241 22.4982 62.0241C21.7813 62.7731 20.6112 62.864 19.6727 62.4267L19.4555 62.3257C19.092 62.1568 18.8414 61.8105 18.7907 61.4122Z" fill="white"/>
<path d="M20.8545 62.9109C20.433 62.9109 19.9971 62.8171 19.5815 62.6223L19.3643 62.5212C18.9298 62.3192 18.6358 61.9137 18.5764 61.4374L17.9479 56.4281C17.9392 56.3545 17.9667 56.2824 18.0232 56.2347C18.0797 56.1871 18.1564 56.1727 18.2274 56.1943L22.6025 57.5408C22.6821 57.5653 22.7415 57.6332 22.7531 57.7154L23.1948 60.6494C23.315 61.5413 22.6749 62.1547 22.6488 62.1806C22.1912 62.6598 21.5424 62.9109 20.8545 62.9109ZM18.42 56.7081L19.0065 61.384C19.0471 61.7116 19.2498 61.9901 19.5482 62.1287L19.7654 62.2297C20.6763 62.654 21.735 62.5082 22.3418 61.8747C22.3548 61.8631 22.8545 61.3768 22.7647 60.7115L22.3433 57.916L18.42 56.7081Z" fill="black"/>
<path d="M22.7546 49.0781C21.6713 49.2036 23.2107 50.0695 19.0413 49.6048C17.3816 49.4201 18.4997 51.1216 18.0681 51.074C16.4765 50.9008 16.5315 50.9051 15.8248 51.2284C15.357 51.442 15.1948 52.3988 15.4034 53.0555C15.6785 53.9228 16.4533 54.0238 17.4294 55.7888C18.1144 57.0285 18.142 57.8482 18.7039 57.9493C19.273 58.0503 19.5438 57.2652 20.1738 57.3287C20.9892 57.411 21.0674 58.782 21.9218 59.2063C22.4591 59.4747 23.5989 59.4444 25.2296 58.2696C25.4932 58.0791 25.5858 57.727 25.4468 57.4312C25.2687 57.053 25.0413 56.5768 24.7864 56.1395C23.5685 54.057 22.6879 53.6919 22.8748 53.0641C23.163 52.103 24.9269 52.318 25.079 51.543C25.2368 50.7392 24.239 48.9063 22.7546 49.0781Z" fill="black"/>
<path d="M19.6742 53.5656L20.0797 54.0837C20.2708 54.3276 20.4446 54.5845 20.601 54.853C20.8936 55.3566 21.4019 56.2182 21.7249 56.6786C22.1984 57.3554 24.3983 56.045 24.3983 56.045L24.462 55.5644L24.7169 55.4057C24.7661 55.3754 24.8096 55.3335 24.8371 55.283C24.9052 55.1546 24.8805 55.0045 24.7864 54.9078C24.2723 54.3753 23.1847 53.1688 22.6662 52.007C22.6648 52.007 20.8386 51.8613 19.6742 53.5656Z" fill="white"/>
<path d="M19.8914 53.5591C19.9769 53.6414 20.0565 53.7193 20.1304 53.8002C20.1666 53.8406 20.2028 53.8824 20.2375 53.9243L20.3635 54.0859C20.5344 54.3125 20.6952 54.5549 20.8356 54.7974C21.1152 55.2707 21.3961 55.747 21.6901 56.2059C21.764 56.3199 21.8378 56.4339 21.9146 56.5436C21.9493 56.5884 22.0015 56.6216 22.1072 56.6345C22.3128 56.6591 22.5764 56.5999 22.8226 56.5234C23.3223 56.3618 23.8204 56.1193 24.2839 55.8567L24.1782 56.0154C24.1999 55.8552 24.2202 55.695 24.2448 55.5363L24.2462 55.5291C24.2564 55.4656 24.294 55.4136 24.3447 55.3819C24.4244 55.3328 24.5113 55.2953 24.5981 55.2578C24.6691 55.2318 24.6923 55.2202 24.714 55.1668C24.7299 55.1192 24.7154 55.0658 24.685 55.0283L24.5026 54.8364C24.2433 54.5621 23.9913 54.2807 23.7451 53.9921C23.2585 53.4134 22.798 52.8 22.4664 52.0929L22.6474 52.2199C22.5286 52.217 22.3824 52.2228 22.2491 52.2386C22.113 52.2545 21.9769 52.279 21.8436 52.3122C21.5757 52.3757 21.3165 52.4739 21.0746 52.6023C20.8328 52.7308 20.6025 52.8823 20.4026 53.0699C20.2955 53.1565 20.2057 53.2618 20.1115 53.3614C20.0551 53.4192 20.0464 53.4422 20.0087 53.4725C19.9769 53.5029 19.9378 53.5288 19.8914 53.5591ZM19.4569 53.5721C19.4989 53.4855 19.5482 53.3946 19.6047 53.3051C19.6582 53.22 19.7292 53.1204 19.777 53.0742C19.8813 52.9602 19.9812 52.8404 20.1014 52.7394C20.3288 52.5258 20.5909 52.3512 20.8661 52.2054C21.1412 52.0582 21.4381 51.9529 21.7408 51.8836C21.8929 51.849 22.0464 51.823 22.2013 51.8057C22.3592 51.7913 22.5069 51.7812 22.6821 51.7913C22.7632 51.797 22.8313 51.8475 22.8617 51.9183V51.9197C23.0022 52.2487 23.1832 52.5662 23.3773 52.8751C23.5714 53.1854 23.7857 53.487 24.0116 53.7785C24.2375 54.0715 24.4779 54.3543 24.7299 54.6256L24.8241 54.7281L24.8719 54.7786L24.8965 54.8046C24.9081 54.8176 24.9196 54.8306 24.9298 54.845C25.0138 54.9547 25.0427 55.1019 25.0152 55.2361C25.0036 55.3039 24.9776 55.3689 24.9356 55.4309C24.8979 55.4887 24.8371 55.5435 24.7966 55.5738C24.7241 55.6344 24.6532 55.6965 24.5735 55.747L24.672 55.5926C24.6546 55.7528 24.6329 55.913 24.6126 56.0732C24.6039 56.1424 24.5634 56.2001 24.5069 56.2333C24.0116 56.5205 23.512 56.7716 22.9602 56.9578C22.6807 57.043 22.3954 57.1281 22.0449 57.0964C22.0015 57.0935 21.9551 57.0805 21.9102 57.0718C21.8639 57.0545 21.8175 57.0444 21.7712 57.0184C21.6771 56.9766 21.5902 56.8943 21.5279 56.8106C21.4454 56.6937 21.37 56.5754 21.2933 56.457C20.9935 55.9851 20.7097 55.5089 20.433 55.0283C20.2998 54.7916 20.1579 54.5694 20 54.3514L19.874 54.184C19.8233 54.1177 19.7741 54.0513 19.7263 53.982C19.6322 53.8478 19.5424 53.7078 19.4569 53.5721Z" fill="black"/>
<path d="M20.4533 55.4872C20.4533 55.4872 19.4787 54.2389 19.0065 54.8046C18.5344 55.3688 19.6423 56.7168 20.4533 55.4872Z" fill="white"/>
<path d="M50.0985 81.7984L28.4432 82.7625C27.8074 82.7913 27.2687 82.3006 27.2397 81.6656L27.2296 81.4376L51.1875 80.3711L51.1977 80.5991C51.2266 81.2327 50.7342 81.7695 50.0985 81.7984Z" fill="#F4F4F4"/>
<path d="M28.391 82.9782C27.664 82.9782 27.0558 82.4052 27.0225 81.6735L27.0123 81.4455C27.0065 81.3257 27.0992 81.2247 27.2194 81.2204L51.1774 80.1539C51.3005 80.1481 51.399 80.2405 51.4048 80.3603L51.4149 80.5883C51.4309 80.952 51.3049 81.3012 51.0572 81.5711C50.811 81.8395 50.4721 81.9968 50.1072 82.0141L28.4519 82.9782C28.4316 82.9782 28.4113 82.9782 28.391 82.9782ZM27.4555 81.6432V81.6548C27.4787 82.1686 27.9175 82.5669 28.4316 82.5438L50.0869 81.5797C50.336 81.5682 50.5663 81.4614 50.7357 81.2781C50.9037 81.0948 50.9906 80.8567 50.9805 80.607V80.5955L27.4555 81.6432Z" fill="black"/>
<path d="M51.189 80.3956L36.4736 81.0508L40.5344 67.1286C40.7951 66.687 41.2701 66.4055 41.7943 66.3825L54.2346 65.8283C54.7994 65.8037 55.1875 66.3334 55.0239 66.8226C54.9587 67.0174 54.8892 67.2108 54.8327 67.4085L51.189 80.3956Z" fill="#F4F4F4"/>
<path d="M36.4736 81.2666C36.407 81.2666 36.3447 81.2363 36.3027 81.1844C36.2592 81.1295 36.2448 81.0574 36.265 80.9895L40.3259 67.0672C40.3316 67.0499 40.3374 67.034 40.3476 67.0181C40.6474 66.5101 41.1847 66.1912 41.7857 66.1652L54.2259 65.611C54.5662 65.5952 54.8776 65.7395 55.0804 66.005C55.2744 66.2605 55.3309 66.591 55.231 66.8897C55.2122 66.946 55.1933 67.0008 55.1745 67.0571C55.1267 67.1971 55.0818 67.3299 55.0427 67.4655L51.399 80.4541C51.3744 80.5436 51.2933 80.6085 51.1991 80.6114L36.4837 81.2666C36.4808 81.2666 36.4765 81.2666 36.4736 81.2666ZM40.7357 67.2144L36.7676 80.8207L51.0224 80.1857L54.6242 67.3486C54.6662 67.2014 54.7154 67.0571 54.7632 66.9171C54.782 66.8623 54.8009 66.8089 54.8182 66.754C54.8733 66.5881 54.8414 66.4106 54.7328 66.2677C54.6184 66.1162 54.4388 66.0353 54.2447 66.044L41.8045 66.5982C41.3599 66.6155 40.9631 66.8464 40.7357 67.2144Z" fill="black"/>
<path d="M45.3976 73.2512C45.2484 73.8386 45.5424 74.4202 46.0551 74.5501C46.5677 74.68 47.105 74.3091 47.2542 73.7202C47.4034 73.1329 47.1094 72.5513 46.5967 72.4214C46.084 72.2915 45.5467 72.6624 45.3976 73.2512Z" fill="white"/>
<path d="M30.1217 45.9984C36.2372 45.9984 41.1948 41.058 41.1948 34.9638C41.1948 28.8696 36.2372 23.9293 30.1217 23.9293C24.0061 23.9293 19.0485 28.8696 19.0485 34.9638C19.0485 41.058 24.0061 45.9984 30.1217 45.9984Z" fill="black"/>
<path d="M41.202 36.3523C42.1527 30.5153 38.1749 25.0156 32.3175 24.0683C26.4601 23.121 20.9411 27.0848 19.9905 32.9218C19.0399 38.7588 23.0176 44.2585 28.875 45.2058C34.7324 46.1532 40.2514 42.1893 41.202 36.3523Z" fill="#99B9FF"/>
<path d="M30.5952 45.5611C24.5503 45.5611 19.6336 40.6601 19.6336 34.6377C19.6336 28.6153 24.5518 23.7143 30.5952 23.7143C36.6387 23.7143 41.5569 28.6153 41.5569 34.6377C41.5569 40.6601 36.6401 45.5611 30.5952 45.5611ZM30.5952 24.1458C24.7907 24.1458 20.0681 28.852 20.0681 34.6362C20.0681 40.4205 24.7907 45.1267 30.5952 45.1267C36.3997 45.1267 41.1224 40.4205 41.1224 34.6362C41.1224 28.852 36.4012 24.1458 30.5952 24.1458Z" fill="black"/>
<path d="M36.9704 40.99C40.4916 37.4811 40.4916 31.792 36.9704 28.2831C33.4492 24.7742 27.7402 24.7742 24.219 28.2831C20.6978 31.792 20.6978 37.4811 24.219 40.99C27.7402 44.4989 33.4492 44.4989 36.9704 40.99Z" fill="white"/>
<path d="M38.1767 39.7205C38.1361 39.7205 38.0956 39.7089 38.0594 39.6858C37.958 39.6209 37.929 39.4867 37.9942 39.3871C38.4504 38.6828 38.8023 37.9179 39.0384 37.117C39.0717 37.0015 39.1948 36.9366 39.3078 36.9698C39.4222 37.003 39.4888 37.1242 39.4555 37.2382C39.2064 38.0796 38.8385 38.882 38.3592 39.6209C38.3172 39.6858 38.2477 39.7205 38.1767 39.7205Z" fill="black"/>
<path d="M38.7125 30.9331C38.6314 30.9331 38.5547 30.8883 38.517 30.8104C37.0311 27.761 33.9957 25.8661 30.5952 25.8661C27.8016 25.8661 25.147 27.2083 23.4931 29.4553C23.4222 29.552 23.286 29.5722 23.189 29.5015C23.092 29.4307 23.0717 29.2951 23.1426 29.1984C24.8776 26.8402 27.664 25.4317 30.5952 25.4317C34.1637 25.4317 37.3483 27.4204 38.9066 30.6199C38.9587 30.7282 38.9138 30.8566 38.8067 30.9086C38.7763 30.9273 38.7444 30.9331 38.7125 30.9331Z" fill="black"/>
<path d="M30.5952 43.8394C25.5033 43.8394 21.3613 39.7119 21.3613 34.6377C21.3613 33.0617 21.7683 31.506 22.5373 30.1393C22.5952 30.0354 22.7285 29.9979 22.8327 30.057C22.937 30.1162 22.9747 30.2475 22.9153 30.3514C22.1825 31.6532 21.7943 33.1353 21.7943 34.6377C21.7943 39.4738 25.7422 43.4064 30.5938 43.4064C30.714 43.4064 30.811 43.5031 30.811 43.6229C30.8125 43.7412 30.7154 43.8394 30.5952 43.8394Z" fill="black"/>
<path d="M29.7683 40.9804V39.5026C28.7227 39.4564 27.7089 39.1765 27.1151 38.8344L27.5829 37.0146C28.239 37.3725 29.1586 37.6986 30.1738 37.6986C31.063 37.6986 31.6713 37.3566 31.6713 36.7346C31.6713 36.1443 31.1716 35.7706 30.0174 35.3823C28.3476 34.8224 27.2093 34.0445 27.2093 32.5364C27.2093 31.1683 28.1767 30.0946 29.8465 29.7684V28.2906H31.3758V29.6587C32.4214 29.7049 33.1238 29.9228 33.638 30.1725L33.1861 31.9303C32.7806 31.7585 32.0623 31.4021 30.9385 31.4021C29.9247 31.4021 29.596 31.8379 29.596 32.2723C29.596 32.7861 30.1419 33.1122 31.4685 33.6101C33.3251 34.2639 34.0739 35.1182 34.0739 36.5181C34.0739 37.9021 33.0905 39.0841 31.2962 39.3944V40.9804H29.7683Z" fill="#FBED10"/>
<path d="M51.9826 24.7949C55.6757 21.1146 55.6757 15.1478 51.9826 11.4676C48.2895 7.78732 42.3017 7.78733 38.6086 11.4676C34.9155 15.1478 34.9155 21.1146 38.6086 24.7949C42.3017 28.4751 48.2895 28.4751 51.9826 24.7949Z" fill="black"/>
<path d="M54.6333 19.9551C55.7981 15.0396 52.7436 10.1139 47.8108 8.95323C42.8781 7.79255 37.9352 10.8364 36.7704 15.7519C35.6057 20.6674 38.6602 25.5931 43.5929 26.7538C48.5256 27.9145 53.4686 24.8706 54.6333 19.9551Z" fill="#99B9FF"/>
<path d="M45.7017 27.2125C40.5214 27.2125 36.307 23.0128 36.307 17.8506C36.307 12.6883 40.5214 8.48871 45.7017 8.48871C50.882 8.48871 55.0963 12.6883 55.0963 17.8506C55.0949 23.0128 50.8805 27.2125 45.7017 27.2125ZM45.7017 8.9231C40.7618 8.9231 36.7415 12.9279 36.7415 17.852C36.7415 22.7761 40.7603 26.781 45.7017 26.781C50.643 26.781 54.6618 22.7761 54.6618 17.852C54.6618 12.9279 50.6416 8.9231 45.7017 8.9231Z" fill="black"/>
<path d="M53.1971 19.6172C54.1746 15.4922 51.6112 11.3585 47.4717 10.3845C43.3322 9.41041 39.1841 11.9648 38.2066 16.0899C37.2291 20.215 39.7925 24.3486 43.932 25.3227C48.0715 26.2967 52.2197 23.7423 53.1971 19.6172Z" fill="white"/>
<path d="M52.1752 22.2249C52.1347 22.2249 52.0941 22.2134 52.0579 22.1903C51.9566 22.1253 51.9276 21.9911 51.9928 21.8915C52.3809 21.2926 52.6807 20.6432 52.8805 19.9606C52.9138 19.8451 53.0355 19.7802 53.1499 19.8134C53.2643 19.8465 53.3309 19.9678 53.2976 20.0818C53.0847 20.8034 52.7676 21.4918 52.3577 22.1253C52.3172 22.1903 52.2462 22.2249 52.1752 22.2249Z" fill="black"/>
<path d="M52.6329 14.7204C52.5518 14.7204 52.475 14.6757 52.4374 14.5978C51.1731 12.0044 48.5923 10.3923 45.7002 10.3923C43.3251 10.3923 41.0673 11.5339 39.6611 13.4447C39.5901 13.5414 39.454 13.5616 39.357 13.4908C39.26 13.4201 39.2397 13.2845 39.3106 13.1878C40.7994 11.1659 43.1875 9.95795 45.7002 9.95795C48.7125 9.95795 51.5105 11.7042 52.8269 14.4073C52.8791 14.5155 52.8342 14.6439 52.727 14.6959C52.698 14.7132 52.6647 14.7204 52.6329 14.7204Z" fill="black"/>
<path d="M45.7017 25.742C41.3353 25.742 37.7828 22.2018 37.7828 17.8507C37.7828 16.4999 38.1318 15.1649 38.7922 13.9945C38.8501 13.8906 38.9833 13.8531 39.0876 13.9122C39.1919 13.9714 39.2295 14.1027 39.1702 14.2067C38.546 15.3136 38.2172 16.5735 38.2172 17.8521C38.2172 21.9637 41.5742 25.3104 45.7017 25.3104C45.8219 25.3104 45.9189 25.4071 45.9189 25.5269C45.9189 25.6453 45.8204 25.742 45.7017 25.742Z" fill="black"/>
<path d="M44.9949 23.2698V22.0084C44.1014 21.968 43.2353 21.7299 42.7299 21.4369L43.1296 19.8826C43.6886 20.1886 44.475 20.4671 45.3425 20.4671C46.1028 20.4671 46.6213 20.1756 46.6213 19.6431C46.6213 19.138 46.1955 18.819 45.2093 18.4871C43.7828 18.0094 42.811 17.3455 42.811 16.0568C42.811 14.8878 43.6379 13.9714 45.063 13.6929V12.4315H46.3693V13.6005C47.2629 13.6409 47.8624 13.8256 48.3012 14.0392L47.9146 15.5401C47.5684 15.3944 46.9544 15.0884 45.9957 15.0884C45.1296 15.0884 44.8501 15.4607 44.8501 15.8316C44.8501 16.2704 45.3164 16.5489 46.449 16.9732C48.0348 17.5303 48.6749 18.2619 48.6749 19.4569C48.6749 20.6389 47.8349 21.6476 46.3027 21.9132V23.2683H44.9949V23.2698Z" fill="#FBED10"/>
<path d="M74.0706 12.5696C75.2291 7.68045 72.191 2.78115 67.2847 1.62669C62.3785 0.472228 57.4621 3.49977 56.3036 8.3889C55.1451 13.278 58.1832 18.1773 63.0894 19.3318C67.9957 20.4863 72.9121 17.4587 74.0706 12.5696Z" fill="black"/>
<path d="M65.5757 19.0319C70.4675 19.0319 74.433 15.0801 74.433 10.2054C74.433 5.33071 70.4675 1.37897 65.5757 1.37897C60.6839 1.37897 56.7184 5.33071 56.7184 10.2054C56.7184 15.0801 60.6839 19.0319 65.5757 19.0319Z" fill="#99B9FF"/>
<path d="M65.5757 19.249C60.5721 19.249 56.5011 15.1923 56.5011 10.2061C56.5011 5.21991 60.5721 1.16315 65.5757 1.16315C70.5794 1.16315 74.6503 5.21991 74.6503 10.2061C74.6503 15.1923 70.5794 19.249 65.5757 19.249ZM65.5757 1.59466C60.8111 1.59466 56.9356 5.45804 56.9356 10.2046C56.9356 14.9527 60.8125 18.8146 65.5757 18.8146C70.3404 18.8146 74.2159 14.9512 74.2159 10.2046C74.2159 5.45659 70.3404 1.59466 65.5757 1.59466Z" fill="black"/>
<path d="M65.5757 17.6125C69.6812 17.6125 73.0094 14.2959 73.0094 10.2047C73.0094 6.11347 69.6812 2.79688 65.5757 2.79688C61.4701 2.79688 58.142 6.11347 58.142 10.2047C58.142 14.2959 61.4701 17.6125 65.5757 17.6125Z" fill="white"/>
<path d="M71.8248 14.4347C71.7843 14.4347 71.7437 14.4232 71.7075 14.4001C71.6061 14.3351 71.5772 14.2009 71.6423 14.1013C72.016 13.5241 72.3056 12.8963 72.4997 12.2396C72.533 12.1256 72.6547 12.0592 72.7691 12.0924C72.8835 12.1256 72.9501 12.2468 72.9168 12.3608C72.7111 13.0579 72.4056 13.7218 72.0087 14.3351C71.9667 14.3986 71.8958 14.4347 71.8248 14.4347Z" fill="black"/>
<path d="M72.2665 7.18993C72.1854 7.18993 72.1087 7.14519 72.071 7.06726C70.8531 4.56623 68.3636 3.01193 65.5757 3.01193C63.2846 3.01193 61.1079 4.11308 59.7524 5.95601C59.6814 6.0527 59.5453 6.07291 59.4483 6.00219C59.3512 5.93148 59.331 5.79582 59.4019 5.69913C60.84 3.74507 63.147 2.57898 65.5757 2.57898C68.4867 2.57898 71.1905 4.26605 72.4621 6.87676C72.5142 6.98499 72.4693 7.11344 72.3621 7.16539C72.3303 7.18415 72.2984 7.18993 72.2665 7.18993Z" fill="black"/>
<path d="M65.5757 17.829C61.357 17.829 57.9247 14.4086 57.9247 10.2047C57.9247 8.8986 58.2622 7.60985 58.8994 6.4784C58.9573 6.37449 59.0906 6.33697 59.1948 6.39614C59.2991 6.45531 59.3368 6.58663 59.2774 6.69054C58.6764 7.75849 58.3577 8.97365 58.3577 10.2047C58.3577 14.1705 61.5945 17.396 65.5743 17.396C65.6945 17.396 65.7915 17.4927 65.7915 17.6125C65.793 17.7323 65.6959 17.829 65.5757 17.829Z" fill="black"/>
<path d="M64.8936 15.4348V14.2168C64.0319 14.1778 63.1963 13.9469 62.7068 13.6655L63.092 12.166C63.6322 12.4604 64.3911 12.7303 65.2267 12.7303C65.9595 12.7303 66.462 12.4489 66.462 11.9351C66.462 11.4473 66.0507 11.1399 65.0978 10.8195C63.722 10.3577 62.7821 9.71694 62.7821 8.47437C62.7821 7.34581 63.5801 6.46114 64.9559 6.19271V4.97467H66.2158V6.10323C67.0775 6.1422 67.6568 6.32115 68.0812 6.52608L67.7075 7.97503C67.373 7.8336 66.7807 7.53919 65.8552 7.53919C65.0196 7.53919 64.7488 7.89854 64.7488 8.25645C64.7488 8.6793 65.1992 8.94917 66.2926 9.35904C67.8234 9.89734 68.4403 10.6031 68.4403 11.7561C68.4403 12.8977 67.6293 13.8718 66.1507 14.1273V15.4348H64.8936Z" fill="#FBED10"/>
<path d="M102.899 95.2698L102.679 96.8169L104.281 97.4216C104.294 97.7881 104.337 98.1504 104.411 98.5025L103.005 99.4723L103.592 100.921L105.282 100.647C105.476 100.954 105.694 101.245 105.938 101.516L105.205 103.059L106.439 104.021L107.764 102.943C108.083 103.111 108.42 103.253 108.769 103.367L108.908 105.068L110.461 105.287L111.067 103.691C111.435 103.678 111.799 103.634 112.152 103.561L113.125 104.962L114.579 104.378L114.304 102.693C114.613 102.5 114.904 102.282 115.176 102.04L116.724 102.77L117.69 101.54L116.608 100.22C116.776 99.9024 116.92 99.5661 117.034 99.2183L118.74 99.0798L118.96 97.5327L117.358 96.928C117.345 96.5614 117.302 96.1992 117.228 95.8471L118.634 94.8787L118.048 93.4298L116.358 93.7039C116.164 93.3966 115.945 93.1065 115.702 92.8352L116.435 91.2924L115.201 90.3298L113.875 91.4079C113.557 91.2405 113.219 91.0976 112.87 90.9836L112.731 89.2835L111.179 89.0641L110.572 90.6603C110.204 90.6733 109.841 90.7166 109.487 90.7902L108.514 89.3889L107.06 89.9733L107.335 91.6575C107.027 91.8509 106.736 92.0688 106.463 92.3113L104.915 91.581L103.949 92.8106L105.031 94.1311C104.863 94.4486 104.72 94.7849 104.605 95.1327L102.899 95.2698ZM111.385 93.1931C113.592 93.5048 115.127 95.5397 114.815 97.7391C114.504 99.9385 112.461 101.468 110.253 101.158C108.046 100.846 106.511 98.8113 106.823 96.612C107.135 94.4126 109.177 92.8828 111.385 93.1931Z" fill="#99B9FF"/>
<path d="M110.923 106.118C110.912 106.118 110.902 106.118 110.892 106.117L109.34 105.897C109.24 105.883 109.162 105.802 109.153 105.701L109.025 104.142C108.759 104.049 108.5 103.939 108.252 103.816L107.037 104.805C106.959 104.868 106.846 104.87 106.766 104.808L105.532 103.845C105.453 103.783 105.427 103.673 105.47 103.583L106.142 102.168C105.961 101.956 105.792 101.732 105.638 101.5L104.087 101.751C103.988 101.767 103.889 101.712 103.851 101.618L103.266 100.169C103.228 100.076 103.26 99.9674 103.344 99.9111L104.634 99.0221C104.584 98.7508 104.55 98.4722 104.534 98.1908L103.066 97.6366C102.97 97.6006 102.914 97.5039 102.928 97.4043L103.148 95.8572C103.163 95.7576 103.244 95.6797 103.345 95.671L104.91 95.544C105.004 95.2785 105.114 95.0202 105.237 94.7734L104.245 93.5625C104.181 93.4846 104.18 93.372 104.242 93.2927L105.208 92.0631C105.27 91.9837 105.38 91.9577 105.471 92.001L106.891 92.6707C107.104 92.4903 107.328 92.3214 107.561 92.1684L107.309 90.6242C107.293 90.5247 107.348 90.4265 107.442 90.389L108.896 89.8045C108.991 89.767 109.099 89.7987 109.156 89.8824L110.048 91.1683C110.32 91.1178 110.6 91.0846 110.882 91.0687L111.438 89.6054C111.474 89.5101 111.571 89.4538 111.671 89.4682L113.224 89.6876C113.324 89.702 113.402 89.7829 113.411 89.8839L113.538 91.4425C113.805 91.5363 114.064 91.646 114.311 91.7687L115.526 90.7801C115.605 90.7166 115.718 90.7152 115.797 90.7772L117.031 91.7398C117.111 91.8019 117.137 91.9116 117.093 92.0025L116.421 93.4168C116.602 93.6289 116.772 93.8526 116.925 94.085L118.476 93.8339C118.576 93.818 118.675 93.8728 118.713 93.9666L119.298 95.4156C119.335 95.5094 119.303 95.6176 119.219 95.6739L117.929 96.5629C117.98 96.8342 118.013 97.1128 118.029 97.3942L119.496 97.9484C119.592 97.9845 119.648 98.0811 119.634 98.1807L119.413 99.7278C119.399 99.8274 119.316 99.9053 119.217 99.914L117.652 100.041C117.558 100.307 117.448 100.565 117.325 100.812L118.317 102.022C118.381 102.1 118.382 102.213 118.32 102.292L117.354 103.522C117.292 103.601 117.182 103.627 117.091 103.584L115.671 102.914C115.458 103.095 115.234 103.264 115.001 103.417L115.253 104.961C115.269 105.06 115.214 105.158 115.12 105.196L113.665 105.781C113.571 105.818 113.463 105.786 113.406 105.703L112.514 104.417C112.242 104.467 111.962 104.5 111.68 104.516L111.124 105.98C111.093 106.063 111.011 106.118 110.923 106.118ZM109.573 105.492L110.781 105.662L111.327 104.229C111.357 104.148 111.435 104.093 111.522 104.089C111.878 104.076 112.23 104.034 112.571 103.964C112.656 103.946 112.744 103.981 112.794 104.053L113.667 105.313L114.799 104.858L114.552 103.344C114.537 103.259 114.576 103.173 114.65 103.127C114.947 102.94 115.231 102.728 115.493 102.494C115.558 102.437 115.652 102.424 115.731 102.46L117.121 103.116L117.873 102.158L116.901 100.972C116.846 100.904 116.836 100.81 116.878 100.734C117.04 100.428 117.177 100.103 117.289 99.7653C117.316 99.6831 117.39 99.6239 117.477 99.6167L119.011 99.4926L119.182 98.289L117.744 97.7449C117.663 97.7146 117.608 97.6381 117.603 97.5501C117.59 97.195 117.548 96.8429 117.477 96.5052C117.46 96.42 117.495 96.332 117.567 96.2829L118.831 95.4127L118.375 94.2841L116.856 94.5309C116.769 94.5454 116.684 94.5064 116.637 94.4328C116.45 94.1369 116.238 93.8541 116.003 93.5929C115.945 93.5279 115.932 93.4341 115.968 93.3562L116.627 91.9707L115.667 91.2217L114.477 92.1901C114.408 92.2449 114.314 92.255 114.238 92.2132C113.932 92.0515 113.605 91.9144 113.266 91.8033C113.183 91.7759 113.124 91.7023 113.117 91.6157L112.992 90.0874L111.784 89.9171L111.238 91.3502C111.208 91.431 111.13 91.4873 111.043 91.4901C110.687 91.5031 110.333 91.545 109.994 91.6157C109.907 91.633 109.82 91.5984 109.771 91.5262L108.898 90.2663L107.765 90.7209L108.013 92.2348C108.028 92.32 107.988 92.4066 107.915 92.4527C107.618 92.6389 107.334 92.8511 107.072 93.0849C107.007 93.1426 106.912 93.1556 106.834 93.1195L105.444 92.4628L104.692 93.4197L105.664 94.606C105.719 94.6738 105.729 94.7676 105.687 94.8441C105.525 95.15 105.387 95.4762 105.276 95.8125C105.248 95.8947 105.175 95.9539 105.088 95.9611L103.554 96.0852L103.383 97.2888L104.821 97.8329C104.902 97.8632 104.957 97.9397 104.962 98.0277C104.975 98.3828 105.017 98.7349 105.088 99.0726C105.105 99.1578 105.07 99.2458 104.998 99.2949L103.734 100.165L104.19 101.294L105.709 101.048C105.796 101.034 105.881 101.073 105.928 101.146C106.114 101.442 106.327 101.725 106.562 101.986C106.62 102.051 106.633 102.145 106.597 102.223L105.938 103.609L106.899 104.358L108.09 103.389C108.158 103.334 108.252 103.324 108.329 103.366C108.636 103.528 108.963 103.665 109.301 103.776C109.383 103.803 109.442 103.877 109.45 103.964L109.573 105.492ZM111.292 102.028C111.091 102.028 110.889 102.014 110.686 101.985C108.365 101.657 106.743 99.5084 107.072 97.195C107.4 94.8816 109.557 93.2653 111.878 93.5929C113.004 93.7516 113.999 94.3375 114.682 95.2424C115.364 96.1473 115.654 97.2629 115.495 98.3842C115.335 99.5056 114.747 100.497 113.839 101.178C113.095 101.735 112.207 102.028 111.292 102.028ZM111.28 93.984C109.409 93.984 107.771 95.3593 107.502 97.2556C107.206 99.3338 108.663 101.263 110.747 101.556C111.758 101.699 112.762 101.441 113.577 100.83C114.393 100.22 114.92 99.3295 115.063 98.3222C115.206 97.3163 114.947 96.3147 114.335 95.5022C113.722 94.6897 112.827 94.1644 111.818 94.0215C111.637 93.9969 111.457 93.984 111.28 93.984Z" fill="#5479F7"/>
<path d="M73.3425 99.2515L72.966 101.898L75.7061 102.933C75.7292 103.561 75.8031 104.18 75.9291 104.782L73.5221 106.44L74.5243 108.919L77.4179 108.45C77.7495 108.976 78.1246 109.474 78.5402 109.937L77.2861 112.576L79.399 114.224L81.6655 112.38C82.2115 112.667 82.7864 112.91 83.386 113.106L83.6235 116.017L86.2796 116.392L87.3179 113.662C87.9479 113.639 88.5692 113.565 89.1731 113.439L90.8371 115.838L93.3252 114.839L92.8545 111.956C93.3817 111.625 93.8813 111.251 94.3462 110.837L96.995 112.087L98.6489 109.981L96.798 107.723C97.0862 107.179 97.3295 106.606 97.5265 106.008L100.448 105.772L100.824 103.125L98.0841 102.09C98.0609 101.462 97.987 100.843 97.861 100.242L100.268 98.5833L99.2658 96.1039L96.3723 96.573C96.0406 96.0476 95.6655 95.5497 95.2499 95.0865L96.504 92.4469L94.3911 90.7988L92.1246 92.6432C91.5786 92.356 91.0037 92.1135 90.4041 91.9173L90.1666 89.0064L87.5106 88.6312L86.4722 91.3616C85.8422 91.3847 85.2209 91.4583 84.617 91.5839L82.953 89.1853L80.4649 90.184L80.9356 93.066C80.4084 93.3965 79.9088 93.7703 79.4439 94.1845L76.7951 92.9347L75.1412 95.0403L76.9921 97.2989C76.7039 97.843 76.4606 98.4159 76.2636 99.0134L73.3425 99.2515ZM87.8639 95.6984C91.6409 96.2309 94.268 99.7133 93.7336 103.477C93.1992 107.241 89.7046 109.859 85.9276 109.326C82.1507 108.794 79.5236 105.311 80.058 101.548C80.5924 97.7852 84.0869 95.1659 87.8639 95.6984Z" fill="#99B9FF"/>
<path d="M87.0732 117.661C87.063 117.661 87.0529 117.661 87.0428 117.659L84.3867 117.284C84.2868 117.27 84.2086 117.189 84.1999 117.088L83.974 114.32C83.4584 114.144 82.9588 113.933 82.4852 113.69L80.3288 115.445C80.2506 115.509 80.1376 115.51 80.058 115.448L77.945 113.8C77.8653 113.738 77.8393 113.628 77.8827 113.537L79.0761 111.026C78.7241 110.622 78.3983 110.191 78.1057 109.74L75.3541 110.186C75.2556 110.202 75.1557 110.147 75.1181 110.054L74.1159 107.574C74.0782 107.48 74.1101 107.372 74.1941 107.316L76.4837 105.739C76.3824 105.219 76.3172 104.681 76.2911 104.138L73.6858 103.154C73.5902 103.118 73.5337 103.021 73.5482 102.921L73.9247 100.275C73.9392 100.175 74.0217 100.097 74.1217 100.089L76.8994 99.8634C77.0761 99.3496 77.2875 98.8517 77.5308 98.3798L75.7698 96.2309C75.706 96.153 75.7046 96.0404 75.7669 95.9611L77.4207 93.8555C77.483 93.7761 77.5931 93.7501 77.6843 93.7934L80.2042 94.9826C80.6112 94.6305 81.0442 94.3072 81.4946 94.0157L81.0471 91.2736C81.0312 91.174 81.0862 91.0759 81.1803 91.0384L83.6684 90.0397C83.7625 90.0022 83.8711 90.0339 83.9276 90.1176L85.5105 92.3993C86.0333 92.2983 86.5721 92.2333 87.1166 92.2074L88.1043 89.6111C88.1405 89.5158 88.2375 89.4596 88.3375 89.474L90.9935 89.8492C91.0934 89.8636 91.1716 89.9445 91.1803 90.0455L91.4062 92.8135C91.9218 92.9896 92.4215 93.2003 92.895 93.4427L95.0514 91.6878C95.1296 91.6243 95.2426 91.6229 95.3223 91.6849L97.4352 93.333C97.5149 93.3951 97.5409 93.5048 97.4975 93.5957L96.3042 96.1068C96.6575 96.5123 96.9819 96.9439 97.2745 97.3927L100.026 96.9467C100.126 96.9309 100.225 96.9857 100.262 97.0795L101.264 99.5589C101.302 99.6527 101.27 99.7609 101.186 99.8172L98.8965 101.395C98.9979 101.914 99.063 102.452 99.0891 102.995L101.694 103.979C101.79 104.015 101.847 104.112 101.832 104.212L101.455 106.858C101.441 106.958 101.358 107.036 101.259 107.045L98.4808 107.27C98.3042 107.784 98.0927 108.281 97.8494 108.755L99.6105 110.904C99.6742 110.982 99.6756 111.094 99.6134 111.174L97.9595 113.279C97.8972 113.359 97.7871 113.384 97.6959 113.341L95.176 112.152C94.7705 112.503 94.3375 112.827 93.8856 113.119L94.3331 115.861C94.349 115.961 94.294 116.059 94.1999 116.096L91.7118 117.095C91.6177 117.132 91.5091 117.101 91.4526 117.017L89.8697 114.732C89.3469 114.833 88.8081 114.898 88.2636 114.924L87.2759 117.521C87.2426 117.606 87.1615 117.661 87.0732 117.661ZM84.6184 116.88L86.9312 117.206L87.9088 114.637C87.9392 114.556 88.0174 114.5 88.1043 114.497C88.7227 114.474 89.3353 114.402 89.9233 114.279C90.0087 114.262 90.0971 114.297 90.1463 114.369L91.7118 116.626L93.8784 115.756L93.4367 113.044C93.4222 112.959 93.4613 112.872 93.5351 112.826C94.0507 112.503 94.5431 112.133 94.9979 111.729C95.063 111.671 95.1572 111.658 95.2354 111.695L97.7278 112.871L99.1673 111.038L97.4265 108.914C97.3715 108.846 97.3614 108.752 97.4034 108.675C97.6843 108.146 97.9247 107.58 98.1188 106.994C98.1463 106.912 98.2202 106.853 98.3071 106.845L101.054 106.623L101.382 104.318L98.8038 103.344C98.7227 103.314 98.6677 103.238 98.6633 103.15C98.6401 102.532 98.5677 101.923 98.4446 101.337C98.4273 101.252 98.462 101.164 98.5344 101.115L100.797 99.556L99.9233 97.397L97.2021 97.8372C97.1166 97.8516 97.0297 97.8126 96.9834 97.739C96.659 97.2253 96.2882 96.7346 95.8827 96.2814C95.8248 96.2165 95.8118 96.1227 95.848 96.0448L97.0283 93.5625L95.189 92.128L93.0572 93.8627C92.9892 93.9175 92.895 93.9276 92.8183 93.8858C92.2868 93.6058 91.7191 93.3662 91.1311 93.1728C91.0485 93.1454 90.9892 93.0718 90.9819 92.9852L90.7589 90.2475L88.4461 89.9214L87.4685 92.4902C87.4381 92.571 87.3599 92.6273 87.273 92.6302C86.6546 92.6533 86.042 92.7255 85.454 92.8481C85.3686 92.8654 85.2803 92.8308 85.231 92.7587L83.6655 90.5015L81.4989 91.3718L81.9406 94.0835C81.9551 94.1686 81.916 94.2552 81.8422 94.3014C81.3266 94.6247 80.8342 94.9941 80.3795 95.3982C80.3143 95.4559 80.2202 95.4689 80.142 95.4329L77.6496 94.2567L76.21 96.0895L77.9508 98.2138C78.0058 98.2817 78.016 98.3755 77.974 98.452C77.693 98.9816 77.4526 99.5473 77.2585 100.133C77.231 100.216 77.1572 100.275 77.0703 100.282L74.323 100.504L73.9957 102.809L76.5735 103.783C76.6546 103.813 76.7097 103.89 76.714 103.978C76.7372 104.596 76.8096 105.205 76.9327 105.791C76.9501 105.876 76.9153 105.964 76.8429 106.013L74.5779 107.573L75.4511 109.732L78.1724 109.292C78.2578 109.277 78.3447 109.316 78.391 109.39C78.7154 109.904 79.0862 110.394 79.4917 110.847C79.5496 110.912 79.5627 111.006 79.5265 111.084L78.349 113.566L80.1883 115.001L82.3201 113.266C82.3881 113.211 82.4823 113.201 82.559 113.243C83.0905 113.523 83.6582 113.763 84.2462 113.956C84.3288 113.983 84.3882 114.057 84.3954 114.144L84.6184 116.88ZM87.6945 110.663C87.3628 110.663 87.0283 110.64 86.6908 110.592C82.8023 110.044 80.0855 106.444 80.6358 102.569C81.1861 98.6944 84.7994 95.9885 88.6865 96.5354C92.575 97.0838 95.2918 100.683 94.7415 104.558C94.239 108.098 91.1832 110.663 87.6945 110.663ZM87.6843 96.8977C84.4084 96.8977 81.538 99.3063 81.0659 102.63C80.5489 106.27 83.0992 109.648 86.7517 110.163C87.0674 110.208 87.3831 110.23 87.693 110.23C90.9689 110.23 93.8393 107.821 94.3114 104.497C94.8284 100.858 92.2781 97.4793 88.6257 96.9641C88.31 96.9193 87.9957 96.8977 87.6843 96.8977Z" fill="#5479F7"/>
</g>
<defs>
<clipPath id="clip0_1_721">
<rect width="120" height="120" fill="white"/>
</clipPath>
</defs>
</svg>
