<svg width="120" height="120" viewBox="0 0 120 120" fill="none" xmlns="http://www.w3.org/2000/svg">
<g clip-path="url(#clip0_1_1277)">
<path d="M1.83703 98.1526C5.35785 106.706 13.9287 110.909 19.1868 113.495C39.9128 123.688 71.0568 122.336 93.7239 103.744C99.0283 99.3935 125.173 76.6 119.088 45.7358C113.707 18.4497 87.1722 2.44271 64.3779 0.338005C45.4932 -1.40412 20.3011 5.65972 11.5843 22.3052C6.10365 32.7724 12.6886 36.0963 8.20516 59.8129C4.32444 80.3414 -2.46861 87.6898 1.83703 98.1526Z" fill="#F4F4F4"/>
<path d="M47.5919 92.5132C47.5919 92.5132 26.7762 96.1376 10.6868 86.2684C10.1491 85.9391 11.502 83.869 10.9759 83.5079C10.3023 83.0471 7.75422 84.2836 7.10382 83.7708C4.68579 81.8611 2.43685 79.5773 0.456749 76.8514C0.456749 76.8514 6.88558 74.8536 15.7455 75.5253C16.4132 75.5759 17.4322 78.4346 18.1274 78.5184C18.7835 78.5964 19.1131 75.898 19.7895 76.0092C28.5323 77.4437 38.8418 81.7268 47.5919 92.5132Z" fill="#CADDFF"/>
<path d="M30.1583 87.1062C29.4804 87.125 29.8143 90.1224 29.1567 90.1629C28.5077 90.2033 26.068 87.2116 25.4379 87.2694C13.0846 88.415 4.69014 92.9061 4.69014 92.9061C8.34104 96.3267 12.2926 98.9443 16.38 100.916C17.0333 101.231 19.8545 99.2404 20.5136 99.5235C21.2363 99.8341 20.531 102.557 21.2594 102.83C32.0315 106.863 49.3624 108.696 58.0662 105.566C59.3684 100.759 53.7129 96.2184 53.8863 91.6695C45.1681 87.9151 37.4948 86.8967 30.1583 87.1062Z" fill="#99B9FF"/>
<path d="M49.413 97.688C49.4116 97.688 49.4116 97.688 49.4101 97.688C45.5973 97.6475 41.7325 97.5073 37.9255 97.2688C37.8056 97.2616 37.7145 97.159 37.7232 97.0391C37.7304 96.9191 37.8345 96.8295 37.953 96.8367C41.7528 97.0752 45.6104 97.2154 49.4159 97.2544C49.5359 97.2558 49.6313 97.3541 49.6298 97.4741C49.6284 97.5926 49.5315 97.688 49.413 97.688Z" fill="#CADDFF"/>
<path d="M32.5099 96.8627C32.5041 96.8627 32.4969 96.8627 32.4911 96.8612C26.0825 96.3022 19.619 95.4514 13.2827 94.3318L10.3848 93.8205C10.2662 93.8003 10.1882 93.6876 10.2084 93.5691C10.2287 93.4507 10.3414 93.3727 10.4599 93.3929L13.3578 93.9043C19.6826 95.0209 26.1331 95.8688 32.5287 96.4279C32.6486 96.438 32.7368 96.5434 32.7252 96.6619C32.7151 96.7774 32.6212 96.8627 32.5099 96.8627Z" fill="#CADDFF"/>
<path d="M31.9259 84.1232C31.9259 84.1232 11.4658 83.8286 8.57082 63.1585C8.57082 63.1585 26.094 65.0566 31.9259 84.1232Z" fill="#99B9FF"/>
<path d="M27.2113 79.7723C27.1737 79.7723 27.1347 79.7621 27.1 79.7419C21.2435 76.2461 12.875 67.3795 12.7912 67.29C12.7088 67.2033 12.7132 67.0661 12.8013 66.9837C12.888 66.9014 13.0253 66.9057 13.1077 66.9938C13.1916 67.082 21.5196 75.9052 27.3226 79.3707C27.4252 79.4313 27.4584 79.5657 27.3977 79.6683C27.3572 79.7347 27.285 79.7723 27.2113 79.7723Z" fill="#CADDFF"/>
<path d="M97.7347 23.5318C103.494 23.5318 108.163 18.8656 108.163 13.1094C108.163 7.35328 103.494 2.68701 97.7347 2.68701C91.9754 2.68701 87.3066 7.35328 87.3066 13.1094C87.3066 18.8656 91.9754 23.5318 97.7347 23.5318Z" fill="black"/>
<path d="M98.1813 22.9121C103.77 22.9121 108.3 18.3842 108.3 12.7988C108.3 7.21341 103.77 2.68555 98.1813 2.68555C92.5929 2.68555 88.0625 7.21341 88.0625 12.7988C88.0625 18.3842 92.5929 22.9121 98.1813 22.9121Z" fill="#99B9FF"/>
<path d="M98.1813 23.1287C92.4824 23.1287 87.8457 18.4946 87.8457 12.7987C87.8457 7.10286 92.4824 2.46875 98.1813 2.46875C103.88 2.46875 108.517 7.10286 108.517 12.7987C108.517 18.4946 103.88 23.1287 98.1813 23.1287ZM98.1813 2.90211C92.7208 2.90211 88.2793 7.34121 88.2793 12.7987C88.2793 18.2562 92.7208 22.6953 98.1813 22.6953C103.642 22.6953 108.083 18.2562 108.083 12.7987C108.083 7.34121 103.64 2.90211 98.1813 2.90211Z" fill="black"/>
<path d="M98.1813 21.2864C102.871 21.2864 106.673 17.4868 106.673 12.7997C106.673 8.11262 102.871 4.31299 98.1813 4.31299C93.4917 4.31299 89.69 8.11262 89.69 12.7997C89.69 17.4868 93.4917 21.2864 98.1813 21.2864Z" fill="white"/>
<path d="M105.32 17.6133C105.279 17.6133 105.239 17.6018 105.203 17.5787C105.102 17.5137 105.073 17.3793 105.138 17.2796C105.567 16.6151 105.898 15.8943 106.121 15.1388C106.154 15.0247 106.275 14.9582 106.389 14.9915C106.504 15.0247 106.57 15.146 106.537 15.2602C106.303 16.0561 105.954 16.8145 105.502 17.5137C105.46 17.5787 105.391 17.6133 105.32 17.6133Z" fill="black"/>
<path d="M105.824 9.31534C105.743 9.31534 105.667 9.27056 105.629 9.19255C104.231 6.31646 101.378 4.52956 98.1813 4.52956C95.5551 4.52956 93.059 5.79498 91.5039 7.91557C91.4331 8.01236 91.2972 8.03258 91.2004 7.9618C91.1035 7.89102 91.0833 7.75523 91.1541 7.65844C92.7902 5.42806 95.4178 4.09619 98.1813 4.09619C101.495 4.09619 104.571 6.02177 106.019 9.00332C106.071 9.11166 106.027 9.24022 105.92 9.29223C105.888 9.30812 105.856 9.31534 105.824 9.31534Z" fill="black"/>
<path d="M98.1813 21.5035C93.3799 21.5035 89.4732 17.5989 89.4732 12.8001C89.4732 11.3094 89.8562 9.83882 90.5832 8.54595C90.6425 8.44194 90.774 8.40438 90.8781 8.46361C90.9821 8.52283 91.0197 8.65429 90.9604 8.75829C90.271 9.98616 89.9068 11.383 89.9068 12.8001C89.9068 17.3606 93.6184 21.0702 98.1813 21.0702C98.3013 21.0702 98.3981 21.167 98.3981 21.2869C98.3981 21.4053 98.3013 21.5035 98.1813 21.5035Z" fill="black"/>
<path d="M97.4023 18.7907V17.3953C96.418 17.3519 95.4626 17.0861 94.9047 16.764L95.3456 15.045C95.9627 15.383 96.8299 15.6907 97.7853 15.6907C98.6236 15.6907 99.1959 15.3671 99.1959 14.7806C99.1959 14.223 98.7262 13.8706 97.6379 13.5022C96.0653 12.9735 94.9929 12.2397 94.9929 10.8139C94.9929 9.52103 95.9035 8.5084 97.476 8.19927V6.80383H98.9155V8.0967C99.8998 8.14148 100.562 8.34661 101.046 8.58207L100.62 10.2419C100.238 10.0801 99.5616 9.74204 98.5036 9.74204C97.5483 9.74204 97.2404 10.1537 97.2404 10.564C97.2404 11.0494 97.7549 11.357 99.0037 11.8265C100.753 12.4433 101.458 13.2509 101.458 14.5726C101.458 15.8799 100.533 16.9966 98.8418 17.2898V18.7878H97.4023V18.7907Z" fill="#FBED10"/>
<path d="M117.705 31.7199C118.695 27.5287 116.098 23.3289 111.905 22.3393C107.711 21.3496 103.509 23.9449 102.519 28.136C101.529 32.3272 104.126 36.527 108.319 37.5166C112.512 38.5063 116.714 35.911 117.705 31.7199Z" fill="black"/>
<path d="M117.814 31.435C118.774 27.3681 116.255 23.2928 112.186 22.3325C108.116 21.3722 104.039 23.8905 103.078 27.9574C102.117 32.0243 104.637 36.0996 108.706 37.06C112.775 38.0203 116.853 35.5019 117.814 31.435Z" fill="#99B9FF"/>
<path d="M110.442 37.4737C106.148 37.4737 102.655 33.9822 102.655 29.6904C102.655 25.3987 106.148 21.9072 110.442 21.9072C114.736 21.9072 118.229 25.3987 118.229 29.6904C118.229 33.9822 114.736 37.4737 110.442 37.4737ZM110.442 22.3406C106.388 22.3406 103.088 25.637 103.088 29.6904C103.088 33.7438 106.386 37.0403 110.442 37.0403C114.496 37.0403 117.796 33.7438 117.796 29.6904C117.796 25.637 114.496 22.3406 110.442 22.3406Z" fill="black"/>
<path d="M116.628 31.1552C117.434 27.7429 115.32 24.3234 111.906 23.5176C108.491 22.7119 105.07 24.825 104.264 28.2373C103.458 31.6497 105.572 35.0691 108.986 35.8749C112.4 36.6807 115.822 34.5676 116.628 31.1552Z" fill="white"/>
<path d="M115.783 33.3459C115.742 33.3459 115.702 33.3343 115.665 33.3112C115.564 33.2462 115.535 33.1119 115.6 33.0122C115.918 32.5196 116.164 31.9851 116.329 31.4246C116.362 31.3105 116.484 31.2441 116.598 31.2773C116.712 31.3105 116.778 31.4319 116.745 31.546C116.569 32.1469 116.306 32.719 115.965 33.2462C115.924 33.3112 115.853 33.3459 115.783 33.3459Z" fill="black"/>
<path d="M116.16 27.1373C116.079 27.1373 116.002 27.0925 115.965 27.0145C114.928 24.8809 112.812 23.5562 110.442 23.5562C108.495 23.5562 106.644 24.4952 105.49 26.0668C105.42 26.1636 105.284 26.1839 105.187 26.1131C105.09 26.0423 105.07 25.9065 105.141 25.8097C106.375 24.1268 108.356 23.1229 110.442 23.1229C112.942 23.1229 115.264 24.5761 116.355 26.8252C116.407 26.9336 116.362 27.0621 116.255 27.1141C116.225 27.13 116.192 27.1373 116.16 27.1373Z" fill="black"/>
<path d="M110.442 36.2552C106.82 36.2552 103.873 33.3098 103.873 29.6898C103.873 28.5644 104.162 27.455 104.71 26.48C104.769 26.376 104.901 26.3384 105.005 26.3976C105.109 26.4569 105.146 26.5883 105.087 26.6923C104.575 27.6024 104.305 28.6396 104.305 29.6898C104.305 33.0714 107.059 35.8219 110.441 35.8219C110.561 35.8219 110.657 35.9186 110.657 36.0385C110.659 36.1584 110.562 36.2552 110.442 36.2552Z" fill="black"/>
<path d="M109.86 34.1722V33.1278C109.122 33.0946 108.408 32.8967 107.991 32.6554L108.32 31.3698C108.781 31.6226 109.43 31.8537 110.146 31.8537C110.773 31.8537 111.201 31.6125 111.201 31.1719C111.201 30.7544 110.85 30.4901 110.036 30.2156C108.859 29.8198 108.057 29.2709 108.057 28.2048C108.057 27.2384 108.739 26.48 109.914 26.2489V25.2045H110.991V26.1709C111.728 26.2041 112.223 26.3572 112.585 26.5334L112.266 27.7758C111.98 27.6544 111.474 27.4016 110.683 27.4016C109.969 27.4016 109.738 27.7093 109.738 28.017C109.738 28.3796 110.123 28.6107 111.058 28.9617C112.366 29.4225 112.893 30.0278 112.893 31.0159C112.893 31.9938 112.201 32.8288 110.936 33.0484V34.1693H109.86V34.1722Z" fill="#FBED10"/>
<path d="M107.388 74.8912C107.345 74.8912 107.3 74.8782 107.262 74.8507C107.165 74.7814 107.142 74.6456 107.212 74.5488C111.342 68.7793 112.96 62.351 113.589 57.974C114.271 53.2244 113.97 49.7979 113.967 49.7647C113.956 49.6448 114.044 49.5393 114.164 49.5292C114.282 49.5177 114.389 49.6058 114.399 49.7257C114.402 49.7603 114.709 53.2273 114.021 58.0246C113.386 62.4522 111.75 68.957 107.566 74.8016C107.522 74.8608 107.456 74.8912 107.388 74.8912Z" fill="black"/>
<path d="M109.925 77.0088C109.858 77.0088 109.792 76.9785 109.748 76.9193C109.677 76.8225 109.699 76.6867 109.796 76.6174C116.634 71.6684 118.277 60.7259 118.293 60.6161C118.31 60.4977 118.42 60.4153 118.539 60.4327C118.657 60.45 118.74 60.5598 118.722 60.6782C118.706 60.7895 117.034 71.9125 110.05 76.9684C110.014 76.9958 109.969 77.0088 109.925 77.0088Z" fill="black"/>
<path d="M12.7059 53.257C12.5859 53.257 12.4891 53.1602 12.4891 53.0402V51.9186C12.4891 51.7987 12.5859 51.7018 12.7059 51.7018C12.8258 51.7018 12.9227 51.7987 12.9227 51.9186V53.0402C12.9227 53.1602 12.8258 53.257 12.7059 53.257Z" fill="black"/>
<path d="M12.7059 55.8673C12.5859 55.8673 12.4891 55.7705 12.4891 55.6505V54.5289C12.4891 54.409 12.5859 54.3121 12.7059 54.3121C12.8258 54.3121 12.9227 54.409 12.9227 54.5289V55.6505C12.9227 55.7705 12.8258 55.8673 12.7059 55.8673Z" fill="black"/>
<path d="M11.9616 54.0018H10.84C10.72 54.0018 10.6232 53.9049 10.6232 53.785C10.6232 53.665 10.72 53.5682 10.84 53.5682H11.9616C12.0815 53.5682 12.1784 53.665 12.1784 53.785C12.1784 53.9049 12.0815 54.0018 11.9616 54.0018Z" fill="black"/>
<path d="M14.5718 54.0018H13.4517C13.3317 54.0018 13.2349 53.9049 13.2349 53.785C13.2349 53.665 13.3317 53.5682 13.4517 53.5682H14.5718C14.6918 53.5682 14.7886 53.665 14.7886 53.785C14.7886 53.9049 14.6918 54.0018 14.5718 54.0018Z" fill="black"/>
<path d="M50.257 45.3632L30.0556 61.6548C28.8531 62.6241 27.0927 62.4363 26.1229 61.2344L0.836842 29.9152C-0.132975 28.7133 0.0549183 26.9539 1.25743 25.9846L21.4588 9.69298C22.6613 8.72369 24.4217 8.91148 25.3916 10.1133L50.6776 41.4326C51.6474 42.633 51.4581 44.3939 50.257 45.3632Z" fill="#99B9FF"/>
<path d="M48.4518 45.3038L30.2436 59.9891C29.041 60.9584 27.2806 60.7706 26.3108 59.5687L2.64787 30.2603C1.67805 29.0585 1.86595 27.299 3.06846 26.3297L21.2767 11.6445C22.4792 10.6752 24.2397 10.863 25.2095 12.0648L48.8724 41.3732C49.8422 42.5751 49.6544 44.3345 48.4518 45.3038Z" fill="white"/>
<path d="M28.6609 58.7064C27.9816 58.7064 27.3052 58.4074 26.8412 57.8339L7.12694 33.4167C7.05178 33.3242 7.06624 33.187 7.16018 33.1119C7.25413 33.0368 7.38999 33.0512 7.46515 33.1451L27.178 57.5623C27.8327 58.3741 29.0121 58.5128 29.8071 57.8714L46.3865 44.4993C47.1814 43.8579 47.2956 42.6777 46.6394 41.8658L24.3105 14.2071C23.6557 13.3967 22.4763 13.258 21.6814 13.898L7.19631 25.58C7.10381 25.6551 6.96651 25.6407 6.89135 25.5468C6.81619 25.4543 6.83065 25.3171 6.92459 25.242L21.4097 13.5599C22.3911 12.7683 23.8436 12.9373 24.6487 13.9341L46.979 41.5928C47.7841 42.5896 47.641 44.0442 46.6596 44.8358L30.0802 58.2066C29.664 58.5431 29.161 58.7064 28.6609 58.7064Z" fill="black"/>
<path d="M28.3054 62.4911C28.197 62.4911 28.0886 62.4853 27.9802 62.4737C27.1794 62.3885 26.4611 61.997 25.9552 61.3701L0.669193 30.0523C0.163328 29.4268 -0.0679253 28.641 0.0173492 27.8407C0.102624 27.0404 0.494308 26.3225 1.12158 25.8169L21.3215 9.52531C22.6151 8.48234 24.5157 8.68603 25.5592 9.97745L50.8453 41.2967C51.8888 42.5896 51.685 44.4891 50.3929 45.5321L50.257 45.3631L50.3929 45.5321L30.1915 61.8223C29.651 62.26 28.9904 62.4911 28.3054 62.4911ZM23.212 9.29129C22.6426 9.29129 22.0702 9.47764 21.5947 9.86189L1.3933 26.1535C0.857086 26.5854 0.52177 27.2008 0.448058 27.8869C0.374346 28.5717 0.572356 29.2448 1.00596 29.7808L26.292 61.1C26.7242 61.6359 27.3399 61.971 28.0264 62.0447C28.7115 62.1184 29.385 61.9205 29.9212 61.4871L50.1212 45.1955C50.6574 44.7636 50.9927 44.1482 51.0664 43.4621C51.1401 42.7773 50.9421 42.1042 50.5085 41.5683L25.2225 10.249C24.7137 9.6192 23.9665 9.29129 23.212 9.29129Z" fill="black"/>
<path d="M7.77445 29.3835L5.98224 30.8295L6.47654 32.209L5.64114 32.8836L3.65526 26.8483L4.37648 26.2662L9.86295 29.4788L9.02321 30.1549L7.77445 29.3835ZM5.68306 29.9989L7.02432 28.9169L4.8043 27.5388L5.68306 29.9989Z" fill="black"/>
<path d="M56.1193 44.4449L31.5935 52.5257C30.0918 53.0211 28.473 52.205 27.9773 50.7041L15.413 12.6099C14.9173 11.109 15.7339 9.49115 17.2356 8.99567L41.7614 0.914875C43.2631 0.419395 44.8819 1.23556 45.3776 2.73645L57.9433 40.8306C58.4376 42.3315 57.621 43.9494 56.1193 44.4449Z" fill="#99B9FF"/>
<path d="M54.4514 43.7525L32.3566 51.033C30.8549 51.5285 29.2361 50.7123 28.7404 49.2114L16.9841 13.5701C16.4883 12.0692 17.3049 10.4513 18.8066 9.95583L40.9029 2.67531C42.4046 2.17983 44.0233 2.996 44.5191 4.49689L56.2754 40.1382C56.7697 41.6391 55.9531 43.2584 54.4514 43.7525Z" fill="white"/>
<path d="M32.0618 49.4426C31.7048 49.4426 31.3478 49.3573 31.0197 49.1869C30.4733 48.9052 30.0658 48.4256 29.8706 47.8362L20.0424 18.0381C20.0048 17.924 20.067 17.8026 20.1811 17.7651C20.2953 17.7275 20.4182 17.7896 20.4543 17.9038L30.2826 47.7019C30.4416 48.1815 30.774 48.5729 31.2177 48.8026C31.6614 49.0309 32.1644 49.0728 32.6327 48.9182L52.8659 42.2516C53.8357 41.9324 54.3589 40.8663 54.0322 39.8768L42.9003 6.12203C42.7413 5.641 42.4089 5.25097 41.9652 5.02129C41.5215 4.79305 41.0185 4.75116 40.5502 4.90572L22.8738 10.7301C22.7596 10.7677 22.6368 10.7056 22.6006 10.5915C22.5631 10.4773 22.6252 10.356 22.7394 10.3184L40.4158 4.49403C40.9968 4.30335 41.6183 4.35246 42.1661 4.63559C42.7124 4.91728 43.12 5.39687 43.3151 5.98625L54.4456 39.7395C54.8474 40.9558 54.1999 42.2675 53.0032 42.6619L32.77 49.3284C32.5373 49.405 32.2988 49.4426 32.0618 49.4426Z" fill="#5479F7"/>
<path d="M30.6945 52.8867C30.219 52.8867 29.7478 52.7754 29.3113 52.5559C28.5771 52.186 28.0307 51.5519 27.772 50.7704L15.2063 12.6777C14.6744 11.0656 15.5547 9.32199 17.1676 8.79039L41.6935 0.708151C42.4754 0.451021 43.3093 0.513137 44.045 0.882941C44.7792 1.25275 45.3256 1.8869 45.5843 2.6684L58.15 40.7626C58.4072 41.5441 58.3451 42.3776 57.9751 43.1128C57.6051 43.8481 56.9706 44.3927 56.1887 44.6513L31.6629 52.7321C31.3434 52.8346 31.0182 52.8867 30.6945 52.8867ZM42.6604 0.985504C42.3814 0.985504 42.101 1.03029 41.8293 1.11985L17.3035 9.20065C15.9174 9.65712 15.1615 11.1551 15.6182 12.5404L28.1839 50.6346C28.4051 51.3063 28.8748 51.8509 29.5064 52.1687C30.138 52.4865 30.8549 52.54 31.527 52.3189L56.0528 44.2381L56.1207 44.4433L56.0528 44.2381C56.7249 44.0171 57.2698 43.5477 57.5877 42.9164C57.9057 42.2851 57.9592 41.5686 57.7381 40.8969L45.1709 2.80419C44.9498 2.13392 44.48 1.58788 43.8484 1.27008C43.4741 1.08084 43.068 0.985504 42.6604 0.985504Z" fill="black"/>
<path d="M22.0702 14.4932L19.882 15.214L19.8574 16.6788L18.837 17.0154L19.1087 10.668L19.9889 10.3777L23.9882 15.318L22.9634 15.6561L22.0702 14.4932ZM19.8964 14.3329L21.534 13.794L19.9427 11.7226L19.8964 14.3329Z" fill="#5479F7"/>
<path d="M68.1632 48.4965L42.63 52.6524C41.0821 52.9038 39.6223 51.8536 39.3708 50.3065L32.9131 10.671C32.6616 9.12387 33.7123 7.66488 35.2603 7.41353L60.7935 3.25756C62.3414 3.00621 63.8012 4.0564 64.0527 5.60351L70.5104 45.2376C70.7619 46.7861 69.7112 48.2437 68.1632 48.4965Z" fill="#99B9FF"/>
<path d="M66.624 47.554L43.6172 51.2983C42.0692 51.5496 40.6095 50.4994 40.358 48.9523L34.3165 11.8665C34.065 10.3194 35.1158 8.86036 36.6637 8.60901L59.6705 4.86474C61.2184 4.61339 62.6782 5.66357 62.9297 7.21069L68.9712 44.2966C69.2227 45.8437 68.1719 47.3012 66.624 47.554Z" fill="white"/>
<path d="M43.9482 49.7055C43.4698 49.7055 43.0044 49.5538 42.6084 49.262C42.1126 48.898 41.7845 48.3606 41.6848 47.7496L36.6391 16.7814C36.6204 16.6629 36.6999 16.5517 36.8184 16.5329C36.9354 16.5141 37.0482 16.5936 37.067 16.712L42.1126 47.6788C42.1935 48.1786 42.4609 48.6163 42.8642 48.9124C43.266 49.2071 43.7559 49.327 44.2445 49.2476L65.2726 45.8254C65.7596 45.746 66.1875 45.4773 66.4751 45.0699C66.7642 44.6611 66.8783 44.1613 66.7974 43.6615L61.0797 8.58356C60.9987 8.08375 60.7313 7.64605 60.3281 7.34992C59.9263 7.05523 59.4349 6.93534 58.9478 7.01479L40.5777 10.005C40.4592 10.0238 40.3479 9.94433 40.3291 9.82587C40.3103 9.70742 40.3898 9.59619 40.5083 9.57741L58.8784 6.5872C59.4826 6.48897 60.0882 6.63631 60.5854 7.00034C61.0811 7.36437 61.4092 7.90174 61.5089 8.51278L67.2238 43.5907C67.3235 44.2032 67.1833 44.8157 66.8292 45.3184C66.4736 45.8211 65.9461 46.1534 65.3419 46.2516L44.3138 49.6752C44.191 49.6954 44.0696 49.7055 43.9482 49.7055Z" fill="black"/>
<path d="M42.1661 52.9065C41.5301 52.9065 40.913 52.7086 40.3869 52.3302C39.7235 51.8535 39.287 51.1471 39.1554 50.341L32.6992 10.707C32.5676 9.90092 32.7584 9.09342 33.2354 8.43037C33.7123 7.76733 34.4191 7.33107 35.2256 7.19962L60.7588 3.04366C61.5653 2.9122 62.3732 3.10288 63.0366 3.57958C63.6986 4.05628 64.1365 4.76267 64.268 5.56873L70.7258 45.2028C70.9961 46.8655 69.8629 48.4386 68.1993 48.7101L42.6661 52.8661C42.4985 52.8921 42.3323 52.9065 42.1661 52.9065ZM61.2545 3.43657C61.1129 3.43657 60.9698 3.44813 60.8267 3.47124L35.2935 7.62721C34.6012 7.73988 33.9956 8.11546 33.5866 8.68317C33.1776 9.25232 33.0142 9.9457 33.127 10.6362L39.5847 50.2702C39.6974 50.9622 40.0732 51.5675 40.6412 51.9763C41.2093 52.3851 41.9045 52.5483 42.5953 52.4356L68.1285 48.2797C69.5565 48.0471 70.5292 46.6979 70.2965 45.2707L63.8388 5.63806C63.726 4.94613 63.3503 4.34086 62.7822 3.93205C62.3313 3.60703 61.8009 3.43657 61.2545 3.43657Z" fill="black"/>
<path d="M39.1974 13.5961L36.9239 13.9659L36.6709 15.409L35.61 15.5809L36.8718 9.35344L37.7867 9.20465L40.9636 14.7098L39.8998 14.8832L39.1974 13.5961ZM37.0756 13.0977L38.7768 12.8204L37.5294 10.525L37.0756 13.0977Z" fill="black"/>
<path d="M81.5585 46.0219L55.544 46.9797C54.0207 47.036 52.7415 45.8471 52.6852 44.3246L51.2008 4.03328C51.1445 2.51073 52.334 1.2323 53.8573 1.17597L79.8718 0.218231C81.3952 0.161894 82.6743 1.35076 82.7307 2.87331L84.215 43.1646C84.2699 44.6857 83.0804 45.9656 81.5585 46.0219Z" fill="#99B9FF"/>
<path d="M80.1479 44.8946L56.6916 45.7584C55.1683 45.8147 53.8891 44.6259 53.8328 43.1033L52.4438 5.39343C52.3875 3.87087 53.577 2.59245 55.1003 2.53611L78.5566 1.67227C80.08 1.61593 81.3591 2.8048 81.4155 4.32735L82.8044 42.0373C82.8608 43.5598 81.6713 44.8397 80.1479 44.8946Z" fill="white"/>
<path d="M57.5805 44.2335C57.0009 44.2335 56.4503 44.0139 56.0239 43.6094C55.5773 43.1862 55.3186 42.6127 55.2954 41.993L54.1406 10.6391C54.1363 10.5192 54.2302 10.4195 54.3488 10.4152C54.4687 10.4123 54.5684 10.5047 54.5728 10.6232L55.7276 41.9771C55.7464 42.4827 55.9574 42.9507 56.3202 43.2945C56.683 43.6369 57.1527 43.816 57.6484 43.7987L78.9382 43.0157C79.431 42.9969 79.8892 42.7846 80.2245 42.4162C80.5613 42.0464 80.7376 41.5639 80.7188 41.0583L79.4108 5.54125C79.3718 4.49974 78.5089 3.68068 77.4899 3.71968L58.89 4.4044C58.7715 4.40584 58.6703 4.31483 58.666 4.19638C58.6616 4.07648 58.7556 3.97681 58.8741 3.97248L77.474 3.28776C78.7344 3.24009 79.7967 4.2455 79.8429 5.52536L81.151 41.0425C81.1741 41.6622 80.9587 42.253 80.5439 42.708C80.1291 43.1631 79.564 43.4274 78.9526 43.4491L57.6629 44.232C57.6369 44.232 57.6094 44.2335 57.5805 44.2335Z" fill="#5479F7"/>
<path d="M55.4414 47.1977C53.8501 47.1977 52.5276 45.9352 52.4684 44.3332L50.984 4.04184C50.9233 2.40228 52.2082 1.01985 53.8487 0.960622L79.8632 0.00288665C81.5036 -0.0563398 82.8868 1.22642 82.9461 2.86598L84.4304 43.1573C84.4911 44.7969 83.2062 46.1793 81.5658 46.2385L55.5513 47.1962C55.5151 47.1962 55.4776 47.1977 55.4414 47.1977ZM79.9745 0.433362C79.9427 0.433362 79.9109 0.433362 79.8791 0.434806L53.8646 1.39254C52.464 1.44455 51.3656 2.62474 51.4176 4.02595L52.902 44.3173C52.954 45.717 54.1421 46.8178 55.5368 46.7629L81.5513 45.8051C82.9519 45.7531 84.0503 44.5729 83.9983 43.1717L82.5139 2.88042C82.4894 2.20149 82.2017 1.57455 81.7031 1.1123C81.229 0.673157 80.6191 0.433362 79.9745 0.433362Z" fill="black"/>
<path d="M57.0746 7.79625L54.7722 7.88148L54.3415 9.28269L53.2676 9.3217L55.294 3.29938L56.2205 3.26471L58.6876 9.1209L57.6094 9.15991L57.0746 7.79625ZM55.0324 7.03931L56.7552 6.97575L55.8028 4.54313L55.0324 7.03931Z" fill="#5479F7"/>
<path d="M93.0697 95.6843C110.156 78.6071 110.156 50.9194 93.0697 33.8422C75.9832 16.765 48.2806 16.765 31.1941 33.8422C14.1076 50.9194 14.1076 78.6071 31.1941 95.6843C48.2806 112.761 75.9832 112.761 93.0697 95.6843Z" fill="black"/>
<path d="M63.7304 105.572C87.177 105.572 106.184 86.5751 106.184 63.1413C106.184 39.7075 87.177 20.7106 63.7304 20.7106C40.2839 20.7106 21.2767 39.7075 21.2767 63.1413C21.2767 86.5751 40.2839 105.572 63.7304 105.572Z" fill="#FBED10"/>
<path d="M63.6408 105.802C55.1423 105.802 46.8461 103.259 39.6743 98.3665C30.2609 91.944 23.9116 82.2424 21.7999 71.0486C19.6869 59.8548 22.0615 48.5079 28.4875 39.0996C34.9134 29.6913 44.6203 23.3454 55.8201 21.2349C67.02 19.1229 78.3731 21.4963 87.7865 27.9188C97.2 34.3413 103.549 44.0428 105.661 55.2366C107.774 66.4304 105.399 77.7773 98.9734 87.1857C92.5474 96.594 82.8406 102.94 71.6407 105.05C68.9741 105.553 66.2973 105.802 63.6408 105.802ZM63.7478 20.9229C61.1592 20.9229 58.5345 21.1626 55.9011 21.6596C33.0143 25.9744 17.9077 48.0948 22.2263 70.9678C24.3177 82.0489 30.602 91.6508 39.92 98.0082C47.0181 102.85 55.2319 105.368 63.6437 105.368C66.2742 105.368 68.9221 105.123 71.5627 104.624C82.6498 102.534 92.2569 96.2531 98.6178 86.9401C104.979 77.6271 107.329 66.3958 105.237 55.3146C101.415 35.0751 83.6456 20.9229 63.7478 20.9229Z" fill="black"/>
<path d="M63.7304 98.7493C83.4069 98.7493 99.3578 82.807 99.3578 63.1412C99.3578 43.4754 83.4069 27.5331 63.7304 27.5331C44.0539 27.5331 28.103 43.4754 28.103 63.1412C28.103 82.807 44.0539 98.7493 63.7304 98.7493Z" fill="white"/>
<path d="M96.7418 76.7632C96.7143 76.7632 96.6868 76.7574 96.6594 76.7473C96.5481 76.7025 96.4946 76.5754 96.5409 76.4642C97.8185 73.3295 98.6366 70.0374 98.9734 66.6803C98.9849 66.5618 99.0919 66.4751 99.2104 66.4867C99.3289 66.4982 99.4171 66.6051 99.4041 66.7236C99.0644 70.1226 98.2362 73.4552 96.9427 76.6288C96.908 76.7126 96.827 76.7632 96.7418 76.7632Z" fill="black"/>
<path d="M31.5762 48.0168C31.5444 48.0168 31.5126 48.0096 31.4822 47.9951C31.3738 47.9431 31.329 47.8145 31.3796 47.7062C33.7601 42.7326 37.3083 38.3094 41.64 34.9176C46.1162 31.4117 51.4567 28.9979 57.0833 27.9376C63.8229 26.6664 70.733 27.3395 77.0665 29.8848C83.2323 32.3622 88.5814 36.485 92.5344 41.8081C92.6052 41.9049 92.585 42.0407 92.4896 42.1115C92.3927 42.1822 92.2583 42.162 92.1861 42.0667C84.0272 31.0795 70.6087 25.8285 57.1628 28.3637C46.1191 30.4468 36.6261 37.7475 31.7684 47.894C31.7351 47.972 31.6571 48.0168 31.5762 48.0168Z" fill="black"/>
<path d="M63.6552 98.9775C56.5168 98.9775 49.5474 96.8411 43.5232 92.7313C35.6158 87.3359 30.2826 79.1872 28.5077 69.7832C27.3688 63.7537 27.798 57.5103 29.7463 51.7307C29.7839 51.618 29.9068 51.5559 30.021 51.5949C30.1351 51.6325 30.1958 51.7567 30.1568 51.8694C28.2316 57.5782 27.8082 63.745 28.9326 69.7023C32.5532 88.8802 51.1069 101.537 70.2951 97.9201C70.4136 97.8985 70.5263 97.975 70.548 98.0935C70.5697 98.2105 70.4931 98.3246 70.3746 98.3463C68.1343 98.7681 65.8868 98.9775 63.6552 98.9775Z" fill="black"/>
<path d="M65.498 83.5035L64.5008 78.2193C60.74 78.7553 56.9345 78.436 54.5887 77.6112L55.0295 70.7886C57.608 71.6279 61.1129 72.1768 64.7306 71.4935C67.9031 70.8955 69.8427 69.2617 69.4221 67.0371C69.0232 64.9237 66.9896 63.9241 62.6088 63.3102C56.2754 62.4304 51.6879 60.4153 50.6704 55.0199C49.7468 50.1258 52.4727 45.6361 58.2078 43.3451L57.2105 38.0609L62.6637 37.0324L63.5873 41.9265C67.3481 41.3906 69.9988 41.6969 72.0035 42.24L71.5756 48.83C70.0132 48.4906 67.2107 47.6946 63.2043 48.4501C59.5866 49.1319 58.7122 50.9102 59.0056 52.4674C59.3525 54.3034 61.5205 55.1037 66.5864 55.9921C73.6497 57.0798 76.8988 59.6352 77.844 64.6406C78.7792 69.5911 76.0706 74.4794 69.8803 76.7994L70.9513 82.4735L65.498 83.5035Z" fill="#FBED10"/>
<path d="M117.703 104.741L117.706 108.263C117.708 109.331 116.473 110.4 113.992 111.227C109.03 112.883 100.933 112.952 95.7459 111.405C95.6606 111.379 95.5768 111.354 95.493 111.327C92.8654 110.501 91.5443 109.401 91.5429 108.299L91.54 104.777C91.5414 105.88 92.861 106.979 95.4901 107.805C95.5739 107.831 95.6577 107.857 95.743 107.883C100.93 109.432 109.027 109.361 113.989 107.705C116.47 106.879 117.705 105.809 117.703 104.741Z" fill="#CADDFF"/>
<path d="M113.499 101.636C113.584 101.662 113.668 101.686 113.752 101.714C118.925 103.34 119.03 106.024 113.987 107.707C109.026 109.362 100.929 109.432 95.7416 107.885C95.6563 107.859 95.5725 107.834 95.4886 107.807C90.3158 106.179 90.2103 103.496 95.253 101.813C100.216 100.158 108.313 100.089 113.499 101.636Z" fill="#CADDFF"/>
<path d="M111.908 101.242C109.782 100.778 107.329 100.539 104.866 100.525C104.93 100.785 104.999 101.051 105.08 101.315C107.142 101.349 109.177 101.597 110.832 102.067C111.237 101.815 111.572 101.521 111.908 101.242Z" fill="#99B9FF"/>
<path d="M97.7751 102.248C98.0714 102.15 98.3851 102.059 98.7088 101.977C98.4342 101.692 98.1495 101.418 97.8792 101.13C96.9238 101.317 96.0248 101.545 95.2111 101.817C94.2717 102.13 93.5129 102.48 92.9304 102.849C93.7152 103.164 94.4783 103.527 95.2516 103.816C95.5912 103.244 96.431 102.698 97.7751 102.248Z" fill="#99B9FF"/>
<path d="M113.999 104.767C113.747 105.407 112.876 106.028 111.38 106.528C111.103 106.621 110.811 106.706 110.509 106.785C111.048 107.274 111.658 107.692 112.174 108.204C112.798 108.058 113.393 107.895 113.947 107.71C116.335 106.914 117.566 105.893 117.654 104.866C116.427 104.951 115.238 104.876 113.999 104.767Z" fill="#99B9FF"/>
<path d="M98.1307 106.657C98.0686 106.638 98.0078 106.619 97.9471 106.6C97.5829 106.486 97.2548 106.364 96.96 106.236C96.1564 106.661 95.373 107.151 94.5636 107.5C94.8397 107.606 95.1345 107.708 95.4482 107.808C95.532 107.834 95.6158 107.86 95.7011 107.886C98.0989 108.601 101.121 108.971 104.166 108.998C103.964 108.501 103.809 107.957 103.616 107.451C101.631 107.388 99.6974 107.125 98.1307 106.657Z" fill="#CADDFF"/>
<path d="M104.655 107.585C99.1439 107.585 94.8252 106.156 94.8252 104.331C94.8252 102.507 99.1424 101.078 104.655 101.078C110.166 101.078 114.485 102.507 114.485 104.331C114.485 106.156 110.167 107.585 104.655 107.585ZM104.655 101.513C99.034 101.513 95.2588 102.971 95.2588 104.333C95.2588 105.695 99.034 107.153 104.655 107.153C110.274 107.153 114.051 105.695 114.051 104.333C114.051 102.971 110.276 101.513 104.655 101.513Z" fill="#99B9FF"/>
<path d="M117.703 104.741C117.705 105.809 116.471 106.878 113.989 107.705C113.424 107.895 112.815 108.061 112.176 108.208C112.217 109.365 112.437 110.521 112.405 111.678C112.961 111.544 113.492 111.393 113.992 111.227C116.472 110.4 117.708 109.329 117.706 108.263L117.703 104.741Z" fill="#99B9FF"/>
<path d="M95.743 107.883C95.6577 107.857 95.5739 107.833 95.4901 107.805C95.2357 107.726 94.9972 107.642 94.7674 107.557C94.6402 108.698 94.6055 109.838 94.5058 110.979C94.8122 111.099 95.1389 111.216 95.493 111.327C95.5768 111.353 95.6606 111.379 95.7459 111.405C98.1741 112.13 101.24 112.5 104.324 112.519C104.321 111.344 104.302 110.17 104.179 108.995C101.144 108.967 98.135 108.597 95.743 107.883Z" fill="#99B9FF"/>
<path d="M106.545 112.688C106.436 112.688 106.342 112.605 106.33 112.494C106.317 112.376 106.404 112.269 106.522 112.256C108.702 112.026 112.471 111.508 113.922 111.022C116.19 110.265 117.489 109.26 117.488 108.263L117.449 105.716C116.94 106.475 116.015 107.258 114.057 107.911C112.382 108.47 110.279 108.87 107.976 109.069C107.858 109.079 107.752 108.991 107.742 108.871C107.732 108.751 107.82 108.647 107.94 108.637C110.209 108.441 112.278 108.048 113.921 107.5C116.39 106.677 117.092 105.664 117.453 104.782C117.492 104.686 117.592 104.631 117.695 104.65C117.796 104.669 117.87 104.757 117.871 104.86L117.924 108.259C117.926 109.475 116.554 110.6 114.063 111.432C112.578 111.928 108.768 112.454 106.57 112.686C106.561 112.688 106.553 112.688 106.545 112.688Z" fill="white"/>
<path d="M104.571 109.222C101.394 109.222 98.216 108.847 95.6809 108.091C95.5941 108.065 95.5103 108.039 95.425 108.013C92.7916 107.184 91.3348 106.04 91.3232 104.79C91.3131 103.573 92.6847 102.443 95.1851 101.608C100.209 99.9324 108.28 99.8529 113.561 101.429C113.648 101.455 113.733 101.481 113.818 101.507C116.453 102.336 117.91 103.48 117.92 104.73C117.93 105.947 116.559 107.077 114.058 107.912C111.447 108.783 108.01 109.222 104.571 109.222ZM104.684 100.747C101.27 100.747 97.8575 101.173 95.3239 102.018C93.0489 102.777 91.7496 103.786 91.7582 104.786C91.7669 105.817 93.1515 106.843 95.5566 107.6C95.639 107.626 95.7228 107.652 95.8066 107.677C100.926 109.205 109.053 109.125 113.922 107.502C116.197 106.743 117.497 105.734 117.488 104.734C117.479 103.703 116.095 102.677 113.69 101.92C113.607 101.894 113.523 101.868 113.44 101.844C110.981 101.111 107.832 100.747 104.684 100.747Z" fill="white"/>
<path d="M118.371 98.8071L118.362 102.329C118.361 103.396 117.122 104.462 114.639 105.282C109.672 106.921 101.575 106.964 96.3934 105.4C96.3081 105.374 96.2243 105.348 96.1405 105.322C93.5158 104.487 92.1991 103.383 92.2005 102.281L92.2092 98.7594C92.2077 99.8616 93.5244 100.965 96.1491 101.8C96.233 101.826 96.3168 101.852 96.4021 101.878C101.584 103.443 109.682 103.399 114.648 101.76C117.13 100.941 118.368 99.8746 118.371 98.8071Z" fill="#CADDFF"/>
<path d="M114.177 95.6884C114.262 95.7144 114.346 95.7404 114.43 95.7664C119.598 97.4103 119.695 100.094 114.646 101.76C109.679 103.399 101.582 103.443 96.4006 101.878C96.3154 101.852 96.2315 101.826 96.1477 101.8C90.9806 100.156 90.8838 97.4724 95.9323 95.8069C100.899 94.1688 108.995 94.124 114.177 95.6884Z" fill="#99B9FF"/>
<path d="M112.587 95.2901C110.462 94.8189 108.011 94.5732 105.548 94.5501C105.612 94.8103 105.68 95.0777 105.759 95.3407C107.822 95.3797 109.855 95.637 111.51 96.1096C111.913 95.861 112.25 95.5676 112.587 95.2901Z" fill="#CADDFF"/>
<path d="M98.4516 96.2506C98.7478 96.1524 99.0615 96.0643 99.3867 95.982C99.1135 95.6959 98.8288 95.4215 98.56 95.1326C97.6031 95.316 96.7042 95.5414 95.8904 95.8101C94.9495 96.1206 94.1907 96.4673 93.6068 96.8343C94.3902 97.1521 95.1519 97.5161 95.9251 97.8079C96.2633 97.2387 97.106 96.6956 98.4516 96.2506Z" fill="#CADDFF"/>
<path d="M114.667 98.8215C114.414 99.4614 113.539 100.078 112.042 100.574C111.764 100.665 111.473 100.75 111.169 100.828C111.707 101.319 112.315 101.738 112.83 102.251C113.454 102.108 114.05 101.946 114.605 101.763C116.994 100.974 118.229 99.9569 118.321 98.9313C117.093 99.0122 115.904 98.9327 114.667 98.8215Z" fill="#CADDFF"/>
<path d="M98.7912 100.659C98.7291 100.64 98.6684 100.621 98.6077 100.603C98.2434 100.487 97.9153 100.364 97.6219 100.236C96.8169 100.658 96.0321 101.144 95.2213 101.492C95.4973 101.599 95.7907 101.703 96.1043 101.803C96.1882 101.829 96.272 101.855 96.3573 101.881C98.7536 102.605 101.773 102.983 104.818 103.021C104.617 102.524 104.464 101.979 104.273 101.472C102.29 101.401 100.358 101.133 98.7912 100.659Z" fill="#CADDFF"/>
<path d="M105.415 101.608C105.38 101.608 105.347 101.608 105.313 101.608C102.724 101.6 100.287 101.273 98.453 100.687C96.5423 100.076 95.4915 99.2365 95.4944 98.3235C95.4973 97.4106 96.5538 96.577 98.4689 95.979C100.307 95.4055 102.741 95.0921 105.334 95.1022C107.923 95.1108 110.36 95.4373 112.194 96.0238C114.105 96.6348 115.157 97.4741 115.152 98.3871C115.147 100.2 110.877 101.608 105.415 101.608ZM105.232 95.537C102.723 95.537 100.371 95.8403 98.5975 96.395C96.9022 96.9237 95.9295 97.6287 95.928 98.3264C95.9251 99.0241 96.8949 99.7348 98.586 100.275C100.38 100.847 102.769 101.168 105.315 101.176C110.941 101.2 114.716 99.7493 114.72 98.3871C114.723 97.6894 113.753 96.9786 112.062 96.4384C110.269 95.8663 107.879 95.5456 105.333 95.537C105.3 95.537 105.265 95.537 105.232 95.537Z" fill="#99B9FF"/>
<path d="M118.371 98.8071C118.37 99.8746 117.131 100.941 114.648 101.76C114.081 101.946 113.473 102.111 112.834 102.257C112.872 103.414 113.087 104.571 113.051 105.728C113.607 105.595 114.139 105.446 114.639 105.282C117.122 104.462 118.361 103.396 118.362 102.329L118.371 98.8071Z" fill="#99B9FF"/>
<path d="M96.4006 101.88C96.3154 101.854 96.2315 101.828 96.1477 101.802C95.8933 101.721 95.6563 101.637 95.4265 101.552C95.295 102.691 95.2574 103.833 95.1533 104.972C95.4583 105.094 95.7864 105.211 96.139 105.323C96.2229 105.349 96.3067 105.375 96.392 105.401C98.8172 106.134 101.883 106.514 104.966 106.543C104.967 105.368 104.953 104.194 104.833 103.019C101.798 102.979 98.7898 102.6 96.4006 101.88Z" fill="#99B9FF"/>
<path d="M109.887 106.496C109.779 106.496 109.685 106.415 109.672 106.306C109.657 106.187 109.742 106.079 109.861 106.064C111.646 105.851 113.23 105.517 114.57 105.075C116.841 104.325 118.143 103.324 118.144 102.327L118.15 99.9641C117.562 100.724 116.391 101.412 114.714 101.965C113.922 102.226 113.035 102.453 112.077 102.638C111.958 102.661 111.845 102.585 111.822 102.466C111.799 102.349 111.876 102.235 111.994 102.212C112.935 102.03 113.804 101.807 114.579 101.553C116.849 100.803 118.151 99.8023 118.153 98.8056C118.153 98.6857 118.25 98.5889 118.37 98.5889C118.49 98.5889 118.586 98.6857 118.586 98.8056L118.578 102.327C118.575 103.541 117.2 104.662 114.706 105.485C113.338 105.936 111.727 106.275 109.913 106.494C109.904 106.496 109.896 106.496 109.887 106.496Z" fill="white"/>
<path d="M102.118 106.631C102.113 106.631 102.107 106.631 102.101 106.631C99.9562 106.454 97.9602 106.102 96.3284 105.609C96.2417 105.583 96.1578 105.557 96.0726 105.53C93.4319 104.691 91.9794 103.536 91.9808 102.283L91.9895 98.7608C91.9895 98.6409 92.0863 98.5441 92.2063 98.5441C92.3263 98.5441 92.4231 98.6409 92.4231 98.7608C92.4216 99.7951 93.8019 100.828 96.2113 101.595C96.2937 101.621 96.3775 101.647 96.4613 101.673C98.3981 102.258 100.802 102.634 103.416 102.759C103.536 102.765 103.629 102.866 103.623 102.986C103.617 103.106 103.517 103.198 103.396 103.193C100.748 103.064 98.307 102.683 96.337 102.088C96.2503 102.062 96.1665 102.036 96.0812 102.008C94.2803 101.435 93.033 100.717 92.4216 99.9193L92.4159 102.283C92.4144 103.317 93.7947 104.35 96.2041 105.117C96.2865 105.143 96.3688 105.169 96.4541 105.195C98.0555 105.679 100.021 106.025 102.136 106.199C102.256 106.209 102.344 106.313 102.334 106.433C102.325 106.544 102.231 106.631 102.118 106.631Z" fill="white"/>
<path d="M105.354 103.246C102.134 103.246 98.9054 102.86 96.3385 102.086C96.2518 102.06 96.1679 102.034 96.0827 102.007C93.4507 101.17 91.9981 100.02 91.9924 98.7709C91.9851 97.5532 93.3611 96.4279 95.8644 95.6016C100.894 93.9418 108.965 93.8884 114.24 95.4817C114.327 95.5077 114.412 95.5337 114.496 95.5612C117.128 96.3976 118.581 97.5474 118.588 98.7969C118.595 100.015 117.219 101.14 114.716 101.966C112.133 102.819 108.75 103.246 105.354 103.246ZM105.232 94.771C101.863 94.771 98.5021 95.187 96.0003 96.0119C93.7224 96.763 92.4202 97.7684 92.426 98.7681C92.4317 99.7995 93.812 100.829 96.2142 101.594C96.2966 101.62 96.3804 101.646 96.4642 101.672C101.579 103.216 109.705 103.164 114.58 101.555C116.858 100.803 118.16 99.798 118.154 98.7984C118.148 97.767 116.767 96.737 114.365 95.9729C114.282 95.9468 114.198 95.9209 114.115 95.8948C111.626 95.1451 108.424 94.771 105.232 94.771Z" fill="white"/>
<path d="M115.671 93.6153L115.663 97.1371C115.661 98.2046 114.422 99.2707 111.939 100.09C106.972 101.729 98.8751 101.773 93.6935 100.208C93.6083 100.182 93.5244 100.156 93.4406 100.13C90.8159 99.2953 89.4992 98.1916 89.5006 97.0894L89.5093 93.5676C89.5079 94.6698 90.8246 95.7735 93.4493 96.6084C93.5331 96.6344 93.6169 96.6604 93.7022 96.6864C98.8837 98.2509 106.982 98.2075 111.948 96.568C114.431 95.7489 115.67 94.6828 115.671 93.6153Z" fill="#CADDFF"/>
<path d="M111.477 90.4966C111.562 90.5226 111.646 90.5486 111.73 90.5746C116.898 92.2185 116.995 94.9025 111.947 96.568C106.979 98.2076 98.8823 98.2509 93.7008 96.6865C93.6155 96.6605 93.5317 96.6345 93.4478 96.6085C88.2808 94.9646 88.184 92.2806 93.2325 90.615C98.1986 88.9754 106.295 88.9321 111.477 90.4966Z" fill="#99B9FF"/>
<path d="M109.887 90.0968C107.762 89.6256 105.311 89.3799 102.848 89.3568C102.912 89.617 102.98 89.8844 103.059 90.1474C105.122 90.1864 107.155 90.4437 108.81 90.9163C109.215 90.6677 109.55 90.3758 109.887 90.0968Z" fill="#CADDFF"/>
<path d="M95.7517 91.0588C96.048 90.9606 96.3616 90.8725 96.6868 90.7901C96.4136 90.5041 96.1289 90.2296 95.8601 89.9407C94.9033 90.1242 94.0043 90.3495 93.1906 90.6182C92.2496 90.9288 91.4908 91.2755 90.9069 91.6424C91.6903 91.9602 92.452 92.3242 93.2252 92.616C93.5634 92.0469 94.4061 91.5037 95.7517 91.0588Z" fill="#CADDFF"/>
<path d="M111.967 93.6298C111.714 94.2697 110.839 94.8865 109.342 95.382C109.065 95.473 108.773 95.5582 108.469 95.6362C109.007 96.1274 109.615 96.5463 110.13 97.0591C110.754 96.9161 111.35 96.7543 111.905 96.5709C114.294 95.7821 115.53 94.7652 115.621 93.7395C114.394 93.8204 113.205 93.741 111.967 93.6298Z" fill="#CADDFF"/>
<path d="M96.0928 95.4673C96.0306 95.4485 95.9699 95.4297 95.9092 95.4109C95.545 95.2954 95.2169 95.1726 94.9235 95.044C94.1185 95.4658 93.3337 95.9526 92.5228 96.3008C92.7989 96.4077 93.0923 96.5117 93.4059 96.6113C93.4898 96.6373 93.5736 96.6633 93.6589 96.6893C96.0552 97.4131 99.0745 97.7915 102.12 97.8291C101.919 97.3322 101.766 96.7876 101.575 96.2805C99.5905 96.2098 97.6581 95.9411 96.0928 95.4673Z" fill="#CADDFF"/>
<path d="M112.237 93.1941C112.242 91.5171 107.943 90.1438 102.634 90.1267C97.3248 90.1096 93.0166 91.4552 93.0112 93.1322C93.0058 94.8092 97.3053 96.1825 102.614 96.1996C107.923 96.2167 112.232 94.8711 112.237 93.1941Z" fill="#99B9FF"/>
<path d="M115.671 93.6154C115.67 94.6829 114.431 95.749 111.948 96.568C111.381 96.7544 110.773 96.919 110.134 97.0649C110.172 98.222 110.387 99.3791 110.351 100.536C110.907 100.403 111.439 100.255 111.939 100.09C114.422 99.2708 115.661 98.2047 115.663 97.1372L115.671 93.6154Z" fill="#99B9FF"/>
<path d="M93.7008 96.6864C93.6155 96.6604 93.5316 96.6344 93.4478 96.6084C93.1934 96.5275 92.9564 96.4437 92.7266 96.3585C92.5951 97.4983 92.5575 98.6395 92.4534 99.7792C92.7584 99.9005 93.0865 100.018 93.4391 100.13C93.523 100.156 93.6068 100.182 93.6921 100.208C96.1174 100.941 99.1829 101.321 102.266 101.349C102.267 100.175 102.253 99.0006 102.133 97.8262C99.0976 97.7872 96.0899 97.4087 93.7008 96.6864Z" fill="#99B9FF"/>
<path d="M102.646 101.576C99.4257 101.576 96.1968 101.191 93.6299 100.416C93.5432 100.39 93.4594 100.364 93.3741 100.337C90.7335 99.4975 89.2809 98.3433 89.2838 97.0894L89.2925 93.5676C89.2925 93.4477 89.3893 93.351 89.5093 93.351C89.6293 93.351 89.7261 93.4477 89.7261 93.5676C89.7247 94.6019 91.105 95.6348 93.5143 96.4018C93.5967 96.4278 93.6791 96.4538 93.7644 96.4798C95.6028 97.0346 97.8807 97.4044 100.352 97.5474C100.472 97.5546 100.563 97.6571 100.556 97.7756C100.549 97.8955 100.448 97.9865 100.328 97.9793C97.8243 97.8348 95.5118 97.4592 93.6401 96.8944C93.5533 96.8684 93.4695 96.8424 93.3842 96.815C91.5834 96.2415 90.3346 95.5236 89.7247 94.7262L89.7189 97.0894C89.7174 98.1237 91.0977 99.1566 93.5071 99.9236C93.5895 99.9496 93.6719 99.9756 93.7571 100.002C98.8721 101.546 106.998 101.494 111.873 99.8846C114.143 99.1349 115.446 98.1339 115.447 97.1371L115.453 94.7738C114.865 95.5337 113.694 96.2213 112.017 96.7745C111.185 97.049 110.247 97.2859 109.229 97.4766C109.112 97.4982 108.998 97.4217 108.976 97.3032C108.955 97.1862 109.031 97.0721 109.15 97.0504C110.149 96.8627 111.068 96.6315 111.883 96.3628C114.152 95.6146 115.454 94.6135 115.457 93.6168V93.6153C115.457 93.4954 115.554 93.3986 115.674 93.3986C115.794 93.3986 115.891 93.4954 115.891 93.6153L115.882 97.1371C115.879 98.3505 114.505 99.4715 112.01 100.295C109.424 101.147 106.041 101.576 102.646 101.576Z" fill="white"/>
<path d="M117.935 88.4337L117.909 91.9556C117.901 93.0231 116.658 94.0819 114.171 94.8895C109.196 96.5045 101.098 96.5088 95.9237 94.9183C95.8384 94.8923 95.7546 94.8663 95.6707 94.8389C93.0489 93.9909 91.738 92.8815 91.7452 91.7793L91.7712 88.2575C91.764 89.3597 93.0749 90.4691 95.6968 91.3171C95.7806 91.3445 95.8644 91.3705 95.9497 91.3965C101.124 92.987 109.221 92.9826 114.197 91.3676C116.684 90.5616 117.927 89.5013 117.935 88.4337Z" fill="#99B9FF"/>
<path d="M113.756 85.2947C113.841 85.3207 113.925 85.3467 114.009 85.3742C119.169 87.0441 119.253 89.7266 114.197 91.369C109.222 92.984 101.124 92.9884 95.9497 91.3979C95.8644 91.3719 95.7806 91.3459 95.6968 91.3185C90.5369 89.6486 90.4531 86.9661 95.5103 85.3236C100.485 83.7086 108.582 83.7043 113.756 85.2947Z" fill="#99B9FF"/>
<path d="M112.168 84.8878C110.046 84.4065 107.595 84.1478 105.132 84.1146C105.194 84.3747 105.261 84.6421 105.34 84.9066C107.402 84.9557 109.435 85.2217 111.087 85.7044C111.493 85.4558 111.831 85.1639 112.168 84.8878Z" fill="#CADDFF"/>
<path d="M98.0281 85.7804C98.3244 85.6836 98.6395 85.597 98.9647 85.5161C98.6929 85.2286 98.4097 84.9527 98.1408 84.6624C97.184 84.84 96.2836 85.061 95.467 85.3268C94.5246 85.6331 93.7629 85.9754 93.1776 86.3409C93.9595 86.663 94.7197 87.03 95.4901 87.3261C95.8355 86.7569 96.6796 86.2167 98.0281 85.7804Z" fill="#CADDFF"/>
<path d="M114.23 88.4294C113.973 89.0679 113.097 89.6818 111.597 90.1686C111.318 90.2596 111.026 90.342 110.722 90.4185C111.257 90.9111 111.864 91.3344 112.376 91.8501C113.002 91.71 113.597 91.5511 114.154 91.3705C116.547 90.5933 117.787 89.5821 117.884 88.5565C116.657 88.6331 115.469 88.5478 114.23 88.4294Z" fill="#CADDFF"/>
<path d="M98.3475 90.1903C98.2854 90.1715 98.2246 90.1527 98.1639 90.1325C97.8012 90.0155 97.4731 89.8898 97.1797 89.7598C96.3732 90.1773 95.5855 90.6612 94.7732 91.005C95.0493 91.1134 95.3427 91.2188 95.6549 91.3199C95.7387 91.3474 95.8225 91.3734 95.9078 91.3994C98.2998 92.1347 101.318 92.5276 104.363 92.5796C104.164 92.0812 104.015 91.5352 103.825 91.0281C101.842 90.9501 99.9099 90.6713 98.3475 90.1903Z" fill="#CADDFF"/>
<path d="M105.119 91.1729C105.034 91.1729 104.95 91.1729 104.864 91.1715C99.3535 91.1267 95.0478 89.6634 95.0623 87.8389C95.0695 86.9259 96.1304 86.0982 98.0483 85.5088C99.8897 84.944 102.329 84.6436 104.918 84.6652C110.429 84.71 114.735 86.1733 114.72 87.9978C114.713 88.9107 113.652 89.7385 111.734 90.3279C109.954 90.8739 107.612 91.1729 105.119 91.1729ZM104.661 85.0986C102.209 85.0986 99.9142 85.3904 98.1741 85.9234C96.4772 86.4449 95.5002 87.1441 95.4944 87.8418C95.4829 89.204 99.2465 90.6919 104.867 90.7381C107.413 90.7598 109.806 90.4665 111.606 89.9133C113.302 89.3918 114.279 88.6926 114.285 87.9949C114.297 86.6327 110.533 85.1448 104.912 85.0986C104.828 85.0986 104.745 85.0986 104.661 85.0986Z" fill="#99B9FF"/>
<path d="M117.935 88.4338C117.927 89.5013 116.684 90.5601 114.197 91.3677C113.63 91.5511 113.02 91.7129 112.382 91.8559C112.413 93.013 112.623 94.1715 112.581 95.3271C113.139 95.1971 113.671 95.0512 114.171 94.8895C116.658 94.082 117.901 93.0217 117.909 91.9556L117.935 88.4338Z" fill="#CADDFF"/>
<path d="M95.9497 91.398C95.8644 91.372 95.7806 91.3459 95.6968 91.3185C95.4438 91.2362 95.2054 91.1509 94.977 91.0643C94.8411 92.204 94.7978 93.3438 94.6865 94.4835C94.9914 94.6063 95.3181 94.7247 95.6707 94.8389C95.7546 94.8663 95.8384 94.8923 95.9237 94.9183C98.346 95.6623 101.409 96.0581 104.492 96.1014C104.499 94.927 104.49 93.7526 104.376 92.5767C101.342 92.5247 98.3345 92.1303 95.9497 91.398Z" fill="#CADDFF"/>
<path d="M105.089 96.3239C104.096 96.3239 103.093 96.2878 102.095 96.2126C101.975 96.204 101.886 96.1 101.896 95.9801C101.904 95.8602 102.009 95.7735 102.128 95.7807C106.506 96.1072 110.984 95.6969 114.106 94.6829C116.379 93.9447 117.687 92.9494 117.695 91.9527L117.712 89.5894C117.119 90.3463 115.946 91.0282 114.266 91.5742C110.542 92.7833 104.941 93.1358 100.001 92.4713C99.8824 92.4554 99.7986 92.3456 99.8145 92.2271C99.8304 92.1087 99.9402 92.0263 100.059 92.0408C104.94 92.6966 110.464 92.3514 114.132 91.1611C116.405 90.4229 117.713 89.4276 117.721 88.4309C117.722 88.3124 117.819 88.2156 117.938 88.2156H117.939C118.059 88.2171 118.154 88.3139 118.154 88.4338C118.154 88.4352 118.154 88.4367 118.154 88.4367L118.128 91.9541C118.12 93.1675 116.739 94.2813 114.24 95.0931C111.78 95.8934 108.501 96.3239 105.089 96.3239Z" fill="white"/>
<path d="M94.6865 94.7016C94.659 94.7016 94.6316 94.6959 94.6056 94.6857C92.5864 93.8725 91.5227 92.8671 91.5299 91.7779L91.5559 88.2561C91.5573 88.1376 91.6542 88.0408 91.7727 88.0408H91.7741C91.8941 88.0423 91.9895 88.1391 91.9895 88.259C91.9852 89.0636 92.8292 89.8884 94.37 90.5803C94.4798 90.6295 94.5275 90.758 94.4784 90.8664C94.4292 90.9762 94.3006 91.0238 94.1922 90.9747C93.153 90.5081 92.4086 89.9809 91.9808 89.4189L91.9635 91.7793C91.9577 92.6634 92.9535 93.5518 94.7674 94.2813C94.8787 94.3261 94.9322 94.4517 94.8874 94.563C94.8542 94.6496 94.7732 94.7016 94.6865 94.7016Z" fill="white"/>
<path d="M118.682 83.2348L118.656 86.7566C118.649 87.8241 117.406 88.883 114.918 89.6905C109.943 91.3055 101.845 91.3098 96.6709 89.7194C96.5856 89.6934 96.5018 89.6674 96.418 89.6399C93.7961 88.792 92.4852 87.6826 92.4925 86.5804L92.5185 83.0586C92.5112 84.1608 93.8222 85.2702 96.444 86.1181C96.5278 86.1456 96.6117 86.1716 96.6969 86.1976C101.871 87.788 109.969 87.7837 114.944 86.1687C117.432 85.3626 118.675 84.3023 118.682 83.2348Z" fill="#99B9FF"/>
<path d="M114.503 80.096C114.589 80.122 114.672 80.148 114.756 80.1754C119.916 81.8453 120 84.5279 114.944 86.1703C109.969 87.7853 101.871 87.7896 96.6969 86.1992C96.6117 86.1732 96.5278 86.1472 96.444 86.1197C91.2842 84.4498 91.2003 81.7673 96.2575 80.1249C101.232 78.5098 109.329 78.5055 114.503 80.096Z" fill="#99B9FF"/>
<path d="M112.915 79.689C110.793 79.2077 108.342 78.949 105.879 78.9158C105.941 79.1759 106.008 79.4433 106.087 79.7078C108.15 79.757 110.182 80.0229 111.834 80.5056C112.24 80.257 112.578 79.9651 112.915 79.689Z" fill="#CADDFF"/>
<path d="M98.7753 80.5816C99.0716 80.4849 99.3867 80.3982 99.7119 80.3173C99.4402 80.0298 99.1569 79.7539 98.888 79.4636C97.9312 79.6412 97.0308 79.8623 96.2142 80.1281C95.2718 80.4343 94.5101 80.7767 93.9248 81.1421C94.7067 81.4643 95.4669 81.8312 96.2373 82.1273C96.5827 81.5582 97.4268 81.0193 98.7753 80.5816Z" fill="#CADDFF"/>
<path d="M114.977 83.2319C114.72 83.8704 113.844 84.4844 112.344 84.9712C112.065 85.0622 111.773 85.1445 111.47 85.2211C112.004 85.7137 112.611 86.1369 113.123 86.6526C113.749 86.5125 114.344 86.3536 114.901 86.173C117.294 85.3959 118.534 84.3847 118.631 83.3591C117.404 83.4342 116.216 83.3489 114.977 83.2319Z" fill="#CADDFF"/>
<path d="M99.0947 84.9914C99.0326 84.9726 98.9719 84.9538 98.9112 84.9336C98.5484 84.8166 98.2203 84.6909 97.9269 84.5609C97.1204 84.9784 96.3327 85.4623 95.5204 85.8061C95.7965 85.9145 96.0899 86.0199 96.4021 86.121C96.4859 86.1485 96.5698 86.1745 96.655 86.2005C99.047 86.9357 102.065 87.3287 105.11 87.3807C104.911 86.8823 104.762 86.3363 104.573 85.8292C102.59 85.7512 100.657 85.4724 99.0947 84.9914Z" fill="#CADDFF"/>
<path d="M105.866 85.9741C105.781 85.9741 105.697 85.9741 105.612 85.9727C100.101 85.9279 95.795 84.4646 95.8095 82.6401C95.8167 81.7271 96.8776 80.8994 98.7956 80.31C100.637 79.7452 103.077 79.4462 105.665 79.4664C108.254 79.4881 110.689 79.8261 112.52 80.4213C114.428 81.041 115.476 81.886 115.467 82.799C115.46 83.712 114.399 84.5397 112.481 85.1291C110.701 85.6751 108.359 85.9741 105.866 85.9741ZM105.408 79.8998C102.957 79.8998 100.661 80.1916 98.9213 80.7261C97.2245 81.2476 96.2474 81.9467 96.2417 82.6444C96.2301 84.0066 99.9937 85.4945 105.615 85.5407C108.161 85.561 110.553 85.2692 112.353 84.7159C114.05 84.1944 115.027 83.4953 115.032 82.7975C115.038 82.0998 114.073 81.3848 112.385 80.8359C110.594 80.2537 108.206 79.9229 105.661 79.9027C105.576 79.8998 105.492 79.8998 105.408 79.8998Z" fill="#99B9FF"/>
<path d="M106.002 87.6395C102.007 87.6395 98.2232 87.1353 96.6073 86.3957C96.5712 86.3798 96.5264 86.3668 96.4772 86.3538C96.444 86.3451 96.4107 86.335 96.3775 86.3249C93.7499 85.4755 92.3031 84.3184 92.3031 83.0689C92.3031 81.8511 93.6834 80.7316 96.1911 79.9183C97.4485 79.5095 98.9184 79.196 100.562 78.9866C100.68 78.9707 100.789 79.0559 100.805 79.1744C100.82 79.2928 100.735 79.4012 100.617 79.4171C99.0008 79.6236 97.5569 79.9313 96.324 80.3315C94.0433 81.0725 92.7353 82.0707 92.7353 83.0703C92.7353 84.1017 94.1112 85.1389 96.5105 85.9147C96.5365 85.9233 96.5625 85.9305 96.59 85.9378C96.6492 85.9537 96.7186 85.9724 96.7865 86.0042C98.3677 86.7279 102.257 87.2234 106.24 87.2075C110.928 87.1888 114.772 86.4925 116.788 85.2949C117.842 84.6695 118.407 83.9125 118.469 83.0429C118.478 82.923 118.581 82.8334 118.701 82.8421C118.821 82.8508 118.91 82.9533 118.902 83.0732C118.829 84.0916 118.193 84.9656 117.01 85.6676C114.619 87.0847 110.195 87.6395 106.002 87.6395Z" fill="white"/>
<path d="M118.682 83.2349C118.675 84.3024 117.432 85.3612 114.944 86.1687C114.378 86.3522 113.768 86.514 113.129 86.657C113.161 87.8141 113.37 88.9726 113.328 90.1282C113.886 89.9982 114.418 89.8523 114.918 89.6905C117.406 88.883 118.649 87.8227 118.656 86.7567L118.682 83.2349Z" fill="#CADDFF"/>
<path d="M96.6969 86.199C96.6117 86.173 96.5278 86.147 96.444 86.1196C96.1911 86.0373 95.9526 85.952 95.7242 85.8654C95.5884 87.0051 95.545 88.1449 95.4337 89.2846C95.7387 89.4074 96.0653 89.5258 96.418 89.64C96.5018 89.6674 96.5856 89.6934 96.6709 89.7194C99.0933 90.4634 102.156 90.8592 105.239 90.9025C105.246 89.7281 105.237 88.5537 105.123 87.3778C102.089 87.3258 99.0817 86.9314 96.6969 86.199Z" fill="#CADDFF"/>
<path d="M105.787 91.1206C103.572 91.1206 101.338 90.9415 99.3086 90.5731C99.1901 90.5514 99.1121 90.4388 99.1338 90.3218C99.1554 90.2033 99.2682 90.1267 99.3853 90.147C104.455 91.0671 110.815 90.7956 114.85 89.4854C117.124 88.7472 118.432 87.7519 118.439 86.7552L118.456 84.3919C117.864 85.1488 116.69 85.8307 115.011 86.3767C109.972 88.0119 101.9 88.0249 96.6333 86.407C96.5466 86.381 96.4628 86.3536 96.3775 86.3261C94.5795 85.744 93.3351 85.0203 92.7281 84.22L92.7107 86.5833C92.7064 87.19 93.1833 87.8097 94.091 88.3788C94.1922 88.4424 94.2225 88.5767 94.1589 88.6779C94.0953 88.779 93.9624 88.8108 93.8598 88.7458C92.8191 88.0943 92.2713 87.3445 92.2771 86.5804L92.3031 83.0615V83.06C92.3046 82.9416 92.4014 82.8448 92.5199 82.8448H92.5214C92.6413 82.8462 92.7367 82.943 92.7367 83.0629C92.7309 84.0972 94.1069 85.1358 96.5119 85.9144C96.5943 85.9405 96.6767 85.9679 96.762 85.9925C101.868 87.5612 109.995 87.5497 114.878 85.9636C117.15 85.2254 118.458 84.2316 118.467 83.2363V83.2334C118.468 83.1149 118.565 83.0181 118.683 83.0181H118.685C118.805 83.0196 118.9 83.1164 118.9 83.2363L118.874 86.7581C118.865 87.9715 117.485 89.0852 114.986 89.8971C112.509 90.7017 109.172 91.1206 105.787 91.1206Z" fill="white"/>
<path d="M118.371 82.5198C118.302 82.5198 118.234 82.4866 118.192 82.4244C117.672 81.6603 116.46 80.9539 114.69 80.3804C114.607 80.353 114.524 80.327 114.44 80.301C111.812 79.4935 108.244 79.0659 104.651 79.1294C104.531 79.1265 104.432 79.0355 104.429 78.9171C104.428 78.7972 104.523 78.699 104.642 78.6961C108.278 78.6325 111.896 79.0659 114.567 79.8864C114.654 79.9124 114.738 79.9398 114.823 79.9673C116.686 80.5696 117.975 81.3353 118.55 82.1789C118.618 82.2771 118.592 82.4129 118.493 82.4793C118.456 82.5082 118.413 82.5198 118.371 82.5198Z" fill="white"/>
<path d="M89.5599 107.833L89.5512 111.542C89.5498 112.666 88.2447 113.788 85.6301 114.652C80.3994 116.379 71.8705 116.425 66.4129 114.776C66.3233 114.749 66.2352 114.722 66.147 114.694C63.3821 113.814 61.996 112.653 61.9975 111.492L62.0061 107.782C62.0047 108.943 63.3908 110.105 66.1557 110.985C66.2438 111.012 66.332 111.039 66.4216 111.067C71.8792 112.715 80.4081 112.669 85.6387 110.943C88.2533 110.079 89.557 108.956 89.5599 107.833Z" fill="#99B9FF"/>
<path d="M85.143 104.546C85.2326 104.574 85.3208 104.601 85.4104 104.629C90.8535 106.361 90.9561 109.186 85.6387 110.941C80.4081 112.668 71.8792 112.714 66.4216 111.066C66.332 111.038 66.2438 111.011 66.1557 110.983C60.7125 109.251 60.6114 106.426 65.9287 104.671C71.1579 102.946 79.6854 102.9 85.143 104.546Z" fill="#99B9FF"/>
<path d="M83.4678 104.126C81.2305 103.631 78.6477 103.37 76.0533 103.347C76.1198 103.622 76.192 103.902 76.2759 104.18C78.4482 104.222 80.5902 104.491 82.3318 104.991C82.7596 104.728 83.1137 104.42 83.4678 104.126Z" fill="#CADDFF"/>
<path d="M68.5795 105.139C68.8917 105.036 69.2227 104.943 69.5638 104.856C69.2761 104.555 68.9755 104.266 68.6922 103.96C67.6848 104.152 66.7381 104.391 65.8796 104.674C64.8881 105 64.0888 105.366 63.4746 105.753C64.2999 106.088 65.102 106.471 65.9157 106.779C66.2756 106.18 67.1631 105.607 68.5795 105.139Z" fill="#CADDFF"/>
<path d="M85.6575 107.847C85.3901 108.52 84.4709 109.172 82.8926 109.692C82.6006 109.788 82.2928 109.877 81.9733 109.959C82.5385 110.476 83.1802 110.918 83.7222 111.458C84.3798 111.308 85.0071 111.136 85.591 110.944C88.1073 110.113 89.4081 109.043 89.505 107.961C88.2143 108.048 86.9626 107.964 85.6575 107.847Z" fill="#CADDFF"/>
<path d="M68.9379 109.783C68.8729 109.762 68.8093 109.744 68.7443 109.723C68.3613 109.602 68.0158 109.472 67.7051 109.336C66.8581 109.78 66.0299 110.294 65.1772 110.66C65.4677 110.772 65.777 110.882 66.108 110.986C66.1962 111.013 66.2843 111.041 66.3739 111.068C68.8975 111.83 72.0772 112.23 75.2844 112.269C75.0719 111.746 74.9115 111.171 74.7106 110.638C72.6235 110.564 70.5885 110.281 68.9379 109.783Z" fill="#CADDFF"/>
<path d="M75.916 110.771C75.8798 110.771 75.8437 110.771 75.8076 110.771C73.0817 110.763 70.5177 110.417 68.5867 109.802C66.5792 109.161 65.4749 108.281 65.4778 107.325C65.4836 105.411 70.0248 103.924 75.8293 103.943C78.5551 103.952 81.1192 104.297 83.0501 104.912C85.0577 105.554 86.1619 106.433 86.159 107.39H85.9422H86.159C86.1518 109.292 81.6612 110.771 75.916 110.771ZM75.718 104.375C69.8528 104.375 65.9158 105.893 65.9114 107.325C65.9085 108.066 66.9318 108.818 68.7182 109.387C70.6073 109.991 73.1265 110.328 75.809 110.336C75.8452 110.336 75.8827 110.336 75.9189 110.336C81.784 110.336 85.7211 108.818 85.7254 107.387C85.7283 106.646 84.705 105.894 82.9186 105.324C81.0295 104.72 78.5103 104.383 75.8278 104.375C75.7917 104.375 75.7541 104.375 75.718 104.375Z" fill="#99B9FF"/>
<path d="M89.5599 107.833C89.5585 108.956 88.2533 110.079 85.6387 110.943C85.0418 111.139 84.4015 111.312 83.7294 111.466C83.7685 112.683 83.9954 113.903 83.9578 115.12C84.5446 114.98 85.1039 114.824 85.63 114.651C88.2461 113.787 89.5498 112.665 89.5512 111.541L89.5599 107.833Z" fill="#99B9FF"/>
<path d="M66.4201 111.067C66.3305 111.039 66.2424 111.012 66.1542 110.985C65.8868 110.899 65.6368 110.811 65.3939 110.72C65.2566 111.921 65.2162 113.122 65.1063 114.323C65.4286 114.45 65.7726 114.574 66.1441 114.693C66.2322 114.72 66.3204 114.748 66.41 114.775C68.9654 115.546 72.1928 115.947 75.4404 115.977C75.4419 114.74 75.426 113.502 75.3002 112.266C72.1046 112.225 68.9364 111.827 66.4201 111.067Z" fill="#99B9FF"/>
<path d="M70.561 115.857C70.5509 115.857 70.5422 115.857 70.5321 115.856C68.9885 115.649 67.5822 115.356 66.3493 114.983C66.2583 114.956 66.1687 114.928 66.0805 114.899C63.3055 114.017 61.7778 112.806 61.7806 111.49L61.7893 107.781C61.7893 107.661 61.8862 107.564 62.0061 107.564C62.1261 107.564 62.2229 107.661 62.2229 107.781C62.2215 108.875 63.6784 109.968 66.2207 110.777C66.3074 110.804 66.3956 110.831 66.4837 110.857C70.9599 112.21 77.7212 112.438 82.9273 111.414C83.0458 111.39 83.1585 111.467 83.1817 111.584C83.2048 111.701 83.1282 111.815 83.0111 111.838C77.7429 112.874 70.8949 112.641 66.3594 111.272C66.2684 111.245 66.1788 111.217 66.0906 111.188C64.1756 110.579 62.8545 109.814 62.2215 108.967L62.2157 111.489C62.2142 112.584 63.6711 113.676 66.2135 114.485C66.3002 114.512 66.3884 114.54 66.4765 114.566C67.6877 114.931 69.0723 115.22 70.5914 115.424C70.7099 115.44 70.7937 115.548 70.7778 115.668C70.7605 115.778 70.668 115.857 70.561 115.857Z" fill="white"/>
<path d="M75.851 112.496C72.4617 112.496 69.0608 112.09 66.358 111.273C66.267 111.246 66.1774 111.219 66.0892 111.19C63.3228 110.31 61.7951 109.104 61.7893 107.792C61.7821 106.515 63.2275 105.333 65.8594 104.465C71.1551 102.717 79.6522 102.663 85.2051 104.338C85.2962 104.366 85.3858 104.393 85.4754 104.422C88.2418 105.302 89.7695 106.508 89.7767 107.82C89.7839 109.097 88.3386 110.278 85.7066 111.146C82.988 112.045 79.4252 112.496 75.851 112.496ZM75.7209 103.57C72.1711 103.57 68.6315 104.007 65.9938 104.878C63.5902 105.672 62.2157 106.733 62.2215 107.792C62.2273 108.884 63.6842 109.972 66.2193 110.779C66.306 110.807 66.3942 110.834 66.4823 110.86C71.8705 112.487 80.4326 112.432 85.5693 110.738C87.9729 109.944 89.3474 108.883 89.3417 107.824C89.3359 106.732 87.8775 105.644 85.3424 104.837C85.2557 104.809 85.1675 104.782 85.0794 104.754C82.4576 103.963 79.0842 103.57 75.7209 103.57Z" fill="white"/>
<path d="M89.846 102.141L89.8374 105.851C89.8359 106.975 88.5308 108.097 85.9162 108.961C80.6855 110.687 72.1567 110.733 66.6991 109.085C66.6095 109.058 66.5213 109.03 66.4332 109.003C63.6682 108.123 62.2822 106.962 62.2836 105.8L62.2923 102.091C62.2908 103.252 63.6769 104.413 66.4418 105.293C66.53 105.321 66.6182 105.348 66.7078 105.375C72.1653 107.024 80.6942 106.977 85.9249 105.251C88.5394 104.387 89.8431 103.265 89.846 102.141Z" fill="#99B9FF"/>
<path d="M85.4292 98.8562C85.5188 98.8836 85.6069 98.911 85.6965 98.9385C91.1397 100.67 91.2423 103.496 85.9249 105.251C80.6943 106.977 72.1654 107.024 66.7078 105.375C66.6182 105.348 66.53 105.32 66.4419 105.293C60.9987 103.561 60.8976 100.736 66.2149 98.9804C71.4441 97.2542 79.9716 97.2079 85.4292 98.8562Z" fill="#99B9FF"/>
<path d="M83.754 98.4362C81.5166 97.9405 78.9338 97.6803 76.3395 97.6572C76.4059 97.9318 76.4782 98.2122 76.562 98.4897C78.7344 98.5316 80.8763 98.8004 82.618 99.3005C83.0458 99.0375 83.3999 98.7282 83.754 98.4362Z" fill="#CADDFF"/>
<path d="M68.8657 99.4488C69.1779 99.3462 69.5088 99.2523 69.8499 99.1656C69.5623 98.8652 69.2617 98.5763 68.9784 98.27C67.971 98.4621 67.0243 98.7005 66.1658 98.9836C65.1743 99.3101 64.375 99.6756 63.7607 100.063C64.586 100.398 65.3882 100.781 66.2019 101.088C66.5618 100.489 67.4492 99.9168 68.8657 99.4488Z" fill="#CADDFF"/>
<path d="M85.9437 102.156C85.6763 102.829 84.7571 103.48 83.1787 104C82.8868 104.097 82.5789 104.185 82.2595 104.267C82.8246 104.785 83.4664 105.227 84.0084 105.767C84.666 105.617 85.2933 105.446 85.8772 105.253C88.3935 104.422 89.6943 103.352 89.7911 102.27C88.5005 102.358 87.2488 102.274 85.9437 102.156Z" fill="#CADDFF"/>
<path d="M69.2255 104.091C69.1605 104.071 69.0969 104.052 69.0319 104.032C68.6488 103.911 68.3034 103.781 67.9927 103.645C67.1457 104.088 66.3175 104.603 65.4648 104.968C65.7553 105.081 66.0646 105.191 66.3956 105.295C66.4837 105.322 66.5719 105.349 66.6615 105.377C69.1851 106.138 72.3648 106.538 75.572 106.577C75.3595 106.054 75.1991 105.479 74.9982 104.946C72.9097 104.874 70.8747 104.59 69.2255 104.091Z" fill="#CADDFF"/>
<path d="M76.2007 105.08C76.1646 105.08 76.1284 105.08 76.0923 105.08C73.3664 105.071 70.8024 104.726 68.8714 104.11C66.8638 103.469 65.7596 102.589 65.7625 101.633C65.7683 99.7304 70.2589 98.2512 76.0056 98.2512C76.0417 98.2512 76.0778 98.2512 76.114 98.2512C78.8399 98.2599 81.4039 98.6051 83.3348 99.2205C85.3424 99.8619 86.4466 100.742 86.4438 101.698H86.227H86.4438C86.438 103.602 81.9473 105.08 76.2007 105.08ZM76.0041 98.6846C70.139 98.6846 66.2019 100.203 66.1975 101.634C66.1947 102.375 67.218 103.128 69.0044 103.699C70.8934 104.302 73.4126 104.639 76.0952 104.648C76.1313 104.648 76.1689 104.648 76.205 104.648C82.0702 104.648 86.0073 103.129 86.0116 101.698C86.0145 100.957 84.9912 100.206 83.2048 99.6351C81.3157 99.0313 78.7965 98.6947 76.114 98.686C76.0778 98.6846 76.0403 98.6846 76.0041 98.6846Z" fill="#99B9FF"/>
<path d="M89.8461 102.141C89.8446 103.265 88.5395 104.387 85.9249 105.251C85.328 105.448 84.6877 105.621 84.0156 105.774C84.0546 106.992 84.2815 108.211 84.244 109.429C84.8308 109.289 85.3901 109.133 85.9162 108.959C88.5323 108.095 89.8359 106.973 89.8374 105.849L89.8461 102.141Z" fill="#99B9FF"/>
<path d="M66.7063 105.375C66.6167 105.348 66.5286 105.32 66.4404 105.293C66.173 105.208 65.923 105.12 65.6801 105.029C65.5428 106.229 65.5024 107.431 65.3925 108.631C65.7148 108.759 66.0588 108.883 66.4303 109.001C66.5184 109.029 66.6066 109.056 66.6962 109.084C69.2516 109.855 72.479 110.255 75.7267 110.285C75.7281 109.049 75.7122 107.811 75.5865 106.574C72.3908 106.534 69.2227 106.135 66.7063 105.375Z" fill="#99B9FF"/>
<path d="M76.1458 110.504C72.6958 110.504 69.2718 110.088 66.6341 109.292C66.543 109.264 66.4534 109.237 66.3652 109.208C63.5902 108.325 62.0625 107.115 62.0654 105.799L62.074 102.089C62.074 101.969 62.1709 101.872 62.2908 101.872C62.4108 101.872 62.5076 101.969 62.5076 102.089C62.5062 103.184 63.9631 104.276 66.5054 105.085C66.5921 105.113 66.6803 105.14 66.7685 105.166C71.2447 106.517 78.0059 106.746 83.212 105.722C83.3305 105.699 83.4433 105.776 83.4664 105.893C83.4895 106.01 83.4129 106.124 83.2958 106.147C78.0276 107.183 71.1796 106.95 66.6442 105.581C66.5531 105.553 66.4635 105.526 66.3753 105.497C64.4603 104.887 63.1393 104.123 62.5062 103.275L62.5004 105.797C62.499 106.892 63.9559 107.984 66.4982 108.793C66.5849 108.821 66.6731 108.848 66.7613 108.874C70.9845 110.15 77.2601 110.433 82.3752 109.58C82.4922 109.56 82.605 109.64 82.6252 109.758C82.6454 109.877 82.5645 109.988 82.4474 110.008C80.4587 110.343 78.2964 110.504 76.1458 110.504Z" fill="white"/>
<path d="M89.028 96.6734L89.0193 100.383C89.0179 101.507 87.7128 102.629 85.0982 103.493C79.8675 105.219 71.3386 105.266 65.881 103.617C65.7914 103.59 65.7032 103.562 65.6151 103.535C62.8502 102.655 61.4641 101.494 61.4655 100.332L61.4742 96.6229C61.4728 97.7843 62.8588 98.9457 65.6238 99.8254C65.7119 99.8528 65.8001 99.8803 65.8897 99.9077C71.3473 101.556 79.8762 101.51 85.1068 99.7835C87.7214 98.9197 89.0251 97.7973 89.028 96.6734Z" fill="#99B9FF"/>
<path d="M84.6111 93.3887C84.7007 93.4161 84.7889 93.4436 84.8785 93.471C90.3216 95.203 90.4243 98.0286 85.1069 99.7837C79.8762 101.51 71.3473 101.556 65.8897 99.9079C65.8001 99.8805 65.7119 99.853 65.6238 99.8256C60.1806 98.0936 60.0795 95.268 65.3969 93.5129C70.6261 91.7867 79.1535 91.7405 84.6111 93.3887Z" fill="#99B9FF"/>
<path d="M82.936 92.9673C80.6986 92.4715 78.1158 92.2114 75.5214 92.1882C75.5879 92.4628 75.6602 92.7432 75.744 93.0207C77.9163 93.0627 80.0583 93.3315 81.7999 93.8316C82.2277 93.5685 82.5818 93.2607 82.936 92.9673Z" fill="#CADDFF"/>
<path d="M68.0476 93.9812C68.3598 93.8787 68.6907 93.7848 69.0318 93.6981C68.7442 93.3976 68.4436 93.1087 68.1603 92.8025C67.1529 92.9946 66.2062 93.233 65.3477 93.5161C64.3562 93.8426 63.557 94.208 62.9427 94.5952C63.768 94.9303 64.5701 95.3131 65.3838 95.6208C65.7437 95.0213 66.6312 94.4478 68.0476 93.9812Z" fill="#CADDFF"/>
<path d="M85.1256 96.6879C84.8582 97.361 83.939 98.0125 82.3607 98.5325C82.0687 98.6293 81.7609 98.7175 81.4415 98.7998C82.0066 99.3169 82.6483 99.759 83.1903 100.299C83.8479 100.149 84.4752 99.9771 85.0591 99.785C87.5754 98.9544 88.8762 97.8839 88.9731 96.802C87.6824 96.8887 86.4307 96.8049 85.1256 96.6879Z" fill="#CADDFF"/>
<path d="M68.406 98.6236C68.341 98.6034 68.2774 98.5846 68.2124 98.5644C67.8293 98.443 67.4839 98.313 67.1732 98.1772C66.3262 98.6207 65.498 99.135 64.6453 99.5004C64.9358 99.6131 65.2451 99.7229 65.5761 99.8269C65.6642 99.8544 65.7524 99.8818 65.842 99.9093C68.3656 100.671 71.5453 101.071 74.7525 101.11C74.54 100.587 74.3796 100.012 74.1787 99.4788C72.0916 99.4051 70.0566 99.122 68.406 98.6236Z" fill="#CADDFF"/>
<path d="M75.3812 99.6121C75.3451 99.6121 75.3104 99.6121 75.2742 99.6121C69.4756 99.5933 64.9387 98.0795 64.9445 96.164C64.9503 94.2615 69.4409 92.7823 75.1875 92.7823C75.2237 92.7823 75.2598 92.7823 75.2959 92.7823C78.0218 92.791 80.5858 93.1362 82.5168 93.7516C84.5243 94.393 85.6286 95.2727 85.6257 96.229C85.6228 97.1853 84.5128 98.0578 82.5009 98.6862C80.5931 99.2842 78.0681 99.6121 75.3812 99.6121ZM75.1861 93.2171C69.3209 93.2171 65.3839 94.7353 65.3795 96.1669C65.3752 97.6071 69.3513 99.16 75.2771 99.1802C77.9582 99.1903 80.4803 98.8682 82.3737 98.2759C84.163 97.7169 85.1921 96.9715 85.1935 96.2304C85.1964 95.4894 84.1731 94.7382 82.3867 94.1676C80.4977 93.5638 77.9785 93.2272 75.2959 93.2185C75.2598 93.2171 75.2222 93.2171 75.1861 93.2171Z" fill="#99B9FF"/>
<path d="M89.028 96.6735C89.0266 97.7973 87.7214 98.9197 85.1068 99.7836C84.5099 99.98 83.8696 100.153 83.1976 100.307C83.2366 101.524 83.4635 102.743 83.4259 103.961C84.0127 103.821 84.5721 103.665 85.0982 103.492C87.7142 102.628 89.0179 101.505 89.0193 100.382L89.028 96.6735Z" fill="#99B9FF"/>
<path d="M65.8883 99.9078C65.7987 99.8803 65.7105 99.8529 65.6223 99.8255C65.3549 99.7402 65.1049 99.6521 64.8621 99.5611C64.7248 100.762 64.6843 101.963 64.5745 103.164C64.8968 103.291 65.2408 103.415 65.6122 103.534C65.7004 103.561 65.7885 103.588 65.8782 103.616C68.4335 104.387 71.6609 104.787 74.9086 104.818C74.9101 103.581 74.8942 102.343 74.7684 101.107C71.5728 101.066 68.4046 100.668 65.8883 99.9078Z" fill="#99B9FF"/>
<path d="M75.309 105.046C71.9197 105.046 68.5188 104.64 65.816 103.824C65.725 103.797 65.6354 103.769 65.5472 103.74C62.7722 102.858 61.2445 101.647 61.2473 100.331L61.256 96.6215C61.256 96.5016 61.3529 96.4048 61.4728 96.4048C61.5928 96.4048 61.6896 96.5016 61.6896 96.6215C61.6882 97.7164 63.1451 98.8085 65.6874 99.6175C65.7741 99.6449 65.8623 99.6723 65.9504 99.6983C71.3386 101.325 79.9008 101.27 85.0375 99.5756C87.4324 98.7854 88.8069 97.728 88.8112 96.6735V96.672C88.8112 96.5521 88.9081 96.4553 89.028 96.4553C89.148 96.4553 89.2448 96.5521 89.2448 96.672L89.2361 100.382C89.2332 101.654 87.7879 102.832 85.1661 103.697C82.446 104.595 78.8833 105.046 75.309 105.046ZM61.6867 97.8089L61.6809 100.331C61.6795 101.426 63.1364 102.518 65.6787 103.327C65.7654 103.354 65.8536 103.382 65.9418 103.408C71.33 105.034 79.8921 104.98 85.0288 103.285C87.4251 102.495 88.7997 101.436 88.8011 100.38L88.8069 97.8566C88.1955 98.6655 86.9569 99.3979 85.1733 99.9873C79.8776 101.735 71.3791 101.79 65.8262 100.114C65.7351 100.087 65.6455 100.059 65.5573 100.031C63.6423 99.4224 62.3212 98.6568 61.6867 97.8089Z" fill="white"/>
<path d="M75.3191 101.336C71.9298 101.336 68.5289 100.931 65.8261 100.114C65.7351 100.087 65.6455 100.059 65.5573 100.031C62.791 99.1508 61.2632 97.9446 61.2575 96.633C61.2502 95.356 62.6956 94.1744 65.3275 93.3062C70.6232 91.5583 79.1203 91.5034 84.6732 93.1791C84.7643 93.2065 84.8539 93.234 84.9435 93.2629C87.7099 94.1426 89.2376 95.3488 89.2448 96.6604C89.252 97.9374 87.8067 99.119 85.1748 99.9872C82.4561 100.886 78.8934 101.336 75.3191 101.336ZM75.189 92.4106C71.6393 92.4106 68.0996 92.8483 65.4619 93.7193C63.0583 94.5124 61.6838 95.5741 61.6882 96.633C61.6939 97.7251 63.1508 98.8128 65.6859 99.6203C65.7727 99.6478 65.8608 99.6752 65.949 99.7012C71.3372 101.328 79.8993 101.273 85.036 99.5784C87.4396 98.7854 88.8141 97.7236 88.8083 96.6648C88.8025 95.5727 87.3442 94.4849 84.8091 93.6774C84.7224 93.65 84.6342 93.6225 84.546 93.5951C81.9257 92.8035 78.5537 92.4106 75.189 92.4106Z" fill="white"/>
<path d="M89.3865 91.2159L89.359 94.9241C89.3518 96.0479 88.0423 97.1646 85.4219 98.014C80.1826 99.7142 71.6537 99.7185 66.2048 98.0443C66.1152 98.0168 66.027 97.9894 65.9389 97.9605C63.1783 97.0678 61.798 95.8977 61.8052 94.7377L61.8327 91.0295C61.8255 92.191 63.2057 93.3596 65.9663 94.2523C66.0545 94.2812 66.1427 94.3087 66.2323 94.3361C71.6812 96.0104 80.2101 96.006 85.4494 94.3058C88.0698 93.4564 89.3792 92.3398 89.3865 91.2159Z" fill="#99B9FF"/>
<path d="M84.9854 87.9095C85.075 87.9369 85.1632 87.9644 85.2513 87.9933C90.6858 89.7513 90.7739 92.5783 85.4493 94.3074C80.21 96.0076 71.6811 96.0119 66.2322 94.3377C66.1426 94.3103 66.0545 94.2828 65.9663 94.2539C60.5319 92.4959 60.4437 89.6689 65.7697 87.9398C71.009 86.2396 79.5365 86.2352 84.9854 87.9095Z" fill="#99B9FF"/>
<path d="M83.3132 87.4809C81.0787 86.9736 78.4973 86.7018 75.903 86.6657C75.968 86.9403 76.0388 87.2222 76.1212 87.4997C78.2935 87.5517 80.4341 87.8321 82.1743 88.3394C82.6021 88.0792 82.9576 87.7714 83.3132 87.4809Z" fill="#CADDFF"/>
<path d="M68.4205 88.4211C68.7327 88.32 69.0637 88.2276 69.4062 88.1423C69.12 87.8404 68.8208 87.5501 68.539 87.2438C67.5302 87.4316 66.582 87.6642 65.7235 87.943C64.7306 88.2651 63.9298 88.6263 63.3127 89.0105C64.1351 89.3485 64.9372 89.7371 65.7481 90.0477C66.1123 89.4497 67.0012 88.882 68.4205 88.4211Z" fill="#CADDFF"/>
<path d="M85.4855 91.2116C85.2152 91.8833 84.2917 92.5305 82.7119 93.0433C82.4185 93.1386 82.1107 93.2253 81.7912 93.3062C82.3549 93.8262 82.9938 94.2712 83.5329 94.8143C84.1919 94.667 84.8192 94.4994 85.4046 94.3087C87.9252 93.4897 89.2318 92.4265 89.333 91.346C88.0409 91.4254 86.7892 91.3358 85.4855 91.2116Z" fill="#CADDFF"/>
<path d="M68.7572 93.0649C68.6922 93.0447 68.6286 93.0245 68.565 93.0043C68.182 92.88 67.838 92.75 67.5287 92.6128C66.6789 93.0534 65.8492 93.5619 64.9936 93.9244C65.2841 94.0386 65.5934 94.1498 65.923 94.2552C66.0111 94.2841 66.0993 94.3116 66.1889 94.339C68.7081 95.1133 71.8864 95.5279 75.0936 95.5828C74.884 95.0584 74.7265 94.4835 74.527 93.949C72.4371 93.8652 70.4035 93.572 68.7572 93.0649Z" fill="#CADDFF"/>
<path d="M75.8885 94.0881C75.7989 94.0881 75.7093 94.0881 75.6197 94.0866C69.821 94.039 65.2913 92.5034 65.3072 90.5879C65.3231 88.6739 69.8759 87.212 75.6746 87.2583C78.4005 87.2799 80.9631 87.6367 82.8911 88.2637C84.8958 88.9152 85.9957 89.8007 85.987 90.757C85.9798 91.7132 84.8655 92.5814 82.8507 93.1997C80.9775 93.7746 78.5147 94.0881 75.8885 94.0881ZM75.3971 87.6916C69.623 87.6916 65.7539 89.1766 65.7423 90.5937C65.7307 92.0339 69.6982 93.607 75.624 93.6547C78.3065 93.6749 80.8286 93.3673 82.7249 92.7865C84.5171 92.2362 85.5491 91.4951 85.5549 90.7555C85.5607 90.0145 84.5417 89.2575 82.7582 88.6783C80.872 88.0658 78.3557 87.7162 75.6732 87.6945C75.5807 87.6916 75.4881 87.6916 75.3971 87.6916Z" fill="#99B9FF"/>
<path d="M76.0331 95.8429C71.8272 95.8429 67.8438 95.3127 66.1427 94.5341C66.1036 94.5168 66.0559 94.5038 66.0054 94.4893C65.9707 94.4792 65.936 94.4705 65.9013 94.459C63.1393 93.5648 61.6188 92.3514 61.6173 91.0412C61.6173 89.7642 63.0685 88.5898 65.7047 87.7332C67.3755 87.19 69.4626 86.7986 71.7361 86.5978C71.8546 86.5877 71.9601 86.6758 71.9717 86.7942C71.9818 86.9141 71.8936 87.0181 71.7751 87.0297C69.532 87.2276 67.4796 87.6133 65.8392 88.1463C63.4312 88.9278 62.0509 89.9823 62.0524 91.0412C62.0524 92.1333 63.5049 93.2282 66.0357 94.0473C66.0632 94.056 66.0921 94.0632 66.1195 94.0718C66.1817 94.0892 66.2525 94.108 66.3248 94.1412C67.9927 94.9039 72.0917 95.4283 76.286 95.4095C81.2247 95.3907 85.276 94.6554 87.402 93.3944C88.5149 92.7342 89.1133 91.9325 89.1769 91.0137C89.1856 90.8939 89.2896 90.8028 89.4082 90.813C89.5281 90.8216 89.6177 90.9242 89.6091 91.0441C89.5339 92.113 88.8662 93.0289 87.6232 93.767C85.1025 95.2593 80.4457 95.8429 76.0331 95.8429Z" fill="white"/>
<path d="M89.3865 91.2159C89.3792 92.3398 88.0698 93.4564 85.4494 94.3058C84.8525 94.4994 84.2107 94.6699 83.5372 94.8201C83.5704 96.0393 83.7916 97.2585 83.7468 98.4762C84.3336 98.339 84.8944 98.1859 85.4219 98.014C88.0423 97.1631 89.3518 96.0479 89.359 94.9241L89.3865 91.2159Z" fill="#99B9FF"/>
<path d="M66.2323 94.3376C66.1427 94.3102 66.0545 94.2827 65.9663 94.2538C65.6989 94.1671 65.4489 94.0776 65.2075 93.9866C65.0644 95.187 65.0182 96.3874 64.9026 97.5878C65.2234 97.7178 65.5674 97.8421 65.9389 97.962C66.027 97.9909 66.1152 98.0183 66.2048 98.0458C68.7558 98.8301 71.9818 99.2462 75.2295 99.2924C75.2367 98.0559 75.2266 96.8179 75.108 95.5799C71.911 95.5236 68.7443 95.109 66.2323 94.3376Z" fill="#99B9FF"/>
<path d="M75.8365 99.522C72.3778 99.522 68.896 99.1002 66.1412 98.2537C66.0501 98.2263 65.962 98.1974 65.8724 98.1685C63.1017 97.2714 61.5797 96.0537 61.5884 94.7377L61.6159 91.031C61.6159 91.031 61.6159 91.0296 61.6159 91.0281C61.6173 90.9097 61.7142 90.8129 61.8327 90.8129H61.8341C61.9541 90.8143 62.0495 90.9111 62.0495 91.031C62.0422 92.126 63.4948 93.2238 66.0328 94.0458C66.1195 94.0732 66.2062 94.1007 66.2959 94.1281C71.6768 95.7821 80.2389 95.7677 85.3829 94.0978C87.7807 93.3192 89.1609 92.269 89.1696 91.2145V91.2116C89.1711 91.0931 89.2679 90.9963 89.3864 90.9963H89.3879C89.5078 90.9978 89.6032 91.0946 89.6032 91.2145L89.5758 94.9226C89.5671 96.1953 88.116 97.3653 85.4884 98.2176C82.8203 99.0887 79.3399 99.522 75.8365 99.522ZM62.0408 92.2184L62.022 94.7406C62.0148 95.8356 63.4673 96.9349 66.0053 97.7554C66.0921 97.7828 66.1788 97.8117 66.2684 97.8377C71.6493 99.4903 80.2115 99.4773 85.3554 97.8074C87.7546 97.0288 89.1349 95.9771 89.1422 94.9212L89.1609 92.3975C88.5467 93.2036 87.3037 93.9302 85.5158 94.5109C80.2115 96.2328 71.7129 96.2473 66.1672 94.5427C66.0762 94.5152 65.988 94.4864 65.8984 94.4575C63.9877 93.8406 62.671 93.0693 62.0408 92.2184Z" fill="white"/>
<path d="M88.6248 89.952C88.5713 89.952 88.5178 89.9332 88.4759 89.8927C87.8082 89.2658 86.6707 88.6793 85.1849 88.1983C85.0982 88.1694 85.01 88.1419 84.9218 88.1145C82.6642 87.4211 79.8444 86.9993 76.7673 86.8982C76.6473 86.8938 76.5534 86.7942 76.5577 86.6743C76.562 86.5544 76.6632 86.4605 76.7817 86.4648C79.8964 86.5688 82.7553 86.9964 85.049 87.7013C85.1401 87.7288 85.2297 87.7577 85.3178 87.7866C86.886 88.2936 88.0495 88.896 88.7722 89.5764C88.8589 89.6587 88.8632 89.796 88.7823 89.8826C88.7404 89.9289 88.6826 89.952 88.6248 89.952Z" fill="white"/>
<path d="M106.397 112.103L106.371 115.624C106.363 116.692 105.12 117.751 102.633 118.558C97.6581 120.173 89.5599 120.178 84.3856 118.587C84.3003 118.561 84.2165 118.535 84.1327 118.508C81.5109 117.66 80.1999 116.55 80.2072 115.448L80.2332 111.926C80.226 113.029 81.5369 114.138 84.1587 114.986C84.2425 115.013 84.3264 115.039 84.4116 115.065C89.5859 116.656 97.6827 116.651 102.659 115.036C105.145 114.229 106.389 113.17 106.397 112.103Z" fill="#99B9FF"/>
<path d="M102.218 108.962C102.303 108.988 102.387 109.014 102.471 109.042C107.631 110.712 107.715 113.394 102.659 115.037C97.6841 116.652 89.5859 116.656 84.4116 115.066C84.3264 115.04 84.2425 115.014 84.1587 114.986C78.9989 113.316 78.9151 110.634 83.9723 108.991C88.9471 107.378 97.0438 107.373 102.218 108.962Z" fill="#99B9FF"/>
<path d="M100.63 108.557C98.5079 108.076 96.0567 107.817 93.5938 107.784C93.656 108.044 93.7224 108.311 93.8019 108.576C95.8644 108.625 97.8966 108.891 99.5486 109.373C99.9547 109.123 100.291 108.833 100.63 108.557Z" fill="#CADDFF"/>
<path d="M86.49 109.448C86.7863 109.351 87.1014 109.265 87.4266 109.184C87.1549 108.896 86.8716 108.62 86.6027 108.33C85.6459 108.508 84.7455 108.729 83.9289 108.994C82.9865 109.301 82.2248 109.643 81.6395 110.008C82.4214 110.331 83.1816 110.698 83.952 110.994C84.2974 110.426 85.1415 109.886 86.49 109.448Z" fill="#CADDFF"/>
<path d="M102.692 112.098C102.435 112.737 101.559 113.351 100.059 113.838C99.7798 113.929 99.4879 114.011 99.1844 114.087C99.7191 114.58 100.326 115.003 100.838 115.519C101.464 115.379 102.059 115.22 102.616 115.039C105.009 114.262 106.249 113.251 106.346 112.225C105.119 112.302 103.929 112.217 102.692 112.098Z" fill="#CADDFF"/>
<path d="M86.808 113.859C86.7458 113.84 86.6851 113.822 86.6244 113.801C86.2617 113.684 85.9336 113.559 85.6402 113.429C84.8337 113.846 84.046 114.33 83.2337 114.674C83.5097 114.782 83.8031 114.888 84.1153 114.989C84.1992 115.016 84.283 115.042 84.3683 115.068C86.7603 115.804 89.7781 116.196 92.8234 116.248C92.624 115.75 92.4751 115.204 92.2858 114.697C90.3028 114.619 88.3718 114.339 86.808 113.859Z" fill="#CADDFF"/>
<path d="M93.5794 114.841C93.4941 114.841 93.4103 114.841 93.325 114.839C87.8139 114.794 83.5083 113.331 83.5228 111.506C83.53 110.594 84.5909 109.766 86.5088 109.176C88.3502 108.612 90.7884 108.311 93.3785 108.333C98.8895 108.378 103.195 109.841 103.181 111.665L102.964 111.664L103.181 111.665C103.173 112.578 102.113 113.406 100.195 113.995C98.414 114.543 96.074 114.841 93.5794 114.841ZM93.1226 108.766C90.6714 108.766 88.3762 109.058 86.636 109.591C84.9392 110.113 83.9621 110.812 83.9564 111.509C83.9448 112.872 87.7084 114.359 93.3293 114.406C95.876 114.426 98.268 114.134 100.067 113.581C101.764 113.059 102.741 112.36 102.747 111.663C102.759 110.3 98.995 108.812 93.3741 108.768C93.2903 108.768 93.2065 108.766 93.1226 108.766Z" fill="#99B9FF"/>
<path d="M93.7167 116.507C89.7218 116.507 85.9379 116.003 84.322 115.263C84.2859 115.247 84.2411 115.234 84.1919 115.221C84.1587 115.213 84.1255 115.203 84.0922 115.193C81.4646 114.343 80.0178 113.186 80.0178 111.937C80.0178 110.719 81.3981 109.599 83.9058 108.786C85.4927 108.27 87.4743 107.898 89.6351 107.707C89.755 107.697 89.8591 107.785 89.8706 107.903C89.8808 108.023 89.7926 108.127 89.6741 108.139C87.5451 108.327 85.5968 108.692 84.0402 109.198C81.7595 109.939 80.4514 110.937 80.4514 111.937C80.4514 112.968 81.8274 114.005 84.2266 114.781C84.2527 114.79 84.2787 114.797 84.3047 114.804C84.3654 114.82 84.4333 114.839 84.5013 114.87C86.0824 115.594 89.9747 116.09 93.9551 116.074C98.6423 116.055 102.487 115.359 104.503 114.161C105.557 113.536 106.122 112.779 106.184 111.909C106.193 111.789 106.297 111.698 106.415 111.708C106.535 111.717 106.625 111.82 106.616 111.939C106.545 112.958 105.908 113.832 104.724 114.534C102.334 115.952 97.9081 116.507 93.7167 116.507Z" fill="white"/>
<path d="M106.397 112.103C106.389 113.17 105.146 114.229 102.659 115.037C102.092 115.22 101.482 115.382 100.844 115.525C100.875 116.682 101.085 117.84 101.043 118.996C101.601 118.866 102.133 118.72 102.633 118.558C105.12 117.751 106.363 116.691 106.371 115.624L106.397 112.103Z" fill="#CADDFF"/>
<path d="M84.4116 115.067C84.3264 115.041 84.2425 115.015 84.1601 114.987C83.9072 114.905 83.6687 114.82 83.4404 114.733C83.3045 115.873 83.2611 117.013 83.1499 118.152C83.4548 118.275 83.7815 118.394 84.1341 118.508C84.218 118.535 84.3018 118.561 84.3871 118.587C86.8094 119.331 89.8721 119.727 92.955 119.77C92.9622 118.596 92.9536 117.421 92.8394 116.246C89.8027 116.192 86.7964 115.799 84.4116 115.067Z" fill="#CADDFF"/>
<path d="M93.5302 120C90.245 120 86.9381 119.598 84.322 118.795C84.2353 118.769 84.1515 118.742 84.0662 118.714C81.4299 117.862 79.9831 116.701 79.9918 115.447L80.0178 111.925C80.0193 111.807 80.1161 111.71 80.2346 111.71H80.2361C80.356 111.711 80.4514 111.808 80.4514 111.928C80.4456 112.962 81.8216 114.001 84.2266 114.779C84.309 114.805 84.3914 114.833 84.4752 114.857C89.5816 116.426 97.7087 116.415 102.591 114.83C104.865 114.092 106.173 113.096 106.18 112.1C106.181 111.98 106.274 111.885 106.398 111.885C106.518 111.886 106.613 111.983 106.613 112.103C106.613 112.104 106.613 112.106 106.613 112.107L106.587 115.624C106.579 116.838 105.198 117.952 102.699 118.763C100.163 119.588 96.8588 120 93.5302 120ZM80.4428 113.086L80.4254 115.45C80.4182 116.484 81.7941 117.524 84.2006 118.301C84.283 118.329 84.3654 118.355 84.4492 118.379C89.5556 119.948 97.6827 119.935 102.565 118.35C104.839 117.612 106.147 116.617 106.154 115.62L106.171 113.257C105.579 114.014 104.405 114.696 102.725 115.242C97.687 116.877 89.6148 116.89 84.348 115.272C84.2628 115.246 84.1775 115.219 84.0922 115.191C82.2942 114.612 81.0498 113.887 80.4428 113.086Z" fill="white"/>
<path d="M105.745 110.982C105.69 110.982 105.633 110.96 105.592 110.918C104.969 110.298 103.866 109.721 102.403 109.248C102.321 109.221 102.237 109.195 102.153 109.169C99.8218 108.452 96.7808 108.036 93.5909 107.994C93.4709 107.993 93.3756 107.895 93.377 107.775C93.3784 107.656 93.4753 107.561 93.5938 107.561C93.5952 107.561 93.5952 107.561 93.5967 107.561C96.827 107.603 99.9114 108.026 102.282 108.754C102.368 108.78 102.454 108.808 102.538 108.835C104.085 109.336 105.217 109.933 105.898 110.61C105.983 110.694 105.983 110.831 105.899 110.917C105.856 110.961 105.8 110.982 105.745 110.982Z" fill="white"/>
<path d="M104.048 99.8487C104.048 99.8487 105.696 102.033 105.577 103.47L105.61 104.026L109.049 100.899L108.569 100.704C107.807 100.184 107.004 99.8747 106.561 99.0657L104.048 99.8487Z" fill="white"/>
<path d="M105.612 104.243C105.584 104.243 105.557 104.237 105.531 104.227C105.453 104.195 105.401 104.123 105.396 104.039L105.363 103.483C105.363 103.473 105.363 103.463 105.363 103.453C105.473 102.114 103.892 100 103.876 99.98C103.834 99.9236 103.821 99.85 103.843 99.7835C103.864 99.7171 103.918 99.6636 103.984 99.6434L106.499 98.8605C106.597 98.8301 106.704 98.8735 106.754 98.963C107.058 99.5206 107.548 99.8167 108.115 100.161C108.297 100.272 108.486 100.386 108.673 100.512L109.131 100.698C109.2 100.725 109.25 100.787 109.263 100.861C109.276 100.935 109.25 101.01 109.195 101.059L105.756 104.187C105.717 104.223 105.665 104.243 105.612 104.243ZM105.795 103.471L105.801 103.561L108.65 100.969L108.489 100.904C108.475 100.899 108.462 100.891 108.449 100.883C108.265 100.757 108.075 100.642 107.891 100.53C107.345 100.2 106.826 99.8846 106.464 99.3242L104.401 99.967C104.831 100.591 105.885 102.249 105.795 103.471Z" fill="black"/>
<path d="M104.987 102.754L105.041 103.432C105.146 104.772 104.924 106.12 104.393 107.355L103.986 108.304C103.947 108.395 103.955 108.498 104.009 108.581L104.036 108.623C104.335 109.093 105.657 109.497 107.327 108.365C108.361 107.664 110.456 105.72 111.89 102.322C111.981 102.107 111.922 101.858 111.743 101.71C111.092 101.164 109.485 99.9184 108.234 99.7783C108.095 99.7624 107.971 99.8678 107.969 100.008L107.958 101.356C107.952 101.961 107.456 102.446 106.85 102.438L105.304 102.417C105.119 102.416 104.973 102.572 104.987 102.754Z" fill="#99B9FF"/>
<path d="M105.246 109.312C105.045 109.312 104.877 109.291 104.747 109.263C104.335 109.178 104.009 108.987 103.851 108.739L103.824 108.697C103.733 108.554 103.717 108.375 103.785 108.217L104.192 107.268C104.707 106.069 104.925 104.747 104.824 103.447L104.771 102.77C104.759 102.622 104.811 102.475 104.912 102.368C105.013 102.26 105.159 102.202 105.304 102.202L106.85 102.222C107.086 102.224 107.307 102.137 107.475 101.972C107.642 101.808 107.736 101.59 107.738 101.354L107.749 100.006C107.751 99.8792 107.806 99.7594 107.9 99.6756C107.997 99.5903 108.125 99.5499 108.254 99.5643C109.569 99.7102 111.227 100.997 111.879 101.545C112.132 101.757 112.214 102.104 112.087 102.407C110.404 106.396 107.926 108.219 107.446 108.544C106.537 109.161 105.775 109.312 105.246 109.312ZM105.204 102.737L105.258 103.414C105.366 104.785 105.135 106.178 104.593 107.44L104.185 108.391C104.175 108.415 104.177 108.443 104.191 108.466L104.218 108.508C104.291 108.622 104.492 108.769 104.837 108.84C105.239 108.922 106.08 108.948 107.204 108.185C107.667 107.872 110.055 106.114 111.689 102.238C111.743 102.11 111.708 101.964 111.603 101.876C110.981 101.354 109.406 100.128 108.208 99.9934C108.199 99.9919 108.192 99.9963 108.189 99.9991L108.171 101.358C108.168 101.709 108.028 102.037 107.777 102.283C107.525 102.529 107.189 102.66 106.845 102.656L105.298 102.635C105.261 102.633 105.239 102.654 105.229 102.666C105.219 102.676 105.201 102.7 105.204 102.737Z" fill="black"/>
<path d="M104.158 108.176C104.074 108.176 103.994 108.127 103.958 108.046C103.911 107.937 103.961 107.809 104.071 107.762L104.285 107.669C105.353 107.206 106.197 106.313 106.597 105.221L106.741 104.832C106.806 104.653 106.965 104.536 107.155 104.525C107.345 104.513 107.517 104.611 107.603 104.782L107.787 105.144C107.803 105.176 107.83 105.185 107.846 105.186C107.861 105.189 107.89 105.189 107.914 105.163C108.91 104.152 109.67 102.966 110.173 101.64L110.465 100.871C110.507 100.76 110.633 100.704 110.744 100.746C110.855 100.787 110.912 100.913 110.87 101.026L110.578 101.794C110.052 103.177 109.26 104.413 108.222 105.468C108.106 105.585 107.94 105.64 107.778 105.615C107.615 105.591 107.473 105.488 107.4 105.341L107.216 104.978C107.213 104.972 107.204 104.955 107.18 104.958C107.155 104.959 107.15 104.977 107.147 104.982L107.004 105.371C106.561 106.574 105.633 107.558 104.455 108.068L104.242 108.16C104.216 108.171 104.187 108.176 104.158 108.176Z" fill="black"/>
<path d="M91.5198 105.984C91.5198 105.984 91.7091 108.135 90.8173 109.154L90.5398 109.592L94.7226 109.37L94.5203 108.912C94.1604 108.097 93.8843 106.787 93.9551 105.932L91.5198 105.984Z" fill="white"/>
<path d="M90.5384 109.809C90.4618 109.809 90.391 109.768 90.3519 109.702C90.3115 109.632 90.3129 109.544 90.3563 109.476L90.6338 109.039C90.6396 109.03 90.6468 109.02 90.654 109.013C91.4735 108.075 91.3059 106.024 91.3044 106.004C91.2986 105.945 91.3189 105.885 91.3593 105.841C91.3998 105.796 91.4562 105.77 91.5154 105.768L93.9494 105.718C94.0144 105.715 94.0694 105.741 94.1113 105.786C94.1532 105.83 94.1749 105.891 94.1691 105.952C94.1055 106.725 94.3469 107.987 94.7169 108.826L94.9192 109.284C94.9481 109.349 94.9423 109.424 94.9062 109.485C94.8686 109.546 94.8036 109.585 94.7328 109.588L90.55 109.81C90.5471 109.809 90.5427 109.809 90.5384 109.809ZM90.9908 109.283L90.946 109.354L94.396 109.17L94.3208 109C94.0058 108.288 93.7095 107.093 93.7254 106.154L91.7481 106.194C91.7713 106.794 91.7525 108.396 90.9908 109.283Z" fill="black"/>
<path d="M90.946 107.763L90.5254 108.195C89.6929 109.05 88.6652 109.692 87.5306 110.063L86.6591 110.347C86.5767 110.375 86.5117 110.441 86.4871 110.525L86.4741 110.568C86.3368 111.042 86.8412 112.159 88.5742 112.608C89.6163 112.878 92.0314 113.128 95.0175 112.189C95.3716 112.078 95.6028 111.74 95.5855 111.369C95.5465 110.512 95.3961 108.987 94.8195 108.173C94.7486 108.074 94.6113 108.059 94.5188 108.14C94.3136 108.316 93.9479 108.633 93.6126 108.923C93.2065 109.274 92.5922 109.228 92.2424 108.821L91.3507 107.779C91.2466 107.653 91.0587 107.648 90.946 107.763Z" fill="#99B9FF"/>
<path d="M90.8491 113.07C89.6033 113.07 88.7736 112.884 88.5207 112.819C87.2084 112.479 86.6577 111.805 86.4452 111.432C86.2573 111.102 86.1923 110.766 86.2674 110.509L86.2805 110.465C86.3253 110.312 86.4409 110.192 86.5926 110.142L87.4642 109.857C88.5612 109.499 89.5657 108.872 90.3707 108.044L90.7913 107.612C90.8882 107.513 91.0226 107.461 91.1599 107.464C91.2986 107.468 91.4287 107.53 91.5183 107.636L92.4101 108.677C92.5416 108.83 92.7237 108.923 92.9246 108.939C93.1255 108.954 93.3206 108.889 93.4724 108.758L94.3786 107.975C94.4697 107.896 94.5896 107.859 94.7082 107.874C94.8238 107.888 94.9307 107.952 94.9987 108.047C95.6086 108.91 95.7647 110.491 95.8037 111.358C95.8254 111.828 95.5291 112.254 95.0839 112.394C93.4189 112.918 91.9664 113.07 90.8491 113.07ZM91.1425 107.897C91.131 107.897 91.1151 107.9 91.1006 107.914L90.68 108.346C89.8273 109.223 88.7606 109.889 87.5971 110.269L86.7256 110.554C86.7112 110.558 86.6996 110.571 86.6953 110.585L86.6822 110.629C86.6519 110.734 86.6692 110.951 86.821 111.217C86.9988 111.529 87.4714 112.098 88.6291 112.398C89.0873 112.517 91.5443 113.054 94.9539 111.982C95.2111 111.901 95.3831 111.653 95.3701 111.378C95.334 110.564 95.1909 109.086 94.6532 108.31L93.7557 109.084C93.5158 109.292 93.2079 109.394 92.8914 109.369C92.5749 109.344 92.2858 109.199 92.0791 108.957L91.1873 107.916C91.1729 107.9 91.157 107.896 91.144 107.896C91.144 107.897 91.144 107.897 91.1425 107.897Z" fill="black"/>
<path d="M91.566 111.547C91.3883 111.547 91.2105 111.543 91.0327 111.533C90.8795 111.524 90.7379 111.442 90.6555 111.312C90.5731 111.182 90.5572 111.02 90.615 110.877L90.748 110.541L90.7364 110.53L90.3939 110.663C89.3272 111.076 88.1204 111.034 87.0855 110.546L86.8991 110.458C86.7907 110.407 86.7444 110.277 86.795 110.168C86.8456 110.06 86.9757 110.014 87.0841 110.064L87.2705 110.153C88.1999 110.589 89.281 110.628 90.2378 110.257L90.5803 110.124C90.7465 110.059 90.9286 110.098 91.0544 110.225C91.1801 110.352 91.2177 110.534 91.1512 110.7L91.0183 111.036C91.011 111.054 91.0168 111.069 91.0226 111.078C91.0284 111.086 91.0399 111.098 91.0587 111.099C92.3133 111.169 93.5447 110.981 94.7198 110.54L95.4034 110.284C95.5161 110.242 95.6404 110.299 95.6824 110.411C95.7243 110.524 95.6679 110.648 95.5552 110.69L94.8715 110.946C93.8049 111.345 92.6949 111.547 91.566 111.547Z" fill="black"/>
<path d="M99.0326 70.7958C99.0326 70.7958 100.721 76.3789 97.8431 80.3413C93.9638 85.6804 96.181 97.998 94.2399 106.281C94.2023 106.44 94.0592 106.55 93.8959 106.548L91.5443 106.522C91.3882 106.521 91.2524 106.415 91.2119 106.264C90.6584 104.198 86.9453 90.2192 87.0653 87.4326C87.0927 86.797 87.1737 86.056 87.285 85.2759C87.8269 81.4999 88.9688 77.8351 90.6251 74.3985L93.2108 69.0363L99.0326 70.7958Z" fill="black"/>
<path d="M100.854 70.1651C100.854 70.1651 102.977 74.1102 102.037 78.2589C101.098 82.4091 102.51 85.8515 103.507 87.4723C104.492 89.0728 106.295 93.1118 106.93 99.1153C106.946 99.2612 106.892 99.4071 106.787 99.5082C106.456 99.8246 105.635 100.467 104.395 100.521C104.25 100.527 104.112 100.467 104.016 100.359C103.039 99.2497 97.4138 92.7333 95.4149 87.5517C93.2224 81.8674 92.8119 72.4215 92.8119 72.4215C92.8119 72.4215 98.268 72.9964 100.854 70.1651Z" fill="black"/>
<path d="M95.6866 89.312C95.6809 89.312 95.6765 89.312 95.6708 89.312C95.5508 89.3033 95.4612 89.1993 95.4698 89.0808C95.7141 85.7107 96.1492 82.3045 97.6682 80.2142C98.7305 78.7523 99.2812 76.899 99.3087 74.7047C99.3101 74.5848 99.4041 74.4924 99.5284 74.4909C99.6483 74.4924 99.7437 74.5906 99.7423 74.7105C99.7148 76.9958 99.1352 78.9343 98.0194 80.4699C96.564 82.4735 96.1419 85.8075 95.9035 89.1126C95.8933 89.2253 95.7979 89.312 95.6866 89.312Z" fill="#CADDFF"/>
<path d="M96.5293 47.9532C97.5439 48.3331 97.7694 49.5523 98.4863 50.2558C99.3795 51.1312 100.663 50.9708 101.727 50.5418C102.916 50.0622 104.016 49.1189 105.328 49.7242C106.405 50.2211 106.723 51.2236 106.78 52.3215C106.798 52.6985 106.837 53.0856 106.963 53.4424C107.066 53.7342 107.241 54.0101 107.498 54.1806C107.908 54.4522 108.439 54.4146 108.93 54.4161C111.301 54.4204 110.201 56.762 109.403 57.9436C108.406 59.4214 106.754 60.4225 105.018 60.7865C104.333 60.9295 103.594 60.9165 102.962 60.6146C102.47 60.3777 102.074 59.9833 101.646 59.6424C100.53 58.7526 98.9849 59.2062 97.7679 58.4333C95.9165 57.2575 95.0608 54.926 93.7644 53.2474C92.9579 52.203 91.9736 51.0546 91.5906 49.769C91.3261 48.8791 91.5819 46.1533 93.1573 46.8047C93.4493 46.9261 93.6805 47.1558 93.9393 47.3392C94.7935 47.9459 95.6404 47.6195 96.5293 47.9532Z" fill="black"/>
<path d="M101.208 56.684C101.208 56.684 96.1665 54.185 91.5241 55.2178C91.5241 55.2178 88.7447 56.8516 89.2217 59.9516C89.6741 62.8855 89.7767 65.2358 89.7854 66.8334C89.7926 68.213 90.2638 72.2938 90.6005 72.772C91.3232 73.8034 92.6789 73.3296 96.0913 73.0334C100.101 72.6853 100.583 71.9182 101.407 71.0298C101.956 70.4376 101.555 68.2115 101.488 67.8056C101.159 65.7702 100.065 62.546 101.208 56.684Z" fill="#CADDFF"/>
<path d="M93.5852 57.7443L92.3104 56.0787C91.5429 54.822 89.8446 54.351 88.473 53.8122C82.7842 51.5804 82.4099 46.1215 81.9546 43.7148L79.9239 43.8217C79.9239 43.8217 77.3208 57.1766 90.219 61.0667L93.5852 57.7443Z" fill="#CADDFF"/>
<path d="M107.952 42.1548C105.985 48.8257 103.571 52.609 99.498 56.7447C99.498 56.7447 98.1105 67.5268 107.034 54.5649C110.117 50.0868 109.323 42.5983 109.323 42.5983L107.952 42.1548Z" fill="#CADDFF"/>
<path d="M107.984 42.555C107.877 42.4885 107.774 42.4062 107.677 42.3065C107.187 41.8081 106.388 40.5817 107.126 39.9692C107.681 39.5099 108.672 39.7598 109.232 40.0704C109.932 40.4589 109.764 41.5077 109.471 42.1173C109.144 42.7948 108.523 42.8901 107.984 42.555Z" fill="white"/>
<path d="M108.591 42.9594C108.351 42.9594 108.103 42.8843 107.869 42.7384C107.748 42.6632 107.631 42.5679 107.522 42.4581C107.167 42.097 106.574 41.2909 106.61 40.5614C106.626 40.2508 106.754 39.9952 106.988 39.8016C107.689 39.2209 108.832 39.5994 109.338 39.881C110.178 40.3476 109.994 41.5307 109.666 42.2125C109.49 42.578 109.224 42.8221 108.897 42.916C108.797 42.9449 108.695 42.9594 108.591 42.9594ZM107.931 39.933C107.68 39.933 107.442 39.9894 107.265 40.1367C107.126 40.2523 107.054 40.3982 107.045 40.5845C107.018 41.1234 107.501 41.8182 107.833 42.1548C107.917 42.24 108.007 42.3137 108.099 42.37C108.329 42.513 108.569 42.5592 108.776 42.5C108.981 42.4408 109.154 42.2761 109.276 42.0248C109.523 41.5119 109.702 40.5802 109.128 40.261C108.833 40.0977 108.361 39.933 107.931 39.933Z" fill="black"/>
<path d="M80.6494 43.9411C80.5324 43.9266 80.411 43.8963 80.2838 43.85C79.6695 43.6261 78.7676 42.7219 78.9382 41.9996C79.1839 40.9653 81.4314 40.776 81.9965 41.5575C82.6801 42.5052 81.8317 44.0927 80.6494 43.9411Z" fill="white"/>
<path d="M80.8027 44.1677C80.742 44.1677 80.6813 44.1634 80.622 44.1562C80.4876 44.1388 80.3488 44.1042 80.2086 44.0536C79.5655 43.8196 78.5147 42.8431 78.7272 41.9489C78.8457 41.4491 79.353 41.0649 80.0858 40.919C80.8084 40.7745 81.7696 40.8742 82.1729 41.4303C82.5501 41.9532 82.5544 42.6943 82.1815 43.3198C81.8635 43.8557 81.3476 44.1677 80.8027 44.1677ZM80.687 41.2945C80.5179 41.2945 80.343 41.3104 80.1696 41.3451C79.6088 41.4563 79.2272 41.7207 79.1492 42.05C79.0119 42.6278 79.7938 43.4411 80.3575 43.6477C80.4659 43.6867 80.5743 43.7141 80.6769 43.7271C81.1972 43.7936 81.6019 43.4469 81.8086 43.1002C82.0919 42.6235 82.0977 42.0674 81.8202 41.686C81.6424 41.439 81.1915 41.2945 80.687 41.2945Z" fill="black"/>
<path d="M97.9992 55.9012L93.2946 57.2547L92.7353 55.0951L94.2471 54.8712L94.2269 54.2948C93.3886 54.3093 92.8423 53.9698 92.6096 53.7849C92.5272 53.7199 92.4853 53.6173 92.4968 53.5133L92.6442 52.2031C92.4795 52.1078 92.2511 51.8088 92.533 51.5589C92.8162 51.309 93.3207 49.9236 93.3207 49.9236C94.0318 48.7738 94.5087 50.1605 95.1779 50.1779C95.6419 50.1894 95.9295 50.4249 95.8514 51.0403C95.7734 51.6556 96.0509 51.309 96.3559 51.0894C96.6608 50.8698 96.9065 50.9637 96.8097 51.5285C96.7129 52.0919 96.1 52.518 96.1 52.518L96.0408 52.7015C96.2402 53.4714 96.7186 55.4721 96.7186 55.4721L97.9992 55.9012Z" fill="white"/>
<path d="M93.2946 57.4713C93.257 57.4713 93.2209 57.4612 93.1877 57.4424C93.1371 57.4135 93.0995 57.3658 93.085 57.3081L92.5257 55.1485C92.5098 55.0892 92.5214 55.0257 92.5546 54.9751C92.5879 54.9246 92.6428 54.8899 92.7035 54.8798L94.0231 54.6848L94.0173 54.5071C93.2383 54.4681 92.7223 54.1503 92.4751 53.9524C92.3349 53.8411 92.2627 53.6663 92.2829 53.4872L92.4159 52.2998C92.3017 52.1958 92.2034 52.0441 92.1861 51.8722C92.1745 51.748 92.1991 51.5631 92.3898 51.3941C92.5561 51.2467 92.9159 50.4002 93.1168 49.847C93.1226 49.8325 93.1284 49.8195 93.1356 49.8065C93.3409 49.4743 93.5591 49.2937 93.799 49.2561C94.1329 49.2027 94.409 49.4367 94.6503 49.6418C94.831 49.795 95.0189 49.9539 95.1822 49.9582C95.493 49.9654 95.7285 50.0608 95.8832 50.2413C96.0436 50.4277 96.1058 50.6949 96.0696 51.0344C96.1202 50.9925 96.1737 50.9506 96.2286 50.9101C96.5321 50.6906 96.7388 50.7585 96.8357 50.8191C97.025 50.9376 97.0871 51.1875 97.0235 51.5616C96.931 52.1005 96.457 52.5136 96.285 52.6465L96.2662 52.7057C96.4425 53.3919 96.7995 54.8754 96.9007 55.303L98.0671 55.6931C98.1567 55.7234 98.2174 55.8086 98.2145 55.9025C98.2131 55.9979 98.1495 56.0802 98.0584 56.1062L93.3539 57.4597C93.3351 57.4684 93.3149 57.4713 93.2946 57.4713ZM93.0056 55.2741L93.4493 56.9845L97.2707 55.8852L96.6507 55.6772C96.5798 55.654 96.5264 55.5948 96.509 55.5226C96.5047 55.5024 96.0292 53.5147 95.8326 52.7548C95.8225 52.7144 95.8239 52.6725 95.8369 52.6335L95.8962 52.45C95.9107 52.4053 95.9396 52.3663 95.9786 52.3388C95.9844 52.3359 96.5177 51.956 96.5986 51.4894C96.6275 51.319 96.616 51.2337 96.6059 51.1991C96.5842 51.2048 96.5437 51.2222 96.4859 51.2641C96.4339 51.3016 96.3833 51.3421 96.3356 51.3825C96.1506 51.5328 95.9757 51.6743 95.7849 51.5689C95.584 51.4576 95.6201 51.1673 95.6389 51.0127C95.6678 50.7859 95.6404 50.6212 95.558 50.5259C95.4857 50.4421 95.3571 50.3973 95.175 50.393C94.8585 50.3858 94.5997 50.1677 94.3728 49.9741C94.1922 49.821 94.0057 49.6635 93.8684 49.6852C93.7658 49.7011 93.6444 49.8166 93.5172 50.0174C93.4131 50.3006 92.9766 51.4547 92.6775 51.7205C92.6124 51.7783 92.6168 51.8173 92.6182 51.8318C92.624 51.8982 92.6934 51.9806 92.7541 52.0167C92.8278 52.06 92.8697 52.1423 92.861 52.2276L92.7136 53.5378C92.7107 53.5681 92.7223 53.597 92.7454 53.6143C92.9261 53.7588 93.4348 54.0925 94.224 54.078C94.3468 54.0766 94.4408 54.1691 94.4437 54.2875L94.4653 54.8639C94.4697 54.9737 94.3902 55.0705 94.2803 55.0863L93.0056 55.2741Z" fill="black"/>
<path d="M94.3093 54.5164C94.2746 54.5164 94.2399 54.515 94.2037 54.5107C94.0852 54.4976 93.9985 54.3921 94.0115 54.2722C94.0245 54.1537 94.13 54.0669 94.25 54.0799C94.7674 54.1349 95.0868 53.4194 95.0897 53.4122C95.1374 53.3023 95.2646 53.2518 95.3744 53.2995C95.4843 53.3472 95.5349 53.4743 95.4872 53.5842C95.4698 53.6232 95.0767 54.5164 94.3093 54.5164Z" fill="black"/>
</g>
<defs>
<clipPath id="clip0_1_1277">
<rect width="120" height="120" fill="white"/>
</clipPath>
</defs>
</svg>
