<svg width="100" height="64" viewBox="0 0 100 64" fill="none" xmlns="http://www.w3.org/2000/svg">
<g id="Group">
<path id="Vector" d="M94 0H6C2.68629 0 0 2.68629 0 6V58C0 61.3137 2.68629 64 6 64H94C97.3137 64 100 61.3137 100 58V6C100 2.68629 97.3137 0 94 0Z" fill="white"/>
<path id="Skrill" fill-rule="evenodd" clip-rule="evenodd" d="M61.1523 23.6031C61.1523 22.1001 62.3779 20.8809 63.8869 20.8809C65.3987 20.8809 66.6234 22.1001 66.6234 23.6031C66.6234 25.107 65.3987 26.3235 63.8869 26.3235C62.3779 26.3235 61.1523 25.107 61.1523 23.6031ZM69.0151 23.1059L74.5618 22.1184V43.3046H69.0151V23.1059ZM77.1166 23.1059V43.3046H82.6668V22.1184L77.1166 23.1059ZM61.1139 27.8099V43.306H66.6632V27.8099H61.1139ZM50.2517 34.588C50.2517 30.0365 52.8566 27.7467 57.9838 27.5822C57.9838 27.5822 58.9098 27.5469 59.4564 27.6627V32.192C56.2063 32.3034 55.8472 33.4714 55.8472 36.1954V43.3055H50.2517V34.588ZM42.9285 27.7909C42.9216 27.8084 42.9122 27.8328 42.9003 27.8639C42.7017 28.3828 41.7974 30.7441 39.7682 33.1858V22.1184L34.0411 23.2456V43.3046H39.7682V37.1034C41.4266 39.5789 42.246 43.3046 42.246 43.3046H49.1044C48.4263 40.4984 45.4588 35.3254 45.4588 35.3254C48.1232 31.964 49.2919 28.3841 49.4785 27.7909H42.9285ZM22.1119 28.3956C22.1119 29.85 23.7365 29.9552 24.4377 30.0003C29.5808 30.3434 32.6461 32.8481 32.6461 36.702C32.6461 40.1023 29.9052 43.5318 23.7907 43.5318C20.9556 43.5318 18.5365 43.2542 16.391 42.6928V37.7435C17.8237 38.3296 20.1842 38.945 22.6158 38.945C24.8349 38.945 26.1547 38.2147 26.1547 36.9734C26.1547 35.4758 24.5542 35.3782 23.9404 35.3408L23.9338 35.3404C16.7714 34.855 16 30.6395 16 28.8501C16 25.7424 18.2165 22.1184 24.4723 22.1184C28.1011 22.1184 30.0572 22.6815 31.7422 23.2677L31.8267 23.2934V28.1003L31.7636 28.0827C31.0872 27.798 30.2927 27.5186 30.2927 27.5186C28.8654 27.0933 26.8693 26.6407 25.3264 26.6407C24.4492 26.6407 22.1119 26.6407 22.1119 28.3956Z" fill="#862165"/>
</g>
</svg>
