<svg width="100" height="64" viewBox="0 0 100 64" fill="none" xmlns="http://www.w3.org/2000/svg">
<g id="Group">
<path id="Vector" d="M94 0H6C2.68629 0 0 2.68629 0 6V58C0 61.3137 2.68629 64 6 64H94C97.3137 64 100 61.3137 100 58V6C100 2.68629 97.3137 0 94 0Z" fill="white"/>
<path id="Vector_2" d="M58.7261 47.7278H41.2281V16.2817H58.7261V47.7278Z" fill="#FF5F00"/>
<path id="Vector_3" d="M42.3499 32.0015C42.3499 25.6235 45.3359 19.9395 49.9879 16.2775C46.5859 13.6015 42.2939 12.0015 37.628 12.0015C26.584 12.0015 17.63 20.9555 17.63 32.0015C17.63 43.0475 26.584 52.0015 37.628 52.0015C42.2939 52.0015 46.5859 50.4035 49.9879 47.7255C45.3359 44.0635 42.3499 38.3815 42.3499 32.0015Z" fill="#EB001B"/>
<path id="Vector_4" d="M82.3259 32.0015C82.3259 43.0475 73.3739 52.0015 62.3279 52.0015C57.6639 52.0015 53.37 50.4035 49.968 47.7255C54.62 44.0635 57.6079 38.3815 57.6079 32.0015C57.6079 25.6235 54.62 19.9395 49.968 16.2775C53.37 13.6015 57.6639 12.0015 62.3279 12.0015C73.3739 12.0015 82.3259 20.9555 82.3259 32.0015Z" fill="#F79E1B"/>
<path id="Vector_5" d="M32.6781 32.1301C32.6781 31.2561 33.2501 30.5381 34.1861 30.5381C35.0801 30.5381 35.6842 31.2241 35.6842 32.1301C35.6842 33.0341 35.0801 33.72 34.1861 33.72C33.2501 33.72 32.6781 33.0021 32.6781 32.1301ZM36.7022 32.1301V29.644H35.6221V30.248C35.2781 29.8 34.7581 29.5201 34.0521 29.5201C32.6581 29.5201 31.5661 30.6121 31.5661 32.1301C31.5661 33.6481 32.6581 34.7401 34.0521 34.7401C34.7581 34.7401 35.2781 34.4581 35.6221 34.0101V34.6141H36.7022V32.1301ZM73.2221 32.1301C73.2221 31.2561 73.7941 30.5381 74.7301 30.5381C75.6241 30.5381 76.2262 31.2241 76.2262 32.1301C76.2262 33.0341 75.6241 33.72 74.7301 33.72C73.7941 33.72 73.2221 33.0021 73.2221 32.1301ZM77.2461 32.1301V27.6481H76.1662V30.248C75.8222 29.8 75.3022 29.5201 74.5962 29.5201C73.2022 29.5201 72.1081 30.6121 72.1081 32.1301C72.1081 33.6481 73.2022 34.7401 74.5962 34.7401C75.3022 34.7401 75.8222 34.4581 76.1662 34.0101V34.6141H77.2461V32.1301ZM50.1162 30.4861C50.8122 30.4861 51.2602 30.9241 51.3742 31.6921H48.7962C48.9122 30.9741 49.3462 30.4861 50.1162 30.4861ZM50.1381 29.5201C48.6821 29.5201 47.6621 30.5801 47.6621 32.1301C47.6621 33.7101 48.7242 34.7401 50.2102 34.7401C50.9602 34.7401 51.6441 34.5521 52.2481 34.0441L51.7182 33.2421C51.3022 33.5741 50.7721 33.7621 50.2721 33.7621C49.5761 33.7621 48.9421 33.4401 48.7861 32.5441H52.4762C52.4882 32.4101 52.4981 32.2741 52.4981 32.1301C52.4881 30.5801 51.5301 29.5201 50.1381 29.5201ZM63.1881 32.1301C63.1881 31.2561 63.7601 30.5381 64.6961 30.5381C65.5901 30.5381 66.1922 31.2241 66.1922 32.1301C66.1922 33.0341 65.5901 33.72 64.6961 33.72C63.7601 33.72 63.1881 33.0021 63.1881 32.1301ZM67.2121 32.1301V29.644H66.1302V30.248C65.7862 29.8 65.2681 29.5201 64.5601 29.5201C63.1681 29.5201 62.0741 30.6121 62.0741 32.1301C62.0741 33.6481 63.1681 34.7401 64.5601 34.7401C65.2681 34.7401 65.7862 34.4581 66.1302 34.0101V34.6141H67.2121V32.1301ZM57.0841 32.1301C57.0841 33.6381 58.1342 34.7401 59.7362 34.7401C60.4842 34.7401 60.9841 34.5721 61.5241 34.1461L61.0042 33.272C60.5982 33.564 60.1721 33.72 59.7041 33.72C58.8401 33.71 58.2061 33.0861 58.2061 32.1301C58.2061 31.1721 58.8401 30.5481 59.7041 30.5381C60.1721 30.5381 60.5982 30.6941 61.0042 30.9861L61.5241 30.1121C60.9841 29.6861 60.4842 29.5201 59.7362 29.5201C58.1342 29.5201 57.0841 30.6221 57.0841 32.1301ZM71.0182 29.5201C70.3942 29.5201 69.9882 29.81 69.7082 30.248V29.644H68.6361V34.6141H69.7182V31.8281C69.7182 31.0061 70.0722 30.548 70.7782 30.548C70.9982 30.548 71.2261 30.5801 71.4541 30.6741L71.7882 29.6541C71.5482 29.5601 71.2362 29.5201 71.0182 29.5201ZM42.0481 30.04C41.5281 29.696 40.8102 29.5201 40.0202 29.5201C38.7622 29.5201 37.9501 30.122 37.9501 31.11C37.9501 31.92 38.5541 32.42 39.6661 32.576L40.1762 32.6501C40.7702 32.7321 41.0481 32.888 41.0481 33.17C41.0481 33.554 40.6541 33.772 39.9161 33.772C39.1681 33.772 38.6262 33.5341 38.2622 33.2521L37.7542 34.0941C38.3462 34.5301 39.0941 34.7401 39.9041 34.7401C41.3401 34.7401 42.1721 34.064 42.1721 33.118C42.1721 32.244 41.5181 31.7861 40.4361 31.6301L39.9262 31.5561C39.4582 31.4941 39.0841 31.4021 39.0841 31.0681C39.0841 30.7041 39.4382 30.4861 40.0302 30.4861C40.6642 30.4861 41.2782 30.726 41.5802 30.912L42.0481 30.04ZM55.9921 29.5201C55.3681 29.5201 54.9621 29.81 54.6821 30.248V29.644H53.6121V34.6141H54.6922V31.8281C54.6922 31.0061 55.0462 30.548 55.7522 30.548C55.9722 30.548 56.2001 30.5801 56.4281 30.6741L56.7622 29.6541C56.5222 29.5601 56.2101 29.5201 55.9921 29.5201ZM46.7681 29.644H45.0021V28.136H43.9082V29.644H42.9002V30.6321H43.9082V32.9001C43.9082 34.0521 44.3561 34.7401 45.6341 34.7401C46.1041 34.7401 46.6442 34.5941 46.9862 34.3541L46.6741 33.428C46.3521 33.616 45.9982 33.7101 45.7182 33.7101C45.1782 33.7101 45.0021 33.3761 45.0021 32.8781V30.6321H46.7681V29.644ZM30.6101 34.6141V31.4941C30.6101 30.3201 29.8621 29.5301 28.6541 29.5201C28.0201 29.5081 27.3661 29.7061 26.9061 30.4041C26.5641 29.8521 26.0241 29.5201 25.2641 29.5201C24.7341 29.5201 24.2141 29.6761 23.8081 30.2581V29.644H22.7281V34.6141H23.8181V31.86C23.8181 30.996 24.2961 30.5381 25.0361 30.5381C25.7541 30.5381 26.1162 31.0061 26.1162 31.8481V34.6141H27.2101V31.86C27.2101 30.996 27.7082 30.5381 28.4262 30.5381C29.1642 30.5381 29.5181 31.0061 29.5181 31.8481V34.6141H30.6101Z" fill="white"/>
</g>
</svg>
