<svg width="100" height="64" viewBox="0 0 100 64" fill="none" xmlns="http://www.w3.org/2000/svg">
<g id="Group">
<path id="Vector" d="M94 0H6C2.68629 0 0 2.68629 0 6V58C0 61.3137 2.68629 64 6 64H94C97.3137 64 100 61.3137 100 58V6C100 2.68629 97.3137 0 94 0Z" fill="white"/>
<g id="Group 63">
<g id="Group 163">
<path id="Vector_2" d="M34.2689 35.2257C32.488 42.368 25.2516 46.7147 18.1074 44.9335C10.965 43.1533 6.61705 35.9163 8.39968 28.775C10.1805 21.6307 17.4151 17.284 24.5566 19.0652C31.7018 20.8454 36.0478 28.0814 34.2679 35.2257H34.2689Z" fill="#F7931A"/>
<path id="Vector_3" d="M27.2114 30.1001C27.4763 28.3258 26.1247 27.3718 24.2781 26.7348L24.8772 24.3332L23.4142 23.9674L22.8306 26.3085C22.4471 26.2119 22.0507 26.1212 21.659 26.0315L22.2462 23.6777L20.7832 23.3129L20.1841 25.7154C19.8654 25.6423 19.553 25.5711 19.2489 25.4959L19.2508 25.4881L17.2325 24.9848L16.8444 26.5465C16.8444 26.5465 17.9293 26.7962 17.9065 26.8109C18.4992 26.9591 18.606 27.3513 18.5887 27.6625L17.9065 30.4006C17.9467 30.4103 17.9996 30.4259 18.0581 30.4493L17.9028 30.4103L16.9467 34.2458C16.8736 34.4263 16.691 34.6965 16.2764 34.5941C16.291 34.6155 15.2134 34.3278 15.2134 34.3278L14.4864 36.0027L16.3905 36.4767C16.7439 36.5665 17.0919 36.6601 17.4334 36.7469L16.828 39.1778L18.2891 39.5426L18.8891 37.1371C19.2882 37.2454 19.6763 37.3459 20.0544 37.4395L19.4572 39.8343L20.9211 40.1981L21.5265 37.7721C24.0206 38.2443 25.8973 38.0531 26.6863 35.7968C27.3237 33.9805 26.6553 32.9329 25.342 32.2491C26.2982 32.0276 27.0178 31.4004 27.2105 30.1011L27.2114 30.1001ZM23.8681 34.7872C23.416 36.6035 20.3567 35.6222 19.3658 35.3754L20.1695 32.1545C21.1603 32.4022 24.3402 32.8919 23.8681 34.7882V34.7872ZM24.321 30.0738C23.9083 31.7262 21.3622 30.8864 20.5357 30.6815L21.2644 27.76C22.0909 27.9658 24.7503 28.3511 24.321 30.0738Z" fill="white"/>
</g>
<g id="Group_2">
<g id="Bitcoin">
<path d="M40.8594 37.334V25.959H44.9453C46.4089 25.959 47.5208 26.2272 48.2812 26.7637C49.0469 27.3001 49.4297 28.0788 49.4297 29.0996C49.4297 29.6882 49.2943 30.1908 49.0234 30.6074C48.7526 31.0241 48.3542 31.3314 47.8281 31.5293C48.4219 31.6855 48.8776 31.9772 49.1953 32.4043C49.513 32.8314 49.6719 33.3522 49.6719 33.9668C49.6719 35.0814 49.3177 35.9199 48.6094 36.4824C47.9062 37.0397 46.862 37.3236 45.4766 37.334H40.8594ZM43.6016 32.498V35.2246H45.3984C45.8932 35.2246 46.2734 35.1126 46.5391 34.8887C46.8047 34.6595 46.9375 34.3392 46.9375 33.9277C46.9375 32.9798 46.4661 32.5033 45.5234 32.498H43.6016ZM43.6016 30.7012H45.0312C45.6302 30.696 46.0573 30.5866 46.3125 30.373C46.5677 30.1595 46.6953 29.8444 46.6953 29.4277C46.6953 28.9486 46.5573 28.6048 46.2812 28.3965C46.0052 28.1829 45.5599 28.0762 44.9453 28.0762H43.6016V30.7012Z" fill="#222222"/>
<path d="M53.8438 37.334H51.2031V28.8809H53.8438V37.334ZM51.0469 26.7012C51.0469 26.3262 51.1823 26.0189 51.4531 25.7793C51.724 25.5397 52.0755 25.4199 52.5078 25.4199C52.9401 25.4199 53.2917 25.5397 53.5625 25.7793C53.8333 26.0189 53.9688 26.3262 53.9688 26.7012C53.9688 27.0762 53.8333 27.3835 53.5625 27.623C53.2917 27.8626 52.9401 27.9824 52.5078 27.9824C52.0755 27.9824 51.724 27.8626 51.4531 27.623C51.1823 27.3835 51.0469 27.0762 51.0469 26.7012Z" fill="#222222"/>
<path d="M58.5391 26.7793V28.8809H59.9297V30.709H58.5391V34.5762C58.5391 34.8939 58.5964 35.1152 58.7109 35.2402C58.8255 35.3652 59.0521 35.4277 59.3906 35.4277C59.651 35.4277 59.8698 35.4121 60.0469 35.3809V37.2637C59.5729 37.4147 59.0781 37.4902 58.5625 37.4902C57.6562 37.4902 56.987 37.2767 56.5547 36.8496C56.1224 36.4225 55.9062 35.7741 55.9062 34.9043V30.709H54.8281V28.8809H55.9062V26.7793H58.5391Z" fill="#222222"/>
<path d="M64.5469 35.459C64.9167 35.459 65.2031 35.36 65.4062 35.1621C65.6094 34.959 65.7083 34.6777 65.7031 34.3184H68.1719C68.1719 35.2454 67.8385 36.0059 67.1719 36.5996C66.5104 37.1934 65.6562 37.4902 64.6094 37.4902C63.3802 37.4902 62.4115 37.1048 61.7031 36.334C60.9948 35.5632 60.6406 34.4954 60.6406 33.1309V33.0215C60.6406 32.1673 60.7969 31.4147 61.1094 30.7637C61.4271 30.1074 61.8828 29.6048 62.4766 29.2559C63.0703 28.9017 63.7734 28.7246 64.5859 28.7246C65.6849 28.7246 66.5573 29.0293 67.2031 29.6387C67.849 30.248 68.1719 31.0736 68.1719 32.1152H65.7031C65.7031 31.6777 65.5964 31.3418 65.3828 31.1074C65.1693 30.873 64.8828 30.7559 64.5234 30.7559C63.8411 30.7559 63.4427 31.1908 63.3281 32.0605C63.2917 32.3366 63.2734 32.7168 63.2734 33.2012C63.2734 34.0501 63.375 34.6387 63.5781 34.9668C63.7812 35.2949 64.1042 35.459 64.5469 35.459Z" fill="#222222"/>
<path d="M68.9531 33.0293C68.9531 32.1855 69.1172 31.4355 69.4453 30.7793C69.7734 30.1178 70.2448 29.61 70.8594 29.2559C71.474 28.9017 72.1953 28.7246 73.0234 28.7246C74.2891 28.7246 75.2865 29.1178 76.0156 29.9043C76.7448 30.6855 77.1094 31.7507 77.1094 33.0996V33.1934C77.1094 34.5111 76.7422 35.5579 76.0078 36.334C75.2786 37.1048 74.2891 37.4902 73.0391 37.4902C71.8359 37.4902 70.8698 37.1309 70.1406 36.4121C69.4115 35.6882 69.0182 34.709 68.9609 33.4746L68.9531 33.0293ZM71.5859 33.1934C71.5859 33.9746 71.7083 34.5475 71.9531 34.9121C72.1979 35.2767 72.5599 35.459 73.0391 35.459C73.9766 35.459 74.4557 34.7376 74.4766 33.2949V33.0293C74.4766 31.5137 73.9922 30.7559 73.0234 30.7559C72.1432 30.7559 71.6667 31.4095 71.5938 32.7168L71.5859 33.1934Z" fill="#222222"/>
<path d="M81.0469 37.334H78.4062V28.8809H81.0469V37.334ZM78.25 26.7012C78.25 26.3262 78.3854 26.0189 78.6562 25.7793C78.9271 25.5397 79.2786 25.4199 79.7109 25.4199C80.1432 25.4199 80.4948 25.5397 80.7656 25.7793C81.0365 26.0189 81.1719 26.3262 81.1719 26.7012C81.1719 27.0762 81.0365 27.3835 80.7656 27.623C80.4948 27.8626 80.1432 27.9824 79.7109 27.9824C79.2786 27.9824 78.9271 27.8626 78.6562 27.623C78.3854 27.3835 78.25 27.0762 78.25 26.7012Z" fill="#222222"/>
<path d="M85.0938 28.8809L85.1797 29.873C85.763 29.1074 86.5677 28.7246 87.5938 28.7246C88.474 28.7246 89.1302 28.9876 89.5625 29.5137C90 30.0397 90.2266 30.8314 90.2422 31.8887V37.334H87.6016V31.998C87.6016 31.571 87.5156 31.2585 87.3438 31.0605C87.1719 30.8574 86.8594 30.7559 86.4062 30.7559C85.8906 30.7559 85.5078 30.959 85.2578 31.3652V37.334H82.625V28.8809H85.0938Z" fill="#222222"/>
</g>
</g>
</g>
</g>
</svg>
