<svg width="236" height="60" viewBox="0 0 236 60" fill="none" xmlns="http://www.w3.org/2000/svg">
<path d="M108.011 16.0795L107.587 18.3286H115.565L114.655 22.9117H106.642L106.16 25.3816H115.62L114.655 30.1923H98.9216L102.697 11.3164H118.45L117.485 16.0795H108.011Z" fill="#111237"/>
<path d="M144.418 11.3301L140.691 30.2026H134.89L136.565 21.597L131.251 28.4937H128.451L125.542 21.7533L123.833 30.2468H118.036L121.811 11.3742H126.993L131.071 21.349L138.937 11.3301H144.418Z" fill="#111237"/>
<path d="M166.849 11.3301L163.074 30.2026H156.815L159.543 16.2597H153.79L151.072 30.2026H144.813L148.588 11.3301H166.849Z" fill="#111237"/>
<path d="M170.995 11.3301H177.254L175.232 21.135L183.67 11.3301H189.739L185.963 30.2026H179.704L181.76 20.4079L173.319 30.2026H167.22L170.995 11.3301Z" fill="#111237"/>
<path d="M201.075 25.5414C202.009 25.5583 202.923 25.2831 203.691 24.7566C204.449 24.23 205.044 23.5029 205.411 22.657C205.815 21.7499 206.019 20.7646 206.005 19.7692C206.046 19.2732 205.975 18.7771 205.805 18.3117C205.631 17.8463 205.363 17.425 205.01 17.0716C204.66 16.7217 204.235 16.4499 203.769 16.2801C203.304 16.1102 202.804 16.0422 202.312 16.083C201.374 16.0626 200.449 16.3344 199.671 16.8576C198.927 17.3944 198.343 18.118 197.976 18.9572C197.575 19.8541 197.371 20.8292 197.367 21.811C197.32 22.307 197.384 22.8065 197.551 23.2753C197.721 23.7441 197.993 24.1688 198.346 24.5221C198.699 24.8721 199.128 25.1405 199.596 25.3069C200.065 25.4734 200.568 25.5346 201.064 25.4836L201.075 25.5414ZM200.538 30.685C198.791 30.7258 197.055 30.3622 195.471 29.6284C194.088 28.9693 192.919 27.9331 192.1 26.6387C191.326 25.3069 190.935 23.7849 190.976 22.2459C190.942 20.1939 191.461 18.1724 192.481 16.3922C193.49 14.6833 194.958 13.2904 196.718 12.3697C198.621 11.4014 200.731 10.9122 202.865 10.9428C204.612 10.9156 206.342 11.2995 207.912 12.0673C209.301 12.7026 210.474 13.7354 211.282 15.0332C212.081 16.3582 212.492 17.8802 212.462 19.426C212.455 21.4645 211.901 23.4621 210.854 25.2118C209.845 26.9139 208.377 28.2966 206.617 29.2003C204.741 30.189 202.655 30.6986 200.538 30.685Z" fill="#111237"/>
<path d="M236 11.3301L232.201 30.2026H225.83L227.236 23.2379H221.358L219.954 30.2026H213.593L217.368 11.3301H223.73L222.381 18.0127H228.259L229.605 11.3301H236Z" fill="#111237"/>
<path d="M83.8002 44.0538L86.9128 49.7172H83.1715L81.1327 45.4297H79.2909L78.4278 49.7172H75.1487L77.4118 38.4243H80.6875L79.8142 42.807H81.4691L85.4448 38.4243H89.0468L83.8002 44.0538Z" fill="#E91E63"/>
<path d="M109.524 47.1759C110.125 47.1895 110.72 47.0264 111.233 46.7104C111.746 46.3945 112.157 45.9358 112.415 45.3922C112.704 44.7909 112.85 44.125 112.837 43.4557C112.854 43.1228 112.803 42.7864 112.684 42.4739C112.565 42.1613 112.385 41.8759 112.15 41.6381C111.899 41.4037 111.6 41.2236 111.274 41.1081C110.947 40.9926 110.604 40.9417 110.261 40.962C109.656 40.9519 109.065 41.1149 108.548 41.4309C108.035 41.7468 107.621 42.2021 107.356 42.7457C107.067 43.347 106.921 44.0129 106.934 44.6822C106.917 45.0151 106.968 45.3481 107.084 45.6606C107.199 45.9732 107.379 46.2586 107.611 46.4998C107.869 46.7342 108.171 46.9143 108.497 47.0298C108.827 47.1487 109.177 47.1963 109.524 47.1759ZM117.149 38.4242L114.91 49.7205H111.855L112.065 48.5552C111.27 49.2347 110.292 49.6628 109.255 49.7851C108.215 49.904 107.165 49.7137 106.238 49.2313C105.494 48.8236 104.875 48.2189 104.454 47.4816C103.971 46.6765 103.71 45.7626 103.696 44.8249C103.676 43.6528 103.958 42.4977 104.512 41.4683C105.042 40.5034 105.823 39.6982 106.775 39.1376C107.723 38.5601 108.813 38.2611 109.921 38.2747C110.628 38.2034 111.345 38.3257 111.991 38.6246C112.636 38.9236 113.19 39.3924 113.595 39.9768L113.897 38.4378L117.149 38.4242Z" fill="#E91E63"/>
<path d="M142.07 43.9246C142.584 44.1013 143.039 44.4206 143.375 44.8453C143.691 45.236 143.861 45.7286 143.854 46.2314C143.868 46.9313 143.61 47.6074 143.131 48.1204C142.533 48.7319 141.792 49.1871 140.973 49.4386C139.974 49.7783 138.927 49.9414 137.87 49.9278C136.243 49.9414 134.639 49.5405 133.208 48.7625L134.292 46.561C134.819 46.8429 135.38 47.0536 135.961 47.1895C136.62 47.3288 137.293 47.4001 137.966 47.4001C138.659 47.4341 139.352 47.3016 139.984 47.0162C140.205 46.9347 140.392 46.7886 140.528 46.5983C140.664 46.4081 140.738 46.1805 140.742 45.946C140.742 45.2937 140.218 44.9676 139.168 44.9676H136.837L137.153 42.9291H139.09C139.59 42.9563 140.086 42.8544 140.535 42.637C140.698 42.5588 140.834 42.4365 140.932 42.2836C141.027 42.1308 141.082 41.9541 141.082 41.774C141.082 41.0742 140.453 40.7242 139.206 40.7242C138.676 40.7276 138.146 40.7956 137.633 40.9349C137.011 41.1048 136.402 41.3222 135.815 41.5872L135.115 39.1275C136.508 38.5329 138.006 38.2204 139.522 38.2068C140.351 38.1864 141.18 38.3087 141.972 38.5669C142.621 38.7673 143.209 39.1343 143.674 39.6269C144.065 40.0651 144.283 40.6359 144.283 41.2237C144.283 41.8114 144.065 42.3822 143.674 42.8204C143.246 43.3266 142.696 43.7106 142.07 43.9246Z" fill="#E91E63"/>
<path d="M162.272 38.4243H165.551L164.138 45.2904L170.961 38.4243H174.06L171.81 49.7172H168.524L169.945 42.8307L163.125 49.7172H160.07L162.272 38.4243Z" fill="#E91E63"/>
<path d="M190.816 38.4243H194.071L193.184 42.8307H198.091L198.978 38.4243H202.23L199.98 49.7172H196.705L197.544 45.4977H192.661L191.822 49.7172H188.542L190.816 38.4243Z" fill="#E91E63"/>
<path d="M223.359 47.1758C223.961 47.186 224.548 47.0229 225.062 46.7104C225.564 46.3876 225.969 45.9324 226.227 45.3922C226.516 44.7908 226.662 44.1249 226.648 43.4557C226.665 43.1227 226.618 42.7898 226.502 42.4772C226.387 42.1646 226.21 41.8793 225.982 41.6347C225.731 41.4002 225.432 41.2202 225.106 41.1047C224.78 40.9891 224.436 40.9382 224.093 40.9586C223.488 40.9484 222.897 41.1115 222.38 41.4274C221.867 41.7434 221.453 42.1986 221.188 42.7422C220.899 43.3435 220.753 44.0094 220.766 44.6787C220.749 45.0117 220.8 45.3446 220.919 45.6572C221.035 45.9697 221.215 46.2551 221.443 46.4963C221.701 46.7307 222.003 46.9108 222.33 47.0263C222.663 47.1486 223.013 47.1962 223.359 47.1758ZM223.148 49.8801C222.112 49.9005 221.082 49.6865 220.141 49.2516C219.326 48.8643 218.632 48.2528 218.146 47.4918C217.678 46.6798 217.44 45.7591 217.46 44.8214C217.44 43.6595 217.735 42.5146 218.32 41.509C218.904 40.5033 219.75 39.6778 220.77 39.1206C221.84 38.5328 223.047 38.2339 224.266 38.2576C225.299 38.2339 226.326 38.4479 227.264 38.8862C228.082 39.2735 228.772 39.8952 229.245 40.6698C229.727 41.4682 229.975 42.3855 229.955 43.3164C229.972 44.4953 229.666 45.6572 229.068 46.673C228.49 47.6616 227.644 48.4702 226.631 49.0036C225.568 49.5913 224.368 49.8937 223.148 49.8801Z" fill="#E91E63"/>
<path d="M98.5887 11.3266L94.8134 30.1992H88.5541L89.492 25.3986C88.4828 25.6738 87.4396 25.8199 86.3896 25.8267C84.3983 25.966 82.4172 25.4258 80.7726 24.2979C80.1303 23.7611 79.6206 23.0816 79.2876 22.3104C78.9546 21.5392 78.8051 20.7068 78.8492 19.8711C78.8866 19.1984 78.9784 18.5291 79.1313 17.87L80.5075 11.3232H86.7668L85.4687 17.6594C85.3871 18.0705 85.343 18.4883 85.3328 18.9062C85.309 19.1712 85.343 19.4362 85.4279 19.6842C85.5129 19.9322 85.6556 20.1633 85.8357 20.3535C86.3216 20.6831 86.9027 20.8359 87.4872 20.7918C88.5711 20.819 89.6449 20.6015 90.6338 20.1633L92.428 11.3232H98.5887V11.3266Z" fill="#111237"/>
<path d="M30.046 20.34C32.3397 20.3977 34.6368 20.4045 36.9271 20.5234C44.6748 20.9209 52.334 21.9605 59.8981 23.6966C60.1224 23.7475 60.3637 23.7883 60.4486 24.0533C60.5438 24.3455 60.3331 24.5086 60.153 24.6716C57.7234 26.8663 55.3141 29.0814 52.8233 31.2048C49.5272 34.0213 46.1393 36.7188 42.6529 39.2974C36.8796 43.5713 30.8718 47.4817 24.6363 51.049C21.1669 53.0331 17.6397 54.9016 14.0445 56.6513C11.9445 57.6739 9.8207 58.6489 7.68671 59.6036C6.96631 59.9264 6.31049 59.872 5.71243 59.359C5.10417 58.8392 4.99543 58.1597 5.2163 57.4293C5.70902 55.8053 6.22214 54.1848 6.72505 52.5642C8.17603 47.9064 9.62701 43.252 11.0848 38.5975C11.1697 38.3291 11.1188 38.1355 10.9353 37.9317C9.05953 35.8389 7.18379 33.7461 5.31485 31.6465C3.70756 29.8425 2.09008 28.0452 0.513369 26.214C-0.492462 25.0453 0.0444348 23.5913 1.55998 23.2855C3.50368 22.8914 5.45417 22.5381 7.41146 22.2153C10.7756 21.6615 14.1566 21.2437 17.5513 20.9345C19.2945 20.7748 21.0411 20.6593 22.7912 20.571C24.745 20.4725 26.6989 20.4147 28.6528 20.4011C29.1218 20.3943 29.5839 20.3298 30.046 20.34Z" fill="url(#paint0_linear_15_129)"/>
<path d="M32.1801 53.4541C33.3082 54.1438 34.5587 54.8844 35.4558 55.3465C38.3679 56.8549 41.3311 58.2377 44.2568 59.7223C45.7214 60.4664 47.0228 59.6544 47.0262 58.0066C47.0296 56.4574 47.1044 53.5629 47.0874 52.8222C47.0874 49.0545 47.1248 45.2936 47.1282 41.5293L32.1801 53.4541Z" fill="url(#paint1_linear_15_129)"/>
<path d="M47.1281 40.4186C47.1281 40.3167 47.1417 40.2011 47.1315 40.1162C46.3636 40.7108 45.548 41.2475 44.8141 41.8149C40.1383 45.4161 35.1941 48.6131 30.0222 51.4499C29.8421 51.5484 29.6552 51.6402 29.4717 51.7353C29.4717 51.7489 30.7222 52.5575 32.1834 53.451L47.1281 41.5261C47.1281 41.1558 47.1281 40.7889 47.1281 40.4186Z" fill="url(#paint2_linear_15_129)"/>
<path opacity="0.5" d="M47.1281 40.4186C47.1281 40.3167 47.1417 40.2011 47.1315 40.1162C46.3636 40.7108 45.548 41.2475 44.8141 41.8149C40.1383 45.4161 35.1941 48.6131 30.0222 51.4499C29.8421 51.5484 29.6552 51.6402 29.4717 51.7353C29.4717 51.7489 30.7222 52.5575 32.1834 53.451L47.1281 41.5261C47.1281 41.1558 47.1281 40.7889 47.1281 40.4186Z" fill="#AC1E54"/>
<path d="M42.8534 17.8903C33.0805 17.1565 27.3751 17.2278 17.6736 17.8733L30.6509 0.702914C31.4325 -0.329893 33.0228 -0.200795 33.6446 0.933934C37.3519 7.68115 40.4781 12.4205 42.8534 17.8903Z" fill="#E3F2FD"/>
<path d="M30.6509 0.703099L17.6736 17.8735C19.529 17.7512 21.2348 17.6459 22.8557 17.5678L32.8936 0.203682C32.1562 -0.173429 31.2014 -0.0239429 30.6509 0.703099Z" fill="#CFDFEC"/>
<path opacity="0.5" d="M11.0916 38.5973C9.63382 43.2518 8.18285 47.9096 6.73187 52.564C6.22556 54.1846 5.71245 55.8051 5.22312 57.4291C5.00225 58.1595 5.11099 58.839 5.71924 59.3588C6.3173 59.8684 6.97313 59.9262 7.69352 59.6034C9.82751 58.6488 11.9513 57.6737 14.0513 56.6511C17.6431 54.9014 21.1737 53.0329 24.6431 51.0488C30.8786 47.4849 36.8864 43.5711 42.6597 39.2972C46.1427 36.7186 49.534 34.0177 52.8302 31.2046C55.321 29.0779 57.7302 26.8628 60.1598 24.6714C60.3059 24.5389 60.4724 24.403 60.4758 24.1958C45.9762 37.2758 37.4743 40.6188 20.2188 49.5234L10.1979 53.9773L11.129 38.3799C11.129 38.4513 11.1188 38.509 11.0916 38.5973Z" fill="#0072BB"/>
<defs>
<linearGradient id="paint0_linear_15_129" x1="-1.25226e-05" y1="40.0718" x2="60.4723" y2="40.0718" gradientUnits="userSpaceOnUse">
<stop stop-color="#44B5FD"/>
<stop offset="1" stop-color="#078FEA"/>
</linearGradient>
<linearGradient id="paint1_linear_15_129" x1="38.1807" y1="45.4159" x2="47.569" y2="58.6476" gradientUnits="userSpaceOnUse">
<stop stop-color="#FC5C9A"/>
<stop offset="1" stop-color="#E32D73"/>
</linearGradient>
<linearGradient id="paint2_linear_15_129" x1="38.0205" y1="45.5298" x2="47.4089" y2="58.7615" gradientUnits="userSpaceOnUse">
<stop stop-color="#FC5C9A"/>
<stop offset="1" stop-color="#E32D73"/>
</linearGradient>
</defs>
</svg>
