<svg width="100" height="64" viewBox="0 0 100 64" fill="none" xmlns="http://www.w3.org/2000/svg">
<g id="Group">
<path id="Vector" d="M94 0H6C2.68629 0 0 2.68629 0 6V58C0 61.3137 2.68629 64 6 64H94C97.3137 64 100 61.3137 100 58V6C100 2.68629 97.3137 0 94 0Z" fill="white"/>
<path id="Vector_2" d="M25.886 20.3859C24.996 21.4439 23.57 22.278 22.146 22.158C21.968 20.728 22.666 19.2099 23.482 18.2719C24.372 17.1839 25.932 16.4099 27.194 16.3519C27.342 17.8399 26.762 19.2999 25.886 20.3859ZM27.178 22.4399C25.114 22.3219 23.348 23.6179 22.368 23.6179C21.374 23.6179 19.874 22.5 18.242 22.53C16.118 22.56 14.144 23.7659 13.06 25.6859C10.834 29.5279 12.482 35.2159 14.634 38.3419C15.688 39.8919 16.95 41.588 18.612 41.53C20.186 41.47 20.81 40.502 22.71 40.502C24.624 40.502 25.174 41.5299 26.836 41.4999C28.558 41.4699 29.642 39.9499 30.696 38.4019C31.9 36.6459 32.388 34.9339 32.418 34.8439C32.388 34.8139 29.094 33.548 29.064 29.736C29.034 26.55 31.662 25.032 31.78 24.942C30.296 22.738 27.98 22.4999 27.178 22.4399ZM39.1 18.1219V41.3359H42.692V33.4H47.664C52.208 33.4 55.4 30.2719 55.4 25.7459C55.4 21.2199 52.266 18.1219 47.784 18.1219H39.1ZM42.692 21.1599H46.834C49.952 21.1599 51.732 22.828 51.732 25.762C51.732 28.694 49.952 30.3759 46.818 30.3759H42.692V21.1599ZM61.962 41.5139C64.218 41.5139 66.31 40.3679 67.26 38.5519H67.336V41.3359H70.66V29.7819C70.66 26.4319 67.988 24.2719 63.876 24.2719C60.06 24.2719 57.24 26.462 57.136 29.468H60.372C60.64 28.04 61.962 27.1019 63.772 27.1019C65.97 27.1019 67.202 28.128 67.202 30.02V31.2999L62.718 31.5679C58.546 31.8219 56.29 33.534 56.29 36.512C56.29 39.52 58.62 41.5139 61.962 41.5139ZM62.926 38.7599C61.01 38.7599 59.794 37.8359 59.794 36.4219C59.794 34.9619 60.966 34.1139 63.208 33.9799L67.202 33.728V35.038C67.202 37.212 65.36 38.7599 62.926 38.7599ZM75.1 47.6479C78.602 47.6479 80.25 46.308 81.69 42.244L88 24.4959H84.348L80.118 38.2079H80.042L75.812 24.4959H72.056L78.142 41.3959L77.816 42.4219C77.266 44.1639 76.376 44.8339 74.788 44.8339C74.506 44.8339 73.956 44.8039 73.734 44.7759V47.5599C73.942 47.6179 74.832 47.6479 75.1 47.6479Z" fill="#888888"/>
</g>
</svg>
