<svg width="100" height="64" viewBox="0 0 100 64" fill="none" xmlns="http://www.w3.org/2000/svg">
<g id="Group">
<path id="Vector" d="M94 0H6C2.68629 0 0 2.68629 0 6V58C0 61.3137 2.68629 64 6 64H94C97.3137 64 100 61.3137 100 58V6C100 2.68629 97.3137 0 94 0Z" fill="white"/>
<path id="Vector_2" d="M29.7479 41.7993H25.6019C25.3179 41.7993 25.0779 42.0053 25.0339 42.2853L23.3559 52.9153C23.3239 53.1253 23.4859 53.3134 23.6979 53.3134H25.6779C25.9619 53.3134 26.2019 53.1073 26.2459 52.8273L26.6999 49.9613C26.7419 49.6793 26.9839 49.4733 27.2679 49.4733H28.5799C31.3099 49.4733 32.8859 48.1533 33.2979 45.5333C33.4839 44.3873 33.3059 43.4873 32.7699 42.8573C32.1799 42.1653 31.1359 41.7993 29.7479 41.7993ZM30.2259 45.6813C29.9999 47.1693 28.8639 47.1693 27.7639 47.1693H27.1379L27.5779 44.3914C27.6039 44.2234 27.7479 44.0993 27.9179 44.0993H28.2059C28.9539 44.0993 29.6599 44.0993 30.0259 44.5273C30.2419 44.7813 30.3099 45.1593 30.2259 45.6813Z" fill="#253B80"/>
<path id="Vector_3" d="M42.1399 45.6338H40.1539C39.9859 45.6338 39.8399 45.7558 39.8139 45.9238L39.7259 46.4798L39.5859 46.2778C39.1559 45.6558 38.1979 45.4458 37.2419 45.4458C35.0479 45.4458 33.1739 47.1078 32.8099 49.4378C32.6199 50.6018 32.8898 51.7118 33.5498 52.4878C34.1538 53.1998 35.0198 53.4978 36.0498 53.4978C37.8178 53.4978 38.7978 52.3618 38.7978 52.3618L38.7079 52.9118C38.6759 53.1238 38.8378 53.3118 39.0498 53.3118H40.8379C41.1219 53.3118 41.3619 53.1058 41.4059 52.8258L42.4798 46.0318C42.5138 45.8218 42.3519 45.6338 42.1399 45.6338ZM39.3719 49.4958C39.1799 50.6298 38.2799 51.3918 37.1319 51.3918C36.5559 51.3918 36.0958 51.2078 35.7998 50.8558C35.5058 50.5078 35.3958 50.0138 35.4878 49.4618C35.6678 48.3378 36.5818 47.5518 37.7118 47.5518C38.2758 47.5518 38.7339 47.7378 39.0359 48.0918C39.3399 48.4498 39.4599 48.9478 39.3719 49.4958Z" fill="#253B80"/>
<path id="Vector_4" d="M52.7119 45.6338H50.7159C50.5259 45.6338 50.3479 45.7278 50.2399 45.8858L47.4879 49.9378L46.3219 46.0438C46.2499 45.7998 46.0239 45.6338 45.7699 45.6338H43.8099C43.5719 45.6338 43.4059 45.8658 43.4819 46.0898L45.6779 52.5378L43.6119 55.4538C43.4499 55.6838 43.6139 55.9998 43.8939 55.9998H45.8879C46.0759 55.9998 46.2539 55.9078 46.3599 55.7518L52.9959 46.1758C53.1539 45.9458 52.9919 45.6338 52.7119 45.6338Z" fill="#253B80"/>
<path id="Vector_5" d="M59.316 41.7976H55.17C54.886 41.7976 54.646 42.0036 54.602 42.2836L52.924 52.9136C52.892 53.1236 53.054 53.3137 53.266 53.3137H55.392C55.59 53.3137 55.76 53.1696 55.79 52.9716L56.266 49.9597C56.31 49.6797 56.552 49.4736 56.834 49.4736H58.146C60.878 49.4736 62.454 48.1516 62.866 45.5336C63.052 44.3876 62.872 43.4876 62.336 42.8576C61.748 42.1636 60.704 41.7976 59.316 41.7976ZM59.794 45.6816C59.568 47.1676 58.432 47.1677 57.332 47.1677H56.708L57.146 44.3896C57.172 44.2216 57.316 44.0996 57.488 44.0996H57.774C58.522 44.0996 59.228 44.0996 59.594 44.5256C59.812 44.7796 59.878 45.1576 59.794 45.6816Z" fill="#179BD7"/>
<path id="Vector_6" d="M71.706 45.6338H69.722C69.552 45.6338 69.408 45.7558 69.382 45.9238L69.294 46.4798L69.154 46.2778C68.726 45.6558 67.768 45.4458 66.812 45.4458C64.618 45.4458 62.744 47.1078 62.38 49.4378C62.19 50.6018 62.458 51.7118 63.118 52.4878C63.724 53.1998 64.588 53.4978 65.618 53.4978C67.386 53.4978 68.3661 52.3618 68.3661 52.3618L68.278 52.9118C68.244 53.1238 68.406 53.3118 68.62 53.3118H70.4081C70.6901 53.3118 70.932 53.1058 70.976 52.8258L72.05 46.0318C72.082 45.8218 71.92 45.6338 71.706 45.6338ZM68.94 49.4958C68.75 50.6298 67.848 51.3918 66.7 51.3918C66.124 51.3918 65.662 51.2078 65.368 50.8558C65.074 50.5078 64.9641 50.0138 65.0561 49.4618C65.2361 48.3378 66.1501 47.5518 67.2801 47.5518C67.8441 47.5518 68.302 47.7378 68.604 48.0918C68.908 48.4498 69.028 48.9478 68.94 49.4958Z" fill="#179BD7"/>
<path id="Vector_7" d="M74.048 42.0897L72.3461 52.9136C72.3121 53.1236 72.474 53.3137 72.686 53.3137H74.3961C74.6821 53.3137 74.9221 53.1076 74.9661 52.8256L76.6441 42.1976C76.6781 41.9876 76.5141 41.7976 76.3041 41.7976H74.3881C74.2181 41.7976 74.074 41.9217 74.048 42.0897Z" fill="#179BD7"/>
<path id="Vector_8" d="M46.1379 34.0361L46.6039 31.0701L45.564 31.0461H40.5959L44.0479 9.15405C44.0599 9.08805 44.0939 9.02606 44.1459 8.98206C44.1959 8.93806 44.262 8.91406 44.33 8.91406H52.7059C55.4859 8.91406 57.406 9.49405 58.408 10.636C58.878 11.172 59.176 11.7321 59.322 12.3481C59.474 12.9941 59.476 13.7661 59.328 14.7081L59.3179 14.7781V15.3821L59.786 15.6481C60.182 15.8581 60.4959 16.0981 60.7379 16.3721C61.1399 16.8301 61.4 17.4121 61.51 18.1041C61.624 18.8141 61.586 19.6581 61.4 20.6141C61.186 21.7141 60.8379 22.6721 60.3699 23.4561C59.9399 24.1801 59.392 24.7781 58.742 25.2421C58.12 25.6841 57.382 26.0201 56.546 26.2341C55.736 26.4441 54.8139 26.5501 53.8019 26.5501H53.15C52.684 26.5501 52.2319 26.7181 51.8759 27.0201C51.5199 27.3261 51.2839 27.7461 51.2119 28.2061L51.1619 28.4721L50.338 33.7021L50.2999 33.8941C50.2899 33.9541 50.2739 33.9841 50.2479 34.0041C50.2259 34.0241 50.1939 34.0361 50.1619 34.0361H46.1379Z" fill="#253B80"/>
<path id="Vector_9" d="M60.2319 14.8455C60.2059 15.0055 60.1779 15.1695 60.1459 15.3375C59.0399 21.0095 55.2619 22.9695 50.4339 22.9695H47.9759C47.3859 22.9695 46.8899 23.3975 46.7979 23.9795L45.5379 31.9594L45.1819 34.2214C45.1219 34.6034 45.4179 34.9495 45.8039 34.9495H50.1619C50.6779 34.9495 51.1159 34.5735 51.1979 34.0655L51.2399 33.8434L52.0619 28.6354L52.1139 28.3495C52.1939 27.8395 52.6339 27.4634 53.1499 27.4634H53.8019C58.0259 27.4634 61.3319 25.7494 62.2979 20.7874C62.7019 18.7134 62.4919 16.9834 61.4239 15.7654C61.1019 15.3994 60.6999 15.0955 60.2319 14.8455Z" fill="#179BD7"/>
<path id="Vector_10" d="M59.0762 14.3865C58.9082 14.3385 58.7322 14.2925 58.5542 14.2525C58.3742 14.2125 58.1902 14.1785 58.0022 14.1485C57.3382 14.0405 56.6122 13.9905 55.8362 13.9905H49.2702C49.1082 13.9905 48.9542 14.0265 48.8162 14.0925C48.5142 14.2385 48.2882 14.5245 48.2342 14.8765L46.8382 23.7225L46.7982 23.9805C46.8902 23.3985 47.3862 22.9705 47.9782 22.9705H50.4342C55.2622 22.9705 59.0422 21.0105 60.1462 15.3385C60.1782 15.1705 60.2062 15.0065 60.2322 14.8485C59.9522 14.6985 59.6502 14.5725 59.3242 14.4645C59.2422 14.4385 59.1602 14.4125 59.0762 14.3865Z" fill="#222D65"/>
<path id="Vector_11" d="M48.2339 14.876C48.2879 14.524 48.5139 14.238 48.8159 14.094C48.9539 14.028 49.1079 13.99 49.2699 13.99H55.8339C56.6119 13.99 57.3379 14.042 58.0019 14.148C58.1899 14.18 58.3739 14.214 58.5539 14.254C58.7319 14.294 58.9079 14.338 59.0759 14.388C59.1599 14.412 59.2419 14.438 59.3239 14.464C59.6499 14.572 59.9519 14.7 60.2319 14.848C60.5599 12.752 60.2299 11.324 59.0959 10.032C57.8459 8.61001 55.5919 8 52.7059 8H44.3299C43.7399 8 43.2379 8.42799 43.1459 9.01199L39.6579 31.128C39.5879 31.566 39.9259 31.96 40.3679 31.96H45.5379L46.8379 23.722L48.2339 14.876Z" fill="#253B80"/>
</g>
</svg>
