<svg width="150" height="60" viewBox="0 0 150 60" fill="none" xmlns="http://www.w3.org/2000/svg">
<path fill-rule="evenodd" clip-rule="evenodd" d="M33.8305 10.2097C35.6586 17.0484 34.0508 23.4235 29.007 29.3351C31.7899 30.3557 33.4921 32.514 34.1135 35.8095C35.0436 40.5305 33.2958 45.8336 28.8702 51.7188C28.4334 51.4126 28.2742 50.8972 28.3926 50.1722C28.6369 48.9831 33.7864 41.6929 28.5866 34.8077C27.0345 32.5965 24.4769 31.2023 20.9137 30.6253C20.8209 37.1128 21.2022 42.682 22.0574 47.333C23.4498 54.9072 24.1837 59.0022 24.1837 59.5708C24.1837 59.9498 23.7072 60.0778 22.754 59.9547C19.6572 58.1689 17.0545 55.0317 14.9458 50.5429C12.8371 46.0541 11.5911 39.4757 11.2077 30.8077C12.8928 30.1221 14.5877 29.7045 16.2925 29.5551C17.9973 29.4056 19.5491 29.1998 20.9478 28.938C20.9477 28.9432 20.9475 28.9484 20.9474 28.9536C22.7666 28.672 24.4009 28.585 25.8505 28.6924C27.9641 26.4292 30.1944 22.1981 29.4007 15.0862C28.6678 9.15354 21.0763 3.28962 13.4189 6.41713C7.7803 8.7221 4.42761 12.552 3.3608 17.9071C2.73262 17.6198 2.16514 16.9753 1.65839 15.974C0.863383 14.5454 4.72286 8.08628 10.4615 3.61756C19.6952 -2.70703 30.8663 -0.878838 33.8305 10.2097ZM75.7786 39.4532C96.7552 37.3644 134.589 40.7968 139.317 41.8072C142.468 42.4807 143.678 43.1099 142.949 43.6948C129.996 42.2458 118.861 41.3235 98.1951 41.8847C71.5937 42.9327 53.8003 47.3529 38.5267 53.1989C38.9797 50.547 40.0055 47.5076 41.3913 46.5268C43.4724 45.0556 47.3643 41.8393 75.7786 39.4532ZM42.8029 15.3754C47.4628 12.0882 52.5922 13.3868 53.3696 15.2045C54.4041 16.6542 57.4213 35.4011 56.6651 36.5949C55.909 37.7886 53.839 38.6414 52.3238 38.4376C51.5664 37.8766 51.3534 33.3671 51.1753 31.6701C50.3146 33.5684 46.372 39.0647 43.3858 39.3792C40.3995 39.6939 37.4116 37.8137 36.8057 30.1894C36.1996 22.5651 39.945 17.3914 42.8029 15.3754ZM140.62 15.9324C144.92 15.0443 148.683 18.0137 148.94 19.7267C149.472 21.2357 146.36 34.5748 147.969 38.1826C147.193 39.7352 145.091 37.9303 144.36 37.1106C143.63 36.2909 143.756 33.6704 143.955 32.2215C142.888 33.5261 138.62 36.9848 136.167 36.3921C133.717 35.7893 131.731 33.2334 132.857 26.3448C133.971 19.5204 137.974 16.5214 140.62 15.9324ZM66.3143 14.419C68.2296 10.6686 70.1224 10.6055 71.3796 10.7157C72.3032 10.7968 74.4829 10.8605 74.6542 12.8223C72.3975 16.9587 72.6259 25.8254 73.8913 30.3784C74.7351 33.4136 75.2033 35.0035 75.2961 35.1478C74.405 35.0804 73.792 34.9199 73.457 34.6664C72.9546 34.286 71.517 33.6428 70.5058 29.6916C68.7574 23.4025 68.8187 20.1137 69.3947 16.4158C64.3974 22.6202 65.7701 34.0963 65.8749 35.2968C65.9797 36.4974 59.9114 36.98 59.9276 36.0522C59.8824 35.5338 59.7557 28.5251 58.8203 23.4881C57.8848 18.4511 56.4358 12.9715 56.3684 12.0063C56.1775 11.0819 60.3676 10.7827 60.8864 12.1563C61.2323 13.0721 62.3037 17.8446 64.1007 26.4741C63.8713 21.7759 64.6092 17.7575 66.3143 14.419ZM133.441 13.3059C133.444 13.3077 133.447 13.3096 133.449 13.3114C133.863 13.584 133.9 14.042 133.165 14.6617C131.51 16.0596 128.224 16.935 124.799 22.7038C122.85 26.0173 122.882 28.9274 123.104 31.1995L123.108 31.2066C123.561 32.0794 129.66 32.1217 128.37 28.6709C127.78 27.574 129.384 27.52 130.182 27.7846C130.979 28.0492 131.184 29.2609 131.182 30.5535C131.181 31.8462 130.731 33.3537 129.751 34.5116C128.771 35.6694 123.358 36.0351 118.904 35.4471C117.44 35.2538 116.546 34.9718 116.222 34.6013L116.207 34.5838C115.333 33.6749 113.537 27.7956 120.197 20.6424C125.033 15.5161 127.572 14.1856 129.237 13.6513C127.13 12.8045 123.963 12.1028 122.873 12.3153C120.521 12.7739 120.413 15.4286 120.695 16.3975C120.883 17.0434 120.185 17.0628 118.601 16.4558C117.827 15.9681 117.43 15.2977 117.407 14.4446C117.373 13.1648 118.187 11.6281 120.327 10.7435C122.467 9.85882 130.594 11.3807 133.441 13.3059ZM112.725 9.18919C113.489 8.69676 115.244 10.6144 115.141 12.581C112.57 16.6228 111.968 27.9078 113.171 35.143C112.255 35.6403 111.317 35.3706 110.97 34.9499C110.366 34.5328 108.937 31.0408 108.965 26.1732C108.993 21.3056 109.457 19.7349 110.541 16.1533C104.731 21.6002 103.626 32.8125 103.563 34.0161C103.5 35.2195 98.0961 35.0413 98.1074 34.0793C98.1346 33.5597 99.0047 26.3754 98.7777 21.257C98.5509 16.1385 96.9597 11.159 96.6404 10.2226C96.321 9.28639 101.964 9.10769 102.28 10.0764C102.491 10.722 102.921 15.7554 103.57 25.1764C104.005 20.9692 105.299 17.3315 107.451 14.2633C109.869 10.8166 111.263 10.1329 112.725 9.18919ZM49.9765 17.5043C49.7634 16.9042 48.0339 14.4698 45.7943 17.1547C42.4672 21.903 43.5439 32.2752 45.266 34.8637C45.8782 36.0187 50.2092 31.4286 50.6892 29.5112C50.685 27.8817 50.1718 19.328 49.9825 17.522L49.9765 17.5043ZM82.4972 11.1834C87.0882 8.14015 92.0491 9.61983 92.7696 11.4445C93.747 12.9181 96.3137 31.5988 95.5562 32.7411C94.7989 33.8826 92.7729 34.6152 91.3061 34.3326C90.5817 33.7381 90.4616 29.2768 90.3215 27.5934C89.4492 29.4224 85.5168 34.6292 82.6123 34.7761C79.7079 34.9215 76.8427 32.9167 76.3955 25.4244C75.9477 17.9399 79.6824 13.0409 82.4972 11.1834ZM145.823 20.3266C145.774 19.7679 144.897 17.1749 142.607 18.5173C139.035 21.2338 137.764 30.3517 138.601 33.0867C138.852 34.2514 143.235 31.7268 144.001 30.3003C144.323 28.9662 145.617 21.8611 145.824 20.3429L145.823 20.3266ZM89.4281 13.573C89.2326 12.9729 87.598 10.5054 85.3708 13.0541C82.0488 17.573 82.8997 27.806 84.5229 30.438C85.0953 31.606 89.3878 27.3072 89.8907 25.4401C89.9179 23.833 89.5831 15.3781 89.4336 13.5906L89.4281 13.573Z" fill="#EEBD2F"/>
<path fill-rule="evenodd" clip-rule="evenodd" d="M20.9378 28.9398C18.69 30.1707 16.6592 31.5626 14.8454 33.1158C13.1314 34.5834 12.0641 35.8074 11.6433 36.7875C11.4466 34.9191 11.3014 32.9258 11.2077 30.8077C12.8928 30.1222 14.5877 29.7047 16.2925 29.5552C17.9973 29.4057 19.549 29.2 20.9477 28.9381L20.9378 28.9398Z" fill="#D8A000"/>
<path fill-rule="evenodd" clip-rule="evenodd" d="M14.9677 14.0541C16.6441 14.6554 15.8825 15.2063 16.6462 15.4114C16.7614 15.4424 17.3669 15.2797 17.77 15.1096C18.2934 14.8887 18.6935 15.8171 19.101 16.1251C19.6039 16.5051 20.1064 16.357 20.7241 16.9478C20.892 23.2973 20.9495 25.866 20.9478 28.938C20.8431 28.9531 20.7399 28.9682 20.638 28.983C15.425 29.7979 8.78611 33.6334 6.87532 38.2577C3.50587 45.7132 6.47728 54.1749 6.44955 54.1823C4.53863 54.6956 -1.63626 47.9787 0.410468 39.4311C1.63663 33.6135 6.49817 30.8496 11.2564 29.6275C11.2303 25.8952 12.4387 19.1716 14.9677 14.0541Z" fill="#FCDE8A"/>
</svg>
