<svg width="121" height="38" viewBox="0 0 121 38" fill="none" xmlns="http://www.w3.org/2000/svg">
<path d="M44.3906 3.625H47.125V11.4297C47.125 12.1536 46.9557 12.7995 46.6172 13.3672C46.2839 13.9349 45.8151 14.375 45.2109 14.6875C44.612 15 43.9427 15.1562 43.2031 15.1562C41.9635 15.1562 41 14.8438 40.3125 14.2188C39.625 13.5938 39.2812 12.7083 39.2812 11.5625H42.0312C42.0312 12.0833 42.1198 12.4609 42.2969 12.6953C42.4792 12.9297 42.7812 13.0469 43.2031 13.0469C43.5833 13.0469 43.875 12.9062 44.0781 12.625C44.2865 12.3385 44.3906 11.9401 44.3906 11.4297V3.625ZM58.4922 9.54688C58.4922 10.6562 58.2865 11.638 57.875 12.4922C57.4635 13.3464 56.8776 14.0052 56.1172 14.4688C55.362 14.9271 54.5 15.1562 53.5312 15.1562C52.5625 15.1562 51.7031 14.9349 50.9531 14.4922C50.2031 14.0443 49.6172 13.4062 49.1953 12.5781C48.7786 11.75 48.5599 10.7995 48.5391 9.72656V9.08594C48.5391 7.97135 48.7422 6.98958 49.1484 6.14062C49.5599 5.28646 50.1458 4.6276 50.9062 4.16406C51.6719 3.70052 52.5417 3.46875 53.5156 3.46875C54.4792 3.46875 55.3385 3.69792 56.0938 4.15625C56.849 4.61458 57.4349 5.26823 57.8516 6.11719C58.2734 6.96094 58.487 7.92969 58.4922 9.02344V9.54688ZM55.7031 9.07031C55.7031 7.9401 55.513 7.08333 55.1328 6.5C54.7578 5.91146 54.2188 5.61719 53.5156 5.61719C52.1406 5.61719 51.4141 6.64844 51.3359 8.71094L51.3281 9.54688C51.3281 10.6615 51.513 11.5182 51.8828 12.1172C52.2526 12.7161 52.8021 13.0156 53.5312 13.0156C54.224 13.0156 54.7578 12.7214 55.1328 12.1328C55.5078 11.5443 55.6979 10.6979 55.7031 9.59375V9.07031ZM62.8281 15H60.0938V3.625H62.8281V15ZM74.2344 15H71.5078L67.4766 7.92188V15H64.7344V3.625H67.4766L71.5 10.7031V3.625H74.2344V15Z" fill="white"/>
<path d="M49.1719 32.5938C48.75 33.0625 48.1328 33.4401 47.3203 33.7266C46.5078 34.013 45.6172 34.1562 44.6484 34.1562C43.1589 34.1562 41.9688 33.7005 41.0781 32.7891C40.1875 31.8776 39.7109 30.6094 39.6484 28.9844L39.6406 28C39.6406 26.8802 39.8385 25.9036 40.2344 25.0703C40.6302 24.2318 41.1953 23.5885 41.9297 23.1406C42.6693 22.6875 43.5234 22.4609 44.4922 22.4609C45.9089 22.4609 47.0078 22.7865 47.7891 23.4375C48.5755 24.0833 49.0339 25.0495 49.1641 26.3359H46.5234C46.4297 25.7005 46.2266 25.2474 45.9141 24.9766C45.6016 24.7057 45.1589 24.5703 44.5859 24.5703C43.8984 24.5703 43.3672 24.862 42.9922 25.4453C42.6172 26.0286 42.4271 26.862 42.4219 27.9453V28.6328C42.4219 29.7682 42.6146 30.6224 43 31.1953C43.3906 31.763 44.0026 32.0469 44.8359 32.0469C45.5495 32.0469 46.0807 31.888 46.4297 31.5703V29.8047H44.5234V27.9219H49.1719V32.5938ZM57.2266 31.875H53.4688L52.8125 34H49.8828L54.0547 22.625H56.6328L60.8359 34H57.8906L57.2266 31.875ZM54.125 29.7578H56.5703L55.3438 25.8125L54.125 29.7578ZM65.2734 22.625L67.8125 30.5391L70.3438 22.625H73.9531V34H71.2031V31.3438L71.4688 25.9062L68.7188 34H66.9062L64.1484 25.8984L64.4141 31.3438V34H61.6719V22.625H65.2734ZM75.7031 34V22.625H79.7891C81.2526 22.625 82.3646 22.8932 83.125 23.4297C83.8906 23.9661 84.2734 24.7448 84.2734 25.7656C84.2734 26.3542 84.138 26.8568 83.8672 27.2734C83.5964 27.6901 83.1979 27.9974 82.6719 28.1953C83.2656 28.3516 83.7214 28.6432 84.0391 29.0703C84.3568 29.4974 84.5156 30.0182 84.5156 30.6328C84.5156 31.7474 84.1615 32.5859 83.4531 33.1484C82.75 33.7057 81.7057 33.9896 80.3203 34H75.7031ZM78.4453 29.1641V31.8906H80.2422C80.737 31.8906 81.1172 31.7786 81.3828 31.5547C81.6484 31.3255 81.7812 31.0052 81.7812 30.5938C81.7812 29.6458 81.3099 29.1693 80.3672 29.1641H78.4453ZM78.4453 27.3672H79.875C80.474 27.362 80.901 27.2526 81.1562 27.0391C81.4115 26.8255 81.5391 26.5104 81.5391 26.0938C81.5391 25.6146 81.401 25.2708 81.125 25.0625C80.849 24.849 80.4036 24.7422 79.7891 24.7422H78.4453V27.3672ZM88.7734 31.8906H93.5469V34H86.0312V22.625H88.7734V31.8906ZM97.625 34H94.8906V22.625H97.625V34ZM109.031 34H106.305L102.273 26.9219V34H99.5312V22.625H102.273L106.297 29.7031V22.625H109.031V34ZM120.078 32.5938C119.656 33.0625 119.039 33.4401 118.227 33.7266C117.414 34.013 116.523 34.1562 115.555 34.1562C114.065 34.1562 112.875 33.7005 111.984 32.7891C111.094 31.8776 110.617 30.6094 110.555 28.9844L110.547 28C110.547 26.8802 110.745 25.9036 111.141 25.0703C111.536 24.2318 112.102 23.5885 112.836 23.1406C113.576 22.6875 114.43 22.4609 115.398 22.4609C116.815 22.4609 117.914 22.7865 118.695 23.4375C119.482 24.0833 119.94 25.0495 120.07 26.3359H117.43C117.336 25.7005 117.133 25.2474 116.82 24.9766C116.508 24.7057 116.065 24.5703 115.492 24.5703C114.805 24.5703 114.273 24.862 113.898 25.4453C113.523 26.0286 113.333 26.862 113.328 27.9453V28.6328C113.328 29.7682 113.521 30.6224 113.906 31.1953C114.297 31.763 114.909 32.0469 115.742 32.0469C116.456 32.0469 116.987 31.888 117.336 31.5703V29.8047H115.43V27.9219H120.078V32.5938Z" fill="#FBED10"/>
<path d="M19.787 22.6338C19.787 24.0746 19.1979 25.3723 18.2322 26.3262C17.2763 27.2707 15.9531 27.8624 14.5046 27.8624C13.0463 27.8624 11.7234 27.2707 10.7675 26.3262C9.81155 25.372 9.21274 24.0743 9.21274 22.6338V15.573V10.0484H22.9157V6.96631H7.64818H6.08362V8.50249V15.5727V22.6334C6.08362 24.9235 7.03007 27.0035 8.55572 28.5109C10.0814 30.0183 12.1869 30.9535 14.5043 30.9535C16.822 30.9535 18.9173 30.0183 20.4433 28.5109C21.969 27.0035 22.9154 24.9232 22.9154 22.6334V19.542V16.46H19.7866H14.5046V19.542H19.787V22.6338Z" fill="#FBED10"/>
<path d="M9.21274 0.955566H27.4354H29V2.49174V22.634C29 26.5843 27.3776 30.1623 24.7511 32.7574C22.1243 35.3528 18.4935 36.9556 14.5052 36.9556C10.5072 36.9556 6.88584 35.3525 4.25938 32.7574C1.63193 30.1623 0 26.5843 0 22.634H3.1288C3.1288 25.7254 4.4036 28.5402 6.47017 30.5724C8.52693 32.6046 11.3758 33.8738 14.5046 33.8738C17.6334 33.8738 20.4727 32.6049 22.5393 30.5724C24.5964 28.5402 25.8709 25.7254 25.8709 22.634V4.03762H9.21274V0.955566Z" fill="#FBED10"/>
</svg>
