<svg width="100" height="64" viewBox="0 0 100 64" fill="none" xmlns="http://www.w3.org/2000/svg">
<g id="Group">
<path id="Vector" d="M94 0H6C2.68629 0 0 2.68629 0 6V58C0 61.3137 2.68629 64 6 64H94C97.3137 64 100 61.3137 100 58V6C100 2.68629 97.3137 0 94 0Z" fill="white"/>
<path id="Vector_2" d="M44.9344 43.07H38.7764L42.6284 21H48.7844L44.9344 43.07Z" fill="#00579F"/>
<path id="Vector_3" d="M67.2523 21.5405C66.0363 21.0945 64.1103 20.6005 61.7303 20.6005C55.6503 20.6005 51.3683 23.6065 51.3423 27.9025C51.2923 31.0725 54.4083 32.8325 56.7383 33.8905C59.1203 34.9705 59.9303 35.6745 59.9303 36.6385C59.9043 38.1165 58.0043 38.7985 56.2323 38.7985C53.7743 38.7985 52.4563 38.4465 50.4563 37.6245L49.6443 37.2705L48.7843 42.2265C50.2283 42.8365 52.8883 43.3765 55.6503 43.4005C62.1103 43.4005 66.3143 40.4425 66.3643 35.8625C66.3903 33.3505 64.7443 31.4245 61.1963 29.8525C59.0443 28.8425 57.7243 28.1605 57.7243 27.1285C57.7503 26.1885 58.8403 25.2265 61.2703 25.2265C63.2723 25.1785 64.7423 25.6245 65.8563 26.0725L66.4143 26.3065L67.2523 21.5405Z" fill="#00579F"/>
<path id="Vector_4" d="M75.4335 35.252C75.9395 33.984 77.8915 29.076 77.8915 29.076C77.8655 29.124 78.3975 27.786 78.7015 26.964L79.1315 28.866C79.1315 28.866 80.2975 34.148 80.5515 35.252C79.5875 35.252 76.6495 35.252 75.4335 35.252ZM83.0335 21H78.2715C76.8015 21 75.6875 21.398 75.0535 22.832L65.9075 43.07H72.3675C72.3675 43.07 73.4315 40.346 73.6595 39.76C74.3695 39.76 80.6535 39.76 81.5655 39.76C81.7415 40.534 82.2995 43.07 82.2995 43.07H87.9995L83.0335 21Z" fill="#00579F"/>
<path id="Vector_5" d="M33.6339 21L27.6059 36.05L26.9459 32.998C25.8319 29.476 22.3359 25.65 18.4339 23.746L23.9579 43.048H30.4679L40.1439 21H33.6339Z" fill="#00579F"/>
<path id="Vector_6" d="M22.006 21H12.102L12 21.446C19.726 23.278 24.844 27.692 26.946 32.998L24.794 22.856C24.438 21.446 23.35 21.046 22.006 21Z" fill="#FAA61A"/>
</g>
</svg>
