<?xml version="1.0" standalone="no"?>
<!DOCTYPE svg PUBLIC "-//W3C//DTD SVG 20010904//EN"
 "http://www.w3.org/TR/2001/REC-SVG-20010904/DTD/svg10.dtd">
<svg version="1.0" xmlns="http://www.w3.org/2000/svg"
 width="1184.000000pt" height="1184.000000pt" viewBox="0 0 1184.000000 1184.000000"
 preserveAspectRatio="xMidYMid meet">
<metadata>
Created by potrace 1.14, written by Peter Selinger 2001-2017
</metadata>
<g transform="translate(0.000000,1184.000000) scale(0.100000,-0.100000)"
fill="#000000" stroke="none">
<path d="M4238 11529 c-11 -7 -15 -965 -4 -976 3 -3 1203 -6 2666 -6 1923 0
2660 -3 2657 -11 -2 -6 0 -23 4 -38 4 -16 5 -28 1 -28 -9 0 -7 -94 2 -108 3
-6 3 -13 -2 -16 -8 -5 -7 -79 2 -102 3 -7 2 -16 -3 -18 -8 -6 -6 -90 3 -105 4
-5 3 -12 -2 -15 -8 -5 -7 -79 2 -102 3 -7 2 -16 -3 -18 -8 -6 -6 -90 3 -105 4
-5 3 -12 -2 -15 -8 -5 -7 -79 2 -102 3 -7 2 -16 -3 -18 -8 -6 -6 -90 3 -105 4
-5 3 -12 -2 -15 -8 -5 -7 -79 2 -102 3 -7 2 -16 -3 -18 -6 -4 -7 -71 -1 -101
1 -5 1 -14 0 -20 -4 -23 -1 -176 5 -184 3 -5 2 -12 -3 -15 -9 -5 -7 -89 2
-105 4 -5 3 -12 -2 -15 -8 -5 -7 -79 2 -102 3 -7 2 -16 -3 -18 -8 -6 -6 -90 3
-105 4 -5 3 -12 -2 -15 -8 -5 -7 -79 2 -102 3 -7 2 -16 -3 -18 -8 -6 -6 -90 3
-105 4 -5 3 -12 -2 -15 -8 -5 -7 -79 2 -102 3 -7 2 -16 -3 -18 -8 -6 -6 -90 3
-105 4 -5 3 -12 -2 -15 -8 -5 -7 -79 2 -102 3 -7 2 -16 -3 -18 -6 -4 -7 -71
-1 -101 1 -5 1 -14 0 -20 -4 -23 -1 -176 5 -184 3 -5 2 -12 -3 -15 -9 -5 -7
-89 2 -105 4 -5 3 -12 -2 -15 -8 -5 -7 -79 2 -102 3 -7 2 -16 -3 -18 -8 -6 -6
-90 3 -105 4 -5 3 -12 -2 -15 -8 -5 -7 -79 2 -102 3 -7 2 -16 -3 -18 -8 -6 -6
-90 3 -105 4 -5 3 -12 -2 -15 -8 -5 -7 -79 2 -102 3 -7 2 -16 -3 -18 -8 -6 -6
-90 3 -105 4 -5 3 -12 -2 -15 -8 -5 -7 -79 2 -102 3 -7 2 -16 -3 -18 -6 -4 -7
-71 -1 -101 1 -5 1 -14 0 -20 -4 -23 -1 -176 5 -184 3 -5 2 -12 -3 -15 -9 -5
-7 -89 2 -105 4 -5 3 -12 -2 -15 -8 -5 -7 -79 2 -102 3 -7 2 -16 -3 -18 -8 -6
-6 -90 3 -105 4 -5 3 -12 -2 -15 -8 -5 -7 -79 2 -102 3 -7 2 -16 -3 -18 -8 -6
-6 -90 3 -105 4 -5 3 -12 -2 -15 -8 -5 -7 -79 2 -102 3 -7 2 -16 -3 -18 -8 -6
-6 -90 3 -105 4 -5 3 -12 -2 -15 -8 -5 -7 -79 2 -102 3 -7 2 -16 -3 -18 -6 -4
-7 -71 -1 -101 1 -5 1 -14 0 -20 -4 -23 -1 -176 5 -184 3 -5 2 -12 -3 -15 -9
-5 -7 -89 2 -105 4 -5 3 -12 -2 -15 -8 -5 -7 -79 2 -102 3 -7 2 -16 -3 -18 -8
-6 -6 -90 3 -105 4 -5 3 -12 -2 -15 -8 -5 -7 -79 2 -102 3 -7 2 -16 -3 -18 -8
-6 -6 -90 3 -105 4 -5 3 -12 -2 -15 -8 -5 -7 -79 2 -102 2 -6 2 -15 -1 -18 -3
-3 -7 -67 -9 -143 -2 -76 -5 -158 -8 -183 -3 -25 -7 -74 -11 -110 -5 -63 -10
-97 -20 -150 -3 -14 -7 -40 -10 -58 -3 -18 -13 -65 -21 -105 -9 -39 -17 -82
-17 -94 -1 -13 -4 -23 -7 -23 -3 0 -6 -8 -7 -18 -2 -23 -60 -229 -73 -257 -8
-18 -21 -58 -26 -77 -1 -5 -2 -9 -4 -10 -1 -2 -3 -10 -5 -18 -1 -8 -14 -40
-28 -70 -13 -30 -28 -66 -32 -80 -4 -14 -15 -38 -23 -55 -9 -16 -16 -32 -17
-35 0 -9 -108 -225 -114 -230 -3 -3 -17 -27 -31 -55 -26 -51 -120 -206 -130
-215 -3 -3 -17 -23 -30 -45 -13 -22 -28 -44 -32 -50 -5 -5 -25 -33 -46 -61
-38 -52 -89 -118 -107 -138 -5 -6 -32 -38 -60 -71 -27 -33 -64 -75 -82 -92
-18 -18 -33 -35 -33 -37 0 -3 -28 -31 -61 -63 -34 -32 -87 -83 -119 -113 -58
-55 -96 -88 -159 -138 -19 -15 -51 -40 -71 -57 -21 -16 -48 -37 -60 -45 -12
-8 -28 -19 -34 -25 -31 -27 -86 -65 -95 -65 -6 0 -11 -4 -11 -10 0 -5 -6 -10
-14 -10 -8 0 -16 -3 -18 -8 -4 -10 -150 -100 -162 -100 -5 0 -12 -5 -15 -10
-10 -15 -220 -126 -351 -185 -81 -37 -262 -107 -275 -107 -8 0 -15 -5 -15 -11
0 -5 -4 -8 -8 -5 -4 3 -52 -10 -105 -29 -53 -18 -97 -31 -97 -30 0 2 -15 -1
-32 -6 -38 -11 -62 -18 -97 -25 -14 -3 -28 -7 -32 -9 -4 -3 -24 -7 -44 -11
-21 -3 -47 -8 -59 -10 -23 -5 -100 -19 -161 -30 -22 -4 -53 -8 -70 -8 -16 -1
-34 -4 -40 -7 -5 -3 -25 -5 -42 -4 -18 0 -33 -2 -33 -5 0 -6 -109 -12 -247
-14 -50 0 -89 -4 -86 -8 2 -5 -7 -4 -21 2 -18 6 -26 6 -26 -1 0 -6 -6 -7 -12
-2 -17 10 -39 10 -59 1 -9 -4 -19 -4 -23 -1 -3 4 -39 8 -79 9 -134 6 -248 16
-332 30 -16 3 -44 7 -60 8 -17 2 -46 7 -65 11 -19 5 -44 9 -55 11 -11 1 -42 8
-70 14 -27 6 -59 14 -70 16 -11 2 -30 6 -42 9 -13 3 -32 7 -43 9 -11 3 -24 7
-28 10 -5 3 -19 7 -33 10 -30 7 -148 40 -171 49 -43 17 -54 20 -64 22 -29 7
-258 101 -341 141 -50 24 -96 44 -102 44 -6 0 -11 5 -11 10 0 6 -9 10 -20 10
-11 0 -20 3 -20 8 0 4 -19 16 -43 27 -23 11 -44 22 -47 25 -3 3 -25 16 -50 29
-25 14 -56 32 -70 41 -14 9 -59 39 -100 65 -69 45 -251 176 -276 200 -6 5 -25
21 -43 35 -119 92 -483 457 -500 502 -1 5 -13 19 -25 32 -29 31 -46 53 -96
124 -24 34 -48 62 -52 62 -4 0 -8 5 -8 12 0 7 -18 38 -40 69 -22 32 -40 62
-40 68 0 6 -3 11 -8 11 -7 0 -13 10 -42 66 -8 16 -17 31 -20 34 -12 10 -60
103 -60 115 0 8 -4 15 -9 17 -12 4 -95 178 -149 313 -39 99 -54 135 -57 145
-1 3 -4 12 -8 20 -10 27 -37 115 -36 120 0 3 -5 19 -11 35 -13 35 -66 243 -75
295 -3 19 -8 42 -11 51 -2 9 -7 32 -9 50 -3 19 -7 45 -10 59 -6 28 -12 75 -19
140 -3 25 -8 74 -12 110 -3 35 -8 110 -9 166 -1 56 -5 106 -9 113 -4 6 -2 11
5 11 7 0 9 3 5 8 -4 4 -233 7 -508 8 l-500 0 6 -165 c4 -91 8 -179 10 -196 2
-16 7 -66 11 -110 4 -44 9 -89 11 -100 2 -11 7 -45 10 -75 3 -30 8 -58 9 -61
2 -3 7 -28 11 -55 7 -55 6 -50 30 -159 9 -44 18 -89 20 -100 1 -11 3 -20 4
-20 2 0 5 -14 14 -53 10 -46 58 -218 66 -237 8 -20 32 -91 36 -110 9 -35 60
-171 67 -173 4 -2 7 -10 7 -18 0 -17 54 -149 106 -259 21 -44 38 -82 39 -85 0
-3 12 -25 25 -50 13 -25 23 -48 22 -52 -1 -3 5 -12 13 -18 8 -7 15 -16 15 -20
0 -5 25 -53 56 -107 31 -54 63 -109 71 -123 39 -71 212 -324 225 -328 4 -2 8
-8 8 -14 0 -5 21 -35 46 -66 67 -84 66 -83 104 -131 19 -24 44 -54 55 -66 11
-12 51 -56 89 -99 82 -91 238 -248 326 -326 33 -30 74 -67 90 -81 15 -14 45
-39 66 -55 20 -16 42 -34 48 -39 6 -6 49 -39 96 -75 47 -35 102 -76 122 -92
20 -15 41 -28 47 -28 5 0 11 -4 13 -8 4 -12 280 -192 293 -192 2 0 28 -14 57
-31 57 -35 314 -164 391 -198 26 -12 68 -31 94 -42 26 -12 52 -22 58 -23 5 -1
16 -5 23 -10 7 -4 25 -11 40 -16 28 -9 156 -56 182 -67 8 -3 20 -7 25 -8 6 -2
62 -19 125 -38 63 -20 133 -41 155 -46 22 -5 67 -17 101 -25 34 -8 72 -17 85
-20 13 -2 58 -11 99 -20 41 -8 89 -17 105 -20 17 -3 44 -8 60 -11 17 -4 44 -8
60 -10 17 -2 55 -7 85 -11 30 -4 70 -8 87 -8 18 -1 33 -3 33 -6 0 -3 17 -5 38
-6 20 -1 91 -5 157 -9 205 -14 560 -9 735 10 19 2 55 6 80 9 107 11 157 17
185 22 17 3 39 7 50 8 11 2 34 6 50 9 17 4 46 9 65 12 19 3 94 19 165 36 72
17 141 32 155 35 14 3 68 18 120 34 53 17 105 32 115 35 11 2 76 25 145 50 69
25 130 47 135 49 16 5 46 17 114 48 35 15 70 28 77 28 8 0 14 5 14 11 0 5 5 7
10 4 6 -3 10 -1 10 4 0 6 8 11 18 11 10 0 23 5 30 12 7 7 12 8 12 2 0 -5 3 -5
8 1 6 9 138 77 152 80 3 0 10 3 15 7 15 9 82 46 145 81 30 17 79 45 108 64 29
18 56 33 61 33 5 0 11 3 13 8 4 10 116 82 128 82 5 0 10 4 10 8 0 4 28 26 62
49 35 23 74 51 87 62 13 12 27 21 30 21 4 0 20 12 37 28 16 15 48 40 70 56 21
16 48 38 59 48 11 10 31 28 45 39 118 96 364 336 465 454 33 39 67 77 75 85 9
8 44 51 78 95 35 44 69 88 77 97 7 9 22 29 32 45 10 15 24 35 32 43 17 17 191
279 191 287 0 3 14 25 30 50 16 24 30 46 30 48 0 2 13 27 29 54 115 195 344
713 333 754 -1 4 3 7 10 7 6 0 9 3 5 6 -3 3 2 29 12 58 20 54 48 147 56 181 2
11 14 54 25 95 11 41 22 84 24 95 2 11 13 63 24 115 11 52 23 115 27 140 3 25
8 52 11 61 2 8 6 37 9 65 2 27 7 59 9 71 3 13 8 60 12 105 3 46 9 99 12 118 3
19 7 1666 9 3660 l3 3625 -3156 0 c-1736 0 -3161 -3 -3166 -6z"/>
<path d="M5918 9612 c-2551 -2 -2688 -3 -2689 -20 -5 -102 0 -5137 5 -5192 4
-41 9 -91 11 -110 3 -19 6 -54 9 -78 3 -23 7 -50 10 -60 3 -9 7 -33 10 -52 17
-116 96 -372 158 -515 22 -49 40 -94 41 -100 2 -5 6 -15 9 -21 4 -5 29 -53 57
-106 47 -89 87 -157 111 -185 5 -7 10 -15 10 -18 0 -8 74 -110 82 -113 5 -2 8
-10 8 -17 0 -7 3 -15 8 -17 4 -1 30 -32 57 -67 62 -79 279 -301 360 -368 127
-105 228 -176 383 -270 46 -28 318 -163 329 -163 4 -1 26 -9 48 -20 22 -11 47
-19 56 -20 9 0 19 -3 23 -7 3 -4 12 -8 19 -10 7 -1 65 -18 130 -38 113 -33
133 -39 195 -50 15 -3 50 -10 77 -15 28 -6 68 -13 90 -15 22 -3 50 -7 62 -10
128 -23 488 -23 663 -1 70 9 117 17 140 21 14 3 39 7 55 10 84 15 360 92 410
115 11 5 43 18 70 29 28 10 77 31 110 47 33 15 62 28 65 29 31 6 341 190 348
207 2 4 8 8 13 8 12 0 48 27 203 153 58 46 286 275 326 326 19 24 40 49 45 55
6 6 27 34 47 61 21 28 41 55 46 60 4 6 19 28 32 50 13 22 28 42 32 43 4 2 8
10 8 18 0 8 4 14 9 14 5 0 11 8 15 18 3 9 16 33 28 52 42 68 136 258 130 264
-3 3 0 6 6 6 7 0 11 3 10 8 -1 4 5 23 14 42 56 129 157 465 143 478 -3 3 -1
10 4 16 8 10 12 33 27 141 2 17 6 45 9 64 3 19 8 75 11 125 7 116 8 2145 1
2152 -4 4 -2500 8 -2664 4 -21 0 -21 -1 -20 -233 0 -128 -3 -238 -7 -245 -4
-7 -4 -12 1 -12 7 0 8 -42 4 -160 -1 -14 -1 -95 0 -180 l1 -155 844 0 844 1 1
-31 c0 -16 0 -255 0 -530 0 -476 -3 -602 -16 -670 -21 -112 -29 -149 -52 -225
-14 -47 -25 -86 -25 -87 1 -3 -37 -92 -75 -175 -15 -32 -30 -58 -35 -58 -4 0
-8 -9 -8 -20 0 -11 -4 -20 -10 -20 -5 0 -10 -4 -10 -10 0 -10 -96 -153 -128
-191 -11 -13 -30 -35 -42 -49 -32 -38 -144 -153 -171 -175 -115 -95 -209 -160
-314 -217 -72 -39 -132 -68 -150 -72 -5 -2 -23 -8 -40 -15 -49 -20 -176 -61
-208 -67 -17 -3 -33 -7 -37 -9 -8 -5 -61 -15 -105 -20 -16 -2 -59 -7 -95 -11
-113 -13 -369 -7 -430 11 -8 2 -31 7 -50 9 -19 3 -55 10 -80 17 -25 6 -54 13
-65 15 -31 8 -38 10 -68 22 -16 7 -32 12 -37 12 -13 0 -66 23 -190 83 -105 50
-310 181 -310 198 0 5 -5 9 -11 9 -19 0 -177 156 -258 256 -49 60 -160 231
-158 244 0 3 -11 23 -24 45 -35 56 -112 251 -123 312 -2 10 -9 36 -15 58 -14
53 -22 101 -26 150 -2 22 -5 40 -5 40 -8 0 -17 3631 -11 4155 l1 55 2190 0
2190 0 1 50 c2 174 0 937 -3 938 -1 1 -1212 1 -2690 -1z"/>
</g>
</svg>
