<svg width="16" height="16" viewBox="0 0 16 16" fill="none" xmlns="http://www.w3.org/2000/svg">
<g clip-path="url(#clip0_1_2650)">
<path d="M8.43332 6.66667C7.88332 5.11333 6.40666 4 4.66666 4C2.45666 4 0.666656 5.79 0.666656 8C0.666656 10.21 2.45666 12 4.66666 12C6.40666 12 7.88332 10.8867 8.43332 9.33333H11.3333V12H14V9.33333H15.3333V6.66667H8.43332ZM4.66666 9.33333C3.92999 9.33333 3.33332 8.73667 3.33332 8C3.33332 7.26333 3.92999 6.66667 4.66666 6.66667C5.40332 6.66667 5.99999 7.26333 5.99999 8C5.99999 8.73667 5.40332 9.33333 4.66666 9.33333Z" fill="#BCBCBC"/>
</g>
<defs>
<clipPath id="clip0_1_2650">
<rect width="16" height="16" fill="white"/>
</clipPath>
</defs>
</svg>
